<svg xmlns="http://www.w3.org/2000/svg" width="78" height="78" viewBox="0 0 78 78">
  <g id="Grupo_1055535" data-name="Grupo 1055535" transform="translate(-423 -3706)">
    <circle id="Elipse_4901" data-name="Elipse 4901" cx="39" cy="39" r="39" transform="translate(423 3706)" fill="#c2b0e2"/>
    <g id="pregunta" transform="translate(436.98 3719.98)">
      <path id="Trazado_772204" data-name="Trazado 772204" d="M25.02,0a25.02,25.02,0,1,0,25.02,25.02A25.047,25.047,0,0,0,25.02,0Zm0,0" fill="#ffd54f"/>
      <path id="Trazado_772205" data-name="Trazado 772205" d="M238.838,364.753a2.085,2.085,0,1,1-2.085-2.085A2.085,2.085,0,0,1,238.838,364.753Zm0,0" transform="translate(-211.733 -327.224)" fill="#673ab7"/>
      <path id="Trazado_772206" data-name="Trazado 772206" d="M172.683,103.35a2.094,2.094,0,0,0-1.216,1.9v.936a2.085,2.085,0,1,1-4.17,0v-.936a6.282,6.282,0,0,1,3.638-5.684c2.125-.978,3.659-3.574,3.659-4.848a5.212,5.212,0,0,0-10.425,0,2.085,2.085,0,1,1-4.17,0,9.382,9.382,0,0,1,18.765,0C178.765,97.531,176.321,101.672,172.683,103.35Zm0,0" transform="translate(-144.363 -76.992)" fill="#673ab7"/>
    </g>
  </g>
</svg>
