<svg xmlns="http://www.w3.org/2000/svg" width="84" height="84" viewBox="0 0 84 84">
  <g id="Grupo_1098067" data-name="Grupo 1098067" transform="translate(-180 -7009)">
    <path id="Trazado_838787" data-name="Trazado 838787" d="M42,0A42,42,0,1,1,0,42,42,42,0,0,1,42,0Z" transform="translate(180 7009)" fill="#895cd8"/>
    <path id="Trazado_838788" data-name="Trazado 838788" d="M20.5,0H1.651V-4.082l8.684-9.129q3.21-3.655,3.21-5.808a4.04,4.04,0,0,0-.761-2.653,2.716,2.716,0,0,0-2.208-.909,2.75,2.75,0,0,0-2.319,1.215,5,5,0,0,0-.891,3.034H1.095a8.872,8.872,0,0,1,1.243-4.592,8.718,8.718,0,0,1,3.451-3.293,10.252,10.252,0,0,1,4.936-1.187q4.379,0,6.745,2.022a7.22,7.22,0,0,1,2.366,5.808,8.433,8.433,0,0,1-.594,3.108A13.63,13.63,0,0,1,17.4-13.294a46.505,46.505,0,0,1-4.036,4.444L9.871-4.824H20.5Z" transform="translate(211 7062)" fill="#fff"/>
  </g>
</svg>
