<svg id="patron" xmlns="http://www.w3.org/2000/svg" width="121" height="121" viewBox="0 0 121 121">
  <path id="Trazado_781117" data-name="Trazado 781117" d="M92.777,135.245l-14-4a67.311,67.311,0,0,0-36.557,0l-14,4a3.547,3.547,0,0,1-4.515-3.6l.576-10.677c.929-17.229-5.48-34.221-18.047-47.845L.939,67.38a3.545,3.545,0,0,1,.2-5L23.191,41.944A3.545,3.545,0,0,1,25.6,41H95.4a3.544,3.544,0,0,1,2.409.944l22.055,20.431a3.545,3.545,0,0,1,.2,5l-5.3,5.744C102.2,86.748,95.787,103.74,96.716,120.969l.576,10.677A3.547,3.547,0,0,1,92.777,135.245Z" transform="translate(0 -31.311)" fill="#ffd664"/>
  <path id="Trazado_781118" data-name="Trazado 781118" d="M315.364,62.376,293.309,41.944A3.544,3.544,0,0,0,290.9,41H256v87.712a66.647,66.647,0,0,1,18.279,2.529l14,4a3.547,3.547,0,0,0,4.515-3.6l-.576-10.677c-.929-17.23,5.48-34.221,18.047-47.845l5.3-5.744A3.545,3.545,0,0,0,315.364,62.376Z" transform="translate(-195.5 -31.311)" fill="#ffbb54"/>
  <g id="Grupo_1055025" data-name="Grupo 1055025" transform="translate(56.955)">
    <path id="Trazado_781119" data-name="Trazado 781119" d="M244.545,16.779A3.545,3.545,0,0,1,241,13.234V3.545a3.545,3.545,0,1,1,7.09,0v9.689A3.545,3.545,0,0,1,244.545,16.779Z" transform="translate(-241)" fill="#6576a1"/>
    <path id="Trazado_781120" data-name="Trazado 781120" d="M244.545,127.029A3.545,3.545,0,0,1,241,123.484v-9.689a3.545,3.545,0,1,1,7.09,0v9.689A3.545,3.545,0,0,1,244.545,127.029Z" transform="translate(-241 -84.195)" fill="#6576a1"/>
    <path id="Trazado_781121" data-name="Trazado 781121" d="M244.545,237.279A3.545,3.545,0,0,1,241,233.734v-9.689a3.545,3.545,0,1,1,7.09,0v9.689A3.545,3.545,0,0,1,244.545,237.279Z" transform="translate(-241 -168.39)" fill="#6576a1"/>
    <path id="Trazado_781122" data-name="Trazado 781122" d="M244.545,349.971A3.545,3.545,0,0,1,241,346.426V334.295a3.545,3.545,0,0,1,7.09,0v12.131A3.545,3.545,0,0,1,244.545,349.971Z" transform="translate(-241 -252.584)" fill="#6576a1"/>
    <path id="Trazado_781123" data-name="Trazado 781123" d="M244.545,457.779A3.545,3.545,0,0,1,241,454.234v-9.689a3.545,3.545,0,1,1,7.09,0v9.689A3.545,3.545,0,0,1,244.545,457.779Z" transform="translate(-241 -336.779)" fill="#6576a1"/>
  </g>
  <g id="Grupo_1055026" data-name="Grupo 1055026" transform="translate(60.5)">
    <path id="Trazado_781124" data-name="Trazado 781124" d="M256,0V16.779a3.545,3.545,0,0,0,3.545-3.545V3.545A3.545,3.545,0,0,0,256,0Z" transform="translate(-256)" fill="#52677b"/>
    <path id="Trazado_781125" data-name="Trazado 781125" d="M256,110.25v16.779a3.545,3.545,0,0,0,3.545-3.545v-9.689A3.545,3.545,0,0,0,256,110.25Z" transform="translate(-256 -84.195)" fill="#52677b"/>
    <path id="Trazado_781126" data-name="Trazado 781126" d="M256,220.5v16.779a3.545,3.545,0,0,0,3.545-3.545v-9.689A3.545,3.545,0,0,0,256,220.5Z" transform="translate(-256 -168.39)" fill="#52677b"/>
    <path id="Trazado_781127" data-name="Trazado 781127" d="M256,330.75v19.221a3.545,3.545,0,0,0,3.545-3.545V334.295A3.545,3.545,0,0,0,256,330.75Z" transform="translate(-256 -252.584)" fill="#52677b"/>
    <path id="Trazado_781128" data-name="Trazado 781128" d="M256,441v16.779a3.545,3.545,0,0,0,3.545-3.545v-9.689A3.545,3.545,0,0,0,256,441Z" transform="translate(-256 -336.779)" fill="#52677b"/>
  </g>
</svg>
