<svg xmlns="http://www.w3.org/2000/svg" xmlns:xlink="http://www.w3.org/1999/xlink" width="161" height="161" viewBox="0 0 161 161">
  <defs>
    <filter id="Elipse_4943" x="0" y="0" width="161" height="161" filterUnits="userSpaceOnUse">
      <feOffset dy="3" input="SourceAlpha"/>
      <feGaussianBlur stdDeviation="3" result="blur"/>
      <feFlood flood-opacity="0.161"/>
      <feComposite operator="in" in2="blur"/>
      <feComposite in="SourceGraphic"/>
    </filter>
  </defs>
  <g id="Grupo_1055550" data-name="Grupo 1055550" transform="translate(-1191 -21568.584)">
    <g transform="matrix(1, 0, 0, 1, 1191, 21568.58)" filter="url(#Elipse_4943)">
      <circle id="Elipse_4943-2" data-name="Elipse 4943" cx="71.5" cy="71.5" r="71.5" transform="translate(9 6)" fill="#fff"/>
    </g>
    <g id="consejos-y-trucos" transform="translate(1230.457 21604.584)">
      <path id="Trazado_780987" data-name="Trazado 780987" d="M67.47,78.629,75.864,75.6a39.284,39.284,0,1,0-70.01,6.312l8.522,4.233L24.4,97.637A39.308,39.308,0,0,0,69.081,86.863Z" transform="translate(0 -18.469)" fill="#fef156"/>
      <path id="Trazado_780988" data-name="Trazado 780988" d="M103.488,99.032a2.137,2.137,0,0,0-2.137,2.137v12.474a2.137,2.137,0,0,0,4.275,0V101.169A2.137,2.137,0,0,0,103.488,99.032Z" transform="translate(-85.102 -83.155)" fill="#ffda4c"/>
      <path id="Trazado_780989" data-name="Trazado 780989" d="M86.465,182.016h-10.7a1.058,1.058,0,0,0-1.058,1.058v6.7H87.524v-6.7A1.058,1.058,0,0,0,86.465,182.016Z" transform="translate(-62.728 -152.834)" fill="#6289cd"/>
      <path id="Trazado_780990" data-name="Trazado 780990" d="M68.877,217.737H50.387A1.266,1.266,0,0,0,49.121,219V247.19l21.022-2.327V219A1.266,1.266,0,0,0,68.877,217.737Z" transform="translate(-41.246 -182.829)" fill="#5071b7"/>
      <path id="Trazado_780991" data-name="Trazado 780991" d="M154.55,342.353s-7.864-5.365-13.924-.1a16.17,16.17,0,0,1-4.031,2.592l-2.493,1.108.127,8.558,6.223,5.727,3.63-1.614a5.907,5.907,0,0,1,2.294-.507l1.516-.027a11.17,11.17,0,0,0,4.34-.96l1.589-.707Z" transform="translate(-112.601 -285.44)" fill="#fc9460"/>
      <path id="Trazado_780992" data-name="Trazado 780992" d="M167.493,296.18l-.843-5.713c-.1-1.138-.819-3.13-1.775-3.741a3.623,3.623,0,0,0-.643-.328,2.8,2.8,0,0,0-2.256-.046l.7,2.973-1.2,1.84.25,1.285a5.572,5.572,0,0,1-.819,3.954c-.372.585-.717,1.148-1.023,1.662a3.65,3.65,0,0,0,.461,4.5,3.779,3.779,0,0,0,5.839-.926A9.908,9.908,0,0,0,167.493,296.18Z" transform="translate(-133.776 -240.26)" fill="#ffaa7b"/>
      <path id="Trazado_780993" data-name="Trazado 780993" d="M214.1,315.542a2.439,2.439,0,0,0-3.21-1.234l-.836.372a2.431,2.431,0,0,0-2.242-4.3l-7.453,3.313a2.431,2.431,0,0,0,1.785,4.518,2.431,2.431,0,0,0,2.158,4.352,2.431,2.431,0,0,0,1.785,4.518,2.431,2.431,0,0,0,2.158,4.352l7.453-3.313A2.431,2.431,0,0,0,214,323.568l.836-.372a2.432,2.432,0,0,0-1.976-4.444,2.439,2.439,0,0,0,1.234-3.21Z" transform="translate(-167.021 -260.44)" fill="#ffc7ab"/>
      <path id="Trazado_780994" data-name="Trazado 780994" d="M228.6,0H216.448a6.7,6.7,0,0,0-6.682,6.682V43.57a4.178,4.178,0,0,0,7.156,2.93l3.393-3.448a3.592,3.592,0,0,1,2.561-1.073h6.039l9.568-20.118Z" transform="translate(-176.135)" fill="#27a6ff"/>
      <path id="Trazado_780995" data-name="Trazado 780995" d="M334.22,35.3V6.682A6.7,6.7,0,0,0,327.538,0H304.6a6.839,6.839,0,0,0-4.324,6.339V35.525a6.841,6.841,0,0,0,4.638,6.455h22.624A6.7,6.7,0,0,0,334.22,35.3Z" transform="translate(-252.135)" fill="#02c0fc"/>
      <path id="Trazado_780996" data-name="Trazado 780996" d="M309.993,35.768a9.389,9.389,0,0,0-9.717,9.693,11.239,11.239,0,0,0,2.012,6.478,24.936,24.936,0,0,1,3.294,6.535l4.411,1.1,4.411-1.1a24.941,24.941,0,0,1,3.294-6.535,11.239,11.239,0,0,0,2.012-6.478A9.389,9.389,0,0,0,309.993,35.768Z" transform="translate(-252.135 -30.034)" fill="#fef156"/>
      <path id="Trazado_780997" data-name="Trazado 780997" d="M335.7,105.7h-7.549a1.769,1.769,0,0,0-1.788,1.7,1.731,1.731,0,0,0,1.731,1.764h.978a1.094,1.094,0,0,1,1.094,1.094v5.3a1.769,1.769,0,0,0,1.7,1.788,1.731,1.731,0,0,0,1.764-1.731v-5.359a1.094,1.094,0,0,1,1.094-1.094h.92a1.769,1.769,0,0,0,1.788-1.7A1.731,1.731,0,0,0,335.7,105.7Z" transform="translate(-274.039 -88.751)" fill="#fea53d"/>
      <g id="Grupo_1054966" data-name="Grupo 1054966" transform="translate(55.796 31.475)">
        <path id="Trazado_780998" data-name="Trazado 780998" d="M348.023,196.324v3.4a2.062,2.062,0,1,0,4.124,0v-3.4Z" transform="translate(-348.023 -196.324)" fill="#3f57a0"/>
      </g>
      <path id="Trazado_780999" data-name="Trazado 780999" d="M337.372,172.263l-4.489,1.923a19.468,19.468,0,0,1,.941,2.98,1.144,1.144,0,0,0,1.117.891H339.8a1.144,1.144,0,0,0,1.117-.891,19.465,19.465,0,0,1,.941-2.98Z" transform="translate(-279.514 -144.645)" fill="#bbf0f9"/>
      <g id="Grupo_1054967" data-name="Grupo 1054967" transform="translate(39.71 21.322)">
        <path id="Trazado_781000" data-name="Trazado 781000" d="M254.447,134.53a1.782,1.782,0,0,0-2.012-1.519l-3.192.4a1.782,1.782,0,0,0,.445,3.536l3.24-.408A1.782,1.782,0,0,0,254.447,134.53Z" transform="translate(-247.684 -132.994)" fill="#ffda4c"/>
        <path id="Trazado_781001" data-name="Trazado 781001" d="M267,172.611a1.782,1.782,0,0,0-2.484-.431l-3.581,2.543A1.782,1.782,0,1,0,263,177.63l3.571-2.535A1.782,1.782,0,0,0,267,172.611Z" transform="translate(-258.178 -165.625)" fill="#ffda4c"/>
      </g>
      <g id="Grupo_1054968" data-name="Grupo 1054968" transform="translate(66.862 21.322)">
        <path id="Trazado_781002" data-name="Trazado 781002" d="M431.8,134.53a1.782,1.782,0,0,1,2.012-1.519l3.192.4a1.782,1.782,0,0,1-.445,3.536l-3.24-.408A1.782,1.782,0,0,1,431.8,134.53Z" transform="translate(-429.423 -132.994)" fill="#fef156"/>
        <path id="Trazado_781003" data-name="Trazado 781003" d="M417.369,172.611a1.782,1.782,0,0,1,2.484-.431l3.581,2.543a1.782,1.782,0,1,1-2.064,2.907l-3.571-2.535A1.782,1.782,0,0,1,417.369,172.611Z" transform="translate(-417.043 -165.625)" fill="#fef156"/>
      </g>
      <g id="Grupo_1054969" data-name="Grupo 1054969" transform="translate(11.904 40.088)">
        <path id="Trazado_781004" data-name="Trazado 781004" d="M87.213,251.607a1.566,1.566,0,0,0-1.566-1.566H75.814a1.566,1.566,0,1,0,0,3.131h9.834A1.565,1.565,0,0,0,87.213,251.607Z" transform="translate(-74.248 -250.041)" fill="#6289cd"/>
        <path id="Trazado_781005" data-name="Trazado 781005" d="M87.213,291.481a1.566,1.566,0,0,0-1.566-1.566H75.814a1.566,1.566,0,1,0,0,3.131h9.834A1.566,1.566,0,0,0,87.213,291.481Z" transform="translate(-74.248 -283.522)" fill="#6289cd"/>
        <path id="Trazado_781006" data-name="Trazado 781006" d="M87.213,331.355a1.566,1.566,0,0,0-1.566-1.566H75.814a1.566,1.566,0,1,0,0,3.131h9.834A1.566,1.566,0,0,0,87.213,331.355Z" transform="translate(-74.248 -317.003)" fill="#6289cd"/>
      </g>
      <path id="Trazado_781007" data-name="Trazado 781007" d="M119.932,415.311l-4-9-7.655,3.564,6.653,9.232,4.277-1.9A1.437,1.437,0,0,0,119.932,415.311Z" transform="translate(-90.916 -341.166)" fill="#bbf0f9"/>
      <path id="Trazado_781008" data-name="Trazado 781008" d="M105.775,374.9l-2.288-5.146a1.437,1.437,0,0,0-1.891-.727l-4.277,1.9-1.138,4.509,4.488,3.026,4.138-1.84A1.661,1.661,0,0,0,105.775,374.9Z" transform="translate(-80.761 -309.762)" fill="#e8f8fc"/>
      <path id="Trazado_781009" data-name="Trazado 781009" d="M97.707,435.085l-4.334-9.748-4.488-.61-1.393,4.794a39.266,39.266,0,0,0,10.377,6.28A1.9,1.9,0,0,0,97.707,435.085Z" transform="translate(-73.465 -356.633)" fill="#27a6ff"/>
      <path id="Trazado_781010" data-name="Trazado 781010" d="M44.69,385.617c1.262-.46,2.729-.993,3.72-1.35a3.3,3.3,0,0,0,2.161-2.834l-3.49-7.852a1.93,1.93,0,0,0-2.54-.977l-8.024,3.567A39.473,39.473,0,0,0,44.69,385.617Z" transform="translate(-30.662 -312.729)" fill="#02c0fc"/>
      <path id="Trazado_781011" data-name="Trazado 781011" d="M356.366,314.477l-2.606-9.405a10.225,10.225,0,1,0,6.194,19.484,39.51,39.51,0,0,0,2.521-3.265Z" transform="translate(-290.874 -256.162)" fill="#3ecd8d"/>
      <path id="Trazado_781012" data-name="Trazado 781012" d="M169.946,290.192l.41,2.107a5.208,5.208,0,0,0,1.992-.613.823.823,0,0,0,.448-.824c-.04-.305-.109-.771-.226-1.461a2.742,2.742,0,0,0-1.71-1.914C170.174,287.847,169.753,288.682,169.946,290.192Z" transform="translate(-142.66 -241.396)" fill="#e8f8fc"/>
      <path id="Trazado_781013" data-name="Trazado 781013" d="M329.439,158.537h-9.745a2.062,2.062,0,0,0,0,4.124h9.745a2.062,2.062,0,0,0,0-4.124Z" transform="translate(-266.709 -133.12)" fill="#e8f8fc"/>
      <path id="Trazado_781014" data-name="Trazado 781014" d="M384.9,302.495a10.22,10.22,0,0,0-2.877.413,10.223,10.223,0,0,0,8.274,16.23c.148,0,.295,0,.442-.011a39.169,39.169,0,0,0,4.263-8A10.227,10.227,0,0,0,384.9,302.495Z" transform="translate(-319.14 -253.998)" fill="#95db76"/>
      <g id="Grupo_1054970" data-name="Grupo 1054970" transform="translate(60.935 55.625)">
        <path id="Trazado_781015" data-name="Trazado 781015" d="M383.477,352.9a1.971,1.971,0,1,0-2.856,2.717l2.595,2.715,2.117-3.473Z" transform="translate(-380.075 -351.429)" fill="#bbf0f9"/>
        <path id="Trazado_781016" data-name="Trazado 781016" d="M403.033,347.529a1.976,1.976,0,0,0-2.795,0l-3.482,3.482a2.021,2.021,0,0,0-.138,2.746,1.976,1.976,0,0,0,2.885.1l3.53-3.53A1.976,1.976,0,0,0,403.033,347.529Z" transform="translate(-393.569 -346.951)" fill="#e8f8fc"/>
      </g>
    </g>
  </g>
</svg>
