<svg xmlns="http://www.w3.org/2000/svg" width="84" height="84" viewBox="0 0 84 84">
  <g id="Grupo_1098068" data-name="Grupo 1098068" transform="translate(-180 -7118)">
    <path id="Trazado_838785" data-name="Trazado 838785" d="M42,0A42,42,0,1,1,0,42,42,42,0,0,1,42,0Z" transform="translate(180 7118)" fill="#895cd8"/>
    <path id="Trazado_838786" data-name="Trazado 838786" d="M7.366-16.124h2.95q3.507,0,3.507-3.433a2.968,2.968,0,0,0-.835-2.18,3.166,3.166,0,0,0-2.356-.844,3.39,3.39,0,0,0-2.162.724,2.208,2.208,0,0,0-.918,1.8H1.3a6.4,6.4,0,0,1,1.188-3.8A7.842,7.842,0,0,1,5.78-26.468a11.26,11.26,0,0,1,4.629-.937,11.064,11.064,0,0,1,7.088,2.06,6.847,6.847,0,0,1,2.579,5.659,5.707,5.707,0,0,1-1.067,3.293A7.6,7.6,0,0,1,15.9-13.879a7.263,7.263,0,0,1,3.377,2.366A6.23,6.23,0,0,1,20.5-7.589,6.971,6.971,0,0,1,17.72-1.8,11.553,11.553,0,0,1,10.409.371,11.981,11.981,0,0,1,5.483-.64a7.718,7.718,0,0,1-3.442-2.8A7.284,7.284,0,0,1,.872-7.515h6.29a2.815,2.815,0,0,0,1,2.152,3.537,3.537,0,0,0,2.468.909,3.705,3.705,0,0,0,2.635-.918,3.07,3.07,0,0,0,.983-2.347,3.589,3.589,0,0,0-1.021-2.895,4.266,4.266,0,0,0-2.82-.854H7.366Z" transform="translate(211 7175)" fill="#fff"/>
  </g>
</svg>
