<svg xmlns="http://www.w3.org/2000/svg" width="101" height="101" viewBox="0 0 101 101">
  <g id="Grupo_1055531" data-name="Grupo 1055531" transform="translate(-750 -1883)">
    <circle id="Elipse_1147" data-name="Elipse 1147" cx="50.5" cy="50.5" r="50.5" transform="translate(750 1883)" fill="#ffd54f"/>
    <path id="Trazado_782919" data-name="Trazado 782919" d="M19,21H15.7V10.492l-3.242.947v-2.5L18.7,6.781H19Zm10.771-5.5a3.476,3.476,0,0,1-2.383.957,3.847,3.847,0,0,1-3.066-1.309,5.156,5.156,0,0,1-1.133-3.5,5.247,5.247,0,0,1,.635-2.539A4.763,4.763,0,0,1,25.606,7.26a4.859,4.859,0,0,1,2.534-.684,4.717,4.717,0,0,1,2.544.708,4.767,4.767,0,0,1,1.772,2,6.877,6.877,0,0,1,.654,2.983v1.26a8.548,8.548,0,0,1-.923,4.082,6.371,6.371,0,0,1-2.632,2.656,8.224,8.224,0,0,1-3.984.928h-.205V18.559l.625-.01Q29.391,18.383,29.771,15.5Zm-1.494-1.416a1.6,1.6,0,0,0,1.543-.928V11.791a3.555,3.555,0,0,0-.459-2.021,1.44,1.44,0,0,0-1.24-.654,1.361,1.361,0,0,0-1.162.742,3.3,3.3,0,0,0-.469,1.8,2.956,2.956,0,0,0,.479,1.772A1.531,1.531,0,0,0,28.277,14.086ZM41.354,15.5a3.476,3.476,0,0,1-2.383.957A3.847,3.847,0,0,1,35.9,15.15a5.156,5.156,0,0,1-1.133-3.5,5.247,5.247,0,0,1,.635-2.539A4.763,4.763,0,0,1,37.188,7.26a4.859,4.859,0,0,1,2.534-.684,4.717,4.717,0,0,1,2.544.708,4.767,4.767,0,0,1,1.772,2,6.877,6.877,0,0,1,.654,2.983v1.26a8.548,8.548,0,0,1-.923,4.082,6.371,6.371,0,0,1-2.632,2.656,8.224,8.224,0,0,1-3.984.928h-.205V18.559l.625-.01Q40.973,18.383,41.354,15.5Zm-1.494-1.416a1.6,1.6,0,0,0,1.543-.928V11.791a3.555,3.555,0,0,0-.459-2.021,1.44,1.44,0,0,0-1.24-.654,1.361,1.361,0,0,0-1.162.742,3.3,3.3,0,0,0-.469,1.8,2.956,2.956,0,0,0,.479,1.772A1.531,1.531,0,0,0,39.859,14.086ZM53.746,21h-3.3V10.492l-3.242.947v-2.5l6.24-2.158h.3Z" transform="translate(766 1920)" fill="#12263f"/>
  </g>
</svg>
