<svg xmlns="http://www.w3.org/2000/svg" xmlns:xlink="http://www.w3.org/1999/xlink" width="161" height="161" viewBox="0 0 161 161">
  <defs>
    <filter id="Elipse_4936" x="0" y="0" width="161" height="161" filterUnits="userSpaceOnUse">
      <feOffset dy="3" input="SourceAlpha"/>
      <feGaussianBlur stdDeviation="3" result="blur"/>
      <feFlood flood-opacity="0.161"/>
      <feComposite operator="in" in2="blur"/>
      <feComposite in="SourceGraphic"/>
    </filter>
  </defs>
  <g id="Grupo_1055541" data-name="Grupo 1055541" transform="translate(-1215 -11386)">
    <g transform="matrix(1, 0, 0, 1, 1215, 11386)" filter="url(#Elipse_4936)">
      <circle id="Elipse_4936-2" data-name="Elipse 4936" cx="71.5" cy="71.5" r="71.5" transform="translate(9 6)" fill="#fff"/>
    </g>
    <g id="grafico" transform="translate(1254 11422)">
      <g id="Grupo_45616" data-name="Grupo 45616" transform="translate(0 0)">
        <g id="Grupo_45615" data-name="Grupo 45615" transform="translate(0 0)">
          <g id="Grupo_45613" data-name="Grupo 45613" transform="translate(0 46.316)">
            <g id="Grupo_45612" data-name="Grupo 45612">
              <g id="Grupo_45611" data-name="Grupo 45611">
                <g id="Grupo_45610" data-name="Grupo 45610">
                  <g id="Grupo_45609" data-name="Grupo 45609">
                    <g id="Grupo_45608" data-name="Grupo 45608" transform="translate(6.832 4.535)">
                      <g id="Grupo_45607" data-name="Grupo 45607">
                        <path id="Trazado_30705" data-name="Trazado 30705" d="M88.2,331.8l-.465-.383v-1.79l.483-.334.01-1.311a6.835,6.835,0,0,0-5.844-6.091l-14.334-1.65c-3.307-.468-4.959-1.576-7.841-3.262a25.69,25.69,0,0,0-12.972-3.515H42.1v19.083l18.735,6.974a14.256,14.256,0,0,0,4.973.9H85.118a14.256,14.256,0,0,0,7.631-2.214l11.077-7.019c2.425-1.536,4.794-3.462,4.847-8.394Z" transform="translate(-42.101 -313.463)" fill="#ffddce"/>
                        <path id="Trazado_30706" data-name="Trazado 30706" d="M65.81,383.5H85.118a14.256,14.256,0,0,0,7.631-2.214l24.176-15.319a4.243,4.243,0,0,0,.691-5.56c-1.313-1.93-3.485-2.265-5.875-1.135l-3.976,1.751a8.473,8.473,0,0,1-3.938,7.158L92.748,375.2a14.257,14.257,0,0,1-7.631,2.214H65.81a14.256,14.256,0,0,1-4.973-.9L42.1,369.541v6.086L60.836,382.6A14.257,14.257,0,0,0,65.81,383.5Z" transform="translate(-42.101 -351.294)" fill="#ffcbbe"/>
                        <g id="Grupo_45606" data-name="Grupo 45606" transform="translate(44.371 10.585)">
                          <path id="Trazado_30707" data-name="Trazado 30707" d="M315.549,378.7v.092l.061-.027Z" transform="translate(-315.548 -378.695)" fill="#f5dbcc"/>
                        </g>
                      </g>
                    </g>
                    <path id="Trazado_30708" data-name="Trazado 30708" d="M10.863,318.117A2.461,2.461,0,0,1,8.4,320.578H2.461A2.461,2.461,0,0,1,0,318.117V287.978a2.461,2.461,0,0,1,2.461-2.461H8.4a2.461,2.461,0,0,1,2.461,2.461Z" transform="translate(0 -285.517)" fill="#407093"/>
                  </g>
                </g>
              </g>
            </g>
          </g>
          <g id="Grupo_45614" data-name="Grupo 45614" transform="translate(17.353)">
            <path id="Trazado_30709" data-name="Trazado 30709" d="M144.952,26.821A24.768,24.768,0,0,0,128.1,3.352a4.362,4.362,0,0,0-2.36-.115,24.067,24.067,0,0,0-8.535,3.8L112.829,11a24.192,24.192,0,0,0,12.909,39.4,4.359,4.359,0,0,0,2.358-.116,24.768,24.768,0,0,0,16.855-23.469Z" transform="translate(-106.939 -2.633)" fill="#e28086"/>
            <path id="Trazado_30710" data-name="Trazado 30710" d="M228.674.085a24.257,24.257,0,0,0-5.293.583,24.193,24.193,0,0,1,0,47.211A24.189,24.189,0,1,0,228.674.085Z" transform="translate(-204.486 -0.085)" fill="#dd636e"/>
            <path id="Trazado_30711" data-name="Trazado 30711" d="M202.1,94.585l.723-13.445a.614.614,0,0,0-.646-.646l-13.445.723a.614.614,0,0,0-.4,1.047l2.963,2.964a.614.614,0,0,1,0,.868L181.207,96.188a.614.614,0,0,0,0,.868l5.06,5.06a.614.614,0,0,0,.868,0l10.092-10.092a.614.614,0,0,1,.868,0l2.964,2.964A.614.614,0,0,0,202.1,94.585Z" transform="translate(-169.005 -67.446)" fill="#f4fbff"/>
          </g>
        </g>
      </g>
      <path id="Trazado_30712" data-name="Trazado 30712" d="M223.978,406.375H209.81a1.217,1.217,0,1,0,0,2.434h14.168Z" transform="translate(-174.745 -340.448)" fill="#ffcbbe"/>
    </g>
  </g>
</svg>
