<svg xmlns="http://www.w3.org/2000/svg" width="115.714" height="114.75" viewBox="0 0 115.714 114.75">
  <g id="patron-de-tela" transform="translate(-1 -3.14)">
    <g id="Grupo_1054976" data-name="Grupo 1054976" transform="translate(1 43.685)">
      <path id="Trazado_781069" data-name="Trazado 781069" d="M406.78,332.03h23.646v37.7H406.78Z" transform="translate(-314.713 -297.953)" fill="#85b9ad"/>
      <path id="Trazado_781070" data-name="Trazado 781070" d="M209.4,240.707l-13.248-3-13.248,3L172.76,259.435l8.488,38.573h29.809l8.488-38.574Z" transform="translate(-133.789 -225.034)" fill="#85b9ad"/>
      <path id="Trazado_781071" data-name="Trazado 781071" d="M34.639,194.959v61.085H1a134.022,134.022,0,0,0,2.146-21.2A134.792,134.792,0,0,0,1,207.789c6.131-4.524,10.06-14.7,9.781-21.634l13.961-4.315a24.812,24.812,0,0,0,3.873,7.68A20.834,20.834,0,0,0,34.639,194.959Z" transform="translate(-1 -181.84)" fill="#85b9ad"/>
    </g>
    <g id="Grupo_1054986" data-name="Grupo 1054986" transform="translate(16.528 44.817)">
      <g id="Grupo_1054977" data-name="Grupo 1054977" transform="translate(0)">
        <path id="Trazado_781072" data-name="Trazado 781072" d="M70.731,191.971a1.29,1.29,0,0,1-1.291-1.291v-2.559a1.291,1.291,0,0,1,2.582,0v2.559A1.29,1.29,0,0,1,70.731,191.971Z" transform="translate(-69.44 -186.83)" fill="#5c9e8f"/>
      </g>
      <g id="Grupo_1054978" data-name="Grupo 1054978" transform="translate(0 8.35)">
        <path id="Trazado_781073" data-name="Trazado 781073" d="M70.731,228.771a1.29,1.29,0,0,1-1.291-1.291v-2.559a1.291,1.291,0,0,1,2.582,0v2.559A1.29,1.29,0,0,1,70.731,228.771Z" transform="translate(-69.44 -223.63)" fill="#5c9e8f"/>
      </g>
      <g id="Grupo_1054979" data-name="Grupo 1054979" transform="translate(0 16.699)">
        <path id="Trazado_781074" data-name="Trazado 781074" d="M70.731,265.571a1.29,1.29,0,0,1-1.291-1.291v-2.559a1.291,1.291,0,1,1,2.582,0v2.559A1.289,1.289,0,0,1,70.731,265.571Z" transform="translate(-69.44 -260.43)" fill="#5c9e8f"/>
      </g>
      <g id="Grupo_1054980" data-name="Grupo 1054980" transform="translate(0 25.049)">
        <path id="Trazado_781075" data-name="Trazado 781075" d="M70.731,302.371a1.29,1.29,0,0,1-1.291-1.291v-2.559a1.291,1.291,0,1,1,2.582,0v2.559A1.289,1.289,0,0,1,70.731,302.371Z" transform="translate(-69.44 -297.23)" fill="#5c9e8f"/>
      </g>
      <g id="Grupo_1054981" data-name="Grupo 1054981" transform="translate(0 33.398)">
        <path id="Trazado_781076" data-name="Trazado 781076" d="M70.731,339.171a1.29,1.29,0,0,1-1.291-1.291v-2.559a1.291,1.291,0,1,1,2.582,0v2.559A1.289,1.289,0,0,1,70.731,339.171Z" transform="translate(-69.44 -334.03)" fill="#5c9e8f"/>
      </g>
      <g id="Grupo_1054982" data-name="Grupo 1054982" transform="translate(0 41.75)">
        <path id="Trazado_781077" data-name="Trazado 781077" d="M70.731,375.981a1.29,1.29,0,0,1-1.291-1.291v-2.559a1.291,1.291,0,0,1,2.582,0v2.559A1.29,1.29,0,0,1,70.731,375.981Z" transform="translate(-69.44 -370.84)" fill="#5c9e8f"/>
      </g>
      <g id="Grupo_1054983" data-name="Grupo 1054983" transform="translate(0 50.099)">
        <path id="Trazado_781078" data-name="Trazado 781078" d="M70.731,412.781a1.29,1.29,0,0,1-1.291-1.291v-2.559a1.291,1.291,0,0,1,2.582,0v2.559A1.29,1.29,0,0,1,70.731,412.781Z" transform="translate(-69.44 -407.64)" fill="#5c9e8f"/>
      </g>
      <g id="Grupo_1054984" data-name="Grupo 1054984" transform="translate(0 58.449)">
        <path id="Trazado_781079" data-name="Trazado 781079" d="M70.731,449.581a1.29,1.29,0,0,1-1.291-1.291v-2.559a1.291,1.291,0,1,1,2.582,0v2.559A1.29,1.29,0,0,1,70.731,449.581Z" transform="translate(-69.44 -444.44)" fill="#5c9e8f"/>
      </g>
      <g id="Grupo_1054985" data-name="Grupo 1054985" transform="translate(0 66.799)">
        <path id="Trazado_781080" data-name="Trazado 781080" d="M70.731,486.381a1.29,1.29,0,0,1-1.291-1.291v-2.559a1.291,1.291,0,0,1,2.582,0v2.559A1.289,1.289,0,0,1,70.731,486.381Z" transform="translate(-69.44 -481.24)" fill="#5c9e8f"/>
      </g>
    </g>
    <g id="Grupo_1054991" data-name="Grupo 1054991" transform="translate(4.059 91.783)">
      <g id="Grupo_1054987" data-name="Grupo 1054987" transform="translate(0)">
        <path id="Trazado_781081" data-name="Trazado 781081" d="M18.31,396.414H15.75a1.292,1.292,0,0,1,0-2.584H18.31A1.292,1.292,0,0,1,18.31,396.414Z" transform="translate(-14.482 -393.83)" fill="#5c9e8f"/>
      </g>
      <g id="Grupo_1054988" data-name="Grupo 1054988" transform="translate(8.35)">
        <path id="Trazado_781082" data-name="Trazado 781082" d="M55.11,396.414H52.55a1.292,1.292,0,0,1,0-2.584H55.11A1.292,1.292,0,0,1,55.11,396.414Z" transform="translate(-51.283 -393.83)" fill="#5c9e8f"/>
      </g>
      <g id="Grupo_1054989" data-name="Grupo 1054989" transform="translate(16.701)">
        <path id="Trazado_781083" data-name="Trazado 781083" d="M91.917,396.414H89.36a1.292,1.292,0,0,1,0-2.584H91.92A1.292,1.292,0,0,1,91.917,396.414Z" transform="translate(-88.092 -393.83)" fill="#5c9e8f"/>
      </g>
      <g id="Grupo_1054990" data-name="Grupo 1054990" transform="translate(25.051)">
        <path id="Trazado_781084" data-name="Trazado 781084" d="M128.72,396.414H126.16a1.292,1.292,0,0,1,0-2.584h2.559A1.292,1.292,0,0,1,128.72,396.414Z" transform="translate(-124.893 -393.83)" fill="#5c9e8f"/>
      </g>
    </g>
    <g id="Grupo_1055001" data-name="Grupo 1055001" transform="translate(62.226 55.073)">
      <g id="Grupo_1054992" data-name="Grupo 1054992">
        <path id="Trazado_781085" data-name="Trazado 781085" d="M272.141,236.8a1.29,1.29,0,0,1-1.291-1.291v-2.187a1.291,1.291,0,1,1,2.582,0v2.187A1.29,1.29,0,0,1,272.141,236.8Z" transform="translate(-270.85 -232.03)" fill="#5c9e8f"/>
      </g>
      <g id="Grupo_1054993" data-name="Grupo 1054993" transform="translate(0 7.133)">
        <path id="Trazado_781086" data-name="Trazado 781086" d="M272.141,268.237a1.29,1.29,0,0,1-1.291-1.291v-2.185a1.291,1.291,0,1,1,2.582,0v2.185A1.289,1.289,0,0,1,272.141,268.237Z" transform="translate(-270.85 -263.47)" fill="#5c9e8f"/>
      </g>
      <g id="Grupo_1054994" data-name="Grupo 1054994" transform="translate(0 14.265)">
        <path id="Trazado_781087" data-name="Trazado 781087" d="M272.141,299.669a1.29,1.29,0,0,1-1.291-1.291v-2.187a1.291,1.291,0,1,1,2.582,0v2.187A1.289,1.289,0,0,1,272.141,299.669Z" transform="translate(-270.85 -294.9)" fill="#5c9e8f"/>
      </g>
      <g id="Grupo_1054995" data-name="Grupo 1054995" transform="translate(0 21.398)">
        <path id="Trazado_781088" data-name="Trazado 781088" d="M272.141,331.109a1.29,1.29,0,0,1-1.291-1.291v-2.187a1.291,1.291,0,1,1,2.582,0v2.187A1.29,1.29,0,0,1,272.141,331.109Z" transform="translate(-270.85 -326.34)" fill="#5c9e8f"/>
      </g>
      <g id="Grupo_1054996" data-name="Grupo 1054996" transform="translate(0 28.531)">
        <path id="Trazado_781089" data-name="Trazado 781089" d="M272.141,362.549a1.29,1.29,0,0,1-1.291-1.291v-2.187a1.291,1.291,0,1,1,2.582,0v2.187A1.29,1.29,0,0,1,272.141,362.549Z" transform="translate(-270.85 -357.78)" fill="#5c9e8f"/>
      </g>
      <g id="Grupo_1054997" data-name="Grupo 1054997" transform="translate(0 35.665)">
        <path id="Trazado_781090" data-name="Trazado 781090" d="M272.141,393.987a1.29,1.29,0,0,1-1.291-1.291v-2.185a1.291,1.291,0,1,1,2.582,0V392.7A1.289,1.289,0,0,1,272.141,393.987Z" transform="translate(-270.85 -389.22)" fill="#5c9e8f"/>
      </g>
      <g id="Grupo_1054998" data-name="Grupo 1054998" transform="translate(0 42.798)">
        <path id="Trazado_781091" data-name="Trazado 781091" d="M272.141,425.429a1.29,1.29,0,0,1-1.291-1.291v-2.187a1.291,1.291,0,1,1,2.582,0v2.187A1.29,1.29,0,0,1,272.141,425.429Z" transform="translate(-270.85 -420.66)" fill="#5c9e8f"/>
      </g>
      <g id="Grupo_1054999" data-name="Grupo 1054999" transform="translate(0 49.929)">
        <path id="Trazado_781092" data-name="Trazado 781092" d="M272.141,456.859a1.29,1.29,0,0,1-1.291-1.291v-2.187a1.291,1.291,0,1,1,2.582,0v2.187A1.289,1.289,0,0,1,272.141,456.859Z" transform="translate(-270.85 -452.09)" fill="#5c9e8f"/>
      </g>
      <g id="Grupo_1055000" data-name="Grupo 1055000" transform="translate(0 57.063)">
        <path id="Trazado_781093" data-name="Trazado 781093" d="M272.141,488.3a1.29,1.29,0,0,1-1.291-1.291v-2.187a1.291,1.291,0,1,1,2.582,0v2.187A1.29,1.29,0,0,1,272.141,488.3Z" transform="translate(-270.85 -483.53)" fill="#5c9e8f"/>
      </g>
    </g>
    <g id="Grupo_1055008" data-name="Grupo 1055008" transform="translate(103.599 76.475)">
      <g id="Grupo_1055002" data-name="Grupo 1055002" transform="translate(0.002)">
        <path id="Trazado_781094" data-name="Trazado 781094" d="M454.5,330.984a1.29,1.29,0,0,1-1.291-1.291v-2.042a1.291,1.291,0,0,1,2.582,0v2.042A1.289,1.289,0,0,1,454.5,330.984Z" transform="translate(-453.21 -326.36)" fill="#5c9e8f"/>
      </g>
      <g id="Grupo_1055003" data-name="Grupo 1055003" transform="translate(0 6.981)">
        <path id="Trazado_781095" data-name="Trazado 781095" d="M454.491,361.9a1.29,1.29,0,0,1-1.291-1.291v-2.187a1.291,1.291,0,0,1,2.582,0v2.187A1.289,1.289,0,0,1,454.491,361.9Z" transform="translate(-453.2 -357.13)" fill="#5c9e8f"/>
      </g>
      <g id="Grupo_1055004" data-name="Grupo 1055004" transform="translate(0 14.115)">
        <path id="Trazado_781096" data-name="Trazado 781096" d="M454.491,393.339a1.29,1.29,0,0,1-1.291-1.291v-2.187a1.291,1.291,0,0,1,2.582,0v2.187A1.29,1.29,0,0,1,454.491,393.339Z" transform="translate(-453.2 -388.57)" fill="#5c9e8f"/>
      </g>
      <g id="Grupo_1055005" data-name="Grupo 1055005" transform="translate(0 21.25)">
        <path id="Trazado_781097" data-name="Trazado 781097" d="M454.491,424.787A1.29,1.29,0,0,1,453.2,423.5v-2.185a1.291,1.291,0,0,1,2.582,0V423.5A1.29,1.29,0,0,1,454.491,424.787Z" transform="translate(-453.2 -420.02)" fill="#5c9e8f"/>
      </g>
      <g id="Grupo_1055006" data-name="Grupo 1055006" transform="translate(0 28.382)">
        <path id="Trazado_781098" data-name="Trazado 781098" d="M454.491,456.219a1.29,1.29,0,0,1-1.291-1.291v-2.187a1.291,1.291,0,0,1,2.582,0v2.187A1.29,1.29,0,0,1,454.491,456.219Z" transform="translate(-453.2 -451.45)" fill="#5c9e8f"/>
      </g>
      <g id="Grupo_1055007" data-name="Grupo 1055007" transform="translate(0 35.513)">
        <path id="Trazado_781099" data-name="Trazado 781099" d="M454.491,487.649a1.29,1.29,0,0,1-1.291-1.291v-2.187a1.291,1.291,0,0,1,2.582,0v2.187A1.289,1.289,0,0,1,454.491,487.649Z" transform="translate(-453.2 -482.88)" fill="#5c9e8f"/>
      </g>
    </g>
    <g id="Grupo_1055015" data-name="Grupo 1055015" transform="translate(44.149 77.562)">
      <g id="Grupo_1055009" data-name="Grupo 1055009">
        <path id="Trazado_781100" data-name="Trazado 781100" d="M194.537,333.734h-2.094a1.292,1.292,0,0,1,0-2.584h2.094A1.292,1.292,0,0,1,194.537,333.734Z" transform="translate(-191.176 -331.15)" fill="#5c9e8f"/>
      </g>
      <g id="Grupo_1055010" data-name="Grupo 1055010" transform="translate(6.829)">
        <path id="Trazado_781101" data-name="Trazado 781101" d="M224.637,333.734h-2.094a1.292,1.292,0,0,1,0-2.584h2.094A1.292,1.292,0,0,1,224.637,333.734Z" transform="translate(-221.276 -331.15)" fill="#5c9e8f"/>
      </g>
      <g id="Grupo_1055011" data-name="Grupo 1055011" transform="translate(13.661)">
        <path id="Trazado_781102" data-name="Trazado 781102" d="M254.747,333.734h-2.094a1.292,1.292,0,0,1,0-2.584h2.094A1.292,1.292,0,0,1,254.747,333.734Z" transform="translate(-251.386 -331.15)" fill="#5c9e8f"/>
      </g>
      <g id="Grupo_1055012" data-name="Grupo 1055012" transform="translate(20.493)">
        <path id="Trazado_781103" data-name="Trazado 781103" d="M284.857,333.734h-2.094a1.292,1.292,0,0,1,0-2.584h2.094A1.292,1.292,0,0,1,284.857,333.734Z" transform="translate(-281.496 -331.15)" fill="#5c9e8f"/>
      </g>
      <g id="Grupo_1055013" data-name="Grupo 1055013" transform="translate(27.324)">
        <path id="Trazado_781104" data-name="Trazado 781104" d="M314.967,333.734h-2.094a1.292,1.292,0,0,1,0-2.584h2.094A1.292,1.292,0,0,1,314.967,333.734Z" transform="translate(-311.606 -331.15)" fill="#5c9e8f"/>
      </g>
      <g id="Grupo_1055014" data-name="Grupo 1055014" transform="translate(34.156)">
        <path id="Trazado_781105" data-name="Trazado 781105" d="M345.077,333.734h-2.094a1.292,1.292,0,0,1,0-2.584h2.094A1.292,1.292,0,0,1,345.077,333.734Z" transform="translate(-341.716 -331.15)" fill="#5c9e8f"/>
      </g>
    </g>
    <path id="Trazado_781106" data-name="Trazado 781106" d="M260.654,20.375l-1.041,4.179,1.041,4.179-1.041,4.218.8,4.608-6.761-.948-6.464,1.041-6.464-1.041-6.484,1.041-6.464-1.041-6.484,1.041-.168-.018L214.8,36.613l-6.782.948.8-4.608L207.8,28.774l1.021-4.179L207.8,20.415l1.021-4.2L207.8,12.039l1.021-4.2-.8-4.626,6.761.967,6.484-1.041,6.464,1.041L234.2,3.14l6.485,1.041,6.464-1.041,6.5,1.041,6.761-.967-.8,4.626L260.652,12c-.193.769-.874,3.456-1.041,4.179Z" transform="translate(-159.879)" fill="#f8d275"/>
    <path id="Trazado_781107" data-name="Trazado 781107" d="M315.924,73.071l-1.021,4.2,1.021,4.182L314.9,85.666l.8,4.608-6.761-.967-6.466,1.041-6.484-1.041-6.464,1.041-6.485-1.041-6.464,1.041-6.5-1.041-6.761.967.8-4.626-1.041-4.161.78-3.1.168.018,6.484-1.041,6.464,1.041,6.484-1.041,6.464,1.041,6.464-1.041,6.764.948-.8-4.608,1.039-4.216L302.345,65.3l1.039-4.179-1.039-4.2.259-1.078,6.317,1.021,6.782-.948-.8,4.608,1.021,4.179L314.9,68.892Z" transform="translate(-202.609 -40.751)" fill="#f6c465"/>
    <g id="Grupo_1055016" data-name="Grupo 1055016" transform="translate(54.375 10.203)">
      <path id="Trazado_781108" data-name="Trazado 781108" d="M250.242,36.854H237.513a1.292,1.292,0,0,1,0-2.584h12.729A1.292,1.292,0,0,1,250.242,36.854Z" transform="translate(-236.246 -34.27)" fill="#cc6470"/>
    </g>
    <g id="Grupo_1055017" data-name="Grupo 1055017" transform="translate(74.734 10.203)">
      <path id="Trazado_781109" data-name="Trazado 781109" d="M331.906,36.854h-4.663a1.292,1.292,0,0,1,0-2.584h4.663A1.292,1.292,0,0,1,331.906,36.854Z" transform="translate(-325.976 -34.27)" fill="#cc6470"/>
    </g>
    <g id="Grupo_1055018" data-name="Grupo 1055018" transform="translate(87.548 10.203)">
      <path id="Trazado_781110" data-name="Trazado 781110" d="M388.386,36.854h-4.663a1.292,1.292,0,0,1,0-2.584h4.663A1.292,1.292,0,0,1,388.386,36.854Z" transform="translate(-382.456 -34.27)" fill="#cc6470"/>
    </g>
    <g id="Grupo_1055019" data-name="Grupo 1055019" transform="translate(54.375 27.029)">
      <path id="Trazado_781111" data-name="Trazado 781111" d="M250.242,111.014H237.513a1.292,1.292,0,0,1,0-2.584h12.729A1.292,1.292,0,0,1,250.242,111.014Z" transform="translate(-236.246 -108.43)" fill="#cc6470"/>
    </g>
    <g id="Grupo_1055020" data-name="Grupo 1055020" transform="translate(74.734 27.029)">
      <path id="Trazado_781112" data-name="Trazado 781112" d="M331.906,111.014h-4.663a1.292,1.292,0,0,1,0-2.584h4.663A1.292,1.292,0,0,1,331.906,111.014Z" transform="translate(-325.976 -108.43)" fill="#cc6470"/>
    </g>
    <g id="Grupo_1055021" data-name="Grupo 1055021" transform="translate(87.548 27.029)">
      <path id="Trazado_781113" data-name="Trazado 781113" d="M388.386,111.014h-4.663a1.292,1.292,0,0,1,0-2.584h4.663A1.292,1.292,0,0,1,388.386,111.014Z" transform="translate(-382.456 -108.43)" fill="#cc6470"/>
    </g>
    <g id="Grupo_1055022" data-name="Grupo 1055022" transform="translate(79.267 19.095)">
      <path id="Trazado_781114" data-name="Trazado 781114" d="M359.949,76.044H347.223a1.292,1.292,0,0,1,0-2.584h12.726A1.292,1.292,0,0,1,359.949,76.044Z" transform="translate(-345.956 -73.46)" fill="#cc6470"/>
    </g>
    <g id="Grupo_1055023" data-name="Grupo 1055023" transform="translate(66.972 19.095)">
      <path id="Trazado_781115" data-name="Trazado 781115" d="M297.7,76.044h-4.665a1.292,1.292,0,0,1,0-2.584H297.7A1.292,1.292,0,0,1,297.7,76.044Z" transform="translate(-291.766 -73.46)" fill="#cc6470"/>
    </g>
    <g id="Grupo_1055024" data-name="Grupo 1055024" transform="translate(54.159 19.095)">
      <path id="Trazado_781116" data-name="Trazado 781116" d="M241.226,76.044h-4.663a1.292,1.292,0,0,1,0-2.584h4.663A1.292,1.292,0,0,1,241.226,76.044Z" transform="translate(-235.296 -73.46)" fill="#cc6470"/>
    </g>
  </g>
</svg>
