<svg xmlns="http://www.w3.org/2000/svg" xmlns:xlink="http://www.w3.org/1999/xlink" width="273.913" height="244.502" viewBox="0 0 273.913 244.502">
  <defs>
    <clipPath id="clip-path">
      <rect id="Rectángulo_362454" data-name="Rectángulo 362454" width="190.341" height="244.501" transform="translate(0 0)" fill="none"/>
    </clipPath>
  </defs>
  <g id="Grupo_1055535" data-name="Grupo 1055535" transform="translate(6359 8336.629)">
    <g id="BACKGROUND" transform="translate(-6359 -8336.629)">
      <g id="Grupo_32241" data-name="Grupo 32241">
        <path id="Trazado_61861" data-name="Trazado 61861" d="M106.628,111.957c13.538-.468,26.628,4.276,39.578,8.25s26.81,7.24,39.917,3.822c17.623-4.595,29.918-20.045,40.959-34.529s23.53-29.846,41.236-34.109c16.534-3.981,34.372,3.155,46.407,15.172s18.979,28.26,23.313,44.705C348.772,156,343.59,202.963,315.7,234.53c-22.315,25.256-56,37.662-89.274,43.024-24,3.868-48.956,4.514-72.3-2.291a118.116,118.116,0,0,1-68.238-53.352C68.458,191.973,52.291,113.834,106.628,111.957Z" transform="translate(-69.318 -35.933)" fill="#673ab7"/>
        <path id="Trazado_61862" data-name="Trazado 61862" d="M189.587,97.263c16.3.3,33.845-5.7,46.035-14.205,6.758-4.717,12.8-10.726,16.405-18.136s4.561-16.333,1.417-23.951c-4.536-10.99-16.471-17.209-28.151-19.431a69.167,69.167,0,0,0-51.848,11.077c-10.468,7.3-21.441,17.689-24.158,30.688-2.928,14.006,9.133,24.751,21,30A49.974,49.974,0,0,0,189.587,97.263Z" transform="translate(-105.809 -20.373)" fill="#673ab7"/>
      </g>
    </g>
    <g id="Grupo_1055335" data-name="Grupo 1055335" transform="translate(-6310.5 -8336.633)">
      <g id="Grupo_1055335-2" data-name="Grupo 1055335" transform="translate(0 0.004)" clip-path="url(#clip-path)">
        <path id="Trazado_782617" data-name="Trazado 782617" d="M743.211,856.158c-.568.06-1.13.107-1.689.146-.168.012-.335.019-.5.03-.4.024-.795.043-1.188.057-.18.006-.359.011-.537.015q-.6.013-1.19.012c-.15,0-.3,0-.45,0q-.764-.009-1.517-.042l-.079,0q-.851-.04-1.687-.111l-.049,0q-.78-.066-1.547-.159l-.245-.031q-.691-.086-1.372-.192l-.224-.035q-.766-.123-1.518-.268h0a48.566,48.566,0,0,1-11.163-3.648l-.011,4.237c-.568.06-1.13.107-1.689.146-.168.012-.335.019-.5.03-.4.024-.795.043-1.189.057-.179.006-.358.011-.537.015q-.6.013-1.19.012c-.15,0-.3,0-.45,0q-.763-.009-1.516-.042l-.08,0q-.851-.04-1.686-.111l-.053-.005q-.778-.066-1.541-.159l-.249-.031q-.689-.086-1.367-.191l-.227-.035q-.765-.123-1.517-.268h0a48.767,48.767,0,0,1-11.862-3.982l-.012,4.571c-.568.06-1.13.107-1.689.146-.168.012-.335.019-.5.03-.4.024-.795.043-1.189.057-.18.006-.358.011-.537.015q-.6.013-1.19.012c-.15,0-.3,0-.45,0-.424-.005-.845-.017-1.263-.034v26.291l63.23-26.25-5.759-3.9Z" transform="translate(-577.857 -717.603)" fill="#9a5e3b"/>
        <path id="Trazado_782618" data-name="Trazado 782618" d="M215.991,823.944V797.653l-.254-.009-.078,0q-.851-.04-1.687-.111l-.048,0c-.52-.044-1.036-.1-1.547-.159l-.244-.031q-.692-.086-1.372-.192l-.223-.035q-.766-.123-1.519-.268h0a50.6,50.6,0,0,1-16.9-6.746l-.018,7.335c-.567.06-1.13.107-1.689.146-.169.012-.336.02-.5.03-.4.024-.794.043-1.187.057-.18.006-.359.011-.538.015q-.6.014-1.189.012c-.15,0-.3,0-.45,0q-.765-.009-1.519-.043l-.077,0q-.852-.04-1.688-.111l-.045,0q-.782-.066-1.551-.16l-.243-.031q-.692-.086-1.373-.192l-.223-.035q-.766-.123-1.518-.268h0c-11.837-2.309-21.127-8.921-27.45-14.947l-22.57,9.37v.14l63.231,42.7Z" transform="translate(-108.099 -658.874)" fill="#ac6f43"/>
        <path id="Trazado_782619" data-name="Trazado 782619" d="M191.513,1086.606,174.2,1113.032l-45.917-31.495v31.521l63.231,42.817Z" transform="translate(-108.099 -911.374)" fill="#d4794e"/>
        <path id="Trazado_782620" data-name="Trazado 782620" d="M690.164,1326.346h0l-5.227-27.914h0Z" transform="translate(-577.174 -1094.143)" fill="#e89157"/>
        <path id="Trazado_782621" data-name="Trazado 782621" d="M544.361,1065.545l-14.194-19.326,2.5,64.8,9.739-.62,15.884-6.605,59.585-31.6V1033.61Z" transform="translate(-446.753 -870.988)" fill="#e89157"/>
        <path id="Trazado_782622" data-name="Trazado 782622" d="M66.1,911.463l17.313-26.426-63.231-42.7L0,866.125l20.183,13.844Z" transform="translate(0 -709.805)" fill="#e89157"/>
        <path id="Trazado_782623" data-name="Trazado 782623" d="M530.167,918.733l14.194,19.326,73.515-31.935,14.51-6.3-14.51-17.5-63.231,26.25Z" transform="translate(-446.753 -743.501)" fill="#ca804d"/>
        <path id="Trazado_782624" data-name="Trazado 782624" d="M1051.028,791.441l5.759,3.9,14.51-2.729L1051.058,779.1Z" transform="translate(-885.664 -656.524)" fill="#be7949"/>
        <path id="Trazado_782625" data-name="Trazado 782625" d="M530.167,1113.753v69.269l12.24-5.089-9.739.62Z" transform="translate(-446.753 -938.521)" fill="#a6613f"/>
        <path id="Trazado_782626" data-name="Trazado 782626" d="M894.2,135.44c-3.966-5.361-5.414-5.85-11.732-5.571.227,3.77,2.058,8.732,9.154,12.005,0,0,3.966,1.5,7.373.353.19-.087.369-.174.54-.261Z" transform="translate(-743.62 -109.385)" fill="#00769a"/>
        <path id="Trazado_782627" data-name="Trazado 782627" d="M1010.684,180.742l-.519-.339.436.54c.027-.068.057-.131.083-.2" transform="translate(-851.231 -152.02)" fill="#00769a"/>
        <path id="Trazado_782628" data-name="Trazado 782628" d="M926.778,11.279v4.6a11.071,11.071,0,0,1,1.566.733V11.394c.036-.128.072-.246.106-.339a2.114,2.114,0,0,1,.106-.249.656.656,0,0,1,.116-.168.386.386,0,0,1,.186-.089,4.974,4.974,0,0,1,.62-.1,2.915,2.915,0,0,0,1.376-.549,3.618,3.618,0,0,0,1.209-1.719,6.468,6.468,0,0,0,.346-2.168,8.17,8.17,0,0,0-.983-3.919A4.659,4.659,0,0,0,930.174.628,3.077,3.077,0,0,0,928.332,0a4.3,4.3,0,0,0-2.751,1.185A.783.783,0,1,0,926.6,2.38h0a2.77,2.77,0,0,1,1.735-.81,1.5,1.5,0,0,1,.912.319,3.756,3.756,0,0,1,1.149,1.675,6.949,6.949,0,0,1,.451,2.448,4.349,4.349,0,0,1-.44,2.055,1.76,1.76,0,0,1-.481.573,1.341,1.341,0,0,1-.644.254,7.1,7.1,0,0,0-.741.121,2.232,2.232,0,0,0-.58.22,1.946,1.946,0,0,0-.729.738,4.394,4.394,0,0,0-.4,1.033c-.007.025-.015.044-.022.069Z" transform="translate(-779.723 -0.004)" fill="#141d48"/>
        <path id="Trazado_782629" data-name="Trazado 782629" d="M882.326,100.87c6.319-.279,7.766.21,11.732,5.571l5.335,6.526a7.815,7.815,0,0,0,2.276-1.629,7.3,7.3,0,0,0,1.184-2.028l-.436-.54-6.787-8.417a9.932,9.932,0,0,0-3.525-3.361,11.031,11.031,0,0,0-1.566-.733,15.473,15.473,0,0,0-7.547-.67,14.065,14.065,0,0,0-.666,5.28" transform="translate(-743.483 -80.387)" fill="#e89157"/>
        <path id="Trazado_782630" data-name="Trazado 782630" d="M1187.7,528.884q-.435.462-.9.9.467-.438.9-.9" transform="translate(-1000.073 -445.673)" fill="#00a4b6"/>
        <path id="Trazado_782631" data-name="Trazado 782631" d="M1194.7,520.766c-.283.365-.586.718-.9,1.063.315-.345.618-.7.9-1.063" transform="translate(-1005.972 -438.832)" fill="#00a4b6"/>
        <path id="Trazado_782632" data-name="Trazado 782632" d="M1200.645,513.7c-.224.349-.46.691-.714,1.023.253-.332.49-.674.714-1.023" transform="translate(-1011.14 -432.881)" fill="#00a4b6"/>
        <path id="Trazado_782633" data-name="Trazado 782633" d="M731.669,71.126v-4.6l.027-.2a5.6,5.6,0,0,1,.257-.746,8.477,8.477,0,0,0-7.269,3.128l-1.283,1.53.722.219a15.473,15.473,0,0,1,7.546.669" transform="translate(-609.585 -55.254)" fill="#00a4b6"/>
        <path id="Trazado_782634" data-name="Trazado 782634" d="M1206.3,504.3a13.479,13.479,0,0,1-.651,1.183c.234-.385.456-.777.651-1.183" transform="translate(-1015.955 -424.96)" fill="#00a4b6"/>
        <path id="Trazado_782635" data-name="Trazado 782635" d="M986.188,880.4q-.78-.066-1.547-.159c.512.061,1.027.115,1.547.159" transform="translate(-829.722 -741.75)" fill="#00a4b6"/>
        <path id="Trazado_782636" data-name="Trazado 782636" d="M964.819,877.168q-.765-.123-1.518-.268.752.146,1.518.268" transform="translate(-811.74 -738.933)" fill="#00a4b6"/>
        <path id="Trazado_782637" data-name="Trazado 782637" d="M1041.923,880.64c-.568.06-1.13.107-1.689.146.559-.039,1.122-.086,1.689-.146" transform="translate(-876.569 -742.085)" fill="#00a4b6"/>
        <path id="Trazado_782638" data-name="Trazado 782638" d="M1030.674,881.754c-.4.024-.795.044-1.188.057q.591-.02,1.188-.057" transform="translate(-867.512 -743.024)" fill="#00a4b6"/>
        <path id="Trazado_782639" data-name="Trazado 782639" d="M975.742,879.018q-.691-.086-1.372-.192.68.106,1.372.192" transform="translate(-821.067 -740.556)" fill="#00a4b6"/>
        <path id="Trazado_782640" data-name="Trazado 782640" d="M909.229,596.156l.074-46.84a51.615,51.615,0,0,1-14.114,5.6l-2.741-6.749-.119,48.073a48.562,48.562,0,0,0,11.163,3.648,20.675,20.675,0,0,0,5.738-3.733" transform="translate(-751.934 -461.922)" fill="#00a4b6"/>
        <path id="Trazado_782641" data-name="Trazado 782641" d="M996.469,881.394q-.851-.04-1.687-.111.836.07,1.687.111" transform="translate(-838.268 -742.627)" fill="#00a4b6"/>
        <path id="Trazado_782642" data-name="Trazado 782642" d="M1019.7,882.21q-.6.013-1.19.012.592,0,1.19-.012" transform="translate(-858.261 -743.408)" fill="#00a4b6"/>
        <path id="Trazado_782643" data-name="Trazado 782643" d="M1007.522,882.047c-.509-.006-1.016-.02-1.517-.042q.753.034,1.517.042" transform="translate(-847.725 -743.234)" fill="#00a4b6"/>
        <path id="Trazado_782644" data-name="Trazado 782644" d="M789.433,76.495l6.789,8.418.517.338,14.647,13.2a18.011,18.011,0,0,1,4.176,6.739l12.066,30.685a13.487,13.487,0,0,1-.653,1.187c-.059.1-.119.192-.18.288-.228.355-.468.7-.725,1.04-.018.024-.035.048-.053.072-.2.253-.4.5-.613.743.873,1.308,1.664,2.51,2.335,3.572l-.127,52.31.009-3.638.031-12.337.09-36.334,2.742,6.749s11.588-2.478,18.422-8.809l-9.65-25.539A47.456,47.456,0,0,0,826.338,95.9c-2.547-2.23-6.273-4.193-8.723-6.528l.01-.005c-3.407,1.151-7.373-.353-7.373-.353-7.1-3.273-8.927-8.235-9.154-12.005a14.068,14.068,0,0,1,.666-5.28L786.5,67.107l-.1-.025a.383.383,0,0,0-.164.081.652.652,0,0,0-.116.168,3.291,3.291,0,0,0-.212.587v5.215a9.933,9.933,0,0,1,3.526,3.361" transform="translate(-662.256 -56.528)" fill="#00a4b6"/>
        <path id="Trazado_782645" data-name="Trazado 782645" d="M1005.409,184.788a6.286,6.286,0,0,0,1.267-2.23c-.026.07-.056.133-.083.2a7.3,7.3,0,0,1-1.184,2.028" transform="translate(-847.223 -153.836)" fill="#00a4b6"/>
        <path id="Trazado_782646" data-name="Trazado 782646" d="M990.27,184.788a7.814,7.814,0,0,1-2.276,1.629c-.171.087-.35.174-.54.261l-.01.005c2.449,2.336,6.175,4.3,8.723,6.528a47.456,47.456,0,0,1,12.916,19.271l9.65,25.539v0c.026-.024.049-.051.076-.075q.467-.438.9-.9c.067-.071.134-.142.2-.214.315-.345.618-.7.9-1.063.022-.029.042-.059.064-.088.254-.332.489-.674.714-1.023.063-.1.125-.2.185-.3a13.429,13.429,0,0,0,.651-1.183l-12.065-30.686a18,18,0,0,0-4.177-6.739l-14.646-13.2a6.285,6.285,0,0,1-1.268,2.23" transform="translate(-832.084 -153.836)" fill="#0090ac"/>
        <path id="Trazado_782647" data-name="Trazado 782647" d="M969.015,577.027a20.675,20.675,0,0,1-5.738,3.733h0q.752.146,1.518.268l.224.035q.68.106,1.372.192l.245.031q.767.092,1.547.159l.049,0q.836.07,1.687.111l.079,0q.753.034,1.517.043c.149,0,.3,0,.45,0q.592,0,1.19-.012c.179,0,.358-.009.537-.015.394-.013.79-.033,1.188-.057.168-.01.334-.018.5-.029.559-.039,1.122-.086,1.689-.146l.127-52.31c-.671-1.062-1.462-2.264-2.335-3.572-.1.11-.194.218-.293.326-.065.071-.131.14-.2.21q-.432.459-.895.894c-.029.027-.054.057-.084.083v0a27.117,27.117,0,0,1-4.309,3.208Z" transform="translate(-811.72 -442.794)" fill="#0090ac"/>
        <path id="Trazado_782648" data-name="Trazado 782648" d="M851.463,180.41l.434.539c.027-.068.057-.131.083-.2Z" transform="translate(-717.498 -152.026)" fill="#5f4374"/>
        <path id="Trazado_782649" data-name="Trazado 782649" d="M768.091,11.076l-.027.2v4.6a11.086,11.086,0,0,1,1.566.733V11.394a3.278,3.278,0,0,1,.213-.587.653.653,0,0,1,.116-.168.386.386,0,0,1,.164-.081l.023-.008a4.933,4.933,0,0,1,.62-.1,2.984,2.984,0,0,0,.46-.1,2.88,2.88,0,0,0,.916-.449,3.618,3.618,0,0,0,1.209-1.719,6.466,6.466,0,0,0,.346-2.168,8.17,8.17,0,0,0-.983-3.919A4.659,4.659,0,0,0,771.46.628,3.076,3.076,0,0,0,769.618,0a4.3,4.3,0,0,0-2.751,1.185.783.783,0,1,0,1.016,1.191h0a2.769,2.769,0,0,1,1.735-.81,1.5,1.5,0,0,1,.913.319,3.758,3.758,0,0,1,1.149,1.675,6.95,6.95,0,0,1,.451,2.448,4.349,4.349,0,0,1-.44,2.055,1.764,1.764,0,0,1-.481.573,1.341,1.341,0,0,1-.644.254,7.134,7.134,0,0,0-.741.121,2.226,2.226,0,0,0-.58.22,1.946,1.946,0,0,0-.729.738c-.052.089-.091.191-.135.289-.01.023-.022.045-.032.068a5.6,5.6,0,0,0-.257.746" transform="translate(-645.98 -0.004)" fill="#141d48"/>
        <path id="Trazado_782650" data-name="Trazado 782650" d="M724.282,95.589a14.062,14.062,0,0,0-.666,5.28c6.318-.279,7.766.21,11.732,5.571l5.335,6.526a7.8,7.8,0,0,0,2.28-1.634,7.291,7.291,0,0,0,1.18-2.024l-.434-.539-6.789-8.418a9.934,9.934,0,0,0-3.526-3.361,11.071,11.071,0,0,0-1.566-.733,15.472,15.472,0,0,0-7.546-.669" transform="translate(-609.744 -80.386)" fill="#e89157"/>
        <path id="Trazado_782651" data-name="Trazado 782651" d="M571.5,71.135v-4.6l.027-.2a5.532,5.532,0,0,1,.262-.755,8.3,8.3,0,0,0-6.574,3.137l-1.425,1.7.164.05a15.473,15.473,0,0,1,7.547.67" transform="translate(-475.083 -55.262)" fill="#85567d"/>
        <path id="Trazado_782652" data-name="Trazado 782652" d="M746.772,596.156l.075-47.278a50.871,50.871,0,0,1-14.815,6.039l-2.74-6.749-.119,47.739a48.772,48.772,0,0,0,11.862,3.982,20.662,20.662,0,0,0,5.737-3.733" transform="translate(-614.448 -461.922)" fill="#85567d"/>
        <path id="Trazado_782653" data-name="Trazado 782653" d="M806.1,877.166q-.765-.123-1.517-.268.751.146,1.517.268" transform="translate(-677.996 -738.932)" fill="#85567d"/>
        <path id="Trazado_782654" data-name="Trazado 782654" d="M837.763,881.394q-.85-.04-1.686-.111.836.07,1.686.111" transform="translate(-704.533 -742.627)" fill="#85567d"/>
        <path id="Trazado_782655" data-name="Trazado 782655" d="M883.213,880.64c-.568.06-1.13.107-1.689.146.559-.039,1.122-.086,1.689-.146" transform="translate(-742.829 -742.085)" fill="#85567d"/>
        <path id="Trazado_782656" data-name="Trazado 782656" d="M817.038,879.019q-.689-.086-1.367-.191.679.105,1.367.191" transform="translate(-687.337 -740.558)" fill="#85567d"/>
        <path id="Trazado_782657" data-name="Trazado 782657" d="M827.483,880.4q-.777-.066-1.542-.159c.51.061,1.023.115,1.542.159" transform="translate(-695.991 -741.75)" fill="#85567d"/>
        <path id="Trazado_782658" data-name="Trazado 782658" d="M860.989,882.21q-.6.013-1.19.012.592,0,1.19-.012" transform="translate(-724.522 -743.408)" fill="#85567d"/>
        <path id="Trazado_782659" data-name="Trazado 782659" d="M848.82,882.047c-.509-.006-1.015-.02-1.516-.042q.752.034,1.516.042" transform="translate(-713.993 -743.234)" fill="#85567d"/>
        <path id="Trazado_782660" data-name="Trazado 782660" d="M871.965,881.754c-.4.024-.795.044-1.189.057q.591-.02,1.189-.057" transform="translate(-733.772 -743.024)" fill="#85567d"/>
        <path id="Trazado_782661" data-name="Trazado 782661" d="M1041.891,513.675c-.228.355-.467.7-.725,1.04.258-.337.5-.686.725-1.04" transform="translate(-877.353 -432.856)" fill="#85567d"/>
        <path id="Trazado_782662" data-name="Trazado 782662" d="M1047.575,504.3c-.195.407-.418.8-.653,1.187.235-.387.458-.779.653-1.187" transform="translate(-882.204 -424.96)" fill="#85567d"/>
        <path id="Trazado_782663" data-name="Trazado 782663" d="M1035.077,521.814c.1-.108.2-.216.293-.326.211-.243.417-.49.612-.743-.284.367-.589.722-.905,1.068" transform="translate(-872.223 -438.815)" fill="#85567d"/>
        <path id="Trazado_782664" data-name="Trazado 782664" d="M1029.035,528.873q-.432.459-.895.894.464-.435.895-.894" transform="translate(-866.377 -445.663)" fill="#85567d"/>
        <path id="Trazado_782665" data-name="Trazado 782665" d="M847.988,182.558c-.026.07-.056.133-.083.2a7.3,7.3,0,0,1-1.18,2.024,6.294,6.294,0,0,0,1.263-2.225" transform="translate(-713.505 -153.836)" fill="#85567d"/>
        <path id="Trazado_782666" data-name="Trazado 782666" d="M626.275,76.118l6.788,8.418.517.337,14.647,13.2a18.008,18.008,0,0,1,4.177,6.739L664.468,135.5c-.195.407-.418.8-.653,1.186-.059.1-.12.193-.181.289-.227.354-.466.7-.722,1.036-.019.025-.036.051-.055.076-.072.093-.149.183-.223.274,1,1.494,1.9,2.85,2.647,4.039l-.127,52.31.011-4.237.119-48.073,2.741,6.749a51.619,51.619,0,0,0,14.114-5.6,27.122,27.122,0,0,0,4.309-3.208L676.8,114.8A47.47,47.47,0,0,0,663.88,95.527c-2.547-2.23-6.273-4.193-8.723-6.528l.011-.005c-3.407,1.152-7.374-.353-7.374-.353-7.1-3.273-8.928-8.235-9.155-12.005a14.06,14.06,0,0,1,.667-5.28l-.722-.219L624.043,66.73s-.168-.044-.445-.095a2.951,2.951,0,0,0-.334.062.387.387,0,0,0-.186.089.653.653,0,0,0-.116.168,3.283,3.283,0,0,0-.213.587v5.215a9.939,9.939,0,0,1,3.526,3.361" transform="translate(-524.769 -56.152)" fill="#85567d"/>
        <path id="Trazado_782667" data-name="Trazado 782667" d="M771.644,193.49q.464-.435.895-.894c.066-.07.132-.139.2-.21.316-.347.621-.7.905-1.068.018-.024.034-.048.052-.072.258-.337.5-.686.726-1.04.061-.1.121-.191.18-.288.235-.386.458-.78.653-1.187l-12.066-30.686a18.009,18.009,0,0,0-4.176-6.739l-14.646-13.2a6.293,6.293,0,0,1-1.263,2.225,7.806,7.806,0,0,1-2.28,1.634l-5.335-6.526c-3.966-5.361-5.414-5.85-11.732-5.571.227,3.77,2.058,8.732,9.155,12.005,0,0,3.967,1.5,7.374.353l-.011.006c2.449,2.336,6.175,4.3,8.723,6.528a47.47,47.47,0,0,1,12.916,19.271l9.65,25.539v0c.029-.027.055-.056.084-.083" transform="translate(-609.881 -109.386)" fill="#5f4374"/>
        <path id="Trazado_782668" data-name="Trazado 782668" d="M810.306,574.523a20.662,20.662,0,0,1-5.737,3.733h0q.751.147,1.517.268l.227.035q.678.106,1.367.191l.249.031q.764.091,1.541.159l.053.005q.836.071,1.686.111l.08,0q.752.034,1.516.043c.149,0,.3,0,.45,0q.592,0,1.19-.012.268-.006.537-.015c.394-.013.791-.033,1.189-.057.167-.01.334-.018.5-.029.559-.039,1.122-.086,1.69-.146l.127-52.31c-.751-1.189-1.647-2.545-2.647-4.039q-.327.4-.68.792c-.066.072-.133.142-.2.213q-.434.462-.9.9c-.027.025-.051.052-.077.077v0a26.226,26.226,0,0,1-3.609,2.77Z" transform="translate(-677.982 -440.29)" fill="#5f4374"/>
        <path id="Trazado_782669" data-name="Trazado 782669" d="M572.324,135.44c-3.966-5.361-5.414-5.85-11.732-5.571.227,3.77,2.058,8.732,9.154,12.005,0,0,3.967,1.5,7.374.353.19-.087.368-.174.539-.261Z" transform="translate(-472.391 -109.385)" fill="#af5f3d"/>
        <path id="Trazado_782670" data-name="Trazado 782670" d="M688.3,180.413l.434.538c.027-.068.057-.13.083-.2Z" transform="translate(-580.01 -152.028)" fill="#af5f3d"/>
        <path id="Trazado_782671" data-name="Trazado 782671" d="M605.354,9.974a3.294,3.294,0,0,0-.162.348,5.548,5.548,0,0,0-.262.755l-.027.2v4.6a11.047,11.047,0,0,1,1.566.733V11.394a3.288,3.288,0,0,1,.213-.587.653.653,0,0,1,.116-.168.387.387,0,0,1,.186-.089,2.985,2.985,0,0,1,.334-.062c.087-.013.176-.025.287-.039a2.914,2.914,0,0,0,1.376-.549,3.016,3.016,0,0,0,.322-.287,3.817,3.817,0,0,0,.887-1.432,6.46,6.46,0,0,0,.346-2.168,8.166,8.166,0,0,0-.984-3.919A4.658,4.658,0,0,0,608.3.628,3.078,3.078,0,0,0,606.456,0,4.3,4.3,0,0,0,603.7,1.189a.783.783,0,1,0,1.016,1.191h0a2.77,2.77,0,0,1,1.735-.81,1.5,1.5,0,0,1,.913.319,3.758,3.758,0,0,1,1.149,1.675,6.945,6.945,0,0,1,.451,2.448,4.35,4.35,0,0,1-.441,2.055,1.761,1.761,0,0,1-.481.573,1.341,1.341,0,0,1-.643.254,7.142,7.142,0,0,0-.741.121,2.228,2.228,0,0,0-.58.22,1.757,1.757,0,0,0-.35.269,2.05,2.05,0,0,0-.379.469" transform="translate(-508.489 -0.004)" fill="#141d48"/>
        <path id="Trazado_782672" data-name="Trazado 782672" d="M561.122,95.589a14.067,14.067,0,0,0-.666,5.28c6.318-.279,7.766.21,11.732,5.571l5.335,6.526a7.832,7.832,0,0,0,2.271-1.624,7.3,7.3,0,0,0,1.189-2.035l-.434-.538-6.788-8.418a9.938,9.938,0,0,0-3.526-3.361,11.071,11.071,0,0,0-1.566-.733,15.473,15.473,0,0,0-7.547-.67" transform="translate(-472.255 -80.386)" fill="#e89157"/>
        <path id="Trazado_782673" data-name="Trazado 782673" d="M431.069,75.212l6.788,8.418.518.338,14.646,13.2A18.016,18.016,0,0,1,457.2,103.9l10.24,26.044c3.067,4.619,5.814,8.592,7.678,11.542l-.127,52.31L475,189.23l.119-47.738,2.74,6.749a50.875,50.875,0,0,0,14.815-6.039,26.214,26.214,0,0,0,3.608-2.77l-9.65-25.539a47.454,47.454,0,0,0-12.916-19.271c-2.547-2.23-6.273-4.193-8.723-6.528l.011-.005c-3.407,1.152-7.374-.353-7.374-.353-7.1-3.273-8.927-8.235-9.154-12.005a14.067,14.067,0,0,1,.666-5.28l-.164-.05-15.1-4.575a10.032,10.032,0,0,0-6.258.56c-.025.074-.051.159-.077.252v5.216a9.933,9.933,0,0,1,3.525,3.361" transform="translate(-360.276 -55.246)" fill="#ffdb64"/>
        <path id="Trazado_782674" data-name="Trazado 782674" d="M401.931,78.734l-1.448,1.727a13.218,13.218,0,0,1,2.691.692V77.467a8.084,8.084,0,0,0-1.244,1.267" transform="translate(-337.473 -65.279)" fill="#ffdb64"/>
        <path id="Trazado_782675" data-name="Trazado 782675" d="M708.8,881.754c-.4.024-.794.044-1.188.057q.591-.02,1.188-.057" transform="translate(-596.283 -743.024)" fill="#ffdb64"/>
        <path id="Trazado_782676" data-name="Trazado 782676" d="M720.052,880.64c-.568.06-1.13.107-1.689.146.56-.039,1.122-.086,1.689-.146" transform="translate(-605.339 -742.085)" fill="#ffdb64"/>
        <path id="Trazado_782677" data-name="Trazado 782677" d="M697.827,882.21q-.6.013-1.19.012.592,0,1.19-.012" transform="translate(-587.031 -743.408)" fill="#ffdb64"/>
        <path id="Trazado_782678" data-name="Trazado 782678" d="M642.943,877.166c-.511-.082-1.018-.17-1.519-.268q.752.147,1.519.268" transform="translate(-540.505 -738.932)" fill="#ffdb64"/>
        <path id="Trazado_782679" data-name="Trazado 782679" d="M664.319,880.4q-.78-.066-1.547-.159c.512.061,1.027.115,1.547.159" transform="translate(-558.495 -741.75)" fill="#ffdb64"/>
        <path id="Trazado_782680" data-name="Trazado 782680" d="M556.726,525.684c-.086.1-.175.194-.264.291-.065.071-.132.141-.2.212q-.436.463-.9.9c-.026.024-.049.051-.075.075v0c-6.834,6.331-18.423,8.809-18.423,8.809l-2.742-6.749L534.01,574.2a50.6,50.6,0,0,0,16.9,6.746,20.679,20.679,0,0,0,5.738-3.733Z" transform="translate(-449.991 -442.976)" fill="#ffdb64"/>
        <path id="Trazado_782681" data-name="Trazado 782681" d="M653.868,879.017q-.691-.086-1.372-.192.681.106,1.372.192" transform="translate(-549.835 -740.555)" fill="#ffdb64"/>
        <path id="Trazado_782682" data-name="Trazado 782682" d="M674.6,881.394q-.851-.04-1.687-.111.837.07,1.687.111" transform="translate(-567.038 -742.627)" fill="#ffdb64"/>
        <path id="Trazado_782683" data-name="Trazado 782683" d="M684.133,882l.254.009q.628.025,1.263.034c-.509-.006-1.016-.02-1.517-.042" transform="translate(-576.495 -743.234)" fill="#ffdb64"/>
        <path id="Trazado_782684" data-name="Trazado 782684" d="M878.74,513.681c-.227.353-.465.7-.723,1.036.257-.336.5-.683.723-1.036" transform="translate(-739.875 -432.862)" fill="#ffdb64"/>
        <path id="Trazado_782685" data-name="Trazado 782685" d="M884.415,504.3c-.195.407-.418.8-.653,1.186.235-.386.458-.779.653-1.186" transform="translate(-744.715 -424.96)" fill="#ffdb64"/>
        <path id="Trazado_782686" data-name="Trazado 782686" d="M871.924,521.818q.353-.387.68-.792c.074-.092.151-.181.223-.274-.284.366-.588.72-.9,1.066" transform="translate(-734.74 -438.82)" fill="#ffdb64"/>
        <path id="Trazado_782687" data-name="Trazado 782687" d="M865.839,528.88q-.434.461-.9.9.467-.437.9-.9" transform="translate(-728.854 -445.669)" fill="#ffdb64"/>
        <path id="Trazado_782688" data-name="Trazado 782688" d="M684.777,182.558c-.026.07-.056.132-.083.2a7.3,7.3,0,0,1-1.189,2.035,6.277,6.277,0,0,0,1.272-2.235" transform="translate(-575.966 -153.836)" fill="#ffdb64"/>
        <path id="Trazado_782689" data-name="Trazado 782689" d="M696.939,237.946q.467-.437.9-.9c.067-.071.134-.141.2-.213.316-.346.62-.7.9-1.066.019-.025.036-.051.055-.076.257-.336.5-.683.722-1.036.061-.1.122-.192.181-.289.235-.386.458-.779.653-1.186l-12.065-30.686a18,18,0,0,0-4.177-6.739l-14.647-13.2a6.275,6.275,0,0,1-1.272,2.235,7.832,7.832,0,0,1-2.271,1.624c-.171.087-.35.174-.539.261l-.011.006c2.449,2.336,6.175,4.3,8.723,6.528a47.455,47.455,0,0,1,12.916,19.271l9.65,25.539v0c.027-.025.05-.052.077-.077" transform="translate(-560.854 -153.836)" fill="#ffc060"/>
        <path id="Trazado_782690" data-name="Trazado 782690" d="M648.826,480.634q-.089.146-.181.288c-.227.354-.466.7-.723,1.037-.019.025-.036.051-.055.076-.2.264-.419.523-.64.776l-.081,51.525a20.678,20.678,0,0,1-5.738,3.733h0q.752.147,1.519.268l.223.035q.681.106,1.372.192l.244.031q.767.092,1.547.159l.048,0q.837.07,1.687.111l.079,0c.5.023,1.008.036,1.517.042.149,0,.3,0,.45,0q.591,0,1.19-.012c.179,0,.358-.009.537-.015.394-.013.79-.033,1.188-.057.168-.01.334-.018.5-.029.559-.039,1.122-.086,1.689-.146l.127-52.31c-1.865-2.951-4.611-6.923-7.678-11.542l1.825,4.641a13.5,13.5,0,0,1-.653,1.187" transform="translate(-540.492 -400.104)" fill="#ffc060"/>
        <path id="Trazado_782691" data-name="Trazado 782691" d="M374.541,141.874s3.967,1.5,7.374.353c.19-.087.368-.174.539-.261l-5.335-6.526c-3.966-5.361-5.414-5.85-11.732-5.571.227,3.77,2.058,8.732,9.154,12.005" transform="translate(-307.899 -109.385)" fill="#821a31"/>
        <path id="Trazado_782692" data-name="Trazado 782692" d="M493.094,180.41l.435.539c.027-.068.057-.131.083-.2Z" transform="translate(-415.513 -152.026)" fill="#821a31"/>
        <path id="Trazado_782693" data-name="Trazado 782693" d="M412.842,8.641l-.013.007a1.339,1.339,0,0,1-.63.246,7.136,7.136,0,0,0-.742.121,2.236,2.236,0,0,0-.58.22,1.946,1.946,0,0,0-.729.739,4.5,4.5,0,0,0-.424,1.1l-.027.2v4.6a11.049,11.049,0,0,1,1.567.733V11.395c.026-.093.052-.178.077-.252a2.577,2.577,0,0,1,.135-.336.636.636,0,0,1,.116-.168.382.382,0,0,1,.186-.089,4.976,4.976,0,0,1,.621-.1,2.915,2.915,0,0,0,1.376-.549,3.376,3.376,0,0,0,.979-1.192,4.567,4.567,0,0,0,.229-.526,6.461,6.461,0,0,0,.346-2.168,8.165,8.165,0,0,0-.984-3.919A4.659,4.659,0,0,0,413.093.628,3.079,3.079,0,0,0,411.251,0,4.3,4.3,0,0,0,408.5,1.189a.783.783,0,1,0,1.017,1.191h0a2.771,2.771,0,0,1,1.735-.81,1.5,1.5,0,0,1,.913.319,3.757,3.757,0,0,1,1.149,1.675,6.945,6.945,0,0,1,.451,2.448,4.349,4.349,0,0,1-.441,2.055,1.759,1.759,0,0,1-.481.573" transform="translate(-343.996 -0.004)" fill="#141d48"/>
        <path id="Trazado_782694" data-name="Trazado 782694" d="M365.916,95.585a14.068,14.068,0,0,0-.666,5.28c6.318-.279,7.766.21,11.732,5.571l5.335,6.526a7.855,7.855,0,0,0,2.26-1.613,7.281,7.281,0,0,0,1.2-2.046l-.435-.539-6.788-8.418a9.932,9.932,0,0,0-3.525-3.361,11.053,11.053,0,0,0-1.566-.733,13.213,13.213,0,0,0-2.691-.692,15.794,15.794,0,0,0-4.855.022" transform="translate(-307.762 -80.381)" fill="#e89157"/>
        <path id="Trazado_782695" data-name="Trazado 782695" d="M524.851,880.64c-.568.06-1.13.107-1.689.146.559-.039,1.121-.086,1.689-.146" transform="translate(-440.85 -742.085)" fill="#dd2f54"/>
        <path id="Trazado_782696" data-name="Trazado 782696" d="M502.623,882.21q-.6.013-1.189.012.591,0,1.189-.012" transform="translate(-422.541 -743.408)" fill="#dd2f54"/>
        <path id="Trazado_782697" data-name="Trazado 782697" d="M513.6,881.755c-.4.024-.794.043-1.187.057.393-.014.789-.033,1.187-.057" transform="translate(-431.794 -743.025)" fill="#dd2f54"/>
        <path id="Trazado_782698" data-name="Trazado 782698" d="M447.741,877.168q-.766-.123-1.518-.268.752.146,1.518.268" transform="translate(-376.016 -738.933)" fill="#dd2f54"/>
        <path id="Trazado_782699" data-name="Trazado 782699" d="M479.39,881.393q-.851-.04-1.688-.111.837.07,1.688.111" transform="translate(-402.543 -742.626)" fill="#dd2f54"/>
        <path id="Trazado_782700" data-name="Trazado 782700" d="M490.439,882.047c-.51-.006-1.017-.02-1.519-.042q.754.034,1.519.042" transform="translate(-411.996 -743.234)" fill="#dd2f54"/>
        <path id="Trazado_782701" data-name="Trazado 782701" d="M469.113,880.4q-.782-.067-1.551-.16c.513.061,1.029.115,1.551.16" transform="translate(-393.998 -741.749)" fill="#dd2f54"/>
        <path id="Trazado_782702" data-name="Trazado 782702" d="M458.664,879.018q-.692-.086-1.373-.192.681.106,1.373.192" transform="translate(-385.343 -740.556)" fill="#dd2f54"/>
        <path id="Trazado_782703" data-name="Trazado 782703" d="M147.336,189.478l.1-60.152c3.235,4.889,6.144,9.081,8.092,12.165L155.4,193.8l.018-7.335.111-44.974,2.742,6.749s11.588-2.478,18.423-8.809l-9.65-25.539A47.457,47.457,0,0,0,154.123,94.62c-2.547-2.23-6.274-4.193-8.723-6.528l.011-.006c-3.407,1.152-7.374-.353-7.374-.353-7.1-3.273-8.927-8.235-9.154-12.005a14.064,14.064,0,0,1,.666-5.28l-15.264-4.625s-5.677-1.554-9.146,2.876L84.725,93.045A46.434,46.434,0,0,0,99.6,117.124l4.895-5.09v54.813a64.967,64.967,0,0,0,9.65,11.416c6.323,6.026,15.613,12.638,27.45,14.947a20.677,20.677,0,0,0,5.738-3.733" transform="translate(-71.395 -55.244)" fill="#dd2f54"/>
        <path id="Trazado_782704" data-name="Trazado 782704" d="M670.623,528.876q-.435.463-.9.9.468-.438.9-.9" transform="translate(-564.349 -445.666)" fill="#dd2f54"/>
        <path id="Trazado_782705" data-name="Trazado 782705" d="M677.619,520.751c-.284.367-.588.721-.9,1.067.088-.1.178-.192.264-.291.221-.254.436-.512.64-.776" transform="translate(-570.244 -438.819)" fill="#dd2f54"/>
        <path id="Trazado_782706" data-name="Trazado 782706" d="M682.813,514.715c.257-.336.5-.683.723-1.037-.227.354-.466.7-.723,1.037" transform="translate(-575.382 -432.859)" fill="#dd2f54"/>
        <path id="Trazado_782707" data-name="Trazado 782707" d="M688.556,505.49a13.464,13.464,0,0,0,.653-1.187,13.464,13.464,0,0,1-.653,1.187" transform="translate(-580.222 -424.959)" fill="#dd2f54"/>
        <path id="Trazado_782708" data-name="Trazado 782708" d="M489.515,182.558c-.026.07-.056.133-.083.2a7.283,7.283,0,0,1-1.2,2.046,6.261,6.261,0,0,0,1.282-2.246" transform="translate(-411.417 -153.836)" fill="#dd2f54"/>
        <path id="Trazado_782709" data-name="Trazado 782709" d="M470.367,186.683c2.449,2.336,6.175,4.3,8.723,6.528a47.457,47.457,0,0,1,12.916,19.271l9.65,25.539v0c.026-.024.049-.051.075-.075q.468-.438.9-.9c.066-.07.133-.14.2-.212.316-.346.62-.7.9-1.067.019-.025.036-.051.055-.076.257-.336.5-.683.723-1.037.061-.1.122-.191.181-.288a13.5,13.5,0,0,0,.653-1.187l-1.825-4.641-10.24-26.044a18.017,18.017,0,0,0-4.177-6.739l-14.646-13.2a6.264,6.264,0,0,1-1.282,2.246,7.85,7.85,0,0,1-2.26,1.613c-.171.087-.349.174-.539.261l-.011.005" transform="translate(-396.362 -153.836)" fill="#b32143"/>
        <path id="Trazado_782710" data-name="Trazado 782710" d="M460.125,483.017c-1.948-3.084-4.857-7.275-8.092-12.164l-.1,60.152a20.68,20.68,0,0,1-5.738,3.733h0q.752.146,1.518.268l.223.035q.681.106,1.373.192l.243.031q.769.092,1.551.16l.045,0q.837.07,1.688.111l.077,0c.5.023,1.009.036,1.519.043.149,0,.3,0,.45,0q.591,0,1.189-.012c.179,0,.358-.009.538-.015.393-.013.789-.033,1.187-.057.168-.01.335-.018.5-.03.559-.039,1.121-.086,1.689-.146Z" transform="translate(-375.998 -396.772)" fill="#b32143"/>
      </g>
    </g>
  </g>
</svg>
