<svg xmlns="http://www.w3.org/2000/svg" xmlns:xlink="http://www.w3.org/1999/xlink" width="161" height="161" viewBox="0 0 161 161">
  <defs>
    <filter id="Elipse_4932" x="0" y="0" width="161" height="161" filterUnits="userSpaceOnUse">
      <feOffset dy="3" input="SourceAlpha"/>
      <feGaussianBlur stdDeviation="3" result="blur"/>
      <feFlood flood-opacity="0.161"/>
      <feComposite operator="in" in2="blur"/>
      <feComposite in="SourceGraphic"/>
    </filter>
  </defs>
  <g id="Grupo_1055537" data-name="Grupo 1055537" transform="translate(-216 -11386)">
    <g transform="matrix(1, 0, 0, 1, 216, 11386)" filter="url(#Elipse_4932)">
      <circle id="Elipse_4932-2" data-name="Elipse 4932" cx="71.5" cy="71.5" r="71.5" transform="translate(9 6)" fill="#fff"/>
    </g>
    <g id="unido" transform="translate(244 11412)">
      <path id="Trazado_30648" data-name="Trazado 30648" d="M80.513,150.382a1.6,1.6,0,1,1,.091,0l-.046,0Zm-6.365-.238a1.635,1.635,0,0,1-.187-.01h0a1.583,1.583,0,0,1,.325-3.149l.049,0a1.583,1.583,0,0,1-.182,3.155Zm12.715-.488a1.583,1.583,0,0,1-.3-3.136l.03-.006a1.583,1.583,0,0,1,.595,3.11l-.012,0A1.623,1.623,0,0,1,86.863,149.656Zm-18.995-.718a1.609,1.609,0,0,1-.418-.056l-.009,0a1.583,1.583,0,0,1,.81-3.061l.033.009a1.583,1.583,0,0,1-.416,3.11Zm25.163-.973a1.583,1.583,0,0,1-.542-3.07l.026-.009a1.583,1.583,0,1,1,1.07,2.979l-.014,0A1.587,1.587,0,0,1,93.031,147.965ZM61.84,146.779a1.562,1.562,0,0,1-.646-.14l-.022-.01a1.573,1.573,0,1,1,.667.15Zm37.022-1.43a1.6,1.6,0,1,1,.779-.206l-.036.02a1.578,1.578,0,0,1-.743.186ZM113.237,131.2l.01.007-.167-.119Zm-73.064-6.9a1.585,1.585,0,0,1-1.468-.987l0-.011a1.583,1.583,0,0,1,2.925-1.208l.011.028a1.584,1.584,0,0,1-1.465,2.179Zm78.566-3.038a1.594,1.594,0,1,1,1.521-1.145l-.02.062A1.583,1.583,0,0,1,118.739,121.263Zm-80.5-3.056a1.584,1.584,0,0,1-1.539-1.215l0-.021a1.583,1.583,0,1,1,3.079-.735l0,.021a1.585,1.585,0,0,1-1.54,1.951Zm81.957-3.17a1.563,1.563,0,0,1-.277-.025,1.592,1.592,0,1,1,1.844-1.349l-.01.066A1.584,1.584,0,0,1,120.195,115.038Zm-82.934-3.152a1.581,1.581,0,0,1-1.575-1.443l0-.066a1.583,1.583,0,1,1,1.717,1.5C37.352,111.884,37.306,111.886,37.261,111.886Zm83.419-3.223a1.582,1.582,0,0,1-1.583-1.583v-.116a1.583,1.583,0,1,1,3.166,0v.021c0,.011,0,.022,0,.033s0,.027,0,.042v.021A1.582,1.582,0,0,1,120.68,108.663ZM37.257,105.5c-.046,0-.092,0-.138-.006a1.593,1.593,0,1,1,1.719-1.505l-.006.066a1.583,1.583,0,0,1-1.575,1.446Zm82.926-3.3a1.582,1.582,0,0,1-1.556-1.308l-.011-.066a1.583,1.583,0,1,1,1.844,1.349A1.554,1.554,0,0,1,120.183,102.194Zm.266-1.644-.267.039ZM38.217,99.176a1.595,1.595,0,1,1,1.552-1.28l-.014.065a1.582,1.582,0,0,1-1.538,1.215Zm80.514-3.2a1.6,1.6,0,0,1-1.509-1.091l-.018-.055a1.583,1.583,0,0,1,3.026-.931v0a1.575,1.575,0,0,1-1,1.993A1.543,1.543,0,0,1,118.73,95.978ZM40.136,93.073a1.584,1.584,0,0,1-1.466-2.179l.008-.019a1.583,1.583,0,1,1,2.933,1.191l-.008.02a1.583,1.583,0,0,1-1.467.987Zm76.194-3.023a1.593,1.593,0,0,1-1.415-.862l-.024-.046a1.583,1.583,0,0,1,2.842-1.4v0a1.582,1.582,0,0,1-1.4,2.3ZM42.97,87.338a1.6,1.6,0,1,1,1.39-.821l-.038.062a1.58,1.58,0,0,1-1.352.759Zm70.073-2.78a1.593,1.593,0,1,1,1.275-2.52l.034.048a1.583,1.583,0,0,1-1.308,2.472Zm-66.4-2.453a1.583,1.583,0,0,1-1.217-2.594l.014-.016a1.583,1.583,0,1,1,2.436,2.022l-.014.016a1.578,1.578,0,0,1-1.219.572Zm62.318-2.472a1.588,1.588,0,1,1,1.115-2.705l.026.026a1.583,1.583,0,0,1-1.142,2.679ZM51.077,77.494a1.582,1.582,0,0,1-1.05-2.768l.006-.006a1.583,1.583,0,0,1,2.117,2.353l-.026.023a1.579,1.579,0,0,1-1.048.4Zm53.109-2.109a1.576,1.576,0,0,1-.934-.306l-.054-.041a1.583,1.583,0,1,1,.987.346Zm.142-1.8-.158.2Zm-48.175.022a1.6,1.6,0,1,1,.905-.285L57,73.36a1.574,1.574,0,0,1-.85.248Zm42.659-1.7a1.57,1.57,0,0,1-.739-.185l-.038-.021a1.583,1.583,0,0,1,1.525-2.773l0,0a1.584,1.584,0,0,1-.753,2.977Zm-37.05-1.369a1.583,1.583,0,0,1-.655-3.025l.037-.016a1.583,1.583,0,1,1,.618,3.041Zm0,0" transform="translate(-28.365 -53.567)" fill="#a7c7d3"/>
      <path id="Trazado_30649" data-name="Trazado 30649" d="M206.8,206.761l-23.83-23.831a3.816,3.816,0,1,1,5.4-5.4l-6.137-6.137a3.813,3.813,0,0,1,5.033-5.711l-2.335-2.335a3.815,3.815,0,0,1-1.121-2.7,3.58,3.58,0,0,1,.051-.62,3.817,3.817,0,0,1,6.467-2.075L193,160.629a3.817,3.817,0,0,1-1.071-3.31,3.776,3.776,0,0,1,1.067-2.091,3.82,3.82,0,0,1,5.4,0l15.487,15.487.043-.062a6.978,6.978,0,0,1,9.878.008l7.221,7.221a7.407,7.407,0,0,1,2.17,5.228l0,4.518a7.973,7.973,0,0,0,2.337,5.632l1.61,1.61-18.418,18.418-2.058-2.058a7.978,7.978,0,0,0-5.118-2.319,7.4,7.4,0,0,1-4.751-2.155Zm0,0" transform="translate(-144.007 -122.543)" fill="#fecbaa"/>
      <path id="Trazado_30650" data-name="Trazado 30650" d="M356.9,365.7,377.8,344.791a1.763,1.763,0,0,1,2.494,0l7.445,7.445a1.763,1.763,0,0,1,0,2.494l-20.905,20.906a1.763,1.763,0,0,1-2.494,0l-7.446-7.445A1.765,1.765,0,0,1,356.9,365.7Zm0,0" transform="translate(-283.378 -273.75)" fill="#fdd559"/>
      <path id="Trazado_30651" data-name="Trazado 30651" d="M461.872,382.13a1.58,1.58,0,1,0,0-2.237A1.581,1.581,0,0,0,461.872,382.13Zm0,0" transform="translate(-366.889 -301.705)" fill="#ff8812"/>
      <path id="Trazado_30652" data-name="Trazado 30652" d="M346.426,233.772l-5.332-5.332.043-.062a6.941,6.941,0,0,1,2.7-1.676l4.831,4.831a1.583,1.583,0,0,1-2.238,2.238Zm0,0" transform="translate(-271.221 -180.263)" fill="#ffae85"/>
      <path id="Trazado_30653" data-name="Trazado 30653" d="M87.689,206.77l23.83-23.83a3.816,3.816,0,1,0-5.4-5.4l6.137-6.136a3.813,3.813,0,0,0-5.033-5.711l2.335-2.336a3.812,3.812,0,0,0,1.121-2.7,3.578,3.578,0,0,0-.051-.621,3.817,3.817,0,0,0-6.467-2.074l-2.674,2.674a3.816,3.816,0,1,0-5.4-5.4L80.606,170.728l-.043-.061a6.979,6.979,0,0,0-9.878.007L63.464,177.9a7.408,7.408,0,0,0-2.17,5.228l0,4.517a7.97,7.97,0,0,1-2.337,5.633l-1.61,1.61L75.761,213.3l2.058-2.058a7.979,7.979,0,0,1,5.118-2.319,7.4,7.4,0,0,0,4.752-2.155Zm0,0" transform="translate(-45.596 -122.549)" fill="#fecbaa"/>
      <path id="Trazado_30654" data-name="Trazado 30654" d="M31.363,365.707,10.457,344.8a1.763,1.763,0,0,0-2.494,0L.518,352.247a1.763,1.763,0,0,0,0,2.494l20.905,20.906a1.764,1.764,0,0,0,2.495,0l7.445-7.445a1.764,1.764,0,0,0,0-2.5Zm0,0" transform="translate(-0.001 -273.759)" fill="#ff84a7"/>
      <path id="Trazado_30655" data-name="Trazado 30655" d="M107.791,452.069a1.58,1.58,0,1,0-2.237,0A1.581,1.581,0,0,0,107.791,452.069Zm0,0" transform="translate(-83.564 -357.317)" fill="#ef6085"/>
      <path id="Trazado_30656" data-name="Trazado 30656" d="M134.39,233.784l5.332-5.332-.043-.061a6.941,6.941,0,0,0-2.7-1.676l-4.831,4.83a1.583,1.583,0,0,0,2.239,2.239Zm0,0" transform="translate(-104.712 -180.273)" fill="#ffae85"/>
      <path id="Trazado_30657" data-name="Trazado 30657" d="M184.659,81.67v33.7a3.816,3.816,0,1,1-7.631,0v8.678a3.809,3.809,0,0,1-1.116,2.7,3.81,3.81,0,0,1-4.909.414,3.814,3.814,0,0,1-1.572-2.637v3.3a3.815,3.815,0,0,1-1.119,2.7,3.615,3.615,0,0,1-.475.4,3.817,3.817,0,0,1-6.041-3.106V124.05a3.816,3.816,0,1,1-7.631,0v-21.9l-.074.013a6.978,6.978,0,0,1-6.979-6.99V84.958a7.411,7.411,0,0,1,2.163-5.232l3.191-3.2a7.972,7.972,0,0,0,2.33-5.635V68.618h26.046v2.91a7.981,7.981,0,0,0,1.98,5.259,7.405,7.405,0,0,1,1.836,4.884Zm0,0" transform="translate(-116.977 -54.561)" fill="#fedfc5"/>
      <path id="Trazado_30658" data-name="Trazado 30658" d="M177.125,177.538a3.82,3.82,0,0,0-5.4,0l6.137-6.137a3.813,3.813,0,0,0-5.033-5.711l2.336-2.336a3.815,3.815,0,0,0,1.12-2.7,3.6,3.6,0,0,0-.05-.621,3.818,3.818,0,0,0-6.468-2.074l-2.674,2.674a3.816,3.816,0,1,0-5.4-5.4l-15.487,15.487-.043-.061a6.941,6.941,0,0,0-2.7-1.676,7.015,7.015,0,0,0-3.623-.224,10.223,10.223,0,0,0,5.377,4.067v19.2a6.988,6.988,0,0,0,8.344,6.854,7,7,0,0,0,4.048,3.554l19.506-19.506a3.817,3.817,0,0,0,0-5.4Zm0,0" transform="translate(-111.197 -122.549)" fill="#ffae85"/>
      <path id="Trazado_30659" data-name="Trazado 30659" d="M214.847,183.353V169.874a7.084,7.084,0,0,0-.932.783l-.043.062-15.487-15.487a3.82,3.82,0,0,0-5.4,0,3.776,3.776,0,0,0-1.067,2.091,3.817,3.817,0,0,0,1.071,3.31l-2.674-2.674a3.814,3.814,0,0,0-6.468,2.075,3.654,3.654,0,0,0-.05.62,3.815,3.815,0,0,0,1.121,2.7l2.335,2.335a3.81,3.81,0,0,0-6.1,2.4,3.74,3.74,0,0,0-.049.611,3.8,3.8,0,0,0,1.12,2.7l6.137,6.137a3.816,3.816,0,1,0-5.4,5.4l15.965,15.964a7.012,7.012,0,0,0,1.312.123,6.92,6.92,0,0,0,4.085-1.322,7.053,7.053,0,0,0,.853-.726,6.938,6.938,0,0,0,2.044-4.94v-1.72c.214.02.432.03.65.03a6.992,6.992,0,0,0,6.981-6.987Zm0,0" transform="translate(-144 -122.542)" fill="#ffae85"/>
      <path id="Trazado_30660" data-name="Trazado 30660" d="M184.659,81.67v33.7a3.816,3.816,0,0,1-3.815,3.822c-.057,0-.118,0-.179,0a3.776,3.776,0,0,1-2.049-.718s0,0,0,0a3.814,3.814,0,0,1-1.583-3.1v8.678a3.809,3.809,0,0,1-1.116,2.7,3.81,3.81,0,0,1-4.909.414,3.814,3.814,0,0,1-1.572-2.637v3.3a3.815,3.815,0,0,1-1.119,2.7,3.611,3.611,0,0,1-.475.4,3.817,3.817,0,0,1-6.041-3.106V124.05a3.816,3.816,0,1,1-7.631,0v-21.9l-.074.013a6.978,6.978,0,0,1-6.979-6.99V84.958a7.411,7.411,0,0,1,2.163-5.232l3.191-3.2a8,8,0,0,0,2.33-5.635V68.618h26.046v2.91a7.231,7.231,0,0,0,.251,1.968,7.936,7.936,0,0,0,1.728,3.29,7.463,7.463,0,0,1,1.836,4.884Zm0,0" transform="translate(-116.977 -54.561)" fill="#fedfc5"/>
      <path id="Trazado_30661" data-name="Trazado 30661" d="M213.1,81.671v33.7a3.816,3.816,0,0,1-3.815,3.822c-.057,0-.118,0-.179,0a3.776,3.776,0,0,1-2.049-.718L207.123,86a4.965,4.965,0,0,0-.126-.9A14.679,14.679,0,0,0,192.312,73.25h-9.429a7.942,7.942,0,0,0,.357-2.355V68.618h26.046v2.91a7.23,7.23,0,0,0,.251,1.968,7.935,7.935,0,0,0,1.728,3.29,7.464,7.464,0,0,1,1.836,4.884Zm0,0" transform="translate(-145.419 -54.562)" fill="#fecbaa"/>
      <path id="Trazado_30662" data-name="Trazado 30662" d="M198.431,14.057H168.865a1.764,1.764,0,0,1-1.764-1.764V1.764A1.764,1.764,0,0,1,168.865,0h29.565a1.764,1.764,0,0,1,1.764,1.764v10.53A1.764,1.764,0,0,1,198.431,14.057Zm0,0" transform="translate(-132.871 0)" fill="#83d9ff"/>
      <path id="Trazado_30663" data-name="Trazado 30663" d="M195.622,28.169a1.58,1.58,0,1,0-1.58,1.583A1.581,1.581,0,0,0,195.622,28.169Zm0,0" transform="translate(-153.036 -21.14)" fill="#5186ff"/>
      <g id="Grupo_45594" data-name="Grupo 45594" transform="translate(34.024 38.463)">
        <path id="Trazado_30664" data-name="Trazado 30664" d="M288.588,204.614v20.735a3.813,3.813,0,0,1-1.584-3.1v8.678a3.805,3.805,0,0,1-1.116,2.7,3.693,3.693,0,0,1-.466.4V204.615a1.583,1.583,0,0,1,3.166,0Zm0,0" transform="translate(-260.978 -199.904)" fill="#fecbaa"/>
        <path id="Trazado_30665" data-name="Trazado 30665" d="M251.45,204.614v29.429a3.815,3.815,0,0,1-1.572-2.636v3.3a3.813,3.813,0,0,1-1.119,2.7,3.619,3.619,0,0,1-.475.4v-33.2a1.583,1.583,0,1,1,3.166,0Zm0,0" transform="translate(-231.448 -199.903)" fill="#fecbaa"/>
        <path id="Trazado_30666" data-name="Trazado 30666" d="M214.235,204.614v33.194a3.814,3.814,0,0,1-1.583-3.1v-3.783a3.816,3.816,0,0,1-1.583,3.1V204.614a1.583,1.583,0,0,1,3.166,0Zm0,0" transform="translate(-201.857 -199.903)" fill="#fecbaa"/>
        <path id="Trazado_30667" data-name="Trazado 30667" d="M169.259,189.344v7.541l-.074.012a6.944,6.944,0,0,1-3.091-.721v-6.832a1.583,1.583,0,1,1,3.166,0Zm0,0" transform="translate(-166.094 -187.761)" fill="#fecbaa"/>
      </g>
    </g>
  </g>
</svg>
