<svg xmlns="http://www.w3.org/2000/svg" width="122.58" height="119.241" viewBox="0 0 122.58 119.241">
  <g id="patronaje" transform="translate(0 -6.973)">
    <g id="Grupo_1055053" data-name="Grupo 1055053" transform="translate(16.295 11.046)">
      <path id="Trazado_781164" data-name="Trazado 781164" d="M166.788,59.151A57.6,57.6,0,0,0,68.061,46.495L70.79,79.4A47.5,47.5,0,0,0,127.727,122l32.711-6.749q.311-.431.616-.867a57.677,57.677,0,0,0,5.734-55.234Z" transform="translate(-68.061 -23.984)" fill="#e278b1"/>
    </g>
    <g id="Grupo_1055054" data-name="Grupo 1055054" transform="translate(4.379 11.045)">
      <path id="Trazado_781165" data-name="Trazado 781165" d="M128.661,58.527a57.6,57.6,0,0,0-103.368-4.5l.053.076C4.6,91.947,32.038,139.151,75.876,139.151A57.516,57.516,0,0,0,123.2,114.383a5.775,5.775,0,0,0-4.725-9.085,5.77,5.77,0,0,1-5.77-5.77V69.41a5.112,5.112,0,0,1,8.023-4.2,5.112,5.112,0,0,0,7.113-1.291l.324-.468a5.082,5.082,0,0,0,.5-4.922Zm-80.2,22.191c0,6.4-8.818,8.153-11.248,2.234A57.077,57.077,0,0,1,34.307,73.7a6.681,6.681,0,0,1,2.587-6.855A7.37,7.37,0,0,1,48.462,72.9Zm56.5,36.139a57.966,57.966,0,0,1-29.843-.25,3.3,3.3,0,0,1,.888-6.486H104.1a3.424,3.424,0,0,1,.863,6.737Z" transform="translate(-18.292 -23.983)" fill="#dd4fb1"/>
      <path id="Trazado_781166" data-name="Trazado 781166" d="M480.116,358.306c.024-.056.049-.112.073-.169A.178.178,0,0,0,480.116,358.306Z" transform="translate(-369.547 -278.136)" fill="#dd4fb1"/>
    </g>
    <g id="Grupo_1055078" data-name="Grupo 1055078" transform="translate(0 6.973)">
      <g id="Grupo_1055055" data-name="Grupo 1055055" transform="translate(28.239)">
        <path id="Trazado_781167" data-name="Trazado 781167" d="M137.7,48.014c.007.151.005.3,0,.448V84.636h46.015V46.713l12.225,8.469,16.353-23.606-35.514-24.6H125.226a16.9,16.9,0,0,0-7.275,13.89V41.317H131c3.616-.162,6.7,3.194,6.7,6.7Z" transform="translate(-117.951 -6.973)" fill="#4a81f6"/>
      </g>
      <g id="Grupo_1055057" data-name="Grupo 1055057" transform="translate(0 0)">
        <g id="Grupo_1055056" data-name="Grupo 1055056">
          <path id="Trazado_781168" data-name="Trazado 781168" d="M50.432,71.313V43.982a5.606,5.606,0,0,0-8.8-4.608,5.606,5.606,0,0,1-7.8-1.416l-1.174-1.695A21.05,21.05,0,0,1,37.975,6.973H35.514L0,31.575,16.353,55.182,29.76,45.894V95.167H94V82.552H61.67A11.238,11.238,0,0,1,50.432,71.313Z" transform="translate(0 -6.973)" fill="#2896ff"/>
        </g>
      </g>
      <g id="Grupo_1055074" data-name="Grupo 1055074" transform="translate(7.724 5.551)">
        <g id="Grupo_1055058" data-name="Grupo 1055058" transform="translate(27.587 73.717)">
          <path id="Trazado_781169" data-name="Trazado 781169" d="M150.864,341.44h-3.375v-3.375h1.929v1.447h1.447Z" transform="translate(-147.489 -338.065)" fill="#fff"/>
        </g>
        <g id="Grupo_1055059" data-name="Grupo 1055059" transform="translate(27.587 27.921)">
          <path id="Trazado_781170" data-name="Trazado 781170" d="M149.418,188h-1.929v-4.579h1.929Zm0-9.159h-1.929v-4.58h1.929Zm0-9.159h-1.929V165.1h1.929Zm0-9.159h-1.929v-4.58h1.929Zm0-9.159h-1.929v-4.579h1.929Z" transform="translate(-147.489 -146.783)" fill="#fff"/>
        </g>
        <g id="Grupo_1055060" data-name="Grupo 1055060" transform="translate(26.02 19.089)">
          <path id="Trazado_781171" data-name="Trazado 781171" d="M144.44,114.144h-1.929v-.57l-.468.325-1.1-1.586,3.5-2.422Z" transform="translate(-140.945 -109.892)" fill="#fff"/>
        </g>
        <g id="Grupo_1055061" data-name="Grupo 1055061" transform="translate(16.496 24.799)">
          <path id="Trazado_781172" data-name="Trazado 781172" d="M0,0H5.8V1.929H0Z" transform="matrix(0.822, -0.57, 0.57, 0.822, 0, 3.308)" fill="#fff"/>
        </g>
        <g id="Grupo_1055062" data-name="Grupo 1055062" transform="translate(8.109 31.061)">
          <path id="Trazado_781173" data-name="Trazado 781173" d="M68.054,163.768l-1.922-2.775,1.586-1.1.824,1.189,1.189-.824,1.1,1.585Z" transform="translate(-66.132 -159.895)" fill="#fff"/>
        </g>
        <g id="Grupo_1055063" data-name="Grupo 1055063" transform="translate(3.969 25.112)">
          <path id="Trazado_781174" data-name="Trazado 781174" d="M0,0H1.929V3.622H0Z" transform="translate(0 1.097) rotate(-34.692)" fill="#fff"/>
        </g>
        <g id="Grupo_1055064" data-name="Grupo 1055064" transform="translate(0 18.531)">
          <path id="Trazado_781175" data-name="Trazado 781175" d="M34.184,112.258l-1.922-2.775,2.775-1.922,1.1,1.585-1.189.824.824,1.189Z" transform="translate(-32.262 -107.561)" fill="#fff"/>
        </g>
        <g id="Grupo_1055065" data-name="Grupo 1055065" transform="translate(6.776)">
          <path id="Trazado_781176" data-name="Trazado 781176" d="M153.046,47.5l-4-2.772,1.1-1.586,4,2.772Zm-91.383,0-1.1-1.586,4-2.772,1.1,1.586Zm83.38-5.544-4-2.772,1.1-1.586,4,2.772Zm-75.377,0-1.1-1.586,4-2.772,1.1,1.586Zm67.374-5.544-4-2.772,1.1-1.586,4,2.772Zm-59.371,0-1.1-1.586,4-2.772,1.1,1.586Zm51.591-4.328h-4.868V30.159h4.868Zm-9.736,0h-4.868V30.159h4.868Zm-9.736,0h-4.868V30.159h4.868Zm-9.736,0H95.185V30.159h4.868Zm-9.736,0H85.45V30.159h4.868Z" transform="translate(-60.565 -30.159)" fill="#fff"/>
        </g>
        <g id="Grupo_1055066" data-name="Grupo 1055066" transform="translate(103.259 18.531)">
          <path id="Trazado_781177" data-name="Trazado 781177" d="M465.512,112.258l-1.586-1.1.824-1.189-1.189-.824,1.1-1.585,2.774,1.922Z" transform="translate(-463.561 -107.561)" fill="#fff"/>
        </g>
        <g id="Grupo_1055067" data-name="Grupo 1055067" transform="translate(99.557 25.127)">
          <path id="Trazado_781178" data-name="Trazado 781178" d="M0,0H3.622V1.929H0Z" transform="matrix(0.57, -0.822, 0.822, 0.57, 0, 2.977)" fill="#fff"/>
        </g>
        <g id="Grupo_1055068" data-name="Grupo 1055068" transform="translate(94.326 31.061)">
          <path id="Trazado_781179" data-name="Trazado 781179" d="M429.024,163.768l-2.775-1.922,1.1-1.586,1.189.824.824-1.189,1.585,1.1Z" transform="translate(-426.249 -159.895)" fill="#fff"/>
        </g>
        <g id="Grupo_1055069" data-name="Grupo 1055069" transform="translate(85.622 25.38)">
          <path id="Trazado_781180" data-name="Trazado 781180" d="M0,0H1.929V5.325H0Z" transform="matrix(0.57, -0.822, 0.822, 0.57, 0, 1.586)" fill="#fff"/>
        </g>
        <g id="Grupo_1055070" data-name="Grupo 1055070" transform="translate(78.798 19.908)">
          <path id="Trazado_781181" data-name="Trazado 781181" d="M363.322,117.565h-1.929v-4.252l3.5,2.421-1.1,1.586-.468-.324Z" transform="translate(-361.393 -113.313)" fill="#fff"/>
        </g>
        <g id="Grupo_1055071" data-name="Grupo 1055071" transform="translate(78.798 28.666)">
          <path id="Trazado_781182" data-name="Trazado 781182" d="M363.322,190.439h-1.929v-4.505h1.929Zm0-9.01h-1.929v-4.505h1.929Zm0-9.01h-1.929v-4.505h1.929Zm0-9.01h-1.929V158.9h1.929Zm0-9.01h-1.929v-4.505h1.929Z" transform="translate(-361.393 -149.893)" fill="#fff"/>
        </g>
        <g id="Grupo_1055072" data-name="Grupo 1055072" transform="translate(77.352 73.717)">
          <path id="Trazado_781183" data-name="Trazado 781183" d="M358.725,341.44H355.35v-1.929H356.8v-1.447h1.929Z" transform="translate(-355.35 -338.065)" fill="#fff"/>
        </g>
        <g id="Grupo_1055073" data-name="Grupo 1055073" transform="translate(36.117 75.164)">
          <path id="Trazado_781184" data-name="Trazado 781184" d="M219.2,346.037h-5.154v-1.929H219.2Zm-10.309,0h-5.154v-1.929h5.154Zm-10.309,0h-5.154v-1.929h5.154Zm-10.309,0h-5.154v-1.929h5.154Z" transform="translate(-183.117 -344.108)" fill="#fff"/>
        </g>
      </g>
      <path id="Trazado_781185" data-name="Trazado 781185" d="M244.869,437.806H228.376v4.822h16.493A11.186,11.186,0,0,1,255.5,450.39q2.278-.836,4.461-1.859A16.014,16.014,0,0,0,244.869,437.806Z" transform="translate(-173.7 -334.659)" fill="#f6e738"/>
      <path id="Trazado_781186" data-name="Trazado 781186" d="M120.317,363.627a11.29,11.29,0,0,0-10.409,15.664c.088-.022.176-.042.264-.057,1.56-.265,3.111-.575,4.66-.894a6.464,6.464,0,0,1,5.485-9.891h66.7v-4.822Z" transform="translate(-82.924 -278.239)" fill="#f6e738"/>
      <g id="Grupo_1055076" data-name="Grupo 1055076" transform="translate(26.721 97.566)">
        <g id="Grupo_1055075" data-name="Grupo 1055075">
          <path id="Trazado_781187" data-name="Trazado 781187" d="M141.536,424.151a2.387,2.387,0,0,0-1.688-4.075H122.281a6.477,6.477,0,0,1-6.016-4.1,2.37,2.37,0,0,0-2.209-1.485h-.051a2.383,2.383,0,0,0-2.232,3.236,11.3,11.3,0,0,0,10.507,7.166H139.8a2.387,2.387,0,0,0,1.688-.7Z" transform="translate(-111.609 -414.495)" fill="#f1d333"/>
        </g>
      </g>
      <g id="Grupo_1055077" data-name="Grupo 1055077" transform="translate(103.402 85.388)">
        <path id="Trazado_781188" data-name="Trazado 781188" d="M431.9,363.627h2.814v4.811H431.9Z" transform="translate(-431.899 -363.627)" fill="#453d81"/>
      </g>
    </g>
  </g>
</svg>
