<svg id="pdf_457689" xmlns="http://www.w3.org/2000/svg" width="80" height="80" viewBox="0 0 80 80">
  <path id="Trazado_774804" data-name="Trazado 774804" d="M40,0A40,40,0,1,1,0,40,40,40,0,0,1,40,0Z" fill="#fdbf00"/>
  <path id="Trazado_774805" data-name="Trazado 774805" d="M191.694,169.531a40,40,0,0,1-39.812,36.188,38.389,38.389,0,0,1-4.266-.234L132.6,190.469,171.178,149Z" transform="translate(-111.881 -125.719)" fill="#ff9100"/>
  <path id="Trazado_774806" data-name="Trazado 774806" d="M132.6,97.6h30.531l8.031,8.047V147.1H132.6Z" transform="translate(-111.881 -82.35)" fill="#f8f8f8"/>
  <path id="Trazado_774807" data-name="Trazado 774807" d="M132.6,97.6h30.531l8.031,8.047v3.859H132.6Z" transform="translate(-111.881 -82.35)" fill="#673ab7"/>
  <path id="Trazado_774808" data-name="Trazado 774808" d="M328,97.6v8.047h8.031Z" transform="translate(-276.75 -82.35)" fill="#ebecec"/>
  <path id="Trazado_774809" data-name="Trazado 774809" d="M150.2,120.8v-6.984h2.266a7.394,7.394,0,0,1,1.672.109,1.771,1.771,0,0,1,1,.688,2.2,2.2,0,0,1,.406,1.359,2.289,2.289,0,0,1-.234,1.078,1.977,1.977,0,0,1-.594.688,1.81,1.81,0,0,1-.734.328,8.7,8.7,0,0,1-1.469.094h-.922V120.8Zm1.422-5.812v1.984h.766a3.422,3.422,0,0,0,1.109-.109.961.961,0,0,0,.438-.344.935.935,0,0,0,.156-.547.922.922,0,0,0-.219-.625,1.015,1.015,0,0,0-.562-.312,6.865,6.865,0,0,0-1.016-.047Zm5.094-1.187h2.578a4.829,4.829,0,0,1,1.328.141,2.272,2.272,0,0,1,1.047.641,3.068,3.068,0,0,1,.672,1.141,5.094,5.094,0,0,1,.234,1.656,4.645,4.645,0,0,1-.219,1.484,2.948,2.948,0,0,1-.75,1.234,2.717,2.717,0,0,1-.984.563,4.36,4.36,0,0,1-1.25.156h-2.656Zm1.422,1.188v4.625h1.047a3.668,3.668,0,0,0,.844-.062,1.213,1.213,0,0,0,.563-.3,1.434,1.434,0,0,0,.375-.672,4.608,4.608,0,0,0,.141-1.281,4.291,4.291,0,0,0-.141-1.25,1.626,1.626,0,0,0-.391-.672,1.448,1.448,0,0,0-.656-.328,6.293,6.293,0,0,0-1.156-.062Zm5.625,5.813v-6.984h4.8V115h-3.391v1.641h2.922v1.188h-2.922V120.8Z" transform="translate(-126.731 -96.019)" fill="#f8f8f8"/>
  <path id="Trazado_774810" data-name="Trazado 774810" d="M181.409,214.82a4.809,4.809,0,0,1,2.828.594l.547.578a1.238,1.238,0,0,0-.094-1.594c-1.609-1.625-7.516-.687-9.609-.469-.234.016-.516-.234-.687-.359a15.384,15.384,0,0,1-2.625-2.312l-1.219-1.531a19.747,19.747,0,0,1-2.3-4.281c-.187-.453-.141-.391-.031-.875.063-.3.125-.609.172-.922a17.894,17.894,0,0,0,.328-4c-.266-.047-.2.094-.266.313l-.828,2.688c-.031.078-.047.141-.078.219a.29.29,0,0,0-.031.109l-.062.094a9.806,9.806,0,0,1-.375-1.484,19.943,19.943,0,0,1-.453-5c.063-1.047.438-2.719,1.3-1.266a8.867,8.867,0,0,1,.609,1.219l.484,1.344a3.7,3.7,0,0,0,.047-1.656,2.535,2.535,0,0,0-.594-1.234c-.125-.062-.172-.156-.312-.25-.109-.078-.219-.125-.344-.2a2.153,2.153,0,0,0-1.594-.109l-.281.141-.187.141c-.047.047,0,.016-.078.047a4.335,4.335,0,0,0-.3.422,3.771,3.771,0,0,0-.359,1.766,28.022,28.022,0,0,0,1.422,8.5c.078.234-.016.328-.094.547-.328.813-.719,1.656-1.062,2.453-.8,1.859-2.781,5.734-3.781,7.531-.672,1.2-1.281,2.484-1.969,3.672a20.493,20.493,0,0,1-1.141,1.719,28.08,28.08,0,0,1-1.937,2.313c-.25.2-.453.469-.7.688-.141.125-.219.234-.375.359-.125.109-.234.219-.375.328-.156.125-.594.594-.844.422-.484-.5,1.922-3.594,2.5-4.156l1.984-2.047a11.273,11.273,0,0,0-2.469,1.344c-.984.7-3.187,2.953-3.3,4.25-.109,1.344,1.984,2.094,3.625,1.016a3.006,3.006,0,0,0,.531-.422A19.142,19.142,0,0,0,159.1,222.8c.906-1.344,1.719-2.672,2.547-4.078.125-.219.313-.25.547-.359a39.631,39.631,0,0,1,11.953-3.172c.313-.031.406.094.656.234.219.125.391.219.609.344a23.42,23.42,0,0,0,3.969,1.672c1.781.516,5.172,1.172,5.344-1.187l-.187.156c-.844.656-3.078.141-3.937-.109a25.3,25.3,0,0,1-3.625-1.328C178.44,214.867,180,214.8,181.409,214.82Zm-11.281,0a37.865,37.865,0,0,0-6.437,1.969c-.344.156-.828.422-1.125.516a3.744,3.744,0,0,1,.328-.594c.656-1.094,2.969-5.453,3.406-6.437.188-.422.359-.812.547-1.25.172-.422.313-.875.5-1.3.156.219.375.75.516,1a13.727,13.727,0,0,0,1.875,2.656c.234.281.5.547.734.8l1.594,1.406c.25.2.641.438.859.641Z" transform="translate(-128.987 -163.961)" fill="#673ab7"/>
</svg>
