<svg xmlns="http://www.w3.org/2000/svg" xmlns:xlink="http://www.w3.org/1999/xlink" width="1321.141" height="507.976" viewBox="0 0 1321.141 507.976">
  <defs>
    <clipPath id="clip-path">
      <rect id="Rectángulo_25728" data-name="Rectángulo 25728" width="210.956" height="102.955" transform="translate(210.956 102.955) rotate(180)" fill="none"/>
    </clipPath>
    <clipPath id="clip-path-2">
      <rect id="Rectángulo_25729" data-name="Rectángulo 25729" width="169.592" height="82.768" fill="none"/>
    </clipPath>
  </defs>
  <g id="Grupo_1055530" data-name="Grupo 1055530" transform="translate(-144.332 -70)">
    <path id="Rectangle_652" data-name="Rectangle 652" d="M1299.213,0H20.787C9.307,0,0,8.4,0,18.772V488.063c0,10.367,9.307,18.772,20.787,18.772H1299.213c11.48,0,20.787-8.4,20.787-18.772V18.772C1320,8.4,1310.693,0,1299.213,0Z" transform="translate(144.332 70)" fill="#673ab7"/>
    <line id="Línea_296" data-name="Línea 296" y1="19.509" x2="19.509" transform="translate(1274.004 379.573)" fill="none" stroke="#673ab7" stroke-linecap="round" stroke-width="18"/>
    <g id="Grupo_1054398" data-name="Grupo 1054398" transform="translate(-47.514 -575.992)">
      <path id="Trazado_29882" data-name="Trazado 29882" d="M196.845,812.724c75.623,4.41,152.005-9.349,222.863-40.143,38.54-16.748,80.776-47.409,82.157-94.893.131-4.486-.241-9.325-2.722-12.783-3.28-4.571-9.038-5.233-14.176-5.552l-29.987-1.86c-8.163-.506-18.219.189-21.811,8.661-3.079,7.262.666,15.743,4.313,22.644q15.9,30.083,31.8,60.167c8.3,15.7,16.942,31.837,29.907,42.532,21.074,17.386,49.98,17.011,74.569,7.594s46.215-26.692,68.6-41.75a453.213,453.213,0,0,1,130.595-60.7c29.252-8.188,65.979-10.2,83.309,18.2,10.135,16.605,9.852,39.672,2.459,58.1s-20.939,32.733-35.7,43.8c-43.574,32.669-97.333,39.885-148.783,48.322A1999.285,1999.285,0,0,0,348.574,947.2c-9.709,3.333-20.041,7.24-26.215,16.5-5.414,8.124-6.6,18.868-7.563,29.055-3.359,35.423-4.322,77.074,19.389,99.911,20.887,20.118,51.548,16.19,78.4,11.112,53.807-10.175,108.919-21.067,156.108-52.578,39.455-26.349,71.558-66.01,112.155-89.939C725.01,935.23,775.764,929.728,825,922.893a2100.99,2100.99,0,0,0,276.047-57.487c22.166-6.189,45.463-13.528,61.317-32.44,18.46-22.022,22.832-54.851,36.262-81.279,20.958-41.239,61.372-62.84,99.335-82a177.548,177.548,0,0,0-99.243-9.821" transform="translate(0 0.174)" fill="none" stroke="#895cd8" stroke-linecap="round" stroke-linejoin="round" stroke-width="0.5" stroke-dasharray="12"/>
      <path id="Trazado_29883" data-name="Trazado 29883" d="M914.393,742.616a553.12,553.12,0,0,1,90.159,56.711c11.532,8.912,23.129,18.833,28.69,32.3,8.6,20.836.632,44.93-11.2,64.119s-27.525,36.133-36.383,56.862c-1.965,4.6-3.594,9.7-2.313,14.531,1.02,3.849,3.753,6.988,6.559,9.814,24.584,24.75,59.8,35.866,94.3,41.06,38.5,5.8,78.487,5.2,115.587-6.6s71.148-35.5,91.16-68.891c25.23-42.1,26.853-95.994,55.9-135.556,24.205-32.967,63.7-50.76,102.416-63.949,4.861-1.656,10.234-3.257,15.009-1.366,5.778,2.287,8.518,8.75,10.622,14.6q15.433,42.873,27.734,86.788c3.191,11.4,6.229,23.484,3.158,34.913-6.684,24.866-36.885,33.555-55.853,50.968-16.336,15-24.3,36.908-30.077,58.316-4.208,15.588-7.5,32.56-1.472,47.539,9.093,22.614,35.525,32.309,59.432,37.054a369.859,369.859,0,0,0,74.988,7.058" transform="translate(-45.615 65.493)" fill="none" stroke="#895cd8" stroke-linecap="round" stroke-linejoin="round" stroke-width="0.5" stroke-dasharray="12"/>
      <path id="Trazado_29884" data-name="Trazado 29884" d="M1464.878,663.245c-35.369-19.213-77.775-6.508-110,19.773s-56.578,64.427-81.356,100.943c-62.7,92.407-132.506,179.2-215.576,242.8s-180.624,103.013-278.257,95.122c-28.476-2.3-56.631-8.546-84.714-14.779-18-4-36.176-8.053-53.061-16.726-76.176-39.13-107.3-159.853-182.889-200.68-31.589-17.062-67.216-17.853-101.711-17.176-49.1.966-103.559,7.3-136.718,51.855" transform="translate(1.481)" fill="none" stroke="#895cd8" stroke-linecap="round" stroke-linejoin="round" stroke-width="0.5" stroke-dasharray="12"/>
    </g>
    <g id="Grupo_1054399" data-name="Grupo 1054399" transform="translate(549.785 70.24)">
      <circle id="Elipse_1789" data-name="Elipse 1789" cx="8.58" cy="8.58" r="8.58" transform="matrix(0.987, -0.16, 0.16, 0.987, 36.781, 469.361)" fill="none" stroke="#bfbfbf" stroke-miterlimit="10" stroke-width="3.227" opacity="0.5"/>
      <circle id="Elipse_1790" data-name="Elipse 1790" cx="8.58" cy="8.58" r="8.58" transform="translate(676.987 365.148)" fill="none" stroke="#fff" stroke-miterlimit="10" stroke-width="3.227"/>
      <g id="Grupo_26920" data-name="Grupo 26920" transform="translate(37.061 23.773)" style="isolation: isolate">
        <line id="Línea_209" data-name="Línea 209" y2="19.178" transform="translate(9.589)" fill="none" stroke="#fff" stroke-linecap="round" stroke-linejoin="round" stroke-width="3.227"/>
        <line id="Línea_210" data-name="Línea 210" x1="19.178" transform="translate(0 9.589)" fill="none" stroke="#fff" stroke-linecap="round" stroke-linejoin="round" stroke-width="3.227"/>
      </g>
      <g id="Grupo_26921" data-name="Grupo 26921" transform="translate(76.426 23.773)" style="isolation: isolate">
        <line id="Línea_211" data-name="Línea 211" y2="19.178" transform="translate(9.589)" fill="none" stroke="#fff" stroke-linecap="round" stroke-linejoin="round" stroke-width="3.227"/>
        <line id="Línea_212" data-name="Línea 212" x1="19.178" transform="translate(0 9.589)" fill="none" stroke="#fff" stroke-linecap="round" stroke-linejoin="round" stroke-width="3.227"/>
      </g>
      <g id="Grupo_26922" data-name="Grupo 26922" transform="translate(115.791 23.773)" style="isolation: isolate">
        <line id="Línea_213" data-name="Línea 213" y2="19.178" transform="translate(9.589)" fill="none" stroke="#fff" stroke-linecap="round" stroke-linejoin="round" stroke-width="3.227"/>
        <line id="Línea_214" data-name="Línea 214" x1="19.178" transform="translate(0 9.589)" fill="none" stroke="#fff" stroke-linecap="round" stroke-linejoin="round" stroke-width="3.227"/>
      </g>
      <g id="Grupo_26925" data-name="Grupo 26925" transform="translate(821.106 308.749)" style="isolation: isolate">
        <g id="Grupo_26923" data-name="Grupo 26923" transform="translate(0 35.604)">
          <line id="Línea_215" data-name="Línea 215" x1="13.561" y2="13.561" fill="none" stroke="#fff" stroke-linecap="round" stroke-linejoin="round" stroke-width="3.227"/>
          <line id="Línea_216" data-name="Línea 216" x1="13.561" y1="13.561" fill="none" stroke="#fff" stroke-linecap="round" stroke-linejoin="round" stroke-width="3.227"/>
        </g>
        <g id="Grupo_26924" data-name="Grupo 26924" transform="translate(35.604)">
          <line id="Línea_217" data-name="Línea 217" x1="13.561" y2="13.561" fill="none" stroke="#fff" stroke-linecap="round" stroke-linejoin="round" stroke-width="3.227"/>
          <line id="Línea_218" data-name="Línea 218" x1="13.561" y1="13.561" fill="none" stroke="#fff" stroke-linecap="round" stroke-linejoin="round" stroke-width="3.227"/>
        </g>
      </g>
      <g id="Grupo_26929" data-name="Grupo 26929" transform="translate(785.502 380.413)" style="isolation: isolate">
        <g id="Grupo_26926" data-name="Grupo 26926">
          <line id="Línea_219" data-name="Línea 219" x1="13.561" y1="13.561" fill="none" stroke="#fff" stroke-linecap="round" stroke-linejoin="round" stroke-width="3.227"/>
          <line id="Línea_220" data-name="Línea 220" y1="13.561" x2="13.561" fill="none" stroke="#fff" stroke-linecap="round" stroke-linejoin="round" stroke-width="3.227"/>
        </g>
        <g id="Grupo_26927" data-name="Grupo 26927" transform="translate(35.604 35.604)">
          <line id="Línea_221" data-name="Línea 221" x1="13.561" y1="13.561" fill="none" stroke="#fff" stroke-linecap="round" stroke-linejoin="round" stroke-width="3.227"/>
          <line id="Línea_222" data-name="Línea 222" y1="13.561" x2="13.561" fill="none" stroke="#fff" stroke-linecap="round" stroke-linejoin="round" stroke-width="3.227"/>
        </g>
        <g id="Grupo_26928" data-name="Grupo 26928" transform="translate(71.208 71.208)">
          <line id="Línea_223" data-name="Línea 223" x1="13.561" y1="13.561" fill="none" stroke="#fff" stroke-linecap="round" stroke-linejoin="round" stroke-width="3.227"/>
          <line id="Línea_224" data-name="Línea 224" y1="13.561" x2="13.561" fill="none" stroke="#fff" stroke-linecap="round" stroke-linejoin="round" stroke-width="3.227"/>
        </g>
      </g>
      <g id="Grupo_26932" data-name="Grupo 26932" transform="translate(545.782 -0.24)">
        <g id="Grupo_26931" data-name="Grupo 26931" transform="translate(0)" clip-path="url(#clip-path)">
          <g id="Grupo_26930" data-name="Grupo 26930" transform="translate(-2.259 -110.26)">
            <line id="Línea_225" data-name="Línea 225" x1="108.486" y1="108.486" transform="translate(99.922)" fill="none" stroke="#fff" stroke-linecap="round" stroke-linejoin="round" stroke-width="3.227"/>
            <line id="Línea_226" data-name="Línea 226" x1="108.486" y1="108.486" transform="translate(92.784 7.137)" fill="none" stroke="#fff" stroke-linecap="round" stroke-linejoin="round" stroke-width="3.227"/>
            <line id="Línea_227" data-name="Línea 227" x1="108.486" y1="108.486" transform="translate(85.647 14.274)" fill="none" stroke="#fff" stroke-linecap="round" stroke-linejoin="round" stroke-width="3.227"/>
            <line id="Línea_228" data-name="Línea 228" x1="108.486" y1="108.486" transform="translate(78.51 21.412)" fill="none" stroke="#fff" stroke-linecap="round" stroke-linejoin="round" stroke-width="3.227"/>
            <line id="Línea_229" data-name="Línea 229" x1="108.486" y1="108.486" transform="translate(71.373 28.549)" fill="none" stroke="#fff" stroke-linecap="round" stroke-linejoin="round" stroke-width="3.227"/>
            <line id="Línea_230" data-name="Línea 230" x1="108.486" y1="108.486" transform="translate(64.235 35.686)" fill="none" stroke="#fff" stroke-linecap="round" stroke-linejoin="round" stroke-width="3.227"/>
            <line id="Línea_231" data-name="Línea 231" x1="108.486" y1="108.486" transform="translate(57.098 42.824)" fill="none" stroke="#fff" stroke-linecap="round" stroke-linejoin="round" stroke-width="3.227"/>
            <line id="Línea_232" data-name="Línea 232" x1="108.486" y1="108.486" transform="translate(49.961 49.961)" fill="none" stroke="#fff" stroke-linecap="round" stroke-linejoin="round" stroke-width="3.227"/>
            <line id="Línea_233" data-name="Línea 233" x1="108.486" y1="108.486" transform="translate(42.824 57.098)" fill="none" stroke="#fff" stroke-linecap="round" stroke-linejoin="round" stroke-width="3.227"/>
            <line id="Línea_234" data-name="Línea 234" x1="108.486" y1="108.486" transform="translate(35.686 64.235)" fill="none" stroke="#fff" stroke-linecap="round" stroke-linejoin="round" stroke-width="3.227"/>
            <line id="Línea_235" data-name="Línea 235" x1="108.486" y1="108.486" transform="translate(28.549 71.373)" fill="none" stroke="#fff" stroke-linecap="round" stroke-linejoin="round" stroke-width="3.227"/>
            <line id="Línea_236" data-name="Línea 236" x1="108.486" y1="108.486" transform="translate(21.412 78.51)" fill="none" stroke="#fff" stroke-linecap="round" stroke-linejoin="round" stroke-width="3.227"/>
            <line id="Línea_237" data-name="Línea 237" x1="108.486" y1="108.486" transform="translate(14.274 85.647)" fill="none" stroke="#fff" stroke-linecap="round" stroke-linejoin="round" stroke-width="3.227"/>
            <line id="Línea_238" data-name="Línea 238" x1="108.486" y1="108.486" transform="translate(7.137 92.784)" fill="none" stroke="#fff" stroke-linecap="round" stroke-linejoin="round" stroke-width="3.227"/>
            <line id="Línea_239" data-name="Línea 239" x1="108.486" y1="108.486" transform="translate(0 99.922)" fill="none" stroke="#fff" stroke-linecap="round" stroke-linejoin="round" stroke-width="3.227"/>
          </g>
        </g>
      </g>
      <g id="Grupo_26935" data-name="Grupo 26935" transform="translate(592.104 422.682)">
        <g id="Grupo_26934" data-name="Grupo 26934" clip-path="url(#clip-path-2)">
          <g id="Grupo_26933" data-name="Grupo 26933" transform="translate(3.864 3.864)">
            <line id="Línea_240" data-name="Línea 240" x2="87.214" y2="87.214" transform="translate(0 80.329)" fill="none" stroke="#fff" stroke-linecap="round" stroke-linejoin="round" stroke-width="3.227"/>
            <line id="Línea_241" data-name="Línea 241" x2="87.214" y2="87.214" transform="translate(5.738 74.591)" fill="none" stroke="#fff" stroke-linecap="round" stroke-linejoin="round" stroke-width="3.227"/>
            <line id="Línea_242" data-name="Línea 242" x2="87.214" y2="87.214" transform="translate(11.476 68.854)" fill="none" stroke="#fff" stroke-linecap="round" stroke-linejoin="round" stroke-width="3.227"/>
            <line id="Línea_243" data-name="Línea 243" x2="87.214" y2="87.214" transform="translate(17.213 63.116)" fill="none" stroke="#fff" stroke-linecap="round" stroke-linejoin="round" stroke-width="3.227"/>
            <line id="Línea_244" data-name="Línea 244" x2="87.214" y2="87.214" transform="translate(22.951 57.378)" fill="none" stroke="#fff" stroke-linecap="round" stroke-linejoin="round" stroke-width="3.227"/>
            <line id="Línea_245" data-name="Línea 245" x2="87.214" y2="87.214" transform="translate(28.689 51.64)" fill="none" stroke="#fff" stroke-linecap="round" stroke-linejoin="round" stroke-width="3.227"/>
            <line id="Línea_246" data-name="Línea 246" x2="87.214" y2="87.214" transform="translate(34.427 45.902)" fill="none" stroke="#fff" stroke-linecap="round" stroke-linejoin="round" stroke-width="3.227"/>
            <line id="Línea_247" data-name="Línea 247" x2="87.214" y2="87.214" transform="translate(40.165 40.165)" fill="none" stroke="#fff" stroke-linecap="round" stroke-linejoin="round" stroke-width="3.227"/>
            <line id="Línea_248" data-name="Línea 248" x2="87.214" y2="87.214" transform="translate(45.902 34.427)" fill="none" stroke="#fff" stroke-linecap="round" stroke-linejoin="round" stroke-width="3.227"/>
            <line id="Línea_249" data-name="Línea 249" x2="87.214" y2="87.214" transform="translate(51.64 28.689)" fill="none" stroke="#fff" stroke-linecap="round" stroke-linejoin="round" stroke-width="3.227"/>
            <line id="Línea_250" data-name="Línea 250" x2="87.214" y2="87.214" transform="translate(57.378 22.951)" fill="none" stroke="#fff" stroke-linecap="round" stroke-linejoin="round" stroke-width="3.227"/>
            <line id="Línea_251" data-name="Línea 251" x2="87.214" y2="87.214" transform="translate(63.116 17.213)" fill="none" stroke="#fff" stroke-linecap="round" stroke-linejoin="round" stroke-width="3.227"/>
            <line id="Línea_252" data-name="Línea 252" x2="87.214" y2="87.214" transform="translate(68.854 11.476)" fill="none" stroke="#fff" stroke-linecap="round" stroke-linejoin="round" stroke-width="3.227"/>
            <line id="Línea_253" data-name="Línea 253" x2="87.214" y2="87.214" transform="translate(74.591 5.738)" fill="none" stroke="#fff" stroke-linecap="round" stroke-linejoin="round" stroke-width="3.227"/>
            <line id="Línea_254" data-name="Línea 254" x2="87.214" y2="87.214" transform="translate(80.329)" fill="none" stroke="#fff" stroke-linecap="round" stroke-linejoin="round" stroke-width="3.227"/>
          </g>
        </g>
      </g>
      <g id="Grupo_26939" data-name="Grupo 26939" transform="translate(415.279 137.8)">
        <g id="Grupo_26936" data-name="Grupo 26936">
          <path id="Trazado_67567" data-name="Trazado 67567" d="M1111.663,246.437a2.61,2.61,0,1,0-2.61-2.61A2.611,2.611,0,0,0,1111.663,246.437Z" transform="translate(-1063.805 -241.216)" fill="#fff" stroke="#fff" stroke-miterlimit="10" stroke-width="0.75"/>
          <path id="Trazado_67568" data-name="Trazado 67568" d="M1075.5,246.437a2.61,2.61,0,1,0-2.61-2.61A2.61,2.61,0,0,0,1075.5,246.437Z" transform="translate(-1050.262 -241.216)" fill="#fff" stroke="#fff" stroke-miterlimit="10" stroke-width="0.75"/>
          <path id="Trazado_67569" data-name="Trazado 67569" d="M1039.329,246.437a2.61,2.61,0,1,0-2.61-2.61A2.61,2.61,0,0,0,1039.329,246.437Z" transform="translate(-1036.719 -241.216)" fill="#fff" stroke="#fff" stroke-miterlimit="10" stroke-width="0.75"/>
        </g>
        <g id="Grupo_26937" data-name="Grupo 26937" transform="translate(0 22.624)">
          <path id="Trazado_67570" data-name="Trazado 67570" d="M1111.663,282.6a2.61,2.61,0,1,0-2.61-2.61A2.611,2.611,0,0,0,1111.663,282.6Z" transform="translate(-1063.805 -277.383)" fill="#fff" stroke="#fff" stroke-miterlimit="10" stroke-width="0.75"/>
          <path id="Trazado_67571" data-name="Trazado 67571" d="M1075.5,282.6a2.61,2.61,0,1,0-2.61-2.61A2.61,2.61,0,0,0,1075.5,282.6Z" transform="translate(-1050.262 -277.383)" fill="#fff" stroke="#fff" stroke-miterlimit="10" stroke-width="0.75"/>
          <path id="Trazado_67572" data-name="Trazado 67572" d="M1039.329,282.6a2.61,2.61,0,1,0-2.61-2.61A2.61,2.61,0,0,0,1039.329,282.6Z" transform="translate(-1036.719 -277.383)" fill="#fff" stroke="#fff" stroke-miterlimit="10" stroke-width="0.75"/>
        </g>
        <g id="Grupo_26938" data-name="Grupo 26938" transform="translate(0 45.247)">
          <path id="Trazado_67573" data-name="Trazado 67573" d="M1111.663,318.77a2.611,2.611,0,1,0-2.61-2.611A2.611,2.611,0,0,0,1111.663,318.77Z" transform="translate(-1063.805 -313.549)" fill="#fff" stroke="#fff" stroke-miterlimit="10" stroke-width="0.75"/>
          <path id="Trazado_67574" data-name="Trazado 67574" d="M1075.5,318.77a2.611,2.611,0,1,0-2.61-2.611A2.611,2.611,0,0,0,1075.5,318.77Z" transform="translate(-1050.262 -313.549)" fill="#fff" stroke="#fff" stroke-miterlimit="10" stroke-width="0.75"/>
          <path id="Trazado_67575" data-name="Trazado 67575" d="M1039.329,318.77a2.611,2.611,0,1,0-2.61-2.611A2.611,2.611,0,0,0,1039.329,318.77Z" transform="translate(-1036.719 -313.549)" fill="#fff" stroke="#fff" stroke-miterlimit="10" stroke-width="0.75"/>
        </g>
      </g>
      <path id="Trazado_67576" data-name="Trazado 67576" d="M1242.263,620.406,1123.518,501.661,1321.49,303.69" transform="translate(-406.943 -113.81)" fill="none" stroke="#fff" stroke-miterlimit="10" stroke-width="3.227"/>
    </g>
  </g>
</svg>
