<svg id="Grupo_1055503" data-name="Grupo 1055503" xmlns="http://www.w3.org/2000/svg" width="79.995" height="80" viewBox="0 0 79.995 80">
  <ellipse id="Elipse_4949" data-name="Elipse 4949" cx="26.5" cy="26" rx="26.5" ry="26" transform="translate(14 15)" fill="#673ab7"/>
  <path id="boton-de-play" d="M59.448,49.556a2.034,2.034,0,1,1-4.068,0V30.444a2.034,2.034,0,1,1,4.068,0ZM57.414,25.909a4.54,4.54,0,0,0-4.535,4.534V49.556a4.535,4.535,0,1,0,9.069,0V30.444A4.54,4.54,0,0,0,57.414,25.909ZM48.522,40.1,24.569,53.925a.11.11,0,0,1-.166-.1V26.171a.087.087,0,0,1,.055-.1.106.106,0,0,1,.054-.02.109.109,0,0,1,.057.02L48.522,39.9a.111.111,0,0,1,0,.191Zm1.25-2.356L25.819,23.91A2.61,2.61,0,0,0,21.9,26.171V53.83a2.607,2.607,0,0,0,3.916,2.261l23.952-13.83a2.611,2.611,0,0,0,0-4.522ZM40.01,0a40,40,0,1,0,40,40,40.044,40.044,0,0,0-40-40Z" transform="translate(-0.011)" fill="#ffd54f" fill-rule="evenodd"/>
</svg>
