<svg id="web" xmlns="http://www.w3.org/2000/svg" width="80" height="80.001" viewBox="0 0 80 80.001">
  <circle id="Elipse_4937" data-name="Elipse 4937" cx="39.846" cy="39.846" r="39.846" fill="#fdbf00"/>
  <path id="Trazado_780722" data-name="Trazado 780722" d="M170.525,130.388a40.383,40.383,0,0,0-.65-7.225L153.732,107.02,107,153.752l16.139,16.139a40.183,40.183,0,0,0,47.386-39.5Z" transform="translate(-90.525 -90.541)" fill="#ff9100"/>
  <g id="Grupo_1054920" data-name="Grupo 1054920" transform="translate(16.475 16.476)">
    <path id="Trazado_780723" data-name="Trazado 780723" d="M153.742,107v10.955l-3.834,2.83H112.761L107,117.955V107Z" transform="translate(-107 -107)" fill="#61d7a8"/>
    <path id="Trazado_780724" data-name="Trazado 780724" d="M279.371,107v10.955l-3.834,2.83H256V107Z" transform="translate(-232.629 -107)" fill="#00ab94"/>
    <g id="Grupo_1054909" data-name="Grupo 1054909" transform="translate(0 10.955)">
      <path id="Trazado_780725" data-name="Trazado 780725" d="M107,176.844v35.787h46.742V176.844Z" transform="translate(-107 -176.844)" fill="#dae9fa"/>
    </g>
    <rect id="Rectángulo_362204" data-name="Rectángulo 362204" width="23.371" height="35.787" transform="translate(23.371 10.955)" fill="#afc5f4"/>
    <path id="Trazado_780726" data-name="Trazado 780726" d="M167.153,212.348v14.488l-2.328,1.534-4.519-4.492-3.7,3.67-4.519-6.08-6.819,9.093-2.766-.876V212.348Z" transform="translate(-136.935 -195.824)" fill="#3e5959"/>
    <path id="Trazado_780727" data-name="Trazado 780727" d="M262.847,212.348v14.488l-2.328,1.534L256,223.878v-11.53Z" transform="translate(-232.629 -195.824)" fill="#293939"/>
    <path id="Trazado_780728" data-name="Trazado 780728" d="M234.139,267.91v1.944l-3.259,2.739h-4.272l-4.656-6.19,5.341-5.341Z" transform="translate(-203.921 -236.898)" fill="#00ab94"/>
    <path id="Trazado_780729" data-name="Trazado 780729" d="M262.847,267.91v1.944l-3.259,2.739H256v-11.53Z" transform="translate(-232.629 -236.898)" fill="#009184"/>
    <g id="Grupo_1054910" data-name="Grupo 1054910" transform="translate(5.569 21.098)">
      <path id="Trazado_780730" data-name="Trazado 780730" d="M160.991,253.366l-.685-.9-8.216-10.955L142.5,254.27v7.313h24.649v-8.216Z" transform="translate(-142.504 -241.507)" fill="#61d7a8"/>
    </g>
    <g id="Grupo_1054911" data-name="Grupo 1054911" transform="translate(32.956 22.002)">
      <rect id="Rectángulo_362205" data-name="Rectángulo 362205" width="8.308" height="2.739" fill="#95a8ce"/>
    </g>
    <g id="Grupo_1054912" data-name="Grupo 1054912" transform="translate(32.956 16.524)">
      <rect id="Rectángulo_362206" data-name="Rectángulo 362206" width="8.308" height="2.739" fill="#95a8ce"/>
    </g>
    <g id="Grupo_1054913" data-name="Grupo 1054913" transform="translate(32.956 27.479)">
      <rect id="Rectángulo_362207" data-name="Rectángulo 362207" width="8.308" height="2.739" fill="#95a8ce"/>
    </g>
    <g id="Grupo_1054914" data-name="Grupo 1054914" transform="translate(32.956 32.956)">
      <rect id="Rectángulo_362208" data-name="Rectángulo 362208" width="8.308" height="2.739" fill="#95a8ce"/>
    </g>
    <g id="Grupo_1054915" data-name="Grupo 1054915" transform="translate(32.956 38.434)">
      <rect id="Rectángulo_362209" data-name="Rectángulo 362209" width="8.308" height="2.739" fill="#95a8ce"/>
    </g>
    <g id="Grupo_1054916" data-name="Grupo 1054916" transform="translate(22.002 5.478)">
      <rect id="Rectángulo_362210" data-name="Rectángulo 362210" width="19.263" height="2.739" fill="#3e5959"/>
    </g>
    <rect id="Rectángulo_362211" data-name="Rectángulo 362211" width="17.893" height="2.739" transform="translate(23.371 5.478)" fill="#293939"/>
    <g id="Grupo_1054917" data-name="Grupo 1054917" transform="translate(5.569 5.478)">
      <rect id="Rectángulo_362212" data-name="Rectángulo 362212" width="2.739" height="2.739" fill="#3e5959"/>
    </g>
    <g id="Grupo_1054918" data-name="Grupo 1054918" transform="translate(11.046 5.478)">
      <rect id="Rectángulo_362213" data-name="Rectángulo 362213" width="2.739" height="2.739" fill="#3e5959"/>
    </g>
    <g id="Grupo_1054919" data-name="Grupo 1054919" transform="translate(16.524 5.478)">
      <rect id="Rectángulo_362214" data-name="Rectángulo 362214" width="2.739" height="2.739" fill="#3e5959"/>
    </g>
    <path id="Trazado_780731" data-name="Trazado 780731" d="M262.847,312.255v8.216H256v-9.12l.685.9Z" transform="translate(-232.629 -279.298)" fill="#00ab94"/>
  </g>
</svg>
