<svg xmlns="http://www.w3.org/2000/svg" xmlns:xlink="http://www.w3.org/1999/xlink" width="505" height="287.568" viewBox="0 0 505 287.568">
  <defs>
    <clipPath id="clip-path">
      <rect id="Rectángulo_361926" data-name="Rectángulo 361926" width="501.587" height="281.44" transform="translate(0 6.149) rotate(-0.702)" fill="none"/>
    </clipPath>
  </defs>
  <g id="Grupo_1054418" data-name="Grupo 1054418" transform="translate(-0.002 0.005)">
    <g id="Grupo_1054417" data-name="Grupo 1054417" transform="translate(0.002 -0.005)" clip-path="url(#clip-path)">
      <path id="Trazado_771797" data-name="Trazado 771797" d="M1119.656,268.43s17.556-73.122,14.752-80.051-5.893-4.316-5.82-8.376,3.986-13.845,1.784-22.1-5.91-8.8-8.29-15.213.544-31.329-11.222-42.429-23.44-15.464-28.52-13.677,3.233,36.846-4.72,53.626c-4.558,9.619,1.438,14.658.436,19.9s-11.083,20.138-5.326,37.792c2.317,7.1,23.42,53.18,23.291,59.7s22.552,15.4,23.634,10.833" transform="translate(-901.941 -72.507)" fill="#43b572"/>
      <path id="Trazado_771798" data-name="Trazado 771798" d="M1165.426,93.138c4.64,7.534,10.5,19.473,12.075,33.572.762,6.83,1.878,15.645,3.059,24.978,3.513,27.766,7.886,62.322,6.723,74.032-.274,2.76-.565,5.848-.873,9.116-1.035,10.986-2.254,23.914-3.635,32.9q-.714-.276-1.43-.58c1.347-8.9,2.547-21.632,3.568-32.466.308-3.271.6-6.36.874-9.124,1.146-11.54-3.214-46-6.718-73.691-1.182-9.338-2.3-18.159-3.062-25-1.541-13.8-7.287-25.514-11.836-32.908a93.468,93.468,0,0,0-5.341-7.775,13.641,13.641,0,0,1,2,.14c1.4,1.888,2.975,4.166,4.6,6.8" transform="translate(-975.937 -72.51)" fill="#79d894"/>
      <path id="Trazado_771799" data-name="Trazado 771799" d="M791.7,461.117s-4.07-29.727-8.752-51.621-10.962-14.782-13.05-20.258-4.865-34.091-15.233-38.07-7.51,6.141-15.492,2.017-11.263-26.056-35.83-21.27S713.5,369.3,711.438,372.6s-7.056,6.15-6.624,14.274,25.671,21.366,22.533,28.591-6.138,9.822-3.26,17.707,27.389,34.146,32.93,42.809,49.955,7.722,34.687-14.863" transform="translate(-584.907 -278.647)" fill="#36995e"/>
      <path id="Trazado_771800" data-name="Trazado 771800" d="M727.2,338.7c9.835,8.873,30.7,29.134,43.222,51.708,14.79,26.655,34.426,75.336,38.23,96.016q-.866.189-1.76.336c-3.7-20.144-23.605-69.423-38.054-95.463-12.715-22.914-34.144-43.453-43.557-51.875a14.809,14.809,0,0,1,1.918-.722" transform="translate(-610.816 -284.925)" fill="#79d894"/>
      <path id="Trazado_771801" data-name="Trazado 771801" d="M2425.443,518.465c-1.681-21.652-26.018-6.136-26.407-17.839s70.982-40.736,41.487-61.108-60.891,39.364-70.855,31.542-6.632-26.349-26.388-16.125c-10.737,5.556-20.785,28.648-27.907,49.324-7.088,20.578-1.282,41.941,14.305,53l9.692,6.877c12.264,8.7,28.731,9.677,43.718,2.48,20.027-9.618,44.082-25.9,42.354-48.153" transform="translate(-1947.431 -366.154)" fill="#36995e"/>
      <path id="Trazado_771802" data-name="Trazado 771802" d="M2443.229,553.871a.794.794,0,0,1,.994.731l3.034,34.593q1.608-2.009,3.351-4.176c8.766-10.892,21.4-22.832,33.824-33.539l4.531-16.168a1.054,1.054,0,0,1,1.142-.792.843.843,0,0,1,.608,1.111l-3.86,13.774c19.976-17.005,38.7-30.412,39.012-30.633a.833.833,0,0,1,1.243.206,1.067,1.067,0,0,1-.359,1.349c-.312.222-19.274,13.8-39.329,30.91l10.563,1.407a.834.834,0,0,1,.658,1.076,1.067,1.067,0,0,1-1.115.84l-12.1-1.613c-12.314,10.616-24.821,22.435-33.488,33.2q-1.805,2.244-3.458,4.311l36.594-1.515a.807.807,0,0,1,.829.927,1.1,1.1,0,0,1-.994,1l-38.016,1.574c-18.841,23.63-22.521,29.626-22.558,29.687a.964.964,0,0,1-1.272.423c-.02-.012-.039-.024-.058-.037a.94.94,0,0,1-.181-1.261c.154-.256,3.734-6.117,22.757-29.969l-3.18-36.269a1.113,1.113,0,0,1,.829-1.153" transform="translate(-2040.307 -436.252)" fill="#79d894"/>
      <path id="Trazado_771803" data-name="Trazado 771803" d="M1661.459,346.905l39.55,123.142h-66.084l-39.549-123.142Z" transform="translate(-1343.586 -291.829)" fill="#b1d5de"/>
      <path id="Trazado_771804" data-name="Trazado 771804" d="M1681.669,409.83l-53.308,39.779-32.985-102.7h66.249Z" transform="translate(-1343.585 -291.829)" fill="#84c0ce"/>
      <path id="Trazado_771805" data-name="Trazado 771805" d="M1227.768,363.1l-15.426-41.081-5.861-3.594h-6.349c-5.4,0-10.111,4.631-12.614,12.389l-38.4,119.008v1.385h10.592l37.174-124.054,5.057-3.89c2.641,1.028,5.056,4.258,6.566,8.936l38.4,119.008H1257.5v-1.385Z" transform="translate(-967.755 -267.873)" fill="#4395a8"/>
      <path id="Trazado_771806" data-name="Trazado 771806" d="M1525.215,330.817c-2.5-7.758-7.219-12.389-12.614-12.389v4.487c3.315,0,6.523,3.559,8.371,9.288l38.4,119.008,4.242-1.385Z" transform="translate(-1273.875 -267.873)" fill="#5cbec6"/>
      <path id="Trazado_771807" data-name="Trazado 771807" d="M1500.834,362.361h-94.766a7.418,7.418,0,0,1-7.375-7.419v-.618a7.418,7.418,0,0,1,7.375-7.419h94.766a7.419,7.419,0,0,1,7.375,7.419v.618a7.419,7.419,0,0,1-7.375,7.419" transform="translate(-1177.944 -291.829)" fill="#4395a8"/>
      <path id="Trazado_771808" data-name="Trazado 771808" d="M1309.416,346.905l-39.55,123.142h61.852l39.549-123.142Z" transform="translate(-1069.45 -291.829)" fill="#e7f2f2"/>
      <path id="Trazado_771809" data-name="Trazado 771809" d="M1759.095,363.1l-15.426-41.081-5.861-3.594h-6.349c-5.4,0-10.11,4.631-12.614,12.389l-38.4,119.008v1.385h10.592l37.174-124.054,5.057-3.89c2.641,1.028,5.056,4.258,6.566,8.936l38.4,119.008h10.592v-1.385Z" transform="translate(-1415.225 -267.873)" fill="#4395a8"/>
      <path id="Trazado_771810" data-name="Trazado 771810" d="M1818.465,451.21l-38.4-119.008c-1.849-5.729-5.056-9.288-8.371-9.288s-6.523,3.559-8.371,9.288l-38.4,119.008-4.242-1.385,38.4-119.008c2.5-7.758,7.219-12.389,12.614-12.389s10.111,4.632,12.614,12.389l38.4,119.008Z" transform="translate(-1449.107 -267.872)" fill="#5cbec6"/>
      <path id="Trazado_771811" data-name="Trazado 771811" d="M2050.988,380.9c-.792-.024-1.189.975-1.318,1.61a3.6,3.6,0,0,0,.452,2.742,1.1,1.1,0,0,0,.818.509,1,1,0,0,0,.751-.368,3.28,3.28,0,0,0,.632-2.421c-.062-.731-.406-2.043-1.335-2.072" transform="translate(-1726.109 -320.43)" fill="#434a59"/>
      <path id="Trazado_771812" data-name="Trazado 771812" d="M2040.682,359.279a2.547,2.547,0,0,0-2.013,1.128,6.812,6.812,0,0,0-1.211,3,10.056,10.056,0,0,0,.058,3.785,6.363,6.363,0,0,0,1.3,2.873,2.384,2.384,0,0,0,2.036.933,2.724,2.724,0,0,0,1.774-1.178,8.5,8.5,0,0,0,1.21-6.122,7.55,7.55,0,0,0-.956-2.847,3.187,3.187,0,0,0-1.707-1.488,1.952,1.952,0,0,0-.493-.08M2042,365.31a2.676,2.676,0,0,1-.881,2.1c-.642.434-1.259-.117-1.539-.7a3.872,3.872,0,0,1-.12-2.853c.211-.6.756-1.393,1.491-1.082.88.373,1.08,1.7,1.048,2.53" transform="translate(-1715.769 -302.238)" fill="#e7f2f2"/>
      <path id="Trazado_771813" data-name="Trazado 771813" d="M1227.748,330.817l-38.4,119.008,4.242,1.385,38.4-119.008c1.849-5.729,5.057-9.288,8.371-9.288v-4.487c-5.4,0-10.111,4.631-12.614,12.389" transform="translate(-1001.636 -267.873)" fill="#5cbec6"/>
      <path id="Trazado_771814" data-name="Trazado 771814" d="M1440.069,437.442a.294.294,0,0,1-.092-.015.3.3,0,0,1-.191-.377l15.888-49.468a.3.3,0,1,1,.566.184l-15.888,49.468a.3.3,0,0,1-.283.207" transform="translate(-1212.54 -325.874)" fill="#b1d5de"/>
      <path id="Trazado_771815" data-name="Trazado 771815" d="M1604.069,346.9l-12.244,38.123a.3.3,0,0,0,.192.377.3.3,0,0,0,.091.014.3.3,0,0,0,.283-.207l12.3-38.307Z" transform="translate(-1340.583 -291.829)" fill="#b1d5de"/>
      <path id="Trazado_771816" data-name="Trazado 771816" d="M1592.109,581.155a.3.3,0,0,1-.091-.015.3.3,0,0,1-.192-.377l15.888-49.468a.3.3,0,1,1,.566.184l-15.887,49.468a.3.3,0,0,1-.283.207" transform="translate(-1340.584 -446.77)" fill="#b1d5de"/>
      <path id="Trazado_771817" data-name="Trazado 771817" d="M1708.793,369.912a.3.3,0,0,0,.374-.193l7.327-22.814h-.625l-7.268,22.63a.3.3,0,0,0,.191.377" transform="translate(-1438.93 -291.829)" fill="#b1d5de"/>
      <path id="Trazado_771818" data-name="Trazado 771818" d="M1733.966,517.979a.291.291,0,0,1-.091-.015.3.3,0,0,1-.192-.377l15.887-49.468a.3.3,0,1,1,.566.184l-15.888,49.468a.3.3,0,0,1-.283.207" transform="translate(-1460.052 -393.625)" fill="#b1d5de"/>
      <rect id="Rectángulo_361891" data-name="Rectángulo 361891" width="262.544" height="59.38" transform="translate(165.687 215.953)" fill="#434a59"/>
      <path id="Trazado_771819" data-name="Trazado 771819" d="M637.389,1219.368V1304.2a118.332,118.332,0,0,0,27.059,3.18,110.492,110.492,0,0,0,27.059-3.18v-84.837Z" transform="translate(-536.793 -1025.777)" fill="#b1d5de"/>
      <path id="Trazado_771820" data-name="Trazado 771820" d="M980.29,1093.548v84.837l10.972-2.619V1069.8Z" transform="translate(-825.576 -899.957)" fill="#84c0ce"/>
      <path id="Trazado_771821" data-name="Trazado 771821" d="M648.362,1069.8l-10.972,23.745a134.543,134.543,0,0,0,54.118,0L702.48,1069.8Z" transform="translate(-536.793 -899.957)" fill="#e7f2f2"/>
      <path id="Trazado_771822" data-name="Trazado 771822" d="M686.764,1086.715l-7.635,16.3h30.9l7.635-16.3Z" transform="translate(-571.946 -914.184)" fill="#84c0ce"/>
      <path id="Trazado_771823" data-name="Trazado 771823" d="M949.567,1089.269a2.059,2.059,0,0,0-1.882,1.517,1.146,1.146,0,0,0,1.134,1.517,2.059,2.059,0,0,0,1.882-1.517,1.146,1.146,0,0,0-1.134-1.517" transform="translate(-798.078 -916.333)" fill="#ffae43"/>
      <path id="Trazado_771824" data-name="Trazado 771824" d="M993.558,1089.269a2.059,2.059,0,0,0-1.882,1.517,1.146,1.146,0,0,0,1.134,1.517,2.059,2.059,0,0,0,1.882-1.517,1.146,1.146,0,0,0-1.134-1.517" transform="translate(-835.126 -916.333)" fill="#ffae43"/>
      <path id="Trazado_771825" data-name="Trazado 771825" d="M935.952,1118.332a2.059,2.059,0,0,0-1.882,1.517,1.146,1.146,0,0,0,1.134,1.517,2.059,2.059,0,0,0,1.882-1.517,1.146,1.146,0,0,0-1.134-1.517" transform="translate(-786.612 -940.782)" fill="#47b574"/>
      <path id="Trazado_771826" data-name="Trazado 771826" d="M979.943,1118.332a2.059,2.059,0,0,0-1.882,1.517,1.146,1.146,0,0,0,1.134,1.517,2.059,2.059,0,0,0,1.882-1.517,1.146,1.146,0,0,0-1.134-1.517" transform="translate(-823.66 -940.782)" fill="#47b574"/>
      <path id="Trazado_771827" data-name="Trazado 771827" d="M922.337,1147.4a2.059,2.059,0,0,0-1.882,1.517,1.146,1.146,0,0,0,1.134,1.517,2.059,2.059,0,0,0,1.882-1.517,1.146,1.146,0,0,0-1.134-1.517" transform="translate(-775.146 -965.231)" fill="#ff5f4a"/>
      <path id="Trazado_771828" data-name="Trazado 771828" d="M966.328,1147.4a2.059,2.059,0,0,0-1.882,1.517,1.146,1.146,0,0,0,1.134,1.517,2.059,2.059,0,0,0,1.882-1.517,1.146,1.146,0,0,0-1.134-1.517" transform="translate(-812.194 -965.231)" fill="#ff5f4a"/>
      <path id="Trazado_771829" data-name="Trazado 771829" d="M968.088,1105.608l-13.227,13.306v27.117h290.7v-40.424Z" transform="translate(-804.16 -930.078)" fill="#5cbec6"/>
      <rect id="Rectángulo_361892" data-name="Rectángulo 361892" width="290.704" height="27.117" transform="translate(150.701 188.836)" fill="#4395a8"/>
      <path id="Trazado_771830" data-name="Trazado 771830" d="M2713.326,1219.368V1304.2a118.335,118.335,0,0,0,27.06,3.18,110.492,110.492,0,0,0,27.059-3.18v-84.837Z" transform="translate(-2285.095 -1025.777)" fill="#b1d5de"/>
      <path id="Trazado_771831" data-name="Trazado 771831" d="M3056.227,1093.548v84.837l10.973-2.619V1069.8Z" transform="translate(-2573.878 -899.957)" fill="#84c0ce"/>
      <path id="Trazado_771832" data-name="Trazado 771832" d="M2724.3,1069.8l-10.972,23.745a134.545,134.545,0,0,0,54.119,0l10.972-23.745Z" transform="translate(-2285.095 -899.957)" fill="#e7f2f2"/>
      <path id="Trazado_771833" data-name="Trazado 771833" d="M2859.707,1086.715l-7.635,16.3h30.9l7.635-16.3Z" transform="translate(-2401.944 -914.184)" fill="#84c0ce"/>
      <path id="Trazado_771834" data-name="Trazado 771834" d="M2793.193,1089.269a2.059,2.059,0,0,0-1.882,1.517,1.146,1.146,0,0,0,1.134,1.517,2.058,2.058,0,0,0,1.882-1.517,1.146,1.146,0,0,0-1.134-1.517" transform="translate(-2350.734 -916.333)" fill="#ffae43"/>
      <path id="Trazado_771835" data-name="Trazado 771835" d="M2837.184,1089.269a2.059,2.059,0,0,0-1.882,1.517,1.146,1.146,0,0,0,1.134,1.517,2.058,2.058,0,0,0,1.882-1.517,1.146,1.146,0,0,0-1.134-1.517" transform="translate(-2387.782 -916.333)" fill="#ffae43"/>
      <path id="Trazado_771836" data-name="Trazado 771836" d="M2779.578,1118.332a2.059,2.059,0,0,0-1.882,1.517,1.146,1.146,0,0,0,1.133,1.517,2.06,2.06,0,0,0,1.883-1.517,1.147,1.147,0,0,0-1.135-1.517" transform="translate(-2339.268 -940.782)" fill="#47b574"/>
      <path id="Trazado_771837" data-name="Trazado 771837" d="M2823.57,1118.332a2.059,2.059,0,0,0-1.882,1.517,1.146,1.146,0,0,0,1.134,1.517,2.06,2.06,0,0,0,1.883-1.517,1.146,1.146,0,0,0-1.134-1.517" transform="translate(-2376.316 -940.782)" fill="#47b574"/>
      <path id="Trazado_771838" data-name="Trazado 771838" d="M2765.964,1147.4a2.06,2.06,0,0,0-1.883,1.517,1.146,1.146,0,0,0,1.135,1.517,2.059,2.059,0,0,0,1.882-1.517,1.146,1.146,0,0,0-1.134-1.517" transform="translate(-2327.801 -965.231)" fill="#ff5f4a"/>
      <path id="Trazado_771839" data-name="Trazado 771839" d="M2809.954,1147.4a2.059,2.059,0,0,0-1.882,1.517,1.146,1.146,0,0,0,1.134,1.517,2.058,2.058,0,0,0,1.882-1.517,1.146,1.146,0,0,0-1.134-1.517" transform="translate(-2364.85 -965.231)" fill="#ff5f4a"/>
      <rect id="Rectángulo_361893" data-name="Rectángulo 361893" width="262.544" height="6.961" transform="translate(165.687 235.017)" fill="#84c0ce"/>
      <rect id="Rectángulo_361894" data-name="Rectángulo 361894" width="112.834" height="59.38" transform="translate(305.05 215.953)" fill="#e8c23a"/>
      <path id="Trazado_771840" data-name="Trazado 771840" d="M1932.839,1394.346s2.611-1.424,12.328.949,12.038,2.056,21.9,1.424,10.152-2.531,21.029-.316a127.528,127.528,0,0,0,21.175,2.689c3.48.158,9.427-1.424,18.128,0a100.426,100.426,0,0,0,18.274.949v3.639s-14.068-.158-19.579.791a52.669,52.669,0,0,1-16.533,0c-5.947-.791-11.168.158-14.793-.633s-6.526-2.373-10.442-2.215-8.847,1.424-19.144,1.74-13.488.158-16.243-.95-16.1-5.221-16.1-5.221Z" transform="translate(-1627.789 -1172.619)" fill="#e8a438"/>
      <path id="Trazado_771841" data-name="Trazado 771841" d="M1932.839,1516.918s2.611-1.424,12.328.95,12.038,2.057,21.9,1.424,10.152-2.531,21.029-.316a127.539,127.539,0,0,0,21.175,2.69c3.48.158,9.427-1.424,18.128,0a100.4,100.4,0,0,0,18.274.949v3.639s-14.068-.158-19.579.791a52.654,52.654,0,0,1-16.533,0c-5.947-.791-11.168.158-14.793-.633s-6.526-2.374-10.442-2.215-8.847,1.424-19.144,1.74-13.488.158-16.243-.95-16.1-5.221-16.1-5.221Z" transform="translate(-1627.789 -1275.731)" fill="#e8a438"/>
      <path id="Trazado_771842" data-name="Trazado 771842" d="M1932.839,1639.49s2.611-1.424,12.328.95,12.038,2.057,21.9,1.424,10.152-2.531,21.029-.316a127.511,127.511,0,0,0,21.175,2.69c3.48.158,9.427-1.424,18.128,0a100.408,100.408,0,0,0,18.274.949v3.638s-14.068-.158-19.579.791a52.654,52.654,0,0,1-16.533,0c-5.947-.791-11.168.159-14.793-.633s-6.526-2.373-10.442-2.215-8.847,1.424-19.144,1.74-13.488.158-16.243-.949-16.1-5.221-16.1-5.221Z" transform="translate(-1627.789 -1378.843)" fill="#e8a438"/>
      <rect id="Rectángulo_361895" data-name="Rectángulo 361895" width="112.834" height="59.38" transform="translate(174.222 215.953)" fill="#e8c23a"/>
      <path id="Trazado_771843" data-name="Trazado 771843" d="M1103.9,1394.346s2.611-1.424,12.328.949,12.037,2.056,21.9,1.424,10.152-2.531,21.029-.316a127.53,127.53,0,0,0,21.174,2.689c3.481.158,9.427-1.424,18.129,0a100.425,100.425,0,0,0,18.274.949v3.639s-14.068-.158-19.579.791a52.668,52.668,0,0,1-16.533,0c-5.946-.791-11.167.158-14.793-.633s-6.526-2.373-10.442-2.215-8.847,1.424-19.144,1.74-13.488.158-16.244-.95-16.1-5.221-16.1-5.221Z" transform="translate(-929.674 -1172.619)" fill="#e8a438"/>
      <path id="Trazado_771844" data-name="Trazado 771844" d="M1103.9,1516.918s2.611-1.424,12.328.95,12.037,2.057,21.9,1.424,10.152-2.531,21.029-.316a127.54,127.54,0,0,0,21.174,2.69c3.481.158,9.427-1.424,18.129,0a100.4,100.4,0,0,0,18.274.949v3.639s-14.068-.158-19.579.791a52.653,52.653,0,0,1-16.533,0c-5.946-.791-11.167.158-14.793-.633s-6.526-2.374-10.442-2.215-8.847,1.424-19.144,1.74-13.488.158-16.244-.95-16.1-5.221-16.1-5.221Z" transform="translate(-929.674 -1275.731)" fill="#e8a438"/>
      <path id="Trazado_771845" data-name="Trazado 771845" d="M1103.9,1639.49s2.611-1.424,12.328.95,12.037,2.057,21.9,1.424,10.152-2.531,21.029-.316a127.512,127.512,0,0,0,21.174,2.69c3.481.158,9.427-1.424,18.129,0a100.407,100.407,0,0,0,18.274.949v3.638s-14.068-.158-19.579.791a52.653,52.653,0,0,1-16.533,0c-5.946-.791-11.167.159-14.793-.633s-6.526-2.373-10.442-2.215-8.847,1.424-19.144,1.74-13.488.158-16.244-.949-16.1-5.221-16.1-5.221Z" transform="translate(-929.674 -1378.843)" fill="#e8a438"/>
      <path id="Trazado_771846" data-name="Trazado 771846" d="M1103.9,1362.692l112.834,5.715v-8.183H1103.9Z" transform="translate(-929.674 -1144.271)" fill="#e8a438"/>
      <path id="Trazado_771847" data-name="Trazado 771847" d="M1932.839,1362.692l112.834,5.715v-8.183H1932.839Z" transform="translate(-1627.789 -1144.271)" fill="#e8a438"/>
      <rect id="Rectángulo_361896" data-name="Rectángulo 361896" width="270.558" height="17.06" transform="translate(171.527 137.18)" fill="#b1d5de"/>
      <rect id="Rectángulo_361897" data-name="Rectángulo 361897" width="9.279" height="2.057" transform="translate(173.816 150.387)" fill="#84c0ce"/>
      <rect id="Rectángulo_361898" data-name="Rectángulo 361898" width="9.279" height="2.057" transform="translate(187.421 150.387)" fill="#84c0ce"/>
      <rect id="Rectángulo_361899" data-name="Rectángulo 361899" width="9.279" height="2.057" transform="translate(201.025 150.387)" fill="#84c0ce"/>
      <rect id="Rectángulo_361900" data-name="Rectángulo 361900" width="9.279" height="2.057" transform="translate(214.629 150.387)" fill="#84c0ce"/>
      <rect id="Rectángulo_361901" data-name="Rectángulo 361901" width="9.279" height="2.057" transform="translate(228.233 150.387)" fill="#84c0ce"/>
      <rect id="Rectángulo_361902" data-name="Rectángulo 361902" width="9.279" height="2.057" transform="translate(241.838 150.387)" fill="#84c0ce"/>
      <rect id="Rectángulo_361903" data-name="Rectángulo 361903" width="9.279" height="2.057" transform="translate(255.442 150.387)" fill="#84c0ce"/>
      <rect id="Rectángulo_361904" data-name="Rectángulo 361904" width="9.279" height="2.057" transform="translate(269.047 150.387)" fill="#84c0ce"/>
      <rect id="Rectángulo_361905" data-name="Rectángulo 361905" width="9.279" height="2.057" transform="translate(282.651 150.387)" fill="#84c0ce"/>
      <rect id="Rectángulo_361906" data-name="Rectángulo 361906" width="9.279" height="2.057" transform="translate(296.255 150.387)" fill="#84c0ce"/>
      <rect id="Rectángulo_361907" data-name="Rectángulo 361907" width="9.279" height="2.057" transform="translate(309.859 150.387)" fill="#84c0ce"/>
      <rect id="Rectángulo_361908" data-name="Rectángulo 361908" width="9.279" height="2.057" transform="translate(323.464 150.387)" fill="#84c0ce"/>
      <rect id="Rectángulo_361909" data-name="Rectángulo 361909" width="9.279" height="2.057" transform="translate(337.068 150.387)" fill="#84c0ce"/>
      <rect id="Rectángulo_361910" data-name="Rectángulo 361910" width="9.279" height="2.057" transform="translate(350.672 150.387)" fill="#84c0ce"/>
      <rect id="Rectángulo_361911" data-name="Rectángulo 361911" width="9.279" height="2.057" transform="translate(364.277 150.387)" fill="#84c0ce"/>
      <rect id="Rectángulo_361912" data-name="Rectángulo 361912" width="9.279" height="2.057" transform="translate(377.881 150.387)" fill="#84c0ce"/>
      <rect id="Rectángulo_361913" data-name="Rectángulo 361913" width="9.279" height="2.057" transform="translate(391.485 150.387)" fill="#84c0ce"/>
      <rect id="Rectángulo_361914" data-name="Rectángulo 361914" width="9.279" height="2.057" transform="translate(405.09 150.387)" fill="#84c0ce"/>
      <rect id="Rectángulo_361915" data-name="Rectángulo 361915" width="9.279" height="2.057" transform="translate(418.694 150.387)" fill="#84c0ce"/>
      <rect id="Rectángulo_361916" data-name="Rectángulo 361916" width="9.279" height="2.057" transform="translate(432.298 150.387)" fill="#84c0ce"/>
      <path id="Trazado_771848" data-name="Trazado 771848" d="M2495.618,955.422l-20.082-8.181h-10.28v14.8h-12.9v10.341h47.57V961.852a6.938,6.938,0,0,0-4.308-6.43" transform="translate(-2065.313 -796.854)" fill="#5cbec6"/>
      <rect id="Rectángulo_361917" data-name="Rectángulo 361917" width="6.988" height="14.87" transform="translate(383.549 129.745)" fill="#ffae43"/>
      <path id="Trazado_771849" data-name="Trazado 771849" d="M1125.423,955.422l20.082-8.181h10.28v14.8h12.9v10.341h-47.57V961.852a6.937,6.937,0,0,1,4.308-6.43" transform="translate(-944.175 -796.854)" fill="#5cbec6"/>
      <rect id="Rectángulo_361918" data-name="Rectángulo 361918" width="6.988" height="14.87" transform="translate(221.016 129.745)" fill="#ffae43"/>
      <rect id="Rectángulo_361919" data-name="Rectángulo 361919" width="47.57" height="0.897" transform="translate(387.043 175.081)" fill="#4395a8"/>
      <rect id="Rectángulo_361920" data-name="Rectángulo 361920" width="47.57" height="0.897" transform="translate(176.94 175.081)" fill="#4395a8"/>
      <rect id="Rectángulo_361921" data-name="Rectángulo 361921" width="9.942" height="12.44" transform="translate(415.251 268.953)" fill="#4395a8"/>
      <rect id="Rectángulo_361922" data-name="Rectángulo 361922" width="20.406" height="20.527" transform="translate(375.641 260.867)" fill="#4395a8"/>
      <rect id="Rectángulo_361923" data-name="Rectángulo 361923" width="256.375" height="20.527" transform="translate(119.953 260.867)" fill="#5cbec6"/>
      <rect id="Rectángulo_361924" data-name="Rectángulo 361924" width="31.293" height="6.22" transform="translate(393.9 275.173)" fill="#4395a8"/>
      <path id="Trazado_771850" data-name="Trazado 771850" d="M939.863,1414.86c-3.534,0-6.4,8.112-6.4,18.12s2.865,18.12,6.4,18.12h228.651V1414.86Z" transform="translate(-786.14 -1190.232)" fill="#ffe164"/>
      <path id="Trazado_771851" data-name="Trazado 771851" d="M943.147,1587.532H1171.8v-8.245c-8.234-.359-20.681.552-27.061.062-6.692-.513-21.616.751-33.567,1.721s-24.849.691-42.07-.5-32.79.712-47.888.475-46.708-3.322-57.971-3.8c-8.143-.343-19.957-.19-25.877-.079,1.027,6.124,3.23,10.359,5.783,10.359" transform="translate(-789.425 -1326.666)" fill="#fc6"/>
      <path id="Trazado_771852" data-name="Trazado 771852" d="M2395.024,1432.98c0,10.007-2.865,18.12-6.4,18.12s-6.4-8.112-6.4-18.12,2.865-18.12,6.4-18.12,6.4,8.112,6.4,18.12" transform="translate(-2006.252 -1190.233)" fill="#ffae43"/>
      <path id="Trazado_771853" data-name="Trazado 771853" d="M1667.57,1448.206c-2.014,0-3.844-2.044-5.155-5.755a45.388,45.388,0,0,1,0-26.075c1.31-3.711,3.141-5.755,5.155-5.755v1.346c-1.384,0-2.8,1.771-3.894,4.859a44.078,44.078,0,0,0,0,25.174c1.091,3.088,2.51,4.86,3.894,4.86Z" transform="translate(-1398.433 -1186.666)" fill="#ffae43"/>
      <path id="Trazado_771854" data-name="Trazado 771854" d="M2416.542,1507.445c0,2.245-.643,4.066-1.436,4.066s-1.436-1.821-1.436-4.066.643-4.066,1.436-4.066,1.436,1.821,1.436,4.066" transform="translate(-2032.733 -1264.698)" fill="#434a59"/>
      <rect id="Rectángulo_361925" data-name="Rectángulo 361925" width="2.059" height="36.478" transform="translate(384.815 224.389)" fill="#84c0ce"/>
      <path id="Trazado_771855" data-name="Trazado 771855" d="M2416.483,1521.714h-2.753a11.19,11.19,0,0,0-.059,1.155c0,.315.013.621.037.916h5.73v-2.071Z" transform="translate(-2032.733 -1280.122)" fill="#84c0ce"/>
      <path id="Trazado_771856" data-name="Trazado 771856" d="M540.067,331.486s40.229,34.591,45.566,52.763c7.268,39.8-26.151,56.715-51.842,34.4-10.487-9.109,6.276-87.164,6.276-87.164" transform="translate(-446.64 -278.857)" fill="#b1d5de"/>
      <path id="Trazado_771857" data-name="Trazado 771857" d="M362.313,43.11a4.082,4.082,0,0,1,4.671-3.987c4.627.23,7.049,5.367,8.773,8.281s5.382,8.587,3.248,12.191-3.981,6.057-3.248,8.51,3.477,8.127-4.069,8.741-10.33-4.217-11.72-12.344-5.963-18.018,2.345-21.392" transform="translate(-301.043 -32.903)" fill="#ffe164"/>
      <path id="Trazado_771858" data-name="Trazado 771858" d="M119.454,855.787c.847-1.18,56.489-7.751,60.12-4.763a1040.35,1040.35,0,0,1,16.391,136.432c3.543,71.318,9.075,129.187,10.188,153.923.412,9.169-26.136,10.158-26.759,3.929-3.969-39.652-29.791-200.56-32.348-227.3-1.491,8.072-25.312,163.33-33.732,224.825-.855,6.246-30.686,6.648-30.185,1.024,3.224-36.147,9.932-117.017,15.362-182.726,2.242-27.135,4.976-54.8,8.828-73.447,2.928-14.177,8.206-26.419,12.135-31.893" transform="translate(-70.005 -715.264)" fill="#434a59"/>
      <path id="Trazado_771859" data-name="Trazado 771859" d="M209.583,1551.385c-6.038.814-10.348,1.354-11.151,1.354-2.41,0-21.533,4.91-31.346,7.472-.527,6.369-1.063,12.85-1.6,19.392,7.379-.053,23.536-.33,40.041-1.677,1.442-9.462,2.81-18.4,4.061-26.541" transform="translate(-139.364 -1305.082)" fill="#333842"/>
      <path id="Trazado_771860" data-name="Trazado 771860" d="M565.035,1504.321l-.373-.463s-22.275,3.25-40.624,5.822c1.17,8.007,2.464,16.743,3.835,25.935a107.016,107.016,0,0,0,17-3.845c9.541-3.214,16.6-5.746,21.665-7.636-.437-6.732-.944-13.35-1.5-19.813" transform="translate(-441.332 -1265.101)" fill="#333842"/>
      <path id="Trazado_771861" data-name="Trazado 771861" d="M139.1,485.389c5.245-55.025,26.728-146.918,25.2-156.208-3.676-22.369-9.145-36.163-5.985-44.793,3.11-8.492,10.825-18.553,27.47-20.167,18.046-1.75,26.066,11.84,32.986,21.838,7.03,10.157,23.231,131.264,28.228,180.6,1.481,14.63-108.275,22.646-107.9,18.729" transform="translate(-117.148 -222.143)" fill="#e7f2f2"/>
      <path id="Trazado_771862" data-name="Trazado 771862" d="M399.7,178.332l-.428,14.966c-.06,2.464,5.882,8.836,9.806,5.743,1.149-.905-.286-4.3-1.314-6.866L405.057,179.3Z" transform="translate(-336.261 -150.019)" fill="#ff867a"/>
      <path id="Trazado_771863" data-name="Trazado 771863" d="M271.452,811.254c17.372-10.88,19.882-24.878,19.882-24.878l-44.462,12.053c-1.376,7.494-2.992,16.007-4.716,25.132a102.291,102.291,0,0,0,29.3-12.308" transform="translate(-203.938 -661.528)" fill="#b1d5de"/>
      <path id="Trazado_771864" data-name="Trazado 771864" d="M393.508,86.707l-.614,5.781c-.487,4.583,4.2,9.223,8.787,9.509,7,.437,8.312-3.492,7.7-8.783-.327-2.808-4.01-7.3-5.319-9.353-2.984-4.68-9.357-3.752-10.549,2.847" transform="translate(-330.856 -68.085)" fill="#ff867a"/>
      <path id="Trazado_771865" data-name="Trazado 771865" d="M450.6,151.225a18.893,18.893,0,0,0,6.118-1.168s-.336,2.74-1.571,3.857-3.114-.109-4.547-2.689" transform="translate(-379.487 -126.233)" fill="#fff"/>
      <path id="Trazado_771866" data-name="Trazado 771866" d="M376.946,145.854a7.1,7.1,0,0,1-1.045-1.1c-.6-.758-1.664-1.745-2.359-.293-1.011,2.112,2.4,5.974,4.527,4.786,1.58-.883-.136-2.578-1.124-3.392" transform="translate(-314.434 -120.897)" fill="#ff867a"/>
      <path id="Trazado_771867" data-name="Trazado 771867" d="M401.464,187.487l.049-1.728c1.213.411,4.028,2.6,7.921,2.719A15.026,15.026,0,0,0,416,187.329c-1.013,1.968-3.149,3.094-7.068,2.849a7.721,7.721,0,0,1-1.084-.15l1.083,5.14c-2.669-.979-6.107-5.247-7.462-7.681" transform="translate(-338.103 -156.267)" fill="#c66c67"/>
      <path id="Trazado_771868" data-name="Trazado 771868" d="M467.344,520.792h-.005a.6.6,0,0,1-.591-.6c0-.563.471-56.444.932-65.141.476-8.981,2.315-82.268,1.632-88.863-.714-6.9-5.252-29.486-8.662-35.775-3.458-6.377-7.964-15.5-8.009-15.6a.6.6,0,0,1,.269-.8.594.594,0,0,1,.8.271c.045.091,4.54,9.2,7.987,15.555,3.474,6.407,8.079,29.259,8.8,36.225.686,6.626-1.151,80.058-1.628,89.051-.46,8.67-.926,64.523-.931,65.087a.6.6,0,0,1-.6.595" transform="translate(-381.152 -264.103)" fill="#b1d5de"/>
      <path id="Trazado_771869" data-name="Trazado 771869" d="M470.741,137.064a3.57,3.57,0,0,0,.648-1.6c.066-.447.741-.261.675.181a4.024,4.024,0,0,1-.716,1.765c-.261.363-.869.016-.606-.35" transform="translate(-396.392 -113.743)" fill="#c66c67"/>
      <path id="Trazado_771870" data-name="Trazado 771870" d="M434.864,119.245a.445.445,0,0,1,.591.133,1.6,1.6,0,0,1,.319.831.533.533,0,0,1-.621.554c-.459-.08-.9-1.274-.289-1.518" transform="translate(-365.98 -100.262)" fill="#434a59"/>
      <path id="Trazado_771871" data-name="Trazado 771871" d="M469.868,115.086a.445.445,0,0,1,.591.133,1.6,1.6,0,0,1,.319.831.533.533,0,0,1-.621.554c-.459-.08-.9-1.274-.289-1.518" transform="translate(-395.46 -96.763)" fill="#434a59"/>
      <path id="Trazado_771872" data-name="Trazado 771872" d="M419.92,106.714a7.2,7.2,0,0,0-2.027,1.613.3.3,0,1,0,.465.374,6.438,6.438,0,0,1,1.774-1.418c.347-.19.14-.762-.212-.569" transform="translate(-351.875 -89.738)" fill="#434a59"/>
      <path id="Trazado_771873" data-name="Trazado 771873" d="M458.24,99.778c-.515-.066-1.034-.087-1.555-.1-.4-.013-.453.593-.054.606.521.017,1.04.037,1.555.1.393.05.445-.555.053-.606" transform="translate(-384.333 -83.849)" fill="#434a59"/>
      <path id="Trazado_771874" data-name="Trazado 771874" d="M316.507,48.389S315.44,56,312.779,60.66c-3.46,6.054,1.672,11.161,2.052,15.685s-1.152,8.97-4.5,9.675-6.06-1.134-9.9-1.82c-13.339-2.382-2.417-10.969-4.829-15.876s-.811-12.869,1.932-14.524,1.527-4.959,3.2-6.638c5.505-5.52,13.034-1.917,15.77,1.227" transform="translate(-247.317 -37.262)" fill="#ffe164"/>
      <path id="Trazado_771875" data-name="Trazado 771875" d="M58.449,390.013c-3.668,14.845-15.162,35.09-13.587,36.674,1.518,1.527,45.058-17.666,50.093-13,2.521,2.335,5.654,16.932,3.1,20.115-16.125,20.077-74.108,40.249-84.494,18.02-15.181-32.49,38.583-85.488,38.583-85.488s11.709,1.812,6.306,23.679" transform="translate(-9.145 -308.173)" fill="#e7f2f2"/>
      <path id="Trazado_771876" data-name="Trazado 771876" d="M517.929,622.835s11.649-9.65,14.77-10.874,8.142-3.524,8.578-2.78-6.081,4.619-6.081,4.619,2.832,4.544,2.025,6.953a3.39,3.39,0,0,1-3.032,2.43s-6.512,6.812-11.493,5.721a6.016,6.016,0,0,1-4.766-6.07" transform="translate(-436.186 -512.343)" fill="#ff867a"/>
      <path id="Trazado_771877" data-name="Trazado 771877" d="M660.4,502.987l-29.175,6.108c-1.006.21-1.775-.673-1.62-1.863l6.519-51.286a2.278,2.278,0,0,1,1.62-1.956l29.175-6.108a2.219,2.219,0,0,1,2.583,1.544l-7.482,51.605a2.278,2.278,0,0,1-1.62,1.956" transform="translate(-530.224 -376.73)" fill="#e0e0e0"/>
      <path id="Trazado_771878" data-name="Trazado 771878" d="M667.348,506.853l-29.175,6.108c-1.006.211-1.775-.673-1.62-1.863l6.519-50.306a2.278,2.278,0,0,1,1.62-1.956l29.175-6.108c1.006-.211,1.775.673,1.62,1.863L668.969,504.9a2.278,2.278,0,0,1-1.62,1.956" transform="translate(-536.072 -380.826)" fill="#bfbfbf"/>
      <path id="Trazado_771879" data-name="Trazado 771879" d="M772.3,551.655c-.149,1.14.394,2.151,1.212,2.259s1.6-.728,1.751-1.868-.394-2.151-1.213-2.259-1.6.728-1.75,1.868" transform="translate(-650.39 -462.493)" fill="#fff"/>
      <path id="Trazado_771880" data-name="Trazado 771880" d="M859.53,466.3c-.056.43.148.812.457.852s.6-.275.66-.7-.149-.812-.457-.852-.6.275-.66.7" transform="translate(-723.867 -391.67)" fill="#434a59"/>
      <path id="Trazado_771881" data-name="Trazado 771881" d="M831.947,552.843c-.909-1.884-4.544-3.769-6.744-4.911s-2.484-.436-1.775,1.068,4.893,4.162,4.893,4.162-5.194-2.113-6.374-1.47,2.326,3,2.326,3-3.086-1.81-3.626.339c-.359,1.429,3.239,3.45,3.239,3.45s2.512,1.345,1.933,1.583c-1.342.552-4.761.161-5,1.074-.252.95,3.029,2.006,5.453,3.068,1.9.834,2.895,1.842,3.832,1.653,2.13-.428,3.273-10.056,1.846-13.013" transform="translate(-691.108 -460.465)" fill="#ff867a"/>
      <path id="Trazado_771882" data-name="Trazado 771882" d="M79.943,760.378a.591.591,0,0,1-.289-.076.6.6,0,0,1-.231-.816A34.135,34.135,0,0,1,93.794,745.91a35.3,35.3,0,0,1,8.637-3.2.6.6,0,0,1,.223,1.178c-.148.029-14.892,3-22.19,16.177a.6.6,0,0,1-.521.308" transform="translate(-66.824 -624.79)" fill="#b1d5de"/>
      <path id="Trazado_771883" data-name="Trazado 771883" d="M1198.981,1798.458a.961.961,0,0,0,.137-.247c.077-.238-.138-.139-.222-.156-.127-.026-.266,0-.291.167s.069.232.376.236" transform="translate(-1009.433 -1512.583)" fill="#020202"/>
    </g>
  </g>
</svg>
