<svg id="Grupo_1054561" data-name="Grupo 1054561" xmlns="http://www.w3.org/2000/svg" xmlns:xlink="http://www.w3.org/1999/xlink" width="294.032" height="248.132" viewBox="0 0 294.032 248.132">
  <defs>
    <clipPath id="clip-path">
      <rect id="Rectángulo_362001" data-name="Rectángulo 362001" width="294.032" height="248.132" fill="none"/>
    </clipPath>
    <clipPath id="clip-path-2">
      <rect id="Rectángulo_361999" data-name="Rectángulo 361999" width="329.443" height="295.308" fill="none"/>
    </clipPath>
    <clipPath id="clip-path-3">
      <circle id="Elipse_4905" data-name="Elipse 4905" cx="124.066" cy="124.066" r="124.066" fill="none"/>
    </clipPath>
    <clipPath id="clip-path-4">
      <rect id="Rectángulo_362000" data-name="Rectángulo 362000" width="232.958" height="213.823" fill="none"/>
    </clipPath>
  </defs>
  <g id="Grupo_1054560" data-name="Grupo 1054560" clip-path="url(#clip-path)">
    <g id="Grupo_1054554" data-name="Grupo 1054554" transform="translate(0 0)">
      <g id="Grupo_1054553" data-name="Grupo 1054553" clip-path="url(#clip-path-2)">
        <path id="Trazado_772207" data-name="Trazado 772207" d="M703.085,124.066A124.066,124.066,0,1,1,579.019,0,124.066,124.066,0,0,1,703.085,124.066" transform="translate(-410.636 0)" fill="#504490"/>
        <path id="Trazado_772208" data-name="Trazado 772208" d="M162.5,524.956H6.243A6.132,6.132,0,0,1,.034,518.07l20.1-204.484A7.771,7.771,0,0,1,27.7,306.7H183.956a6.132,6.132,0,0,1,6.209,6.886l-20.1,204.484a7.77,7.77,0,0,1-7.563,6.886" transform="translate(0 -276.824)" fill="#7367af"/>
        <path id="Trazado_772209" data-name="Trazado 772209" d="M360.224,685.963l-132.68,2.72a2.5,2.5,0,0,1-2.595-2.75L238.873,506.9a3.169,3.169,0,0,1,3.032-2.865l132.68-2.72a2.5,2.5,0,0,1,2.6,2.75L363.256,683.1a3.169,3.169,0,0,1-3.032,2.865" transform="translate(-203.029 -452.481)" fill="#ddcdfe"/>
        <path id="Trazado_772210" data-name="Trazado 772210" d="M270.678,626.443,138.659,622.7a2.5,2.5,0,0,1-2.444-2.887l22.665-179a3.167,3.167,0,0,1,3.155-2.728l132.019,3.747a2.5,2.5,0,0,1,2.444,2.887l-22.665,179a3.167,3.167,0,0,1-3.155,2.728" transform="translate(-122.926 -395.408)" fill="#fff"/>
        <path id="Trazado_772211" data-name="Trazado 772211" d="M473,757.437a13.4,13.4,0,0,1-13.342,11.536,10.582,10.582,0,0,1-10.336-12.208,13.4,13.4,0,0,1,13.342-11.536A10.582,10.582,0,0,1,473,757.437" transform="translate(-405.471 -672.632)" fill="#ddcdfe"/>
        <path id="Trazado_772212" data-name="Trazado 772212" d="M493.854,727.046l-5.98-7.063,3.523-3.046,3.251,3.84,18.8-16.253,2.729,3.224Z" transform="translate(-440.35 -635.897)" fill="#9260f2"/>
        <path id="Trazado_772213" data-name="Trazado 772213" d="M844.482,806.3l-27.587-.783.548-4.331,27.587.783Z" transform="translate(-737.322 -723.144)" fill="#ddcdfe"/>
        <path id="Trazado_772214" data-name="Trazado 772214" d="M1174.126,815.659l-27.587-.783.548-4.331,27.587.783Z" transform="translate(-1034.855 -731.59)" fill="#ddcdfe"/>
        <path id="Trazado_772215" data-name="Trazado 772215" d="M880.814,908.877l-76.73-2.178.548-4.331,76.73,2.178Z" transform="translate(-725.758 -814.469)" fill="#ddcdfe"/>
        <path id="Trazado_772216" data-name="Trazado 772216" d="M425.189,1135.062a13.4,13.4,0,0,1-13.342,11.536,10.582,10.582,0,0,1-10.336-12.208,13.4,13.4,0,0,1,13.342-11.536,10.582,10.582,0,0,1,10.336,12.208" transform="translate(-362.313 -1013.473)" fill="#ddcdfe"/>
        <path id="Trazado_772217" data-name="Trazado 772217" d="M446.039,1104.672l-5.98-7.063,3.523-3.046,3.251,3.839,18.8-16.252,2.729,3.224Z" transform="translate(-397.193 -976.738)" fill="#9260f2"/>
        <path id="Trazado_772218" data-name="Trazado 772218" d="M796.667,1183.927l-27.587-.783.548-4.331,27.587.783Z" transform="translate(-694.164 -1063.985)" fill="#ddcdfe"/>
        <path id="Trazado_772219" data-name="Trazado 772219" d="M1126.311,1193.284l-27.587-.783.548-4.331,27.587.783Z" transform="translate(-991.698 -1072.431)" fill="#ddcdfe"/>
        <path id="Trazado_772220" data-name="Trazado 772220" d="M833,1286.5l-76.73-2.178.548-4.331,76.73,2.178Z" transform="translate(-682.601 -1155.31)" fill="#ddcdfe"/>
        <path id="Trazado_772221" data-name="Trazado 772221" d="M377.374,1512.688a13.4,13.4,0,0,1-13.342,11.536,10.582,10.582,0,0,1-10.336-12.208,13.4,13.4,0,0,1,13.342-11.536,10.582,10.582,0,0,1,10.336,12.208" transform="translate(-319.156 -1354.314)" fill="#ddcdfe"/>
        <path id="Trazado_772222" data-name="Trazado 772222" d="M748.852,1561.552l-27.587-.783.548-4.331,27.587.783Z" transform="translate(-651.007 -1404.827)" fill="#ddcdfe"/>
        <path id="Trazado_772223" data-name="Trazado 772223" d="M1078.5,1570.91l-27.587-.783.548-4.331,27.587.783Z" transform="translate(-948.54 -1413.272)" fill="#ddcdfe"/>
        <path id="Trazado_772224" data-name="Trazado 772224" d="M785.184,1664.128l-76.73-2.178.548-4.331,76.73,2.178Z" transform="translate(-639.444 -1496.151)" fill="#ddcdfe"/>
        <path id="Trazado_772225" data-name="Trazado 772225" d="M329.559,1890.313a13.4,13.4,0,0,1-13.342,11.536,10.582,10.582,0,0,1-10.336-12.208,13.4,13.4,0,0,1,13.342-11.536,10.582,10.582,0,0,1,10.336,12.208" transform="translate(-275.999 -1695.155)" fill="#ddcdfe"/>
        <path id="Trazado_772226" data-name="Trazado 772226" d="M701.037,1939.178l-27.587-.783.548-4.331,27.587.783Z" transform="translate(-607.85 -1745.668)" fill="#ddcdfe"/>
        <path id="Trazado_772227" data-name="Trazado 772227" d="M1030.681,1948.535l-27.587-.783.548-4.331,27.587.783Z" transform="translate(-905.383 -1754.113)" fill="#ddcdfe"/>
        <path id="Trazado_772228" data-name="Trazado 772228" d="M737.369,2041.753l-76.73-2.178.548-4.331,76.73,2.178Z" transform="translate(-596.286 -1836.992)" fill="#ddcdfe"/>
        <path id="Trazado_772229" data-name="Trazado 772229" d="M711.7,45.346H690.609A16.583,16.583,0,0,0,673.67,29.323a21.167,21.167,0,0,0-20.09,16.023H632.488a4.1,4.1,0,0,0-3.993,3.636l-2.3,23.35a3.238,3.238,0,0,0,3.278,3.636h79.213a4.1,4.1,0,0,0,3.993-3.636l2.3-23.35a3.238,3.238,0,0,0-3.278-3.636" transform="translate(-565.185 -26.467)" fill="#fbc02e"/>
        <path id="Trazado_772230" data-name="Trazado 772230" d="M1041.926,123.854a7.644,7.644,0,0,1-7.44,6.774,6.033,6.033,0,0,1-6.108-6.774,7.644,7.644,0,0,1,7.44-6.774,6.033,6.033,0,0,1,6.108,6.774" transform="translate(-928.173 -105.675)" fill="#fff"/>
      </g>
    </g>
    <g id="Grupo_1054559" data-name="Grupo 1054559" transform="translate(44.317 0)">
      <g id="Grupo_1054558" data-name="Grupo 1054558" clip-path="url(#clip-path-3)">
        <g id="Grupo_1054557" data-name="Grupo 1054557" transform="translate(49.324 81.485)" opacity="0.3" style="mix-blend-mode: multiply;isolation: isolate">
          <g id="Grupo_1054556" data-name="Grupo 1054556">
            <g id="Grupo_1054555" data-name="Grupo 1054555" clip-path="url(#clip-path-4)">
              <path id="Trazado_772231" data-name="Trazado 772231" d="M1103.5,930.11l-3.473,5.249c-9.268-2.752-42.763-12.66-51.063-14.774-6.618-1.685-15.817-14.6-25.217-27.369l-.01-.012c-4.317-5.86-8.679-11.69-12.851-16.385-13.265-14.925-45.055-44.662-48.524-39.763a2.424,2.424,0,0,0-.106,1.977,0,0,0,0,1,0,0c1.855,7.354,20.727,28.651,27.5,36.123l-.157-.018c-7.427-.851-16-.889-16.67,3.358a14.894,14.894,0,0,0-.108,4.352,9.131,9.131,0,0,0,.883,2.951c-.707.139-1.384.3-2.025.483a.076.076,0,0,0-.025.005.01.01,0,0,0-.007,0c-3.039.868-5.242,2.266-5.458,4.477a14,14,0,0,0,.255,4.847,7.652,7.652,0,0,0,1,2.354,22.037,22.037,0,0,0-2.562,1.552c-.009.008-.019.012-.026.018-3.189,2.281-4.746,5.1-2.475,8.472,6.807,10.1,18.406,21.957,24.428,16.2,5.293,6.29,10.889,12.454,14.652,15.265,8.119,6.071,57,35.326,68.089,41.952l-2.512,3.8,81.349,65.108,45.875-102.229Z" transform="translate(-961.313 -836.518)" fill="#504490"/>
            </g>
          </g>
        </g>
        <path id="Trazado_772232" data-name="Trazado 772232" d="M1058.989,863.485l-7.971,18.234-1.956,4.481-16.64,25.717c-11.6-5.688-62.726-30.81-71.319-36.19-3.981-2.491-10.068-8.172-15.861-14-5.527,6.231-18.065-4.624-25.682-14.133-2.541-3.17-1.222-6.111,1.767-8.647.007-.007.015-.011.024-.02a22.054,22.054,0,0,1,2.425-1.758,7.655,7.655,0,0,1-1.194-2.263,14,14,0,0,1-.654-4.809c.033-2.221,2.113-3.8,5.07-4.912a.009.009,0,0,1,.007,0,.079.079,0,0,1,.025-.007c.623-.238,1.285-.452,1.978-.648a9.133,9.133,0,0,1-1.124-2.868,14.887,14.887,0,0,1-.251-4.347c.316-4.287,8.864-4.958,16.336-4.722l.158,0c-7.366-6.888-27.931-26.555-30.387-33.731a0,0,0,0,0,0,0,2.423,2.423,0,0,1-.057-1.979c3.053-5.168,37.188,21.844,51.64,35.624,4.545,4.334,9.373,9.784,14.159,15.268l.011.011c10.421,11.949,20.654,24.063,27.389,25.2,8.447,1.422,42.644,8.533,52.108,10.51" transform="translate(-868.831 -700.616)" fill="#fdc8aa"/>
        <path id="Trazado_772233" data-name="Trazado 772233" d="M1670.482,1341.154l-7.97,18.234s-57.1-18.247-57.391-23.617c-.381-7.144-7.817-21.519-14.136-30.322,10.421,11.949,20.654,24.063,27.389,25.2,8.447,1.422,42.644,8.533,52.108,10.51" transform="translate(-1480.325 -1178.286)" fill="#efa37d"/>
        <path id="Trazado_772234" data-name="Trazado 772234" d="M1080.686,1228.812a24.969,24.969,0,0,0-19.511-.817,9.131,9.131,0,0,0,1.124,2.868s12.98-2.618,18.387-2.051" transform="translate(-1002.123 -1106.956)" fill="#efa37d"/>
        <path id="Trazado_772235" data-name="Trazado 772235" d="M1007.953,1333.315a7.642,7.642,0,0,1-1.194-2.263c7.912-5.092,19.2-5.128,19.2-5.128s-15.332,5.119-18.011,7.391" transform="translate(-953.008 -1196.766)" fill="#efa37d"/>
        <path id="Trazado_772236" data-name="Trazado 772236" d="M956.335,837.786c-1.987-.549-8.851-.773-9.975-.807-7.366-6.888-27.931-26.555-30.387-33.731,7.77,10.115,40.362,34.537,40.362,34.537" transform="translate(-871.065 -725.005)" fill="#efa37d"/>
        <path id="Trazado_772237" data-name="Trazado 772237" d="M1069.04,1477.134a3.094,3.094,0,0,0-.643,2.72c.4,1.6,14,15.21,16.573,14.5,0,0-13.08-13.308-15.929-17.219" transform="translate(-1008.558 -1333.247)" fill="#efa37d"/>
        <path id="Trazado_772238" data-name="Trazado 772238" d="M2235.6,1625.8l-36.866,104.494-.416,1.174-2.413-1.627-70.712-47.584-1.994-1.341-11.325-7.622,2.192-3.993,26.566-48.43,3.027-5.52,42.864,4.872,4.3.488Z" transform="translate(-1950.474 -1458)" fill="#edaf24"/>
        <path id="Trazado_772239" data-name="Trazado 772239" d="M2186.523,1620.222a124.517,124.517,0,0,1-63.324,60.693l-11.325-7.622,2.192-3.993,26.566-48.43,3.027-5.52Z" transform="translate(-1950.474 -1457.999)" fill="#fbc02e"/>
        <path id="Trazado_772240" data-name="Trazado 772240" d="M2232.849,2109.374a5.325,5.325,0,1,1-7.531.1,5.325,5.325,0,0,1,7.531-.1" transform="translate(-2051.505 -1902.538)" fill="#fff"/>
      </g>
    </g>
  </g>
</svg>
