<svg xmlns="http://www.w3.org/2000/svg" xmlns:xlink="http://www.w3.org/1999/xlink" width="400" height="331.528" viewBox="0 0 400 331.528">
  <defs>
    <clipPath id="clip-path">
      <rect id="Rectángulo_362283" data-name="Rectángulo 362283" width="400" height="327.347" fill="none"/>
    </clipPath>
  </defs>
  <g id="Grupo_1054940" data-name="Grupo 1054940" transform="translate(-1020 -15761)">
    <g id="BACKGROUND" transform="translate(1020 15761)">
      <g id="Grupo_32241" data-name="Grupo 32241">
        <path id="Trazado_61861" data-name="Trazado 61861" d="M119.907,132.485c18.356-.634,36.105,5.8,53.665,11.186s36.352,9.817,54.125,5.182c23.9-6.23,40.567-27.179,55.537-46.819s31.9-40.469,55.914-46.249c22.419-5.4,46.607,4.278,62.924,20.572s25.734,38.319,31.611,60.618c14.556,55.232,7.53,118.908-30.289,161.712-30.257,34.246-75.933,51.067-121.049,58.337-32.545,5.245-66.381,6.12-98.028-3.106A160.157,160.157,0,0,1,91.79,281.576C68.151,240.981,46.231,135.03,119.907,132.485Z" transform="translate(-69.318 -29.402)" fill="#673ab7"/>
        <path id="Trazado_61862" data-name="Trazado 61862" d="M204.09,124.631c22.1.409,45.892-7.725,62.42-19.261,9.163-6.4,17.354-14.544,22.244-24.591s6.184-22.147,1.921-32.476c-6.151-14.9-22.333-23.334-38.171-26.347a93.787,93.787,0,0,0-70.3,15.02c-14.194,9.9-29.073,23.985-32.757,41.611-3.97,18.991,12.384,33.561,28.48,40.678A67.762,67.762,0,0,0,204.09,124.631Z" transform="translate(-90.492 -20.373)" fill="#673ab7"/>
      </g>
    </g>
    <g id="Grupo_1054938" data-name="Grupo 1054938" transform="translate(1020 15761)">
      <g id="Grupo_1054939" data-name="Grupo 1054939" clip-path="url(#clip-path)">
        <path id="Trazado_780769" data-name="Trazado 780769" d="M42.4,256.009C22.7,232.6,9.173,203,2.877,174.318c-4.389-20-4.209-41.461,3.715-60.338C25.526,68.86,70.379,80.292,104,56.1c11.3-8.132,19.016-20.206,28.637-30.27,15.489-16.2,35.994-19.037,57.6-17.55a91.146,91.146,0,0,1,66.991,37.51c10.128,14.228,15.867,31.027,23.626,46.673s18.461,30.983,34.419,38.079c12.142,5.4,25.97,5.419,38.671,9.324,22.887,7.036,41.043,27.6,45.18,51.188,4.372,24.918-8.389,45.394-21.718,64.96Z" transform="translate(0 -0.506)" fill="#d1bcff"/>
        <path id="Trazado_780770" data-name="Trazado 780770" d="M38.187,207.662a55.762,55.762,0,0,0,3.97,9.857l-13.044,12.8a.029.029,0,0,0,0,.041l23.1,23.53a.029.029,0,0,0,.041,0l13.045-12.8a56.132,56.132,0,0,0,9.781,4.159l-.17,18.278a.029.029,0,0,0,.029.029l32.969.308a.031.031,0,0,0,.03-.029l.17-18.292a55.578,55.578,0,0,0,9.863-3.955l12.8,13.038a.029.029,0,0,0,.041,0l23.531-23.1a.029.029,0,0,0,0-.041l-12.8-13.042a56.305,56.305,0,0,0,4.155-9.783l18.279.17a.03.03,0,0,0,.03-.029l.307-32.969a.029.029,0,0,0-.029-.029l-18.29-.171a55.359,55.359,0,0,0-3.959-9.86l13.041-12.8a.029.029,0,0,0,0-.041l-23.1-23.53a.029.029,0,0,0-.041,0l-13.048,12.806a55.754,55.754,0,0,0-9.778-4.162h0l.17-18.276a.029.029,0,0,0-.029-.029l-32.969-.308a.029.029,0,0,0-.03.029l-.17,18.281a55.832,55.832,0,0,0-9.856,3.972l-12.8-13.045a.029.029,0,0,0-.041,0l-23.53,23.1a.029.029,0,0,0,0,.041l12.8,13.041a55.57,55.57,0,0,0-4.145,9.784h0l-18.287-.171a.03.03,0,0,0-.03.029l-.308,32.969a.029.029,0,0,0,.029.03Zm46.349-50.587a36.1,36.1,0,1,1-27.564,42.978,36.1,36.1,0,0,1,27.564-42.978" transform="translate(-1.269 -7.629)" fill="#fff"/>
        <path id="Trazado_780771" data-name="Trazado 780771" d="M270.868,88.339V261.145h8.9V216.171H386.9v44.974h6.875V88.339Zm8.9,69.93H386.9v45.316H279.764Zm0-57.9H386.9v45.316H279.764Z" transform="translate(-17.301 -5.643)" fill="#87c5f4"/>
        <rect id="Rectángulo_362232" data-name="Rectángulo 362232" width="15.665" height="45.26" transform="translate(349.383 94.724)" fill="#895cd8"/>
        <path id="Trazado_780772" data-name="Trazado 780772" d="M377.056,139.182a4.243,4.243,0,1,0,4.243-4.243,4.242,4.242,0,0,0-4.243,4.243" transform="translate(-24.084 -8.619)" fill="#fff"/>
        <path id="Trazado_780773" data-name="Trazado 780773" d="M381.362,142.571a3.327,3.327,0,1,0-3.327-3.327,3.33,3.33,0,0,0,3.327,3.327" transform="translate(-24.147 -8.682)" fill="#ddf2fe"/>
        <rect id="Rectángulo_362233" data-name="Rectángulo 362233" width="9.954" height="21.539" transform="translate(352.156 100.483)" fill="#72b1eb"/>
        <rect id="Rectángulo_362234" data-name="Rectángulo 362234" width="8.397" height="0.35" transform="translate(352.935 119.388)" fill="#ddf2fe"/>
        <rect id="Rectángulo_362235" data-name="Rectángulo 362235" width="8.397" height="0.35" transform="translate(352.935 116.325)" fill="#ddf2fe"/>
        <rect id="Rectángulo_362236" data-name="Rectángulo 362236" width="8.397" height="0.35" transform="translate(352.935 113.262)" fill="#ddf2fe"/>
        <rect id="Rectángulo_362237" data-name="Rectángulo 362237" width="8.397" height="0.35" transform="translate(352.935 107.136)" fill="#ddf2fe"/>
        <rect id="Rectángulo_362238" data-name="Rectángulo 362238" width="8.397" height="0.35" transform="translate(352.935 104.073)" fill="#ddf2fe"/>
        <rect id="Rectángulo_362239" data-name="Rectángulo 362239" width="8.397" height="0.35" transform="translate(352.935 110.199)" fill="#ddf2fe"/>
        <rect id="Rectángulo_362240" data-name="Rectángulo 362240" width="15.665" height="45.26" transform="translate(318.053 94.724)" fill="#abd5f4"/>
        <path id="Trazado_780774" data-name="Trazado 780774" d="M343.588,139.182a4.243,4.243,0,1,0,4.242-4.243,4.242,4.242,0,0,0-4.242,4.243" transform="translate(-21.946 -8.619)" fill="#fff"/>
        <path id="Trazado_780775" data-name="Trazado 780775" d="M347.894,142.571a3.327,3.327,0,1,0-3.328-3.327,3.329,3.329,0,0,0,3.328,3.327" transform="translate(-22.009 -8.682)" fill="#ddf2fe"/>
        <rect id="Rectángulo_362241" data-name="Rectángulo 362241" width="9.954" height="21.539" transform="translate(320.826 100.483)" fill="#fff"/>
        <rect id="Rectángulo_362242" data-name="Rectángulo 362242" width="8.397" height="0.35" transform="translate(321.604 119.388)" fill="#72b1eb"/>
        <rect id="Rectángulo_362243" data-name="Rectángulo 362243" width="8.397" height="0.35" transform="translate(321.604 116.325)" fill="#72b1eb"/>
        <rect id="Rectángulo_362244" data-name="Rectángulo 362244" width="8.397" height="0.35" transform="translate(321.604 113.262)" fill="#72b1eb"/>
        <rect id="Rectángulo_362245" data-name="Rectángulo 362245" width="8.397" height="0.35" transform="translate(321.604 107.136)" fill="#72b1eb"/>
        <rect id="Rectángulo_362246" data-name="Rectángulo 362246" width="8.397" height="0.35" transform="translate(321.604 104.073)" fill="#72b1eb"/>
        <rect id="Rectángulo_362247" data-name="Rectángulo 362247" width="8.397" height="0.35" transform="translate(321.604 110.199)" fill="#72b1eb"/>
        <rect id="Rectángulo_362248" data-name="Rectángulo 362248" width="15.665" height="45.26" transform="translate(333.718 94.724)" fill="#673ab7"/>
        <path id="Trazado_780776" data-name="Trazado 780776" d="M360.323,139.182a4.243,4.243,0,1,0,4.242-4.243,4.242,4.242,0,0,0-4.242,4.243" transform="translate(-23.015 -8.619)" fill="#fff"/>
        <path id="Trazado_780777" data-name="Trazado 780777" d="M364.628,142.571a3.327,3.327,0,1,0-3.327-3.327,3.33,3.33,0,0,0,3.327,3.327" transform="translate(-23.078 -8.682)" fill="#ddf2fe"/>
        <rect id="Rectángulo_362249" data-name="Rectángulo 362249" width="9.954" height="21.539" transform="translate(336.491 100.483)" fill="#72b1eb"/>
        <rect id="Rectángulo_362250" data-name="Rectángulo 362250" width="8.397" height="0.35" transform="translate(337.27 119.388)" fill="#ddf2fe"/>
        <rect id="Rectángulo_362251" data-name="Rectángulo 362251" width="8.397" height="0.35" transform="translate(337.27 116.325)" fill="#ddf2fe"/>
        <rect id="Rectángulo_362252" data-name="Rectángulo 362252" width="8.397" height="0.35" transform="translate(337.27 113.262)" fill="#ddf2fe"/>
        <rect id="Rectángulo_362253" data-name="Rectángulo 362253" width="8.397" height="0.35" transform="translate(337.27 107.136)" fill="#ddf2fe"/>
        <rect id="Rectángulo_362254" data-name="Rectángulo 362254" width="8.397" height="0.35" transform="translate(337.27 104.073)" fill="#ddf2fe"/>
        <rect id="Rectángulo_362255" data-name="Rectángulo 362255" width="8.397" height="0.35" transform="translate(337.27 110.199)" fill="#ddf2fe"/>
        <rect id="Rectángulo_362256" data-name="Rectángulo 362256" width="15.665" height="45.26" transform="translate(320.395 152.654)" fill="#895cd8"/>
        <path id="Trazado_780778" data-name="Trazado 780778" d="M354.576,201.065a4.243,4.243,0,1,1-4.243-4.243,4.242,4.242,0,0,1,4.243,4.243" transform="translate(-22.106 -12.572)" fill="#fff"/>
        <path id="Trazado_780779" data-name="Trazado 780779" d="M350.4,204.454a3.327,3.327,0,1,1,3.327-3.327,3.33,3.33,0,0,1-3.327,3.327" transform="translate(-22.169 -12.634)" fill="#ddf2fe"/>
        <rect id="Rectángulo_362257" data-name="Rectángulo 362257" width="9.954" height="21.539" transform="translate(323.332 158.413)" fill="#72b1eb"/>
        <rect id="Rectángulo_362258" data-name="Rectángulo 362258" width="8.397" height="0.35" transform="translate(324.11 177.318)" fill="#ddf2fe"/>
        <rect id="Rectángulo_362259" data-name="Rectángulo 362259" width="8.397" height="0.35" transform="translate(324.11 174.255)" fill="#ddf2fe"/>
        <rect id="Rectángulo_362260" data-name="Rectángulo 362260" width="8.397" height="0.35" transform="translate(324.11 171.192)" fill="#ddf2fe"/>
        <rect id="Rectángulo_362261" data-name="Rectángulo 362261" width="8.397" height="0.35" transform="translate(324.11 165.066)" fill="#ddf2fe"/>
        <rect id="Rectángulo_362262" data-name="Rectángulo 362262" width="8.397" height="0.35" transform="translate(324.11 162.003)" fill="#ddf2fe"/>
        <rect id="Rectángulo_362263" data-name="Rectángulo 362263" width="8.397" height="0.35" transform="translate(324.11 168.129)" fill="#ddf2fe"/>
        <rect id="Rectángulo_362264" data-name="Rectángulo 362264" width="15.665" height="45.26" transform="translate(298.386 94.753)" fill="#895cd8"/>
        <path id="Trazado_780780" data-name="Trazado 780780" d="M331.066,139.212a4.243,4.243,0,1,1-4.242-4.243,4.242,4.242,0,0,1,4.242,4.243" transform="translate(-20.605 -8.621)" fill="#fff"/>
        <path id="Trazado_780781" data-name="Trazado 780781" d="M326.886,142.6a3.327,3.327,0,1,1,3.327-3.327,3.33,3.33,0,0,1-3.327,3.327" transform="translate(-20.667 -8.683)" fill="#ddf2fe"/>
        <rect id="Rectángulo_362265" data-name="Rectángulo 362265" width="9.954" height="21.539" transform="translate(301.324 100.511)" fill="#72b1eb"/>
        <rect id="Rectángulo_362266" data-name="Rectángulo 362266" width="8.397" height="0.35" transform="translate(302.102 119.416)" fill="#ddf2fe"/>
        <rect id="Rectángulo_362267" data-name="Rectángulo 362267" width="8.397" height="0.35" transform="translate(302.102 116.353)" fill="#ddf2fe"/>
        <rect id="Rectángulo_362268" data-name="Rectángulo 362268" width="8.397" height="0.35" transform="translate(302.102 113.29)" fill="#ddf2fe"/>
        <rect id="Rectángulo_362269" data-name="Rectángulo 362269" width="8.397" height="0.35" transform="translate(302.102 107.164)" fill="#ddf2fe"/>
        <rect id="Rectángulo_362270" data-name="Rectángulo 362270" width="8.397" height="0.35" transform="translate(302.102 104.101)" fill="#ddf2fe"/>
        <rect id="Rectángulo_362271" data-name="Rectángulo 362271" width="8.397" height="0.35" transform="translate(302.102 110.227)" fill="#ddf2fe"/>
        <rect id="Rectángulo_362272" data-name="Rectángulo 362272" width="15.665" height="42.787" transform="matrix(0.963, -0.271, 0.271, 0.963, 335.93, 156.755)" fill="#abd5f4"/>
        <path id="Trazado_780782" data-name="Trazado 780782" d="M380.352,198.056a4.243,4.243,0,1,1-5.233-2.935,4.242,4.242,0,0,1,5.233,2.935" transform="translate(-23.763 -12.453)" fill="#fff"/>
        <path id="Trazado_780783" data-name="Trazado 780783" d="M377.231,202.47a3.327,3.327,0,1,1,2.3-4.1,3.33,3.33,0,0,1-2.3,4.1" transform="translate(-23.825 -12.515)" fill="#ddf2fe"/>
        <rect id="Rectángulo_362273" data-name="Rectángulo 362273" width="9.954" height="20.73" transform="matrix(0.963, -0.271, 0.271, 0.963, 340.049, 160.552)" fill="#fff"/>
        <path id="Trazado_780784" data-name="Trazado 780784" d="M377.49,187.886l-8.083,2.274-.091-.325,8.083-2.274Z" transform="translate(-23.59 -11.98)" fill="#72b1eb"/>
        <path id="Trazado_780785" data-name="Trazado 780785" d="M376.637,184.854l-8.083,2.274-.091-.325,8.083-2.274Z" transform="translate(-23.535 -11.787)" fill="#72b1eb"/>
        <path id="Trazado_780786" data-name="Trazado 780786" d="M375.785,181.823,367.7,184.1l-.091-.325,8.082-2.274Z" transform="translate(-23.481 -11.593)" fill="#72b1eb"/>
        <path id="Trazado_780787" data-name="Trazado 780787" d="M374.079,175.761,366,178.034l-.091-.325,8.083-2.274Z" transform="translate(-23.372 -11.206)" fill="#72b1eb"/>
        <path id="Trazado_780788" data-name="Trazado 780788" d="M373.226,172.729,365.143,175l-.091-.325,8.083-2.274Z" transform="translate(-23.317 -11.012)" fill="#72b1eb"/>
        <path id="Trazado_780789" data-name="Trazado 780789" d="M374.932,178.792l-8.083,2.274-.091-.325,8.083-2.274Z" transform="translate(-23.426 -11.399)" fill="#72b1eb"/>
        <rect id="Rectángulo_362274" data-name="Rectángulo 362274" width="15.665" height="45.26" transform="translate(304.726 152.654)" fill="#abd5f4"/>
        <path id="Trazado_780790" data-name="Trazado 780790" d="M337.838,201.065a4.243,4.243,0,1,1-4.242-4.243,4.242,4.242,0,0,1,4.242,4.243" transform="translate(-21.037 -12.572)" fill="#fff"/>
        <path id="Trazado_780791" data-name="Trazado 780791" d="M333.658,204.454a3.327,3.327,0,1,1,3.327-3.327,3.33,3.33,0,0,1-3.327,3.327" transform="translate(-21.1 -12.634)" fill="#ddf2fe"/>
        <rect id="Rectángulo_362275" data-name="Rectángulo 362275" width="9.954" height="21.539" transform="translate(307.663 158.413)" fill="#fff"/>
        <rect id="Rectángulo_362276" data-name="Rectángulo 362276" width="8.397" height="0.35" transform="translate(308.441 177.318)" fill="#72b1eb"/>
        <rect id="Rectángulo_362277" data-name="Rectángulo 362277" width="8.397" height="0.35" transform="translate(308.441 174.255)" fill="#72b1eb"/>
        <rect id="Rectángulo_362278" data-name="Rectángulo 362278" width="8.397" height="0.35" transform="translate(308.441 171.192)" fill="#72b1eb"/>
        <rect id="Rectángulo_362279" data-name="Rectángulo 362279" width="8.397" height="0.35" transform="translate(308.441 165.066)" fill="#72b1eb"/>
        <rect id="Rectángulo_362280" data-name="Rectángulo 362280" width="8.397" height="0.35" transform="translate(308.441 162.003)" fill="#72b1eb"/>
        <rect id="Rectángulo_362281" data-name="Rectángulo 362281" width="8.397" height="0.35" transform="translate(308.441 168.129)" fill="#72b1eb"/>
        <path id="Trazado_780792" data-name="Trazado 780792" d="M238.818,48.842H150.577l-.87-9.362a16.035,16.035,0,0,1,16.231-17.892H218.4A20.053,20.053,0,0,1,237.95,39.48Z" transform="translate(-9.557 -1.379)" fill="#eaa813"/>
        <path id="Trazado_780793" data-name="Trazado 780793" d="M190.252,0a12.391,12.391,0,0,0-12.543,13.826,15.5,15.5,0,0,0,15.11,13.827,12.39,12.39,0,0,0,12.542-13.827A15.5,15.5,0,0,0,190.252,0m1.878,20.231a7.187,7.187,0,0,1-7-6.4,5.746,5.746,0,0,1,5.811-6.4,7.186,7.186,0,0,1,7,6.4,5.746,5.746,0,0,1-5.81,6.4" transform="translate(-11.347)" fill="#eaa813"/>
        <path id="Trazado_780794" data-name="Trazado 780794" d="M281.229,257.471H138.283a11.5,11.5,0,0,1-11.215-10.262L107.935,41.085a9.2,9.2,0,0,1,9.31-10.262H260.19A11.5,11.5,0,0,1,271.4,41.085l19.133,206.125a9.2,9.2,0,0,1-9.31,10.262" transform="translate(-6.891 -1.969)" fill="#164767"/>
        <path id="Trazado_780795" data-name="Trazado 780795" d="M284.914,257.471H141.968a11.5,11.5,0,0,1-11.215-10.262L111.62,41.085a9.2,9.2,0,0,1,9.31-10.262H263.874a11.5,11.5,0,0,1,11.215,10.262l19.133,206.125a9.2,9.2,0,0,1-9.309,10.262" transform="translate(-7.127 -1.969)" fill="#895cd8"/>
        <path id="Trazado_780796" data-name="Trazado 780796" d="M276.7,233.275H147.927l-17.442-187.9H259.263Z" transform="translate(-8.335 -2.898)" fill="#d1bcff"/>
        <path id="Trazado_780797" data-name="Trazado 780797" d="M156.677,219.48,141.914,60.443a4.545,4.545,0,0,1,4.6-5.072h99.912a5.684,5.684,0,0,1,5.542,5.072L266.732,219.48a4.545,4.545,0,0,1-4.6,5.071H162.219a5.683,5.683,0,0,1-5.542-5.071" transform="translate(-9.063 -3.537)" fill="#fff"/>
        <path id="Trazado_780798" data-name="Trazado 780798" d="M244.935,48.842H156.693l-.869-9.362a16.034,16.034,0,0,1,16.231-17.892h52.458A20.053,20.053,0,0,1,244.066,39.48Z" transform="translate(-9.948 -1.379)" fill="#ffc121"/>
        <path id="Trazado_780799" data-name="Trazado 780799" d="M196.368,0a12.391,12.391,0,0,0-12.543,13.826,15.5,15.5,0,0,0,15.11,13.827,12.391,12.391,0,0,0,12.542-13.827A15.5,15.5,0,0,0,196.368,0m1.878,20.231a7.187,7.187,0,0,1-7-6.4,5.746,5.746,0,0,1,5.811-6.4,7.186,7.186,0,0,1,7,6.4,5.746,5.746,0,0,1-5.81,6.4" transform="translate(-11.738)" fill="#ffc121"/>
        <path id="Trazado_780800" data-name="Trazado 780800" d="M244.94,50.063H156.7L155.83,40.7h88.241Z" transform="translate(-9.954 -2.6)" fill="#ffdc21"/>
        <path id="Trazado_780801" data-name="Trazado 780801" d="M240.292,106.717h-79.9a1.88,1.88,0,0,1-1.834-1.678,1.5,1.5,0,0,1,1.522-1.678h79.9a1.881,1.881,0,0,1,1.834,1.678,1.5,1.5,0,0,1-1.522,1.678" transform="translate(-10.127 -6.602)" fill="#895cd8"/>
        <path id="Trazado_780802" data-name="Trazado 780802" d="M241.038,114.753h-79.9a1.879,1.879,0,0,1-1.833-1.678,1.5,1.5,0,0,1,1.521-1.678h79.9a1.88,1.88,0,0,1,1.834,1.678,1.5,1.5,0,0,1-1.522,1.678" transform="translate(-10.175 -7.115)" fill="#895cd8"/>
        <path id="Trazado_780803" data-name="Trazado 780803" d="M185.613,122.789H161.878a1.88,1.88,0,0,1-1.833-1.678,1.5,1.5,0,0,1,1.522-1.678H185.3a1.881,1.881,0,0,1,1.834,1.678,1.5,1.5,0,0,1-1.522,1.678" transform="translate(-10.222 -7.629)" fill="#895cd8"/>
        <path id="Trazado_780804" data-name="Trazado 780804" d="M245.533,141.9H194.589a1.879,1.879,0,0,1-1.833-1.678,1.5,1.5,0,0,1,1.521-1.678h50.944a1.881,1.881,0,0,1,1.834,1.678,1.5,1.5,0,0,1-1.522,1.678" transform="translate(-12.312 -8.849)" fill="#895cd8"/>
        <path id="Trazado_780805" data-name="Trazado 780805" d="M246.279,149.933H195.335a1.879,1.879,0,0,1-1.833-1.678,1.5,1.5,0,0,1,1.521-1.678h50.944a1.879,1.879,0,0,1,1.833,1.678,1.5,1.5,0,0,1-1.521,1.678" transform="translate(-12.359 -9.363)" fill="#895cd8"/>
        <path id="Trazado_780806" data-name="Trazado 780806" d="M219.816,157.969H196.081a1.88,1.88,0,0,1-1.833-1.678,1.5,1.5,0,0,1,1.522-1.678H219.5a1.881,1.881,0,0,1,1.834,1.678,1.5,1.5,0,0,1-1.522,1.678" transform="translate(-12.407 -9.876)" fill="#895cd8"/>
        <path id="Trazado_780807" data-name="Trazado 780807" d="M181.6,136.768H163.116a1.45,1.45,0,0,0-1.468,1.619l1.716,18.486a1.814,1.814,0,0,0,1.768,1.619h18.487a1.451,1.451,0,0,0,1.468-1.619l-1.717-18.486a1.813,1.813,0,0,0-1.767-1.619m1.216,19.411a.1.1,0,0,1-.1.107h-17.1a.121.121,0,0,1-.118-.107l-1.587-17.1a.1.1,0,0,1,.1-.109h17.1a.121.121,0,0,1,.118.109Z" transform="translate(-10.325 -8.736)" fill="#d1bcff"/>
        <path id="Trazado_780808" data-name="Trazado 780808" d="M176.915,153.62l-8.966-6.5,2.435-3.555,5.193,3.767,10.439-14.883,3.787,2.8Z" transform="translate(-10.728 -8.46)" fill="#ffc121"/>
        <path id="Trazado_780809" data-name="Trazado 780809" d="M248.508,173.944H197.564a1.879,1.879,0,0,1-1.833-1.678,1.5,1.5,0,0,1,1.521-1.678H248.2a1.881,1.881,0,0,1,1.834,1.678,1.5,1.5,0,0,1-1.522,1.678" transform="translate(-12.502 -10.896)" fill="#895cd8"/>
        <path id="Trazado_780810" data-name="Trazado 780810" d="M249.254,181.98H198.31a1.879,1.879,0,0,1-1.833-1.678A1.5,1.5,0,0,1,198,178.625h50.944a1.879,1.879,0,0,1,1.833,1.678,1.5,1.5,0,0,1-1.521,1.678" transform="translate(-12.549 -11.41)" fill="#895cd8"/>
        <path id="Trazado_780811" data-name="Trazado 780811" d="M222.791,190.016H199.056a1.882,1.882,0,0,1-1.834-1.678,1.5,1.5,0,0,1,1.523-1.678h23.733a1.88,1.88,0,0,1,1.834,1.678,1.5,1.5,0,0,1-1.521,1.678" transform="translate(-12.597 -11.923)" fill="#895cd8"/>
        <path id="Trazado_780812" data-name="Trazado 780812" d="M184.578,168.815H166.091a1.45,1.45,0,0,0-1.468,1.619l1.716,18.487a1.814,1.814,0,0,0,1.768,1.618h18.487a1.451,1.451,0,0,0,1.468-1.618l-1.717-18.487a1.813,1.813,0,0,0-1.767-1.619m1.216,19.411a.1.1,0,0,1-.1.108H168.6a.122.122,0,0,1-.118-.108l-1.587-17.1a.1.1,0,0,1,.1-.109h17.1a.121.121,0,0,1,.117.109Z" transform="translate(-10.515 -10.783)" fill="#d1bcff"/>
        <path id="Trazado_780813" data-name="Trazado 780813" d="M179.889,185.667l-8.967-6.5,2.436-3.555,5.193,3.767,10.439-14.883,3.787,2.8Z" transform="translate(-10.917 -10.507)" fill="#ffc121"/>
        <path id="Trazado_780814" data-name="Trazado 780814" d="M251.483,205.991H200.539a1.879,1.879,0,0,1-1.833-1.678,1.5,1.5,0,0,1,1.521-1.678h50.944a1.881,1.881,0,0,1,1.834,1.678,1.5,1.5,0,0,1-1.522,1.678" transform="translate(-12.692 -12.943)" fill="#895cd8"/>
        <path id="Trazado_780815" data-name="Trazado 780815" d="M252.229,214.027H201.285a1.879,1.879,0,0,1-1.833-1.678,1.5,1.5,0,0,1,1.521-1.678h50.944a1.881,1.881,0,0,1,1.834,1.678,1.5,1.5,0,0,1-1.522,1.678" transform="translate(-12.739 -13.456)" fill="#895cd8"/>
        <path id="Trazado_780816" data-name="Trazado 780816" d="M225.765,222.063H202.03a1.88,1.88,0,0,1-1.833-1.678,1.5,1.5,0,0,1,1.522-1.678h23.734a1.881,1.881,0,0,1,1.834,1.678,1.5,1.5,0,0,1-1.522,1.678" transform="translate(-12.787 -13.97)" fill="#895cd8"/>
        <path id="Trazado_780817" data-name="Trazado 780817" d="M187.553,200.862H169.066a1.45,1.45,0,0,0-1.468,1.618l1.716,18.487a1.814,1.814,0,0,0,1.768,1.619h18.487a1.451,1.451,0,0,0,1.468-1.619l-1.716-18.487a1.814,1.814,0,0,0-1.768-1.618m1.216,19.412a.1.1,0,0,1-.1.107h-17.1a.121.121,0,0,1-.118-.107l-1.587-17.1a.1.1,0,0,1,.1-.109h17.1a.123.123,0,0,1,.118.109Z" transform="translate(-10.705 -12.83)" fill="#d1bcff"/>
        <path id="Trazado_780818" data-name="Trazado 780818" d="M182.864,217.714l-8.967-6.5,2.436-3.555,5.193,3.767,10.439-14.883,3.787,2.8Z" transform="translate(-11.108 -12.554)" fill="#ffc121"/>
        <path id="Trazado_780819" data-name="Trazado 780819" d="M155.674,68.18l2.034,22.466h4.272L159.946,68.18Z" transform="translate(-9.944 -4.355)" fill="#895cd8"/>
        <path id="Trazado_780820" data-name="Trazado 780820" d="M172.832,81.02a13.4,13.4,0,0,0-2.357-3.03l-1.944-1.917a9.594,9.594,0,0,1-1.3-1.476,3.1,3.1,0,0,1-.41-1.405,2.192,2.192,0,0,1,.133-1.247c.039-.07.145-.257.616-.257a.635.635,0,0,1,.643.4,6.318,6.318,0,0,1,.423,2.065l.181,1.991h4.015l-.169-1.873a9.79,9.79,0,0,0-1.366-4.633,4.423,4.423,0,0,0-3.935-1.725c-1.831,0-3.115.506-3.817,1.5a6.357,6.357,0,0,0-.755,4.284,7.371,7.371,0,0,0,.943,3.086A11.629,11.629,0,0,0,165.76,79.3l1.733,1.634a9.073,9.073,0,0,1,1.649,1.99,5.252,5.252,0,0,1,.637,2.156,4.333,4.333,0,0,1-.067,1.733c-.033.089-.1.272-.594.272a.765.765,0,0,1-.768-.453,6.918,6.918,0,0,1-.479-2.338l-.237-2.613h-4.1l.223,2.458a10.09,10.09,0,0,0,1.507,4.923,4.68,4.68,0,0,0,4.078,1.814c1.864,0,3.156-.564,3.838-1.678a7.812,7.812,0,0,0,.682-4.759,8.706,8.706,0,0,0-1.029-3.416" transform="translate(-10.394 -4.338)" fill="#895cd8"/>
        <path id="Trazado_780821" data-name="Trazado 780821" d="M185.321,74.265a8.5,8.5,0,0,0-1.6-4.675,5.011,5.011,0,0,0-4.1-1.683A4.669,4.669,0,0,0,176,69.257c-.983,1.076-1.376,2.792-1.167,5.1l.888,9.818a8.958,8.958,0,0,0,1.691,4.964,5.11,5.11,0,0,0,4.148,1.736,4.241,4.241,0,0,0,3.874-1.781,7.989,7.989,0,0,0,.772-5.008Zm-5.3,9.856-.906-10.015a4.659,4.659,0,0,1,.1-1.988c.077-.2.207-.382.641-.382a.727.727,0,0,1,.739.424,6.279,6.279,0,0,1,.437,2.049l.9,10a7.645,7.645,0,0,1-.026,2.438c-.068.244-.2.4-.621.4a.766.766,0,0,1-.793-.458h0a7.9,7.9,0,0,1-.479-2.465" transform="translate(-11.164 -4.338)" fill="#895cd8"/>
        <path id="Trazado_780822" data-name="Trazado 780822" d="M202.363,75.046a19.515,19.515,0,0,0-.65-3.771,4.716,4.716,0,0,0-1.658-2.469,5.638,5.638,0,0,0-3.436-.9,4.47,4.47,0,0,0-3.469,1.285c-.944,1.036-1.277,2.921-1.02,5.76l.071.781a10.774,10.774,0,0,0,1.423,5,4.092,4.092,0,0,0,3.638,1.8,5.143,5.143,0,0,0,1.514-.194l.226,2.5a9.175,9.175,0,0,1,.081,1.712c-.049.166-.115.335-.161.459a.954.954,0,0,1-.463.066.6.6,0,0,1-.6-.383,8.286,8.286,0,0,1-.467-2.48L197.3,83.3h-4.089l.156,1.717a7.365,7.365,0,0,0,1.581,4.442,5.011,5.011,0,0,0,3.833,1.414,3.985,3.985,0,0,0,3.665-1.767c.7-1.125.922-2.92.689-5.485Zm-3.95,3.217c-.022.308-.1.585-.785.585a.721.721,0,0,1-.732-.419,6.938,6.938,0,0,1-.46-2.3l-.173-1.914a5.757,5.757,0,0,1,.061-2.106c.073-.224.193-.362.565-.362a.709.709,0,0,1,.714.418,6.237,6.237,0,0,1,.442,2.1Z" transform="translate(-12.267 -4.338)" fill="#895cd8"/>
        <path id="Trazado_780823" data-name="Trazado 780823" d="M215.618,74.033a7.64,7.64,0,0,0-1.678-4.542,5.4,5.4,0,0,0-4.187-1.584,4.6,4.6,0,0,0-3.966,1.627,6.707,6.707,0,0,0-.872,4.589l.929,10.257a8.53,8.53,0,0,0,1.676,4.79,5.224,5.224,0,0,0,4.224,1.715,4.424,4.424,0,0,0,3.979-1.761,7.534,7.534,0,0,0,.825-4.834ZM210.1,84.352l-.947-10.465c-.133-1.473.083-1.813.126-1.864.255-.3.441-.3.5-.3a3.534,3.534,0,0,1,.58.032c.65.169.892,1.31.98,2.233l.946,10.454a4.317,4.317,0,0,1-.119,2.264.746.746,0,0,1-.713.363.962.962,0,0,1-.827-.389,5.032,5.032,0,0,1-.53-2.327" transform="translate(-13.085 -4.338)" fill="#895cd8"/>
        <path id="Trazado_780824" data-name="Trazado 780824" d="M228.777,74.033a7.641,7.641,0,0,0-1.678-4.542,5.4,5.4,0,0,0-4.187-1.584,4.6,4.6,0,0,0-3.966,1.627,6.707,6.707,0,0,0-.872,4.589L219,84.38a8.53,8.53,0,0,0,1.676,4.79,5.225,5.225,0,0,0,4.224,1.715,4.424,4.424,0,0,0,3.979-1.761,7.534,7.534,0,0,0,.825-4.834Zm-5.519,10.319-.947-10.465c-.133-1.473.083-1.813.126-1.864.255-.3.442-.3.5-.3a3.534,3.534,0,0,1,.58.032c.65.169.892,1.31.98,2.233l.946,10.454a4.316,4.316,0,0,1-.119,2.264.745.745,0,0,1-.712.363.963.963,0,0,1-.828-.389,5.031,5.031,0,0,1-.53-2.327" transform="translate(-13.926 -4.338)" fill="#895cd8"/>
        <path id="Trazado_780825" data-name="Trazado 780825" d="M236.786,68.168h-3.353l-.114.342a3.352,3.352,0,0,1-1.092,1.609,3.419,3.419,0,0,1-1.653.738l-.47.067.3,3.353h.457a4.648,4.648,0,0,0,1.638-.306,3.672,3.672,0,0,0,.515-.239l1.532,16.914h4.272Z" transform="translate(-14.698 -4.354)" fill="#895cd8"/>
        <path id="Trazado_780826" data-name="Trazado 780826" d="M383.39,333.209c0,3.833-25.852,6.94-57.742,6.94s-57.741-3.107-57.741-6.94,25.852-6.94,57.741-6.94,57.742,3.107,57.742,6.94" transform="translate(-17.112 -20.84)" fill="#ddf2fe"/>
        <path id="Trazado_780827" data-name="Trazado 780827" d="M304.518,211.667l5.795,4.575c2.228-2.15,16.985-9.8,17.538-15.413a6.883,6.883,0,0,0-1.621-5.665c-3.031-2.976-6.489-2.3-9.2.259-2.953,2.785-12.511,16.245-12.511,16.245" transform="translate(-19.451 -12.341)" fill="#164767"/>
        <path id="Trazado_780828" data-name="Trazado 780828" d="M317.318,328.46h-4.629l-.406-4.84h4.629Z" transform="translate(-19.947 -20.671)" fill="#e7afa7"/>
        <path id="Trazado_780829" data-name="Trazado 780829" d="M363.636,328.46h-4.629l-1.811-4.84h4.629Z" transform="translate(-22.816 -20.671)" fill="#e7afa7"/>
        <path id="Trazado_780830" data-name="Trazado 780830" d="M329.588,193.466l8.74-.112-3.677-9.975-4.9,1.247Z" transform="translate(-21.052 -11.713)" fill="#f79889"/>
        <path id="Trazado_780831" data-name="Trazado 780831" d="M344.558,233.265l3.777-38.048a3.724,3.724,0,0,0-3.386-3.956l-22.689,1.853a3.186,3.186,0,0,0-3.31,3.406l3.105,36.746Z" transform="translate(-20.372 -12.217)" fill="#164767"/>
        <path id="Trazado_780832" data-name="Trazado 780832" d="M343.973,236.131l-8.66,11.463L318.55,319.6h-8.641l11.43-83.471Z" transform="translate(-19.795 -15.083)" fill="#1eafaf"/>
        <path id="Trazado_780833" data-name="Trazado 780833" d="M326.578,236.131l2.06,9.681a5.408,5.408,0,0,0,5.318,4.429l19.5,69.36h8.44l-16.859-83.471Z" transform="translate(-20.86 -15.083)" fill="#33c7ca"/>
        <path id="Trazado_780834" data-name="Trazado 780834" d="M337.051,177.356a1.583,1.583,0,1,0,1.5-1.663,1.583,1.583,0,0,0-1.5,1.663" transform="translate(-21.529 -11.222)" fill="#f79889"/>
        <path id="Trazado_780835" data-name="Trazado 780835" d="M328.967,168.207a4.946,4.946,0,0,0-3.03,1.963,4.8,4.8,0,0,0-.878,3.015l.188,5.8c.185,3.625,3.037,6.606,6.481,6.485a6.406,6.406,0,0,0,5.994-6.889l-.165-5.353v-.007s-.362-6.3-8.589-5.02" transform="translate(-20.763 -10.733)" fill="#f79889"/>
        <path id="Trazado_780836" data-name="Trazado 780836" d="M337.678,177.351c-2.519,4.94-4.73,1.814-7.4,2.043-2.21.189-3.736,3.278-5.02-1.03-.192,6.71,3.038,7.826,6.481,7.706,3.491-.122,6.869-1.358,5.939-8.719" transform="translate(-20.775 -11.328)" fill="#164767"/>
        <path id="Trazado_780837" data-name="Trazado 780837" d="M311.512,326.447l2.549,1.119,2.367-1.119,2.124,6.935h-19.7c0-3.467,7.4-3.467,7.4-3.467Z" transform="translate(-19.089 -20.852)" fill="#164767"/>
        <path id="Trazado_780838" data-name="Trazado 780838" d="M357.492,326.447l2.549,1.119,2.367-1.119,2.124,6.935h-19.7c0-3.467,7.4-3.467,7.4-3.467Z" transform="translate(-22.026 -20.852)" fill="#164767"/>
        <path id="Trazado_780839" data-name="Trazado 780839" d="M231.951,178.162A31.375,31.375,0,1,0,274.4,165.245a31.373,31.373,0,0,0-42.449,12.918M279.836,203.7a22.9,22.9,0,1,1-9.427-30.979,22.923,22.923,0,0,1,9.427,30.979" transform="translate(-14.579 -10.319)" fill="#ffc121"/>
        <rect id="Rectángulo_362282" data-name="Rectángulo 362282" width="8.77" height="56.732" transform="translate(265.442 198.433) rotate(-61.925)" fill="#ffc121"/>
        <path id="Trazado_780840" data-name="Trazado 780840" d="M349.239,241.3h0a8.77,8.77,0,0,1-11.865,3.611l-27.341-14.583,8.255-15.476,27.341,14.583a8.77,8.77,0,0,1,3.611,11.865" transform="translate(-19.803 -13.723)" fill="#673ab7"/>
        <path id="Trazado_780841" data-name="Trazado 780841" d="M336.257,238.528h0a2.072,2.072,0,0,0,2.968-.225l2.624-3.512,2.54-1.259-3.158-2.864-1.183.461a5.974,5.974,0,0,0-3.1,2.684l-1.249,2.28a1.957,1.957,0,0,0,.557,2.435" transform="translate(-21.429 -14.734)" fill="#f79889"/>
        <path id="Trazado_780842" data-name="Trazado 780842" d="M346.118,234.177l15.952-13.2-6.925-5.438-14.416,13.7Z" transform="translate(-21.764 -13.768)" fill="#164767"/>
        <path id="Trazado_780843" data-name="Trazado 780843" d="M355.276,217.441a5.03,5.03,0,1,0,4.026-5.865,5.03,5.03,0,0,0-4.026,5.865" transform="translate(-22.687 -13.509)" fill="#164767"/>
        <path id="Trazado_780844" data-name="Trazado 780844" d="M354.845,215.235l9.054-1.992c-1.493-2.712-9.047-19.288-14.323-21.288a6.885,6.885,0,0,0-5.892.084c-3.665,2.147-3.913,5.664-2.154,8.948,1.916,3.579,13.314,14.248,13.314,14.248" transform="translate(-21.747 -12.221)" fill="#164767"/>
        <path id="Trazado_780845" data-name="Trazado 780845" d="M290.4,215.506l.139.443a9.059,9.059,0,0,0,11.63,5.826Z" transform="translate(-18.549 -13.765)" fill="#164767"/>
        <path id="Trazado_780846" data-name="Trazado 780846" d="M294.173,214.515a3.673,3.673,0,0,0-3.612.649.636.636,0,0,0,.095,1.049l4.609,2.5a.626.626,0,0,0,.9-.361,3.168,3.168,0,0,0-1.995-3.841" transform="translate(-18.544 -13.688)" fill="#f79889"/>
        <path id="Trazado_780847" data-name="Trazado 780847" d="M291.632,216.7l-1.522-.825a.553.553,0,0,1-.29-.5l.02-1.157a.9.9,0,0,1,1.793.016Z" transform="translate(-18.512 -13.627)" fill="#f79889"/>
        <path id="Trazado_780848" data-name="Trazado 780848" d="M338.112,166.891a1.99,1.99,0,0,0-.206-.126c-.8-.428-1.3.036-2.086.053a3.991,3.991,0,0,1-2.326-.9,8.624,8.624,0,0,0-2.777-1.7,3.159,3.159,0,0,0-3.008.932c-.637.684-.684,1.707-1.282,2.418-.29.346-.755.4-1.124.655a2.683,2.683,0,0,0-1,3.121c.074.212.383,1.542.711,1.37.491-.258.494-.954.777-1.432a2.008,2.008,0,0,1,2.085-.7,21.29,21.29,0,0,0,2.28.5,12.01,12.01,0,0,0,3.139-.682c1.05-.233,2.364-.073,2.871.875a2.784,2.784,0,0,1,.1,1.862,3.279,3.279,0,0,0-.031,2.326c.755,1.245,2.4.786,3.036-.305a4.467,4.467,0,0,0,.491-1.938,12.465,12.465,0,0,0-.465-4.35,3.568,3.568,0,0,0-1.182-1.978" transform="translate(-20.704 -10.484)" fill="#164767"/>
        <path id="Trazado_780849" data-name="Trazado 780849" d="M148.794,341.8c0,3.833-25.852,6.94-57.742,6.94s-57.741-3.107-57.741-6.94,25.851-6.94,57.741-6.94,57.742,3.107,57.742,6.94" transform="translate(-2.128 -21.389)" fill="#ddf2fe"/>
        <path id="Trazado_780850" data-name="Trazado 780850" d="M89.325,170.32a8.862,8.862,0,0,0-7.584,1.574c-1.288,1.06-2.248,2.536-3.72,3.318s-3.341.785-4.675,1.806a5.408,5.408,0,0,0-1.75,4.55c.062,1.688.564,3.327.784,5,.5,3.824-1.719,6.085-4.006,8.831a12.29,12.29,0,0,0-3.07,6.354,6.229,6.229,0,0,0,2.828,6.131,6,6,0,0,0,2.706.677c2.292.065,4.474-.875,6.691-1.458s4.785-.749,6.6.649c.524.4.959.919,1.51,1.286,1.935,1.289,4.732.255,6.1-1.628s1.644-4.323,1.765-6.646a52.294,52.294,0,0,0-.058-6.3,13.418,13.418,0,0,1,1.32-5.839c.588-1.508,1.533-2.75,2.136-4.245,2.022-5.015-.537-10.679-5.219-13.184a9.548,9.548,0,0,0-2.359-.88" transform="translate(-4.169 -10.863)" fill="#164767"/>
        <path id="Trazado_780851" data-name="Trazado 780851" d="M101.852,221.218l6.641-4.019-9.959-19.006a4.331,4.331,0,0,0-6.272-1.865c-2.222,1.416-3.143,6.216-1.68,9.845s11.27,15.044,11.27,15.044" transform="translate(-5.741 -12.497)" fill="#33c7ca"/>
        <path id="Trazado_780852" data-name="Trazado 780852" d="M89.031,199.268,83.7,198.4l1.347-9.249,5.326.872Z" transform="translate(-5.347 -12.082)" fill="#f79889"/>
        <path id="Trazado_780853" data-name="Trazado 780853" d="M91.971,177.57c.626,2.175,2.679,3.823,2.612,5.556l-.167.743c-.014.032-.025.064-.04.1l.022-.017L93.89,186.2a5.3,5.3,0,0,1-10.337-2.325l.571-2.539c1.266-2.3,5.758-.683,7.847-3.771" transform="translate(-5.329 -11.342)" fill="#f79889"/>
        <path id="Trazado_780854" data-name="Trazado 780854" d="M81,226.891l-5.862-25.338a3.48,3.48,0,0,1,3.288-4.013l14.626-1.934a3.48,3.48,0,0,1,3.623,3.714l2.455,27.572Z" transform="translate(-4.797 -12.494)" fill="#9ce5e5"/>
        <path id="Trazado_780855" data-name="Trazado 780855" d="M92.449,229.026l-9.181,14.8L108.864,327h5.292s-11.889-85.94-14.618-97.972Z" transform="translate(-5.319 -14.629)" fill="#eaa813"/>
        <path id="Trazado_780856" data-name="Trazado 780856" d="M91.723,229.026C90.345,269.381,76.983,327,76.983,327H71.911c-.1-12.44.739-72.214,1.566-77.489a46.715,46.715,0,0,1,3.292-11.366c1.472-3.389,1.838-6.158,4.024-9.118H91.723Z" transform="translate(-4.593 -14.629)" fill="#ffc121"/>
        <path id="Trazado_780857" data-name="Trazado 780857" d="M112.87,338.025h3.3l-.985-4.343h-3.96Z" transform="translate(-7.105 -21.314)" fill="#f79889"/>
        <path id="Trazado_780858" data-name="Trazado 780858" d="M73.076,338.025h3.3l.215-4.343h-3.96Z" transform="translate(-4.64 -21.314)" fill="#f79889"/>
        <path id="Trazado_780859" data-name="Trazado 780859" d="M92.031,209.5a4.542,4.542,0,1,0,4.938-4.109,4.541,4.541,0,0,0-4.938,4.109" transform="translate(-5.877 -13.118)" fill="#9ce5e5"/>
        <path id="Trazado_780860" data-name="Trazado 780860" d="M93.157,195.694l-1.463,9.661-8.288-8.4Z" transform="translate(-5.327 -12.5)" fill="#f79889"/>
        <path id="Trazado_780861" data-name="Trazado 780861" d="M85.086,183.371a1.9,1.9,0,1,1-1.847-1.944,1.9,1.9,0,0,1,1.847,1.944" transform="translate(-5.193 -11.588)" fill="#f79889"/>
        <path id="Trazado_780862" data-name="Trazado 780862" d="M116.613,336.44l-1.684.739-2.656-.739-1.4,4.581h14.1c0-2.291-4.892-2.291-4.892-2.291Z" transform="translate(-7.082 -21.49)" fill="#164767"/>
        <path id="Trazado_780863" data-name="Trazado 780863" d="M76.738,336.44l-1.684.739L72.4,336.44,71,341.021H85.1c0-2.291-4.891-2.291-4.891-2.291Z" transform="translate(-4.535 -21.49)" fill="#164767"/>
        <path id="Trazado_780864" data-name="Trazado 780864" d="M112.089,212.856l.171.457a9.527,9.527,0,0,1-5.861,12.359Z" transform="translate(-6.796 -13.596)" fill="#33c7ca"/>
        <path id="Trazado_780865" data-name="Trazado 780865" d="M102.538,231.281l-15.875-1.457L96.739,207.79l15.875,1.457Z" transform="translate(-5.536 -13.272)" fill="#673ab7"/>
        <path id="Trazado_780866" data-name="Trazado 780866" d="M109.116,213.984a3.223,3.223,0,0,1,2.848-1.5.559.559,0,0,1,.5.777l-1.832,4.221a.551.551,0,0,1-.821.24,2.78,2.78,0,0,1-.7-3.733" transform="translate(-6.942 -13.572)" fill="#f79889"/>
        <path id="Trazado_780867" data-name="Trazado 780867" d="M112.193,214.1l.607-1.393a.486.486,0,0,0-.068-.5l-.639-.789a.786.786,0,0,0-1.23.979Z" transform="translate(-7.071 -13.485)" fill="#f79889"/>
        <path id="Trazado_780868" data-name="Trazado 780868" d="M96.181,217.524h0a1.838,1.838,0,0,1-1.863,1.954l-4.218-.063-3.466,1.358-.427-3.756,2.075-.841a6.08,6.08,0,0,1,3.846-.715l2.481.358a1.84,1.84,0,0,1,1.573,1.7" transform="translate(-5.506 -13.758)" fill="#f79889"/>
        <path id="Trazado_780869" data-name="Trazado 780869" d="M89.795,215.546l2.373.577a.488.488,0,0,0,.506,0l1.181-.725a.787.787,0,0,0-.815-1.345Z" transform="translate(-5.736 -13.665)" fill="#f79889"/>
        <path id="Trazado_780870" data-name="Trazado 780870" d="M85.534,221.205l-15.986,7.022-.563-9.41,16.228-2.094Z" transform="translate(-4.406 -13.843)" fill="#33c7ca"/>
        <path id="Trazado_780871" data-name="Trazado 780871" d="M70.918,223.606l-7.739-2.327,10.508-20.77a4.329,4.329,0,0,1,6.225-2.014c2.255,1.363,3.29,6.138,1.914,9.8s-10.909,15.308-10.909,15.308" transform="translate(-4.036 -12.639)" fill="#33c7ca"/>
        <path id="Trazado_780872" data-name="Trazado 780872" d="M70.51,227.5a4.489,4.489,0,1,1,0-6.348,4.488,4.488,0,0,1,0,6.348" transform="translate(-4.014 -14.042)" fill="#33c7ca"/>
        <path id="Trazado_780873" data-name="Trazado 780873" d="M325.539,43.476l3.163,7.957,8.545.55-6.59,5.467,2.118,8.3-7.236-4.579L318.3,65.747l2.118-8.3-6.59-5.467,8.545-.55Z" transform="translate(-20.046 -2.777)" fill="#ffc121"/>
        <path id="Trazado_780874" data-name="Trazado 780874" d="M358.191,43.476l3.163,7.957,8.545.55-6.59,5.467,2.118,8.3-7.236-4.579-7.236,4.579,2.118-8.3-6.59-5.467,8.545-.55Z" transform="translate(-22.131 -2.777)" fill="#ffc121"/>
        <path id="Trazado_780875" data-name="Trazado 780875" d="M390.844,43.476l3.163,7.957,8.545.55-6.59,5.467,2.118,8.3-7.236-4.579-7.236,4.579,2.118-8.3-6.59-5.467,8.545-.55Z" transform="translate(-24.217 -2.777)" fill="#ffc121"/>
        <path id="Trazado_780876" data-name="Trazado 780876" d="M118.711,146.622H60.738a2.515,2.515,0,0,1-2.508-2.507v-50.3a2.515,2.515,0,0,1,2.508-2.506h57.973a2.513,2.513,0,0,1,2.506,2.506v50.3a2.513,2.513,0,0,1-2.506,2.507" transform="translate(-3.719 -5.832)" fill="#33c7ca"/>
        <path id="Trazado_780877" data-name="Trazado 780877" d="M77.926,138.377H72.794a2.217,2.217,0,0,1-2.218-2.217V117.65a2.217,2.217,0,0,1,2.218-2.217h5.133a2.217,2.217,0,0,1,2.217,2.217v18.511a2.217,2.217,0,0,1-2.217,2.217" transform="translate(-4.508 -7.373)" fill="#fff"/>
        <path id="Trazado_780878" data-name="Trazado 780878" d="M78.415,119.522a1.545,1.545,0,1,1-1.545-1.545,1.545,1.545,0,0,1,1.545,1.545" transform="translate(-4.811 -7.536)" fill="#9ce5e5"/>
        <path id="Trazado_780879" data-name="Trazado 780879" d="M112.185,122.917a2.787,2.787,0,0,0-1.918-2.553,3.8,3.8,0,0,0,1.9-3.1c0-2.064-2.046-3.676-4.229-3.676h-7.9a1.29,1.29,0,0,1-1.222-1.708c.59-1.706,1.762-3.954,1.762-5.539,0-2.074-.285-3.893-2-5.275a2.161,2.161,0,0,0-1.97-.47,2.312,2.312,0,0,0-1.354,1.581,14.27,14.27,0,0,0-.336,2.134,8.729,8.729,0,0,1-1.383,3.548,17.268,17.268,0,0,1-2.809,2.7,9.644,9.644,0,0,0-2.072,3.206,4.351,4.351,0,0,1-4.02,2.7H83.112V136.3h22.065c1.766,0,3.675-1.146,3.675-2.834a2.938,2.938,0,0,0-1.156-2.436s2.867-.665,2.867-2.382a2.969,2.969,0,0,0-1.243-2.484s2.865-1.289,2.865-3.244" transform="translate(-5.309 -6.42)" fill="#fff"/>
        <path id="Trazado_780880" data-name="Trazado 780880" d="M78.842,80.255H11.506A2.513,2.513,0,0,1,9,77.748V50.9A2.513,2.513,0,0,1,11.506,48.4H78.842A2.514,2.514,0,0,1,81.348,50.9V77.748a2.514,2.514,0,0,1-2.507,2.507" transform="translate(-0.575 -3.091)" fill="#9ce5e5"/>
        <path id="Trazado_780881" data-name="Trazado 780881" d="M69.953,58.939H33.988a1.678,1.678,0,0,1,0-3.355H69.953a1.678,1.678,0,0,1,0,3.355" transform="translate(-2.064 -3.55)" fill="#fff"/>
        <path id="Trazado_780882" data-name="Trazado 780882" d="M69.953,66.975H33.988a1.678,1.678,0,0,1,0-3.355H69.953a1.678,1.678,0,0,1,0,3.355" transform="translate(-2.064 -4.064)" fill="#fff"/>
        <path id="Trazado_780883" data-name="Trazado 780883" d="M57.722,75.012H33.988a1.678,1.678,0,0,1,0-3.355H57.722a1.678,1.678,0,0,1,0,3.355" transform="translate(-2.064 -4.577)" fill="#fff"/>
        <path id="Trazado_780884" data-name="Trazado 780884" d="M25.445,57.223a2.236,2.236,0,1,1-2.236-2.236,2.237,2.237,0,0,1,2.236,2.236" transform="translate(-1.34 -3.512)" fill="#fff"/>
        <path id="Trazado_780885" data-name="Trazado 780885" d="M25.445,65.26a2.236,2.236,0,1,1-2.236-2.236,2.237,2.237,0,0,1,2.236,2.236" transform="translate(-1.34 -4.026)" fill="#fff"/>
        <path id="Trazado_780886" data-name="Trazado 780886" d="M25.445,73.3a2.236,2.236,0,1,1-2.236-2.236A2.237,2.237,0,0,1,25.445,73.3" transform="translate(-1.34 -4.539)" fill="#fff"/>
        <path id="Trazado_780887" data-name="Trazado 780887" d="M262.405,137.235l-4.663-13.381-12.9,5.87L264.7,83.315l17.56,7.511Z" transform="translate(-15.639 -5.322)" fill="#ffc121"/>
        <path id="Trazado_780888" data-name="Trazado 780888" d="M297.718,137.235l4.663-13.381,12.9,5.87L295.428,83.315l-17.56,7.511Z" transform="translate(-17.749 -5.322)" fill="#ffc121"/>
        <path id="Trazado_780889" data-name="Trazado 780889" d="M277.42,48.722l3.912,3.791,4.893-2.4,2.549,4.814,5.393-.768.937,5.367,5.367.937-.768,5.393,4.814,2.549-2.4,4.893,3.791,3.912-3.791,3.912,2.4,4.892L299.7,88.568l.768,5.394L295.1,94.9l-.937,5.368-5.393-.769-2.549,4.815-4.893-2.4-3.912,3.792-3.912-3.792-4.892,2.4-2.55-4.815-5.393.769-.937-5.368-5.367-.936.768-5.394-4.814-2.549,2.4-4.892-3.792-3.912L252.72,73.3l-2.4-4.893,4.814-2.549-.768-5.393,5.367-.937.937-5.367,5.393.768,2.55-4.814,4.892,2.4Z" transform="translate(-15.9 -3.112)" fill="#164767"/>
        <path id="Trazado_780890" data-name="Trazado 780890" d="M297.277,77.847a19.224,19.224,0,1,1-19.223-19.223,19.224,19.224,0,0,1,19.223,19.223" transform="translate(-16.532 -3.745)" fill="#fff"/>
        <path id="Trazado_780891" data-name="Trazado 780891" d="M276.659,89.025l-8.967-6.5,2.436-3.555,5.193,3.767,10.439-14.883,3.787,2.8Z" transform="translate(-17.099 -4.334)" fill="#895cd8"/>
      </g>
    </g>
  </g>
</svg>
