<svg xmlns="http://www.w3.org/2000/svg" width="122.58" height="96.007" viewBox="0 0 122.58 96.007">
  <g id="patrones" transform="translate(0 -55.495)">
    <path id="Trazado_781189" data-name="Trazado 781189" d="M21.747,74.436A18.177,18.177,0,0,1,3.591,92.593H0V151.5H39.183l9.543-44.294L39.183,55.5H21.747Z" transform="translate(0 0)" fill="#fff79f"/>
    <path id="Trazado_781190" data-name="Trazado 781190" d="M163.661,55.495h17.718V151.5H163.661Z" transform="translate(-124.478)" fill="#ffde55"/>
    <path id="Trazado_781191" data-name="Trazado 781191" d="M292.051,55.495H274.333V151.5h17.718l19.592-27.527V87.8Z" transform="translate(-208.654)" fill="#fff79f"/>
    <path id="Trazado_781192" data-name="Trazado 781192" d="M387.521,92.593h-3.591a18.177,18.177,0,0,1-18.156-18.156V55.5H348.338V151.5h39.183V92.593Z" transform="translate(-264.941 0)" fill="#ffde55"/>
    <g id="Grupo_1055079" data-name="Grupo 1055079" transform="translate(35.592 114.391)">
      <path id="Trazado_781193" data-name="Trazado 781193" d="M148.661,301.494h7.182v7.183h-7.182Z" transform="translate(-148.661 -301.494)" fill="#ffde55"/>
    </g>
    <g id="Grupo_1055080" data-name="Grupo 1055080" transform="translate(35.592 100.025)">
      <path id="Trazado_781194" data-name="Trazado 781194" d="M148.661,241.49h7.182v7.183h-7.182Z" transform="translate(-148.661 -241.49)" fill="#ffde55"/>
    </g>
    <g id="Grupo_1055081" data-name="Grupo 1055081" transform="translate(35.592 85.659)">
      <path id="Trazado_781195" data-name="Trazado 781195" d="M148.661,181.486h7.182v7.183h-7.182Z" transform="translate(-148.661 -181.486)" fill="#ffde55"/>
    </g>
    <g id="Grupo_1055082" data-name="Grupo 1055082" transform="translate(35.592 71.293)">
      <path id="Trazado_781196" data-name="Trazado 781196" d="M148.661,121.482h7.182v7.183h-7.182Z" transform="translate(-148.661 -121.482)" fill="#ffde55"/>
    </g>
    <g id="Grupo_1055083" data-name="Grupo 1055083" transform="translate(35.592 128.757)">
      <path id="Trazado_781197" data-name="Trazado 781197" d="M148.661,361.5h7.182v7.183h-7.182Z" transform="translate(-148.661 -361.498)" fill="#ffde55"/>
    </g>
    <g id="Grupo_1055084" data-name="Grupo 1055084" transform="translate(79.806 114.391)">
      <path id="Trazado_781198" data-name="Trazado 781198" d="M333.337,301.494h7.182v7.183h-7.182Z" transform="translate(-333.337 -301.494)" fill="#ffde55"/>
    </g>
    <g id="Grupo_1055085" data-name="Grupo 1055085" transform="translate(79.806 100.025)">
      <path id="Trazado_781199" data-name="Trazado 781199" d="M333.337,241.49h7.182v7.183h-7.182Z" transform="translate(-333.337 -241.49)" fill="#ffde55"/>
    </g>
    <g id="Grupo_1055086" data-name="Grupo 1055086" transform="translate(79.806 85.659)">
      <path id="Trazado_781200" data-name="Trazado 781200" d="M333.337,181.486h7.182v7.183h-7.182Z" transform="translate(-333.337 -181.486)" fill="#ffde55"/>
    </g>
    <g id="Grupo_1055087" data-name="Grupo 1055087" transform="translate(79.806 71.293)">
      <path id="Trazado_781201" data-name="Trazado 781201" d="M333.337,121.482h7.182v7.183h-7.182Z" transform="translate(-333.337 -121.482)" fill="#ffde55"/>
    </g>
    <g id="Grupo_1055088" data-name="Grupo 1055088" transform="translate(79.806 128.757)">
      <path id="Trazado_781202" data-name="Trazado 781202" d="M333.337,361.5h7.182v7.183h-7.182Z" transform="translate(-333.337 -361.498)" fill="#ffde55"/>
    </g>
    <g id="Grupo_1055089" data-name="Grupo 1055089" transform="translate(39.183 71.293)">
      <path id="Trazado_781203" data-name="Trazado 781203" d="M163.661,301.494h3.591v7.183h-3.591Z" transform="translate(-163.661 -258.396)" fill="#ffb655"/>
      <path id="Trazado_781204" data-name="Trazado 781204" d="M163.661,241.49h3.591v7.183h-3.591Z" transform="translate(-163.661 -212.758)" fill="#ffb655"/>
      <path id="Trazado_781205" data-name="Trazado 781205" d="M163.661,181.486h3.591v7.183h-3.591Z" transform="translate(-163.661 -167.12)" fill="#ffb655"/>
      <path id="Trazado_781206" data-name="Trazado 781206" d="M163.661,121.482h3.591v7.183h-3.591Z" transform="translate(-163.661 -121.482)" fill="#ffb655"/>
      <path id="Trazado_781207" data-name="Trazado 781207" d="M163.661,361.5h3.591v7.183h-3.591Z" transform="translate(-163.661 -304.035)" fill="#ffb655"/>
      <path id="Trazado_781208" data-name="Trazado 781208" d="M348.337,301.494h3.591v7.183h-3.591Z" transform="translate(-304.123 -258.396)" fill="#ffb655"/>
      <path id="Trazado_781209" data-name="Trazado 781209" d="M348.337,241.49h3.591v7.183h-3.591Z" transform="translate(-304.123 -212.758)" fill="#ffb655"/>
      <path id="Trazado_781210" data-name="Trazado 781210" d="M348.337,181.486h3.591v7.183h-3.591Z" transform="translate(-304.123 -167.12)" fill="#ffb655"/>
      <path id="Trazado_781211" data-name="Trazado 781211" d="M348.337,121.482h3.591v7.183h-3.591Z" transform="translate(-304.123 -121.482)" fill="#ffb655"/>
      <path id="Trazado_781212" data-name="Trazado 781212" d="M348.337,361.5h3.591v7.183h-3.591Z" transform="translate(-304.123 -304.035)" fill="#ffb655"/>
    </g>
  </g>
</svg>
