<svg xmlns="http://www.w3.org/2000/svg" xmlns:xlink="http://www.w3.org/1999/xlink" width="161" height="161" viewBox="0 0 161 161">
  <defs>
    <filter id="Elipse_4933" x="0" y="0" width="161" height="161" filterUnits="userSpaceOnUse">
      <feOffset dy="3" input="SourceAlpha"/>
      <feGaussianBlur stdDeviation="3" result="blur"/>
      <feFlood flood-opacity="0.161"/>
      <feComposite operator="in" in2="blur"/>
      <feComposite in="SourceGraphic"/>
    </filter>
  </defs>
  <g id="Grupo_1055538" data-name="Grupo 1055538" transform="translate(-461 -11386)">
    <g transform="matrix(1, 0, 0, 1, 461, 11386)" filter="url(#Elipse_4933)">
      <circle id="Elipse_4933-2" data-name="Elipse 4933" cx="71.5" cy="71.5" r="71.5" transform="translate(9 6)" fill="#fff"/>
    </g>
    <g id="Flat" transform="translate(493 11415)">
      <path id="Trazado_30668" data-name="Trazado 30668" d="M283.7,63.4h3.342l-1.671-3.342V46.684A6.684,6.684,0,0,0,278.684,40H272v5.013l5.013,1.671V56.711A6.684,6.684,0,0,0,283.7,63.4Z" transform="translate(-220.197 -36.658)" fill="#61311c"/>
      <path id="Trazado_30669" data-name="Trazado 30669" d="M200,288l1.671,10.026L200,304.711h23.395l-1.671-6.684L223.395,288Z" transform="translate(-163.236 -232.855)" fill="#fec093"/>
      <path id="Trazado_30670" data-name="Trazado 30670" d="M79.75,368l-3.342,8.355-22.159,2.607a7.076,7.076,0,0,0,.827,14.1H127.82a7.076,7.076,0,0,0,.827-14.1l-22.159-2.607L103.145,368Z" transform="translate(-42.987 -296.144)" fill="#b03b8d"/>
      <path id="Trazado_30671" data-name="Trazado 30671" d="M248,328h3.342v8.355H248Z" transform="translate(-201.21 -264.499)" fill="#f5a76e"/>
      <path id="Trazado_30672" data-name="Trazado 30672" d="M119.413,386.507a2.5,2.5,0,0,1-2.507,2.507h-.836L99.36,397.369l-13.417,3.05L62.6,405.724h-8.24a6.8,6.8,0,1,1-.234-13.6l30.265-1.043,11.631-.4.861-3.442a3.342,3.342,0,0,1,4.052-2.431l3.442.861L111.058,384h5.849A2.507,2.507,0,0,1,119.413,386.507Z" transform="translate(-42.544 -308.802)" fill="#f7b488"/>
      <path id="Trazado_30673" data-name="Trazado 30673" d="M85.944,427.253,62.6,432.559h-8.24a6.8,6.8,0,1,1-.234-13.6l30.265-1.043Z" transform="translate(-42.544 -335.636)" fill="#bc4598"/>
      <path id="Trazado_30674" data-name="Trazado 30674" d="M191.852,399.168a6.887,6.887,0,0,1-6.929,6.556h-8.106l-23.347-5.306-13.417-3.05-16.711-8.355h-.836a2.507,2.507,0,1,1,0-5.013h5.849l6.684,1.671,3.442-.86a3.342,3.342,0,0,1,4.052,2.432l.861,3.442,11.631.4,30.265,1.044a6.8,6.8,0,0,1,6.561,7.038Z" transform="translate(-99.947 -308.802)" fill="#fec093"/>
      <path id="Trazado_30675" data-name="Trazado 30675" d="M318.617,425.759a6.8,6.8,0,0,1-6.8,6.8h-8.24l-23.347-5.306,1.556-9.333,30.265,1.044A6.8,6.8,0,0,1,318.617,425.759Z" transform="translate(-226.708 -335.636)" fill="#bc4598"/>
      <path id="Trazado_30676" data-name="Trazado 30676" d="M120.922,178.488V183.5l-5.013,1.671-2.621-.873-1.8-.6-.426-.142-2.9-.967-2.279-.76-5.013-6.016-.558-.668-11.14-13.369L85.83,143.4l-5.013,5.013H64.106L59.093,143.4,55.75,161.777l-11.14,13.369-.558.668L39.04,181.83l-2.279.76-2.9.967-.426.142-1.8.6-2.621.873L24,183.5v-5.013l6.684-3.342a3.342,3.342,0,0,1-3.342-3.342H37.369L47.4,158.435l3.992-21.285a6.683,6.683,0,0,1,6.569-5.452h9.492V120H77.474v11.7h9.492a6.683,6.683,0,0,1,6.57,5.453l3.992,21.284L107.554,171.8H117.58a3.342,3.342,0,0,1-3.342,3.342Z" transform="translate(-24 -99.947)" fill="#fec093"/>
      <path id="Trazado_30677" data-name="Trazado 30677" d="M242.026,120v8.364a8.389,8.389,0,0,1-10.026,0V120Z" transform="translate(-188.552 -99.947)" fill="#f5a76e"/>
      <path id="Trazado_30678" data-name="Trazado 30678" d="M202.924,90.112h2.924V84.333h-2.924a2.89,2.89,0,1,0,0,5.779Z" transform="translate(-163.236 -71.73)" fill="#f7b488"/>
      <path id="Trazado_30679" data-name="Trazado 30679" d="M288.716,84.333H286v5.779h2.716a2.9,2.9,0,0,0,0-5.779Z" transform="translate(-231.272 -71.73)" fill="#f7b488"/>
      <path id="Trazado_30680" data-name="Trazado 30680" d="M224.355,69.724a7.955,7.955,0,0,1-7.786-5.748l-.249-.943a9.6,9.6,0,0,1-.32-2.454V55.9a8.369,8.369,0,0,1,16.711,0v4.679a9.592,9.592,0,0,1-.319,2.452l-.25.945A7.955,7.955,0,0,1,224.355,69.724Z" transform="translate(-175.894 -42.987)" fill="#fec093"/>
      <path id="Trazado_30681" data-name="Trazado 30681" d="M220.032,29.9s2.005,3.935,7.461,9.138a24.546,24.546,0,0,0,.56-5.2,10.028,10.028,0,0,0-20.053,0,24.556,24.556,0,0,0,.189,3.028C211.278,35.764,215.68,35.295,220.032,29.9Z" transform="translate(-169.565 -24)" fill="#6e3c26"/>
      <path id="Trazado_30682" data-name="Trazado 30682" d="M211.228,199.4a8.56,8.56,0,0,0,0-13.369L209.557,176h-3.342l-.688,3.439a6.115,6.115,0,0,1-11.993,0l-.688-3.44H189.5l-1.671,10.026a8.56,8.56,0,0,0,0,13.369Z" transform="translate(-151.069 -144.25)" fill="#c378cb"/>
    </g>
  </g>
</svg>
