<svg xmlns="http://www.w3.org/2000/svg" xmlns:xlink="http://www.w3.org/1999/xlink" width="161" height="161" viewBox="0 0 161 161">
  <defs>
    <filter id="Elipse_4934" x="0" y="0" width="161" height="161" filterUnits="userSpaceOnUse">
      <feOffset dy="3" input="SourceAlpha"/>
      <feGaussianBlur stdDeviation="3" result="blur"/>
      <feFlood flood-opacity="0.161"/>
      <feComposite operator="in" in2="blur"/>
      <feComposite in="SourceGraphic"/>
    </filter>
  </defs>
  <g id="Grupo_1055539" data-name="Grupo 1055539" transform="translate(-686 -11386)">
    <g transform="matrix(1, 0, 0, 1, 686, 11386)" filter="url(#Elipse_4934)">
      <circle id="Elipse_4934-2" data-name="Elipse 4934" cx="71.5" cy="71.5" r="71.5" transform="translate(9 6)" fill="#fff"/>
    </g>
    <g id="morality" transform="translate(719 11415)">
      <path id="Trazado_30683" data-name="Trazado 30683" d="M444.035,201.319l-1.677-5.874-.3-1.323-2.746.923.238,1.068q.009.041.021.082l1.689,5.914a1.441,1.441,0,1,0,2.771-.791Z" transform="translate(-355.702 -156.836)" fill="#e5e1e5"/>
      <g id="Grupo_45595" data-name="Grupo 45595" transform="translate(84.789 43.143)">
        <path id="Trazado_30684" data-name="Trazado 30684" d="M452.671,251.463a1.441,1.441,0,0,1-1.39-1.065l-1.014-3.746c-.006-.021-.011-.042-.016-.063l-3.711-16.643-1.054-3.476a1.441,1.441,0,1,1,2.758-.836l1.07,3.528c.01.034.02.069.027.1l3.715,16.664,1.005,3.715a1.442,1.442,0,0,1-1.392,1.817Z" transform="translate(-445.425 -224.611)" fill="#e5e1e5"/>
      </g>
      <path id="Trazado_30685" data-name="Trazado 30685" d="M43.532,190.986l-.431,1.932-1.689,6.127a1.441,1.441,0,1,0,2.777.766l1.7-6.161c.006-.023.012-.046.017-.069l.409-1.833Z" transform="translate(-34.184 -154.301)" fill="#e5e1e5"/>
      <g id="Grupo_45596" data-name="Grupo 45596" transform="translate(3.113 41.707)">
        <path id="Trazado_30686" data-name="Trazado 30686" d="M21.649,241.676a1.442,1.442,0,0,1-1.407-1.754l3.722-16.7,1.155-4.976a1.441,1.441,0,1,1,2.806.651l-1.152,4.964-3.72,16.684A1.441,1.441,0,0,1,21.649,241.676Z" transform="translate(-20.206 -217.134)" fill="#e5e1e5"/>
      </g>
      <g id="XMLID_552_" transform="translate(0 18.51)">
        <g id="Grupo_45597" data-name="Grupo 45597" transform="translate(0)">
          <path id="Trazado_30687" data-name="Trazado 30687" d="M99.384,121.311A4.489,4.489,0,0,1,94.9,125.8H64.2A1.2,1.2,0,0,0,63,127l.409,41.583H40.387V127a1.2,1.2,0,0,0-1.2-1.2H8.49a4.489,4.489,0,0,1,0-8.978H40.1l3.444-4.47V96.367H59.839v15.985l3.444,4.47H94.9A4.489,4.489,0,0,1,99.384,121.311Z" transform="translate(-4.001 -96.367)" fill="#e8ad8c"/>
        </g>
      </g>
      <g id="Grupo_45605" data-name="Grupo 45605" transform="translate(21.627 0)">
        <path id="Trazado_30688" data-name="Trazado 30688" d="M209.881,111.606a19.663,19.663,0,0,0,16.292,0V96.368H209.881Z" transform="translate(-191.962 -77.858)" fill="#e19974"/>
        <circle id="Elipse_718" data-name="Elipse 718" cx="15.837" cy="15.837" r="15.837" transform="translate(10.228 0)" fill="#fef48b"/>
        <path id="Trazado_30689" data-name="Trazado 30689" d="M176.969,15.837A15.852,15.852,0,0,1,189.251.4a15.839,15.839,0,1,0-3.572,31.27,16.015,16.015,0,0,0,3.58-.406A15.855,15.855,0,0,1,176.969,15.837Z" transform="translate(-159.615 0)" fill="#fef056"/>
        <g id="XMLID_551_" transform="translate(24.624 70.334)">
          <g id="Grupo_45599" data-name="Grupo 45599">
            <g id="Grupo_45598" data-name="Grupo 45598">
              <path id="Trazado_30690" data-name="Trazado 30690" d="M246.232,388.672a1.441,1.441,0,0,1-1.441-1.441V367.609a1.441,1.441,0,1,1,2.881,0v19.623A1.441,1.441,0,0,1,246.232,388.672Z" transform="translate(-244.791 -366.168)" fill="#e19974"/>
            </g>
          </g>
        </g>
        <path id="Trazado_30691" data-name="Trazado 30691" d="M178.132,446.907H137.594a2.3,2.3,0,0,0-2.3,2.3v7.464h45.138v-7.464A2.3,2.3,0,0,0,178.132,446.907Z" transform="translate(-131.702 -361.065)" fill="#dc8758"/>
        <g id="Grupo_45600" data-name="Grupo 45600" transform="translate(0 94.042)">
          <path id="Trazado_30692" data-name="Trazado 30692" d="M167.475,492.478h-49.44a1.441,1.441,0,1,1,0-2.881h49.44a1.441,1.441,0,1,1,0,2.881Z" transform="translate(-116.594 -489.597)" fill="#d77f4a"/>
        </g>
        <g id="Grupo_45602" data-name="Grupo 45602" transform="translate(18.666 4.188)">
          <g id="Grupo_45601" data-name="Grupo 45601">
            <path id="Trazado_30693" data-name="Trazado 30693" d="M221.172,39.566a1.441,1.441,0,0,1-1.441-1.441V35.731A2.039,2.039,0,0,1,221.6,33.7a4.518,4.518,0,1,0-4.942-4.5,1.441,1.441,0,0,1-2.881,0,7.425,7.425,0,0,1,2.351-5.409,7.34,7.34,0,0,1,5.569-1.971,7.4,7.4,0,0,1,.919,14.64v1.666A1.441,1.441,0,0,1,221.172,39.566Z" transform="translate(-213.774 -21.801)" fill="#f9f7f8"/>
          </g>
        </g>
        <g id="Grupo_45604" data-name="Grupo 45604" transform="translate(24.624 23.93)">
          <g id="Grupo_45603" data-name="Grupo 45603">
            <path id="Trazado_30694" data-name="Trazado 30694" d="M246.232,128.434a1.441,1.441,0,0,1-1.441-1.441v-.968a1.441,1.441,0,1,1,2.881,0v.968A1.441,1.441,0,0,1,246.232,128.434Z" transform="translate(-244.791 -124.585)" fill="#f9f7f8"/>
          </g>
        </g>
        <path id="Trazado_30695" data-name="Trazado 30695" d="M389.135,177.316l2.746-.923-.331-1.485a3.489,3.489,0,0,0-6.811,0l-6.387,28.646-1.089,3.7a1.441,1.441,0,1,0,2.764.813l1.1-3.746c.009-.031.017-.062.024-.093l6.4-28.693a.608.608,0,0,1,1.187,0" transform="translate(-327.147 -139.106)" fill="#e5e1e5"/>
      </g>
      <path id="Trazado_30696" data-name="Trazado 30696" d="M66.073,203.6l-6.4-28.693a3.489,3.489,0,0,0-6.811,0l-.2.883,2.782.76.226-1.016a.608.608,0,0,1,1.187,0l6.4,28.693.488,2.293,3.068-.579Z" transform="translate(-43.32 -139.106)" fill="#e5e1e5"/>
      <path id="Trazado_30697" data-name="Trazado 30697" d="M29.337,337.4H6.157a1.171,1.171,0,0,0-1.171,1.171,12.761,12.761,0,0,0,25.522,0,1.171,1.171,0,0,0-1.171-1.171Z" transform="translate(-4.797 -272.593)" fill="#99e6fc"/>
      <path id="Trazado_30698" data-name="Trazado 30698" d="M368.578,337.4H392.39a.855.855,0,0,1,.855.855v.316a12.761,12.761,0,1,1-25.522,0v-.316A.855.855,0,0,1,368.578,337.4Z" transform="translate(-297.859 -272.593)" fill="#fd8087"/>
    </g>
  </g>
</svg>
