<svg xmlns="http://www.w3.org/2000/svg" width="84" height="84" viewBox="0 0 84 84">
  <g id="Grupo_1098070" data-name="Grupo 1098070" transform="translate(-180 -7345)">
    <path id="Trazado_838781" data-name="Trazado 838781" d="M42,0A42,42,0,1,1,0,42,42,42,0,0,1,42,0Z" transform="translate(180 7345)" fill="#895cd8"/>
    <path id="Trazado_838782" data-name="Trazado 838782" d="M2.022-13.211l1.651-13.8h15.79v4.861H8.758l-.612,5.362A7.4,7.4,0,0,1,9.9-17.479a8.033,8.033,0,0,1,2.125-.3,7.926,7.926,0,0,1,6.188,2.384A9.6,9.6,0,0,1,20.373-8.7,9.587,9.587,0,0,1,19.213-4,7.971,7.971,0,0,1,15.957-.761,10.281,10.281,0,0,1,11,.371,11.054,11.054,0,0,1,6.234-.677,8.557,8.557,0,0,1,2.746-3.553,6.992,6.992,0,0,1,1.5-7.682H7.774a3.558,3.558,0,0,0,.946,2.356,3,3,0,0,0,2.245.872q3.154,0,3.154-4.676,0-4.323-3.859-4.323A3.848,3.848,0,0,0,7-12.042Z" transform="translate(211 7401)" fill="#fff"/>
  </g>
</svg>
