<svg xmlns="http://www.w3.org/2000/svg" xmlns:xlink="http://www.w3.org/1999/xlink" width="273.913" height="244.502" viewBox="0 0 273.913 244.502">
  <defs>
    <clipPath id="clip-path">
      <rect id="Rectángulo_362354" data-name="Rectángulo 362354" width="210.292" height="239.711" fill="none"/>
    </clipPath>
  </defs>
  <g id="Grupo_1055531" data-name="Grupo 1055531" transform="translate(6359 10397.383)">
    <g id="BACKGROUND" transform="translate(-6359 -10397.383)">
      <g id="Grupo_32241" data-name="Grupo 32241">
        <path id="Trazado_61861" data-name="Trazado 61861" d="M106.628,111.957c13.538-.468,26.628,4.276,39.578,8.25s26.81,7.24,39.917,3.822c17.623-4.595,29.918-20.045,40.959-34.529s23.53-29.846,41.236-34.109c16.534-3.981,34.372,3.155,46.407,15.172s18.979,28.26,23.313,44.705C348.772,156,343.59,202.963,315.7,234.53c-22.315,25.256-56,37.662-89.274,43.024-24,3.868-48.956,4.514-72.3-2.291a118.116,118.116,0,0,1-68.238-53.352C68.458,191.973,52.291,113.834,106.628,111.957Z" transform="translate(-69.318 -35.933)" fill="#673ab7"/>
        <path id="Trazado_61862" data-name="Trazado 61862" d="M189.587,97.263c16.3.3,33.845-5.7,46.035-14.205,6.758-4.717,12.8-10.726,16.405-18.136s4.561-16.333,1.417-23.951c-4.536-10.99-16.471-17.209-28.151-19.431a69.167,69.167,0,0,0-51.848,11.077c-10.468,7.3-21.441,17.689-24.158,30.688-2.928,14.006,9.133,24.751,21,30A49.974,49.974,0,0,0,189.587,97.263Z" transform="translate(-105.809 -20.373)" fill="#673ab7"/>
      </g>
    </g>
    <g id="Grupo_1055162" data-name="Grupo 1055162" transform="translate(-6315.292 -10392.594)">
      <g id="Grupo_1055162-2" data-name="Grupo 1055162" transform="translate(0 0.001)" clip-path="url(#clip-path)">
        <path id="Trazado_781968" data-name="Trazado 781968" d="M144.832,1488.643c-13.587,6.179-29.762,24.608-27.605,34.8s117.395,3.725,131.808,2.431,33.862-33.591,34.921-39.224-125.536-4.19-139.123,1.989" transform="translate(-101.744 -1289.381)" fill="#ffc0dd"/>
        <rect id="Rectángulo_362348" data-name="Rectángulo 362348" width="61.266" height="6.137" transform="translate(0 21.991)" fill="#2e2e47"/>
        <path id="Trazado_781969" data-name="Trazado 781969" d="M1133.272,377.272a7.914,7.914,0,0,1-5.561-4.881c-1.394-4.042,4.656-29.381,18.663-33.09s.471,28.753-3.041,34.245-8.39,4.069-8.39,4.069,1.1,8.736,1.743,15.5c3.4,35.957,6.421,75.4,6.421,75.4h-1.253s-7.922-81.917-8.583-91.243" transform="translate(-980.226 -294.722)" fill="#515032"/>
        <path id="Trazado_781970" data-name="Trazado 781970" d="M1177.285,542.431h-.017a.135.135,0,0,1-.117-.151,106.271,106.271,0,0,1,2.556-12.732.135.135,0,0,1,.26.072,105.916,105.916,0,0,0-2.548,12.695.135.135,0,0,1-.134.118" transform="translate(-1023.375 -460.285)" fill="#fff"/>
        <path id="Trazado_781971" data-name="Trazado 781971" d="M1209.921,363l-.026,0a.135.135,0,0,1-.107-.158,24.118,24.118,0,0,1,3.8-8.357c2.969-4.2,7.553-10.546,7.6-10.61a.135.135,0,0,1,.219.158c-.046.064-4.629,6.407-7.6,10.607a23.8,23.8,0,0,0-3.757,8.252.135.135,0,0,1-.133.11" transform="translate(-1051.748 -298.901)" fill="#fff"/>
        <path id="Trazado_781972" data-name="Trazado 781972" d="M1111.33,1309.857h32.754s3.57,17.7-6.023,27.533h-18.929s-10.586-6.6-7.8-27.533" transform="translate(-965.748 -1138.747)" fill="#9c6f43"/>
        <path id="Trazado_781973" data-name="Trazado 781973" d="M946.233,636.094s-3.4-34.362-6.038-46.5c-4.135-19.018-7.376-28.269-7.376-28.269s3.1-9.32-7.408-19.045-22.4-9.455-20.673-1.751,10.336,17.7,17.228,20.28,9.3,1.723,9.3,1.723a221.691,221.691,0,0,1,7.548,29.2c.841,4.321,5.693,38.964,5.866,44.363Z" transform="translate(-786.404 -464.983)" fill="#7a7642"/>
        <path id="Trazado_781974" data-name="Trazado 781974" d="M1243.848,437.761s1.657-41.874.8-54.967,4.824-32.69,8.441-39.861,17.055-28.188,26.014-31.978,10.681-5.685,12.232-2.929-2.929,22.649-4.307,24.676-11.543-4.52-12.748-3.141,11.026,4.479,10.164,7.58-8.786,16.177-12.748,17.305-16.539-4.871-18.089-3.249-6.374,14.025-6.374,20.572-1.378,65.992-1.378,65.992Z" transform="translate(-1081.361 -266.651)" fill="#515032"/>
        <path id="Trazado_781975" data-name="Trazado 781975" d="M1395.252,520.367a.134.134,0,0,1-.089-.034c-.1-.092-10.465-9.155-18.135-9.155a.135.135,0,1,1,0-.27c7.771,0,18.209,9.13,18.313,9.222a.135.135,0,0,1-.089.236" transform="translate(-1197.026 -444.167)" fill="#fff"/>
        <path id="Trazado_781976" data-name="Trazado 781976" d="M1472.238,417.317a.134.134,0,0,1-.048-.009c-.1-.039-10.092-3.841-15.913-3.841h-.118a.135.135,0,0,1,0-.27h.119c5.871,0,15.909,3.82,16.011,3.859a.135.135,0,0,1-.048.261" transform="translate(-1265.819 -359.22)" fill="#fff"/>
        <path id="Trazado_781977" data-name="Trazado 781977" d="M1472.556,375.835a.135.135,0,0,1-.052-.26c5.1-2.131,13.014-.867,13.093-.854a.135.135,0,0,1-.044.266c-.078-.013-7.912-1.265-12.945.837a.136.136,0,0,1-.052.01" transform="translate(-1280.075 -325.436)" fill="#fff"/>
        <path id="Trazado_781978" data-name="Trazado 781978" d="M940.75,558.875a.133.133,0,0,1-.074-.022,40.034,40.034,0,0,1-7.926-7.389.135.135,0,1,1,.225-.15,40.223,40.223,0,0,0,7.849,7.313.135.135,0,0,1-.074.248" transform="translate(-810.883 -479.242)" fill="#fff"/>
        <path id="Trazado_781979" data-name="Trazado 781979" d="M1041.778,644.772a.135.135,0,0,1-.122-.077,44.588,44.588,0,0,0-2.9-5.112c-1.582-2.339-8.042-9.484-8.107-9.556a.135.135,0,0,1,.2-.181c.065.072,6.537,7.232,8.13,9.586a44.916,44.916,0,0,1,2.918,5.148.135.135,0,0,1-.122.193" transform="translate(-895.984 -547.528)" fill="#fff"/>
        <path id="Trazado_781980" data-name="Trazado 781980" d="M1278.881,808.907s-.172-37.211,5.492-48.637a7.914,7.914,0,0,1-2.324-7.025c.845-4.191,18.892-22.978,32.849-19.084s-14.153,25.033-19.963,27.99-9.295-.739-9.295-.739a28.24,28.24,0,0,0-3.063,10.873c-.634,6.766-2.324,30.637-2.429,32.96a32.728,32.728,0,0,0,0,3.661Z" transform="translate(-1111.817 -637.797)" fill="#515032"/>
        <path id="Trazado_781981" data-name="Trazado 781981" d="M1327.814,872.2a.135.135,0,0,1-.107-.218,106.226,106.226,0,0,1,8.651-9.685.135.135,0,1,1,.188.194,105.966,105.966,0,0,0-8.625,9.657.135.135,0,0,1-.107.052" transform="translate(-1154.241 -749.621)" fill="#fff"/>
        <path id="Trazado_781982" data-name="Trazado 781982" d="M1425.922,763.743a.135.135,0,0,1-.1-.224,24.12,24.12,0,0,1,7.51-5.281c4.688-2.12,11.854-5.269,11.926-5.3a.135.135,0,0,1,.109.247c-.072.032-7.236,3.181-11.923,5.3a23.833,23.833,0,0,0-7.418,5.213.135.135,0,0,1-.1.046" transform="translate(-1239.532 -654.568)" fill="#fff"/>
        <path id="Trazado_781983" data-name="Trazado 781983" d="M852.607,876.188s.566-25.566-6.836-41.392S812.437,809.41,804.2,811.25s3.149,9.157,4.492,9.7,6.549-4.664,6.91-3.589-3.523,2.511-1.878,5.025,6.846,5.793,9.014,4.333,5.259-5.231,7.6-4.513,10.738,5.387,14.576,16.519,5.106,37.467,5.106,37.467Z" transform="translate(-696.568 -705.078)" fill="#7a7642"/>
        <path id="Trazado_781984" data-name="Trazado 781984" d="M922.768,860.6a.135.135,0,0,1-.126-.184c.831-2.118,6.162-6,6.389-6.165a.135.135,0,0,1,.159.219c-.055.04-5.493,4-6.3,6.045a.135.135,0,0,1-.126.086" transform="translate(-802.107 -742.638)" fill="#fff"/>
        <path id="Trazado_781985" data-name="Trazado 781985" d="M688.236,139.465s5.914,4.7,8.838,5.611,9.825,6.54,9.058,9.08-11.79-.719-16.151-3.81-8.819-9.657-8.795-9.849,2.718-3.19,7.05-1.032" transform="translate(-592.2 -120.57)" fill="#2e2e47"/>
        <path id="Trazado_781986" data-name="Trazado 781986" d="M568.8,138.763s1.3,12.461,4.673,12.941,9.792-1.869,8.163-6.47-12.012-10.928-12.836-6.47" transform="translate(-494.498 -119.316)" fill="#2e2e47"/>
        <path id="Trazado_781987" data-name="Trazado 781987" d="M537.434,234.035s-1.5,3.136-3.338,11.4c-2.9,13.036-3.885,22.047-3.885,22.047s8.975,1.881,13.893,6.755a57.128,57.128,0,0,0,2.11-13.177c.294-9.942-4.653-19.543-8.779-27.025" transform="translate(-460.948 -203.462)" fill="#82a7af"/>
        <path id="Trazado_781988" data-name="Trazado 781988" d="M705.092,1498.665s0,0,0,.006v-.006" transform="translate(-612.983 -1302.89)" fill="#cc8b70"/>
        <path id="Trazado_781989" data-name="Trazado 781989" d="M699.235,1418.613c-1.412-.3-.907-1.765-2.723-2.37-1.753-.584-1.954.806-1.966.9.045-.245-.775-7.636-1.585-11.96,3.591.218,7.264-.388,10.4-.275-.287,6.275-.75,11.535-.75,11.535s.067.311.153.812c-.87.586-2.526,1.572-3.531,1.356" transform="translate(-602.438 -1221.371)" fill="#946255"/>
        <path id="Trazado_781990" data-name="Trazado 781990" d="M611.446,1497.964c-.273-.859,3.643-1.667,7.077-2.877,3.635-1.282,5.041-2.955,5.144-3.37,0,0,0,0,0-.006.012-.1.213-1.486,1.966-.9,1.815.6,1.311,2.067,2.723,2.37,1.005.215,2.661-.771,3.531-1.356.282,1.633.773,5.285-.153,6.751l-3.53.5s-.3-1.513-1.512-1.109-.807,1.613-2.118,1.513-12.242,1.269-13.129-1.518" transform="translate(-531.559 -1295.937)" fill="#2e2e47"/>
        <path id="Trazado_781991" data-name="Trazado 781991" d="M1072.177,1498.665a.037.037,0,0,1,0,.006v-.006" transform="translate(-932.115 -1302.89)" fill="#cc8b70"/>
        <path id="Trazado_781992" data-name="Trazado 781992" d="M1059.445,1406.383c-1.412-.3-.908-1.765-2.723-2.37-1.753-.584-1.954.806-1.966.9.045-.245-1.808-8.5-2.618-12.823,3.591.218,7.618-1.371,10.756-1.258-.287,6.275-.071,13.381-.071,13.381s.067.311.153.812c-.87.586-2.526,1.572-3.531,1.356" transform="translate(-914.694 -1209.14)" fill="#946255"/>
        <path id="Trazado_781993" data-name="Trazado 781993" d="M978.53,1497.964c-.273-.859,3.644-1.667,7.077-2.877,3.635-1.282,5.041-2.955,5.144-3.37,0,0,0,0,0-.006.012-.1.213-1.486,1.966-.9,1.815.6,1.311,2.067,2.723,2.37,1.005.215,2.661-.771,3.531-1.356.282,1.633.773,5.285-.153,6.751l-3.529.5s-.3-1.513-1.513-1.109-.807,1.613-2.118,1.513-12.242,1.269-13.129-1.518" transform="translate(-850.69 -1295.937)" fill="#2e2e47"/>
        <path id="Trazado_781994" data-name="Trazado 781994" d="M682.777,516.456c5.281,3.352,21.855,120.982,21.855,120.982l-28.568,2.118L667.489,557.4l-9.994,82.554-24.449,1.336,7.206-111.909s38.312-15.6,42.525-12.929" transform="translate(-550.349 -448.722)" fill="#82a7af"/>
        <path id="Trazado_781995" data-name="Trazado 781995" d="M597.833,185.079a31.837,31.837,0,0,1,16.484,6.645c20.979,17.294,26.957,44.5,26.957,44.5l-44.8,14.036c-2.573-6.425-6.294-24.327-6.294-24.327a64.04,64.04,0,0,1-7.75-19.267c-.817-3.717-.064-11.46.006-14.57.06-2.643,3.617-5.907,15.4-7.012" transform="translate(-506.016 -160.902)" fill="#82a7af"/>
        <path id="Trazado_781996" data-name="Trazado 781996" d="M618.576,143.555c.671-1.965-.476-4.63-.479-4.649-.7-3.681,3.393-4.53,3.393-4.53a18.143,18.143,0,0,0,2.972,4.336,12.615,12.615,0,0,0,3.679,2.385l-5.593,4.82Z" transform="translate(-537.283 -116.822)" fill="#946255"/>
        <path id="Trazado_781997" data-name="Trazado 781997" d="M621.578,149.485s-1.825,1.14-3.409,2.109c.013.145.031.292.06.447a10.094,10.094,0,0,1,.652,2.559c2.083-.912,2.7-5.115,2.7-5.115" transform="translate(-537.416 -129.957)" fill="#2e2e47"/>
        <path id="Trazado_781998" data-name="Trazado 781998" d="M555.269,57.1a2.005,2.005,0,0,0,1.162-1.118,2.45,2.45,0,0,0-1.061-2.523,2.363,2.363,0,0,0-1.511.061c-.162.025-.9-2.865-2.462-4.109A5.644,5.644,0,0,0,545,48.69a6.817,6.817,0,0,0-3.608,4.84c-.373,1.494.562,3.82.951,4.951a6.392,6.392,0,0,1,.33,2.244,6.276,6.276,0,0,0,1.456,3.952,4.86,4.86,0,0,0,5.906,1.011c2.536-1.153,6.1-4.167,5.23-8.591" transform="translate(-470.597 -41.733)" fill="#946255"/>
        <path id="Trazado_781999" data-name="Trazado 781999" d="M550.246,109.469a1.368,1.368,0,0,1-.871-.268.891.891,0,0,1-.194-1.077,2.96,2.96,0,0,0,0-2.052l-.006-.02a1.786,1.786,0,0,0-.689-1.085.883.883,0,0,0-.783.023,5.429,5.429,0,0,0-1.72.882.135.135,0,0,1-.237-.129c.209-.384,1.583-.9,1.856-1a1.133,1.133,0,0,1,1.008-.013,2,2,0,0,1,.827,1.259,3.229,3.229,0,0,1,0,2.228.652.652,0,0,0,.113.779,1.413,1.413,0,0,0,1.333.068c.071-.04.113-.086.108-.116a.135.135,0,1,1,.266-.044c.015.088,0,.256-.241.395a1.643,1.643,0,0,1-.769.172" transform="translate(-474.436 -90.95)" fill="#2e2e47"/>
        <path id="Trazado_782000" data-name="Trazado 782000" d="M579.383,92.466a.135.135,0,0,1-.055-.258,5.637,5.637,0,0,1,2.375-.472.135.135,0,0,1-.015.27,5.462,5.462,0,0,0-2.25.449.134.134,0,0,1-.055.012" transform="translate(-503.579 -79.749)" fill="#2e2e47"/>
        <path id="Trazado_782001" data-name="Trazado 782001" d="M579.4,148.051a1.083,1.083,0,0,0,1.211.664c.857-.2,1.093-1.6,1.093-1.6Z" transform="translate(-503.711 -127.894)" fill="#fff"/>
        <path id="Trazado_782002" data-name="Trazado 782002" d="M587.113,112.575a1.344,1.344,0,0,1-.5-.094.135.135,0,0,1,.1-.251c.887.351,1.871-.662,1.881-.672a.135.135,0,0,1,.2.187,2.722,2.722,0,0,1-1.677.831" transform="translate(-509.908 -96.948)" fill="#2e2e47"/>
        <path id="Trazado_782003" data-name="Trazado 782003" d="M665.8,287.614a.135.135,0,0,1-.133-.113c-.786-4.675-3.641-20.562-4.52-23.8-1.362-5.022-3.842-12.054-5.482-16.707-.266-.753-.506-1.434-.712-2.024-1.437-4.113-3.258-13.466-3.276-13.56a.135.135,0,1,1,.265-.051c.018.094,1.835,9.428,3.266,13.522.206.589.446,1.271.711,2.023,1.642,4.657,4.124,11.694,5.488,16.726.882,3.251,3.739,19.153,4.526,23.831a.135.135,0,0,1-.111.156l-.023,0" transform="translate(-566.545 -201.037)" fill="#2e2e47"/>
        <path id="Trazado_782004" data-name="Trazado 782004" d="M554.4,124.5a.135.135,0,0,1,0-.27,3.206,3.206,0,0,0,1.685-.689.135.135,0,0,1,.167.213,3.416,3.416,0,0,1-1.844.746h0" transform="translate(-481.856 -107.376)" fill="#2e2e47"/>
        <path id="Trazado_782005" data-name="Trazado 782005" d="M595.875,119.239s1.586-1.188,2.315-.817-1.037,1.687-2.077,1.942-.648-.848-.239-1.125" transform="translate(-517.664 -102.889)" fill="#774237"/>
        <path id="Trazado_782006" data-name="Trazado 782006" d="M548.9,139.145s1.586-1.188,2.315-.817-1.037,1.687-2.077,1.942-.648-.848-.239-1.125" transform="translate(-476.826 -120.195)" fill="#774237"/>
        <path id="Trazado_782007" data-name="Trazado 782007" d="M592.074,115.082s.2.609-.3.809a.571.571,0,0,1-.725-.339Z" transform="translate(-513.842 -100.049)" fill="#2e2e47"/>
        <path id="Trazado_782008" data-name="Trazado 782008" d="M559.4,126.477s.092.522-.3.682-.688-.279-.688-.279Z" transform="translate(-485.463 -109.955)" fill="#2e2e47"/>
        <path id="Trazado_782009" data-name="Trazado 782009" d="M720.724,539.6c.12.42.054.807-.148.864s-.463-.235-.583-.655-.054-.807.148-.864.463.235.583.655" transform="translate(-625.886 -468.537)" fill="#2e2e47"/>
        <path id="Trazado_782010" data-name="Trazado 782010" d="M698.273,455.892c.12.42.054.807-.148.864s-.463-.235-.583-.655-.054-.807.148-.865.463.235.583.655" transform="translate(-606.368 -395.762)" fill="#2e2e47"/>
        <path id="Trazado_782011" data-name="Trazado 782011" d="M675.266,375.634c.12.42.054.807-.148.864s-.463-.235-.583-.655-.054-.807.148-.865.463.235.583.655" transform="translate(-586.367 -325.988)" fill="#2e2e47"/>
        <path id="Trazado_782012" data-name="Trazado 782012" d="M646.189,278.891c.076.43-.029.808-.236.845s-.436-.282-.513-.712.03-.808.236-.845.436.282.513.712" transform="translate(-561.103 -241.837)" fill="#2e2e47"/>
        <rect id="Rectángulo_362349" data-name="Rectángulo 362349" width="3.846" height="106.455" transform="translate(44.447 98.316)" fill="#cecac8"/>
        <path id="Trazado_782013" data-name="Trazado 782013" d="M372.357,857.627l-2.674,1.446V752.618h2.674Z" transform="translate(-321.39 -654.301)" fill="#fff"/>
        <rect id="Rectángulo_362350" data-name="Rectángulo 362350" width="3.846" height="108.754" transform="translate(18.323 125.312)" fill="#cecac8"/>
        <path id="Trazado_782014" data-name="Trazado 782014" d="M172.375,1066.5l-2.674,1.525V959.269h2.674Z" transform="translate(-147.532 -833.958)" fill="#fff"/>
        <rect id="Rectángulo_362351" data-name="Rectángulo 362351" width="3.846" height="106.455" transform="translate(162.646 98.316)" fill="#cecac8"/>
        <path id="Trazado_782015" data-name="Trazado 782015" d="M1277.178,857.627l-2.674,1.446V752.618h2.674Z" transform="translate(-1108.011 -654.301)" fill="#fff"/>
        <rect id="Rectángulo_362352" data-name="Rectángulo 362352" width="3.846" height="108.754" transform="translate(136.522 125.312)" fill="#cecac8"/>
        <path id="Trazado_782016" data-name="Trazado 782016" d="M1077.2,1066.5l-2.674,1.525V959.269h2.674Z" transform="translate(-934.153 -833.958)" fill="#fff"/>
        <path id="Trazado_782017" data-name="Trazado 782017" d="M217.925,759.5H88.373c-.613,0-.831-2.972-.3-4.092,0,0,35.761-30.336,36.039-30.336H253.665c.613,0,.831,2.972.3,4.092,0,0-35.761,30.336-36.039,30.336" transform="translate(-76.307 -630.356)" fill="#2e2e47"/>
        <path id="Trazado_782018" data-name="Trazado 782018" d="M365.01,725.073,332.1,759.5v37.8l-81.727,1.026V759.5l35.991-34.429h24.364l-3.847,8.649,8.4-8.649Z" transform="translate(-217.664 -630.355)" fill="#ffc97d"/>
        <path id="Trazado_782019" data-name="Trazado 782019" d="M407.52,759.654H390.337a.135.135,0,0,1-.1-.229l19.748-20.346a.135.135,0,0,1,.1-.041h20.432a.135.135,0,0,1,.105.22l-9.66,12.054a.136.136,0,0,1-.123.049,15.264,15.264,0,0,0-7.281,1.358c-4.084,1.75-5.892,6.794-5.91,6.845a.135.135,0,0,1-.128.09m-16.864-.27h16.77c.268-.7,2.137-5.248,6.025-6.914a17.527,17.527,0,0,1,5.288-1.368,11.194,11.194,0,0,1,2.059-.019l9.438-11.776H410.142Z" transform="translate(-339.229 -642.496)" fill="#2e2e47"/>
        <path id="Trazado_782020" data-name="Trazado 782020" d="M670.985,755.717a27.41,27.41,0,0,1-4.958-.426.135.135,0,0,1-.079-.215l12.339-15.986a.135.135,0,0,1,.107-.053c4.508,0,7.472,1.42,8.344,4,.961,2.84-.868,6.736-4.448,9.474-3.414,2.61-7.907,3.208-11.3,3.208m-4.688-.651c1.472.259,10.171,1.554,15.829-2.772,3.49-2.668,5.281-6.44,4.356-9.172-.828-2.447-3.676-3.8-8.022-3.814Z" transform="translate(-578.929 -642.495)" fill="#2e2e47"/>
        <path id="Trazado_782021" data-name="Trazado 782021" d="M782.612,767.476H772.353a.135.135,0,0,1-.093-.233c.1-.09,9.587-9.141,14.212-20.128.086-.2.582-.306,2.366-.574a20.342,20.342,0,0,0,2.02-.363c-.345-.083-1.084-.18-1.655-.254-1.508-.2-1.93-.272-2.024-.427a.163.163,0,0,1-.015-.141,30.787,30.787,0,0,0,1.6-6.2.135.135,0,0,1,.134-.116h19.363a.135.135,0,0,1,.1.224l-10.9,12.524a.135.135,0,0,1-.115.046c-.044,0-4.444-.423-6.046,1.179a2.136,2.136,0,0,0-.4,2.462,4.926,4.926,0,0,0,.795,1.328.135.135,0,0,1,0,.177l-8.976,10.451a.135.135,0,0,1-.1.047m-9.926-.27h9.864l8.862-10.318c-.363-.457-1.848-2.525-.3-4.069,1.6-1.6,5.594-1.316,6.194-1.263l10.66-12.248h-18.95a31.119,31.119,0,0,1-1.563,6.055,15.124,15.124,0,0,0,1.789.292c1.5.2,1.923.271,2.015.426a.162.162,0,0,1,.012.142c-.082.21-.582.313-2.387.584a11.725,11.725,0,0,0-2.163.427c-4.236,10.051-12.516,18.481-14.03,19.972m18.351-20.967h0Z" transform="translate(-671.341 -642.495)" fill="#2e2e47"/>
        <path id="Trazado_782022" data-name="Trazado 782022" d="M843.3,388.039c-3.165,5.546-17.068,33.749-17.068,33.749a21.244,21.244,0,0,0,13.379-5.575c4.392-4.055,7.506-12.671,9.274-17.2a95.834,95.834,0,0,0-5.586-10.977" transform="translate(-718.303 -337.349)" fill="#2e2e47"/>
        <path id="Trazado_782023" data-name="Trazado 782023" d="M667.012,667.668c.7,3.434-.685,6.62-3.1,7.116s-4.951-1.885-5.655-5.319.685-6.62,3.1-7.116,4.951,1.885,5.655,5.319" transform="translate(-572.104 -575.768)" fill="#eae6e4"/>
        <path id="Trazado_782024" data-name="Trazado 782024" d="M686.733,700.083c.17.828-.165,1.6-.748,1.715s-1.194-.454-1.363-1.282.165-1.6.748-1.715,1.193.454,1.363,1.282" transform="translate(-595.149 -607.5)" fill="#2e2e47"/>
        <path id="Trazado_782025" data-name="Trazado 782025" d="M692.383,628.386l.279-2.4a3.493,3.493,0,0,1,.777-1.822l6.588-6.627c1.173-1.419,2.837-1.428,3.207.375l.123.6a4.069,4.069,0,0,1-1.159,3.744l-6.246,6.034a3.491,3.491,0,0,1-3.416.837Z" transform="translate(-601.935 -535.979)" fill="#fa634b"/>
        <path id="Trazado_782026" data-name="Trazado 782026" d="M552.444,890.837h-26.48a.135.135,0,0,1-.13-.171,16.074,16.074,0,0,1,2.37-4.685,11.771,11.771,0,0,1,9.038-5.032,13.05,13.05,0,0,1,7.087,1.816.177.177,0,0,1,.085.114c.056.228-.314.831-1.236,2.257a16.679,16.679,0,0,0-1.185,1.987,12.386,12.386,0,0,0,2.126-1.441c1.545-1.174,2.2-1.632,2.469-1.428a27.991,27.991,0,0,1,5.97,6.375.135.135,0,0,1-.114.208m-26.3-.27h26.046a27.89,27.89,0,0,0-5.759-6.092,9.494,9.494,0,0,0-2.15,1.422c-1.548,1.176-2.207,1.637-2.49,1.456a.179.179,0,0,1-.077-.115c-.05-.23.319-.831,1.236-2.249a14.97,14.97,0,0,0,1.194-2.017,12.762,12.762,0,0,0-6.889-1.753,11.509,11.509,0,0,0-8.834,4.922,16.09,16.09,0,0,0-2.275,4.425" transform="translate(-457.139 -765.856)" fill="#2e2e47"/>
        <path id="Trazado_782027" data-name="Trazado 782027" d="M1094.748,745.545c-.5.1-.525.125-.933-.161a2.143,2.143,0,0,0-2.182.01,2.657,2.657,0,0,0-1.4,2.285c-.005,1.338-.095,1.162-.747,1.931s-3.349,1.669-3.349,1.669l-.529-.148a8.664,8.664,0,0,1-.556-2.809c.14-.853.172-1.8.7-2.291s1.779-1.829,1.779-1.829a1.414,1.414,0,0,0,.585-.193c.211-.156-.063-.788-.1-.825s-.195,0-.195,0a2.723,2.723,0,0,0-.871-2.451,2.206,2.206,0,0,0-3.045-.091,2.587,2.587,0,0,0-.938,2.593c.275,1.048,1.14,2.235,1.195,2.638a11.753,11.753,0,0,1-.017,3.6,18.259,18.259,0,0,1-.769,3.011s-5.463,6.792-5.751,7.174-2.228,2.948-1.823,2.987,6.089-5.338,6.089-5.338-1.983,8-1.9,7.994,2.924-6.071,3.129-6.526,1.715-4.474,1.751-4.515a24.224,24.224,0,0,1,1.966-1.957c.363-.218,2.277-1.561,2.765-1.865s.816-.65,1.231-.455a4.483,4.483,0,0,0,2.589.056,4,4,0,0,0,1.746-2.542c-.031-.686-.086-.735.336-1.243s-.246-.8-.747-.706m-8.284-1.159c-.434.326-1.3.759-1.829.442,0,0-1.163-.926-.99-1.872s.828-2.079,1.567-2.113a2.169,2.169,0,0,1,1.874,1.478,2.482,2.482,0,0,1-.621,2.066m7.926,3.286a4.756,4.756,0,0,1-.638,1.392,2.377,2.377,0,0,1-1.567.477c-.262-.035-.91-.437-1.231-1.682a2.415,2.415,0,0,1,.759-1.639c.771-.738,1.175-.725,1.78-.192s1.1,1.112.9,1.644" transform="translate(-935.215 -643.394)" fill="#82a7af"/>
        <path id="Trazado_782028" data-name="Trazado 782028" d="M438.105,517.741c2.036,4,9.224,4.988,10.739,2.895.756-1.045,7.956-5.222,14.091-20.685.368-.929.721-1.982,1.048-3.118-4.917-4.874-13.893-6.755-13.893-6.755s-12.981,25.708-11.985,27.663" transform="translate(-380.827 -426.058)" fill="#82a7af"/>
        <path id="Trazado_782029" data-name="Trazado 782029" d="M491.243,995.056a.135.135,0,0,1-.132-.167,32.847,32.847,0,0,0,.407-7.032.135.135,0,0,1,.135-.141h37.871a.135.135,0,0,1,0,.27H491.794a32.045,32.045,0,0,1-.42,6.966.135.135,0,0,1-.131.1" transform="translate(-426.953 -858.688)" fill="#2e2e47"/>
        <path id="Trazado_782030" data-name="Trazado 782030" d="M307.136,995.474a.135.135,0,0,1-.126-.087,46.291,46.291,0,0,1-1.658-7.4H281.7a.135.135,0,1,1,0-.27h23.766a.135.135,0,0,1,.134.116,47.63,47.63,0,0,0,1.66,7.458.135.135,0,0,1-.126.184" transform="translate(-244.786 -858.688)" fill="#2e2e47"/>
        <path id="Trazado_782031" data-name="Trazado 782031" d="M409.649,700.252s-6.194,3.877-7.3,5.455-2.238,3.426-1.781,3.8,2.325-2.159,2.325-2.159-2.355,4.63-2.009,4.931.74-.121.74-.121-.2.8.2.9,3-2.994,3-2.994-2.064,3.667-1.4,3.675,5.247-5.8,5.247-5.8,4.887-3.144,4.609-5.032-2.19-3.586-3.626-2.661" transform="translate(-348.15 -608.551)" fill="#946255"/>
        <path id="Trazado_782032" data-name="Trazado 782032" d="M460.52,724.09c1.7,1.342-3.526,5.836-3.943,7.016s-1.225,1.32-1.208.781a7.874,7.874,0,0,1,1.146-3.611c.947-1.554,3.135-4.872,4.005-4.186" transform="translate(-395.882 -629.42)" fill="#946255"/>
        <path id="Trazado_782033" data-name="Trazado 782033" d="M746.45,212.012l9.763,15.615s-13.283,22.406-12.061,24.922,4.481,7.46,10.161,5.807S774.4,236.332,771.087,225.4c-2.876-9.49-20.921-26.24-27.319-24.892-7.266,1.531.842,8.687,2.682,11.506" transform="translate(-644.023 -174.247)" fill="#82a7af"/>
        <path id="Trazado_782034" data-name="Trazado 782034" d="M734.428,603.858a2.892,2.892,0,0,0-2.587.38c-1.289.909-3.235,2.378-3.624,3.216a5.071,5.071,0,0,0-.573,2.007s1.693-.358,2.253.949c.373.87.031,3.749.467,3.788a8.024,8.024,0,0,0,1.835-.677,7.088,7.088,0,0,0,1.493-.436c.84-.342.778-1.01,1.338-1.407s1.835-4.6,1.586-5.9a2.97,2.97,0,0,0-2.188-1.917" transform="translate(-632.589 -524.845)" fill="#946255"/>
        <path id="Trazado_782035" data-name="Trazado 782035" d="M747.088,273.626a.134.134,0,0,1-.115-.065c-.042-.07-1-1.75.958-5.075,1.278-2.167,5.262-9.428,7.9-14.233,1.429-2.6,2.461-4.487,2.651-4.81.334-.568,2.438-.451,5.864-.191a25.581,25.581,0,0,0,4.811.127l.089-.021a49.8,49.8,0,0,0-5.719-.863c-.99-.117-1.773-.21-2.129-.271-.143-.025-.291-.05-.281-.191s.03-.156,1.073-.2c1.684-.064,5.627-.215,6.257-1.255.04-.066.05-.113.03-.139-.344-.465-4.539.185-9.759,1.511l-.1.024-.052-.083c-.222-.353-5.454-8.662-5.743-9.186-.041-.074-.333-.4-.7-.823-2.119-2.4-7.748-8.781-7.95-13.225a.135.135,0,0,1,.129-.141.14.14,0,0,1,.141.129c.2,4.349,5.781,10.677,7.883,13.059a9.791,9.791,0,0,1,.736.872c.27.49,5.123,8.2,5.683,9.09.461-.115,2.518-.623,4.615-1.041,4.87-.969,5.205-.516,5.332-.345a.369.369,0,0,1-.016.44c-.673,1.11-4.251,1.3-6.206,1.374l1.087.13c5.167.612,6.045.82,6.059,1.137.009.193-.26.25-.405.28a24.933,24.933,0,0,1-4.887-.122c-2.253-.171-5.338-.4-5.611.059-.188.32-1.273,2.3-2.648,4.8-2.637,4.807-6.622,12.07-7.9,14.241-1.871,3.171-.968,4.783-.959,4.8a.135.135,0,0,1-.116.2" transform="translate(-646.96 -195.189)" fill="#2e2e47"/>
        <path id="Trazado_782036" data-name="Trazado 782036" d="M541.975,33.878a4.462,4.462,0,0,1-1.7-.4c-.423-.323-.584-.216-.584-.216a6.842,6.842,0,0,1-2.031.611c-.4-.108-.872-.18-.872-.18a8.391,8.391,0,0,1-1.517,1.258,3.6,3.6,0,0,1-2.068.575c-.216-.143-1.546-2.013-.611-5.1s5.5-4.026,7.1-3.7,5.014.216,6.057,1.4,1.4,1.869,1.258,2.372-5.033,3.379-5.033,3.379" transform="translate(-462.734 -23.181)" fill="#2e2e47"/>
        <path id="Trazado_782037" data-name="Trazado 782037" d="M604.836,53.029s3.717,7.387,6.269,10.407,10.264,6.137,17.821,5.941c0,0-4.665-4.746-5.24-5.5s-11.875-13.831-14.536-14.729-5.463,2.1-4.314,3.882" transform="translate(-525.595 -42.584)" fill="#2e2e47"/>
        <path id="Trazado_782038" data-name="Trazado 782038" d="M567.656,4.345s-.533-1.384-.244-1.943l.289-.56s-.876-1.479.674-1.666,5.818-.5,7.675.758.579,2.189.579,2.189-.269,2.823-1.383,3.229-7.59-2.008-7.59-2.008" transform="translate(-493.214 -0.001)" fill="#2e2e47"/>
        <path id="Trazado_782039" data-name="Trazado 782039" d="M607.673,211.654a5.485,5.485,0,0,1-2.186-.79,15.353,15.353,0,0,1-2.321-1.433c-.229-.221-.081-.658.467-1.377a11.92,11.92,0,0,1,.79-.922.135.135,0,1,1,.195.187s-.415.433-.771.9c-.649.852-.5,1.011-.494,1.017a15.36,15.36,0,0,0,2.258,1.388c1.864.967,2.212.753,2.263.7a19.78,19.78,0,0,0,1.4-1.781.135.135,0,0,1,.221.155,19.635,19.635,0,0,1-1.427,1.813.474.474,0,0,1-.4.143" transform="translate(-524.282 -180.037)" fill="#2e2e47"/>
        <path id="Trazado_782040" data-name="Trazado 782040" d="M657.008,196.349c-1.22,0-3.477-1.671-3.768-1.89a.135.135,0,1,1,.163-.216c1.21.912,3.348,2.193,3.935,1.75.683-.517,2.829-4.32,3.869-6.259a.135.135,0,1,1,.238.128c-.124.231-3.044,5.665-3.944,6.346a.8.8,0,0,1-.493.141" transform="translate(-567.859 -164.887)" fill="#2e2e47"/>
        <path id="Trazado_782041" data-name="Trazado 782041" d="M535.17,495.454c-1.037,0-4.034-1.962-5.007-2.618a.135.135,0,0,1,.151-.224c2.439,1.644,4.659,2.793,4.947,2.559.019-.016.034-.089-.036-.262a11.559,11.559,0,0,0-2.519-3.01c-.894-.865-1.147-1.123-1.042-1.324.074-.142.27-.1.334-.09a13.406,13.406,0,0,1,2.326,1.27c1.913,1.156,5.114,3.09,5.82,2.586.135-.1.168-.309.1-.632-.256-1.193-2.22-2.331-5.679-3.291a46.788,46.788,0,0,0-5.271-1.1.135.135,0,0,1,.037-.267c.429.06,10.51,1.5,11.177,4.607.094.438.025.744-.206.908-.787.561-3.236-.834-6.117-2.575a16.162,16.162,0,0,0-2.215-1.231,11.907,11.907,0,0,0,.924.949,11.685,11.685,0,0,1,2.582,3.1c.108.269.092.462-.045.573a.41.41,0,0,1-.261.072" transform="translate(-460.049 -425.159)" fill="#2e2e47"/>
        <path id="Trazado_782042" data-name="Trazado 782042" d="M597.257,297.006a.135.135,0,0,1-.116-.066c-.3-.5-2.893-4.883-2.97-5.664a12.318,12.318,0,0,0-.873-2.017,29.393,29.393,0,0,1-2.48-6.373c-.591-3.092-.8-11.951-.65-16.414a.137.137,0,0,1,.14-.131.135.135,0,0,1,.13.14c-.148,4.451.058,13.279.646,16.354a29.212,29.212,0,0,0,2.458,6.306,11.106,11.106,0,0,1,.9,2.108,41.756,41.756,0,0,0,2.933,5.553.135.135,0,0,1-.116.2" transform="translate(-513.032 -231.549)" fill="#2e2e47"/>
        <path id="Trazado_782043" data-name="Trazado 782043" d="M204.92,163.409a12.93,12.93,0,0,0-19.187-5.666q-.114.078-.227.16c-7.258,5.217.21,21.423,2.525,25.891s-1.993,3.521-3.994,10.254,10.022,10.49,15.54,4.734c4.935-5.148.653-5.5,2.06-9.818.57-1.748,4.189-2.979,4.568-4.964,1.3-6.782,1.294-14.546-1.284-20.589m-20.186-.114q.025-.1.051-.2a3.991,3.991,0,0,1,7.343-.855c1.741,3.155,2.359,8.021-.451,10.593-4.138,3.787-7.995-5.19-6.943-9.538m4.35,14.938c1.891-1.613,3.442-.454,4.525,1.351s1.4,9.049-2.634,5.522c0,0-3.783-5.26-1.891-6.873m-.7,19.917c-3.436-1.613-2.875-3.647-1.192-3.927s4.068-2.034,7.544-2.244,3.887,2.244,3.887,2.244c.912,5.751-6.8,5.54-10.239,3.927M199.6,185.7c-1.634.6-2.875-3.752-1.437-4.769s2.349.982,2.349.982c.245,1.4.421,3.3-.912,3.787m1.4-6.136c-3.927-.561-.07-7.995-1.964-12.607s-7.013-8.011-4-9.214,6.662,5.411,6.662,5.411c2.455,4.629,3.226,16.971-.7,16.41" transform="translate(-158.58 -135.174)" fill="#84ceca"/>
        <rect id="Rectángulo_362353" data-name="Rectángulo 362353" width="6.135" height="55.616" transform="translate(52.314 21.535)" fill="#ffea8f"/>
        <path id="Trazado_782044" data-name="Trazado 782044" d="M432.353,227.357h-1.438v-.288h1.438Zm0-2.444h-1.438v-.288h1.438Zm0-2.444h-1.438v-.288h1.438Zm0-2.444h-1.438v-.288h1.438Zm0-2.444h-1.438v-.288h1.438Zm0-2.444h-1.438v-.288h1.438Zm0-2.444h-1.438V212.4h1.438Zm0-2.444h-1.438v-.288h1.438Zm0-2.444h-1.438v-.288h1.438Zm0-2.444h-1.438v-.288h1.438Zm0-2.444h-1.438v-.288h1.438Zm0-2.444h-1.438v-.288h1.438Zm0-2.444h-1.438v-.288h1.438Zm0-2.444h-1.438v-.288h1.438Zm0-2.444h-1.438v-.288h1.438Zm0-2.444h-1.438V190.4h1.438Zm0-2.444h-1.438v-.288h1.438Zm0-2.444h-1.438v-.288h1.438Zm0-2.444h-1.438v-.288h1.438Zm0-2.444h-1.438v-.288h1.438Zm0-2.444h-1.438v-.288h1.438Zm0-2.444h-1.438v-.288h1.438Z" transform="translate(-374.623 -152.782)" fill="#2e2e47"/>
        <path id="Trazado_782045" data-name="Trazado 782045" d="M64.465,247.751c-.208,1.55-2.975,4.983-2.975,4.983l-.815.25s-2.547-1.971-3.079-3.2a14.935,14.935,0,0,1-1-2.488l-2.226.04a18.233,18.233,0,0,1,2.992,4.714,28.315,28.315,0,0,1,1.517,4.575s-2.538,16.851-2.593,17.591.65,2.308,1.212,2.019,3.236-14.063,3.236-14.063,4.353,14.1,4.45,14.027a2.473,2.473,0,0,0,.854-2.232c-.379-3.123-3.739-16.188-3.727-16.273a37.582,37.582,0,0,1,.929-4.2c.291-.589,1.666-3.946,2.048-4.751a3.454,3.454,0,0,1,1.226-1.625Z" transform="translate(-47.271 -214.834)" fill="#82a7af"/>
        <path id="Trazado_782046" data-name="Trazado 782046" d="M33.427,176.034c-2.822.234-4.615-4.04-5.084-6.812-.3-1.79-.516-3.971.544-4.952a2.179,2.179,0,0,1,2.123-.378c3.265.818,3.709,8.891,3.713,8.973a5.042,5.042,0,0,1-.839,2.934l-.146.2-.249.026-.062.006M30.1,164.9a.691.691,0,0,0-.457.184c-.344.318-.658,1.261-.2,3.948.4,2.384,1.829,5.773,3.67,5.889a3.9,3.9,0,0,0,.5-2c-.115-2.293-1-7.478-2.87-7.947a1.974,1.974,0,0,0-.637-.07" transform="translate(-24.426 -142.389)" fill="#82a7af"/>
        <path id="Trazado_782047" data-name="Trazado 782047" d="M122.753,177.808l-.215-.128c-2.468-1.473-1.331-6.015-.034-8.532.831-1.614,1.97-3.487,3.407-3.636a2.194,2.194,0,0,1,1.925.971c2.121,2.613-2.366,9.338-2.412,9.406a5.043,5.043,0,0,1-2.432,1.844Zm3.3-11.189-.025,0c-.466.048-1.283.614-2.53,3.037-1.107,2.15-2,5.716-.6,6.913a3.893,3.893,0,0,0,1.6-1.305c1.283-1.9,3.687-6.582,2.471-8.08-.463-.571-.788-.578-.919-.567" transform="translate(-105.264 -143.883)" fill="#82a7af"/>
        <path id="Trazado_782048" data-name="Trazado 782048" d="M98.681,305.487a.613.613,0,1,1-.662-.561.613.613,0,0,1,.662.561" transform="translate(-84.726 -265.091)" fill="#fff"/>
        <path id="Trazado_782049" data-name="Trazado 782049" d="M784.3,1025.124a.135.135,0,0,1-.135-.135v-30.74a.135.135,0,1,1,.27,0v30.74a.135.135,0,0,1-.135.135" transform="translate(-681.723 -864.25)" fill="#2e2e47"/>
        <path id="Trazado_782050" data-name="Trazado 782050" d="M801.164,1040.787a.135.135,0,0,1-.135-.126l-1.821-25.74a.135.135,0,1,1,.269-.019l1.821,25.74a.135.135,0,0,1-.125.144h-.01" transform="translate(-694.806 -882.214)" fill="#2e2e47"/>
      </g>
    </g>
  </g>
</svg>
