<svg xmlns="http://www.w3.org/2000/svg" xmlns:xlink="http://www.w3.org/1999/xlink" width="273.913" height="244.502" viewBox="0 0 273.913 244.502">
  <defs>
    <clipPath id="clip-path">
      <rect id="Rectángulo_362318" data-name="Rectángulo 362318" width="201.005" height="239.842" fill="none"/>
    </clipPath>
  </defs>
  <g id="Grupo_1055530" data-name="Grupo 1055530" transform="translate(-265 -1301.619)">
    <g id="BACKGROUND" transform="translate(265 1301.619)">
      <g id="Grupo_32241" data-name="Grupo 32241">
        <path id="Trazado_61861" data-name="Trazado 61861" d="M106.628,111.957c13.538-.468,26.628,4.276,39.578,8.25s26.81,7.24,39.917,3.822c17.623-4.595,29.918-20.045,40.959-34.529s23.53-29.846,41.236-34.109c16.534-3.981,34.372,3.155,46.407,15.172s18.979,28.26,23.313,44.705C348.772,156,343.59,202.963,315.7,234.53c-22.315,25.256-56,37.662-89.274,43.024-24,3.868-48.956,4.514-72.3-2.291a118.116,118.116,0,0,1-68.238-53.352C68.458,191.973,52.291,113.834,106.628,111.957Z" transform="translate(-69.318 -35.933)" fill="#673ab7"/>
        <path id="Trazado_61862" data-name="Trazado 61862" d="M189.587,97.263c16.3.3,33.845-5.7,46.035-14.205,6.758-4.717,12.8-10.726,16.405-18.136s4.561-16.333,1.417-23.951c-4.536-10.99-16.471-17.209-28.151-19.431a69.167,69.167,0,0,0-51.848,11.077c-10.468,7.3-21.441,17.689-24.158,30.688-2.928,14.006,9.133,24.751,21,30A49.974,49.974,0,0,0,189.587,97.263Z" transform="translate(-105.809 -20.373)" fill="#673ab7"/>
      </g>
    </g>
    <g id="Grupo_1055141" data-name="Grupo 1055141" transform="translate(301.454 1306.279)">
      <g id="Grupo_1055140" data-name="Grupo 1055140" clip-path="url(#clip-path)">
        <path id="Trazado_781218" data-name="Trazado 781218" d="M201,121.862A100.5,100.5,0,1,1,100.5,21.36,100.5,100.5,0,0,1,201,121.862" transform="translate(0 -10.524)" fill="#ffe89f"/>
        <path id="Trazado_781219" data-name="Trazado 781219" d="M350.966,260.993c-2.195-.027-1.043,18.269-1.043,18.269l1.679.019s1.562-18.263-.636-18.289m.721,3.508c0,.1,0,.191,0,.288a.213.213,0,0,0,0,.044c-.026,1.657-.354,2.99-.736,2.985s-.68-1.367-.661-3.045c0-.061,0-.124,0-.186,0-.108.009-.216.012-.319.073-1.44.372-2.531.716-2.527.365.007.65,1.216.664,2.76" transform="translate(-172.263 -128.595)" fill="#b5b5b5"/>
        <rect id="Rectángulo_362307" data-name="Rectángulo 362307" width="19.283" height="2.759" transform="translate(170.182 150.477)" fill="#b57255"/>
        <rect id="Rectángulo_362308" data-name="Rectángulo 362308" width="19.283" height="2.759" transform="translate(170.182 171.161)" fill="#b57255"/>
        <rect id="Rectángulo_362309" data-name="Rectángulo 362309" width="17.401" height="17.924" transform="translate(171.176 153.235)" fill="#ffe1c9"/>
        <path id="Trazado_781220" data-name="Trazado 781220" d="M335.474,296.629s10.738,2.441,19.283,0Z" transform="translate(-165.292 -146.153)" fill="#9b5c46"/>
        <path id="Trazado_781221" data-name="Trazado 781221" d="M354.836,304.567v.369l-1.7.1q-7.847.46-15.7.738v-.362q1.534-.055,3.076-.117,7.163-.291,14.325-.727" transform="translate(-166.259 -150.064)" fill="#fac7b4"/>
        <path id="Trazado_781222" data-name="Trazado 781222" d="M354.836,308.435v.365l-1.487.176q-7.958.943-15.915,1.889V310.5c1.132-.131,2.269-.267,3.4-.4q7-.828,14-1.659" transform="translate(-166.259 -151.97)" fill="#fac7b4"/>
        <path id="Trazado_781223" data-name="Trazado 781223" d="M354.836,315.212v.365c-.811.022-1.619.048-2.429.069q-4.741.132-9.481.267l-5.491.153v-.362c.464-.015.928-.025,1.388-.04q4.74-.137,9.484-.27l6.529-.183" transform="translate(-166.259 -155.309)" fill="#fac7b4"/>
        <path id="Trazado_781224" data-name="Trazado 781224" d="M354.836,320.037v.365h-.015c-3.3.242-6.613.329-9.915.588a54.516,54.516,0,0,0-7.471,1.034v-.376c1.008-.219,2.024-.4,3.043-.544,3.259-.471,6.547-.636,9.832-.8,1.509-.077,3.017-.154,4.527-.263" transform="translate(-166.259 -157.686)" fill="#fac7b4"/>
        <path id="Trazado_781225" data-name="Trazado 781225" d="M354.836,328.394v.369c-.442-.007-.884-.011-1.326-.014l-9.9-.11q-3.091-.034-6.178-.07V328.2c.617.008,1.231.011,1.845.018l9.9.11q2.828.033,5.659.062" transform="translate(-166.259 -161.71)" fill="#fac7b4"/>
        <path id="Trazado_781226" data-name="Trazado 781226" d="M354.836,332.677v.365l-1.107.011q-5.081.065-10.157.322-3.069.153-6.138.376v-.369c.566-.04,1.132-.08,1.7-.117q5.069-.335,10.149-.482,2.773-.077,5.553-.106" transform="translate(-166.259 -163.914)" fill="#fac7b4"/>
        <path id="Trazado_781227" data-name="Trazado 781227" d="M300.206,213.5a7.9,7.9,0,0,0,.639-1.716,12.3,12.3,0,0,0-.323-6.241c-1.887-6.583-7.4-12.756-14.375-13.9-7.009-1.147-12.819,3.42-18.1,7.329a38.66,38.66,0,0,1-8.847,5.343,11.257,11.257,0,0,1-6.252.81l-.039-.011c.084-.073.17-.144.252-.219a6.592,6.592,0,0,0,2.307-4.3,4.727,4.727,0,0,0-1.6-3.882c-2.725-2.211-6.375.822-6.024,3.916a5.653,5.653,0,0,0,2.568,3.939,6.534,6.534,0,0,0,1.511.741,13.7,13.7,0,0,1-1.5.948,16.382,16.382,0,0,1-11.691,1.471,16.24,16.24,0,0,1-11.337-10.67c-.092-.283-.54-.162-.447.123a16.875,16.875,0,0,0,5.868,8.2,16.321,16.321,0,0,0,10.055,3.283,16.071,16.071,0,0,0,9.6-3.189,8.987,8.987,0,0,0,3.286.2c3.462-.4,6.655-2.218,9.493-4.14,2.779-1.881,5.373-4.023,8.177-5.867a20.922,20.922,0,0,1,8.785-3.646,14.418,14.418,0,0,1,9.5,2.288,20,20,0,0,1,6.872,7.627c1.672,3.206,2.939,7.488,1.387,10.973a8,8,0,0,0-1.538-2.35,5.7,5.7,0,0,0-3.942-1.756,4.9,4.9,0,0,0-3.747,1.382,3.752,3.752,0,0,0-.644,4.071,5.16,5.16,0,0,0,3.421,2.942,5.515,5.515,0,0,0,4.6-1.159,7.461,7.461,0,0,0,1.786-2.008,12.045,12.045,0,0,1,.326,1.218,18.38,18.38,0,0,1-1.021,10.54,12.254,12.254,0,0,1-6.966,7.092,9.989,9.989,0,0,1-9.089-.968,6.793,6.793,0,0,1-2.793-4.376,3.916,3.916,0,0,1,1.821-4.147,3.15,3.15,0,0,1,3.884.357,2.732,2.732,0,1,1-4.421,3.161.232.232,0,0,0-.4.234,3.362,3.362,0,0,0,3.79,1.428,3.164,3.164,0,0,0,2.1-3.47,3.016,3.016,0,0,0-2.782-2.662,4.292,4.292,0,0,0-3.7,1.674,5.084,5.084,0,0,0-.391,4.827,7.649,7.649,0,0,0,3.231,3.752,10.678,10.678,0,0,0,9.347.456,12.884,12.884,0,0,0,6.836-7.286,18.876,18.876,0,0,0,1.023-10.626,11.98,11.98,0,0,0-.494-1.743M248.715,202a3.928,3.928,0,0,1,1.019-4.8,3.132,3.132,0,0,1,2.487-.753,3.1,3.1,0,0,1,1.917,1.212,4.544,4.544,0,0,1,.368,4.734,7.7,7.7,0,0,1-2.144,2.581A5.939,5.939,0,0,1,248.715,202m47.413,14.613a4.414,4.414,0,0,1-4.552-1.019,3.784,3.784,0,0,1-1.04-4.291,3.941,3.941,0,0,1,3.336-2.015,5.252,5.252,0,0,1,4,1.38,7.59,7.59,0,0,1,1.826,2.8,6.6,6.6,0,0,1-3.571,3.14" transform="translate(-111.813 -94.339)" fill="#fac7b4"/>
        <path id="Trazado_781228" data-name="Trazado 781228" d="M96.438,282.61A15.73,15.73,0,0,1,85.5,290a14.539,14.539,0,0,1-6.739-.429,15.24,15.24,0,0,1-5.793-3.41,16.113,16.113,0,0,1-3.872-5.516,14.831,14.831,0,0,1-.947-3.241,12.12,12.12,0,0,1-.185-1.9,7.718,7.718,0,0,0,2.723-.054,4.072,4.072,0,0,0,2.582-1.572,2.079,2.079,0,0,0-.222-2.544,2.994,2.994,0,0,0-2.578-.754c-2.1.32-2.839,2.461-2.947,4.391q-.2-.036-.4-.079a12.164,12.164,0,0,1-3.152-1.15,13.091,13.091,0,0,1-4.894-4.493,11.408,11.408,0,0,1-1.834-6.36,12.555,12.555,0,0,1,1.921-6.313,12.854,12.854,0,0,1,3.262-3.554,6.767,6.767,0,0,0,3.7,1.681,2.709,2.709,0,0,0,2.987-1.629,1.792,1.792,0,0,0-1.4-2.381,5.716,5.716,0,0,0-3.4.673,11.805,11.805,0,0,0-1.855,1.065,8.891,8.891,0,0,1-2.647-5.314,8.424,8.424,0,0,1,1.539-6.027,10.625,10.625,0,0,1,5.454-3.824,11.181,11.181,0,0,1,6.788.063,14.083,14.083,0,0,1,5.942,3.881,15.391,15.391,0,0,1,2.081,2.855.232.232,0,0,0,.4-.234c-2.482-4.374-7.26-7.769-12.438-7.526-4.67.22-9.484,3.5-10.2,8.348a9.544,9.544,0,0,0,1.325,6.348,8.827,8.827,0,0,0,1.37,1.7q-.366.275-.713.575a12.93,12.93,0,0,0-4.172,12.89,13.244,13.244,0,0,0,10.09,9.227c.075.014.15.026.226.039,0,.245.006.484.022.712a15.348,15.348,0,0,0,2.23,6.806,15.886,15.886,0,0,0,11.771,7.646,16.371,16.371,0,0,0,13.189-4.95,14.918,14.918,0,0,0,2.117-2.813.232.232,0,0,0-.4-.234M67.085,251.1a1.794,1.794,0,0,1,1.4.53,1.385,1.385,0,0,1,.1,1.52c-.628,1.254-2.182,1.258-3.357.909a6.861,6.861,0,0,1-2.4-1.309,11.724,11.724,0,0,1,1.146-.694,6.941,6.941,0,0,1,3.112-.956m1.02,22.789a3.6,3.6,0,0,1,1.77-2.653,2.724,2.724,0,0,1,2.523.167,1.61,1.61,0,0,1,.47,2.246,3.764,3.764,0,0,1-2.527,1.4,7.358,7.358,0,0,1-2.37,0,7.231,7.231,0,0,1,.134-1.16" transform="translate(-27.979 -116.429)" fill="#fac7b4"/>
        <rect id="Rectángulo_362310" data-name="Rectángulo 362310" width="40.813" height="57.521" transform="translate(33.15 5.244)" fill="#fac7b4"/>
        <path id="Trazado_781229" data-name="Trazado 781229" d="M106.941,57.355c-.578,1.183-1.77,2.405-3.2,2.259a3.025,3.025,0,0,1-1.787-1.006,22.36,22.36,0,0,1-1.637-2c-.848-1.1-1.664-2.22-2.463-3.354q.642,1.848,1.293,3.7l.9,2.577a8.886,8.886,0,0,1,.626,2.3,2.407,2.407,0,0,1-.6,1.854A4.466,4.466,0,0,1,98.4,64.716,26.623,26.623,0,0,1,93.428,66.1a28.425,28.425,0,0,1-5.9.45c-.843.022-1.686,0-2.529-.048a26.934,26.934,0,0,1-5.093-.8,4.51,4.51,0,0,1-1.783-.839,2.429,2.429,0,0,1-.812-1.774,8.908,8.908,0,0,1,.358-2.357c.2-.887.4-1.774.6-2.661q.43-1.914.86-3.822c-.662,1.218-1.346,2.427-2.061,3.614a22.46,22.46,0,0,1-1.4,2.176,3.038,3.038,0,0,1-1.659,1.2c-1.4.3-2.723-.768-3.434-1.876a5.153,5.153,0,0,1-.635-3.958A21.086,21.086,0,0,1,71.8,51.146,26.2,26.2,0,0,0,73.581,46.6a16.933,16.933,0,0,0,.477-2.392c.093-.768.137-1.54.221-2.308A8.2,8.2,0,0,1,75.6,37.879c1.5-2.07,4.007-3.08,6.324-3.95-.013-.167.15-.344.313-.216a8.448,8.448,0,0,0,5.375,1.748c.234-.009.468-.026.7-.053.009,0,.018,0,.031,0a8.524,8.524,0,0,0,4.069-2.189c.15-.146.331.009.335.177a.326.326,0,0,1,.062.018l.013-.013a.235.235,0,0,1,.375.11c2.273.578,4.665,1.319,6.285,3.085a8.188,8.188,0,0,1,1.774,3.848c.172.755.3,1.514.485,2.269a16.324,16.324,0,0,0,.75,2.317,26.459,26.459,0,0,0,2.282,4.312,20.728,20.728,0,0,1,2.343,4.016,5.128,5.128,0,0,1-.177,4" transform="translate(-34.388 -16.337)" fill="#e8a895"/>
        <path id="Trazado_781230" data-name="Trazado 781230" d="M103.889,31.55a.244.244,0,0,0-.3.167,4.6,4.6,0,0,0-.142,1.6.245.245,0,0,0,.24.24.242.242,0,0,0,.24-.24,4.15,4.15,0,0,1,.125-1.471.243.243,0,0,0-.167-.3" transform="translate(-50.963 -15.542)" fill="#e8a895"/>
        <path id="Trazado_781231" data-name="Trazado 781231" d="M105.993,25.561a.243.243,0,0,0-.339,0,4.037,4.037,0,0,0-.729,1.44.24.24,0,0,0,.463.127c.032-.119.069-.236.113-.352.011-.029.022-.058.033-.086l.007-.017.014-.032c.023-.053.048-.105.074-.157.054-.107.112-.211.176-.312.033-.052.067-.1.1-.154l.054-.075.027-.037c-.014.018-.012.016.005-.006a.246.246,0,0,0,0-.339" transform="translate(-51.694 -12.56)" fill="#e8a895"/>
        <path id="Trazado_781232" data-name="Trazado 781232" d="M112.342,19.666a.244.244,0,0,0-.328-.086l-1.736.93a.24.24,0,1,0,.242.414l1.736-.93a.243.243,0,0,0,.086-.328" transform="translate(-54.277 -9.632)" fill="#e8a895"/>
        <path id="Trazado_781233" data-name="Trazado 781233" d="M123.462,19.528l-2.068-.467a.245.245,0,0,0-.3.168.242.242,0,0,0,.167.3l2.068.467a.24.24,0,0,0,.127-.463" transform="translate(-59.663 -9.388)" fill="#e8a895"/>
        <path id="Trazado_781234" data-name="Trazado 781234" d="M131.046,24.617l-.8-1.134a.24.24,0,1,0-.414.242l.8,1.134a.245.245,0,0,0,.328.086.243.243,0,0,0,.086-.328" transform="translate(-63.952 -11.511)" fill="#e8a895"/>
        <path id="Trazado_781235" data-name="Trazado 781235" d="M133.515,30.472a.242.242,0,0,0-.328-.086.245.245,0,0,0-.086.328,4.012,4.012,0,0,1,.364,2.149.242.242,0,0,0,.24.24.245.245,0,0,0,.24-.24,4.473,4.473,0,0,0-.43-2.391" transform="translate(-65.566 -14.956)" fill="#e8a895"/>
        <path id="Trazado_781236" data-name="Trazado 781236" d="M132.912,40.259a.244.244,0,0,0-.328.086l-.668,1.267a.24.24,0,0,0,.414.242L133,40.587a.244.244,0,0,0-.086-.328" transform="translate(-64.982 -19.821)" fill="#e8a895"/>
        <path id="Trazado_781237" data-name="Trazado 781237" d="M72.335,110.7h-3.2a.24.24,0,0,0,0,.48h3.2a.24.24,0,0,0,0-.48" transform="translate(-33.948 -54.544)" fill="#e8a895"/>
        <path id="Trazado_781238" data-name="Trazado 781238" d="M82.722,110.44l-3.069.129c-.308.013-.309.493,0,.48l3.069-.129c.308-.013.309-.493,0-.48" transform="translate(-39.132 -54.415)" fill="#e8a895"/>
        <path id="Trazado_781239" data-name="Trazado 781239" d="M95.34,110.327l-2.669-.043a.24.24,0,0,0,0,.48l2.669.043a.24.24,0,0,0,0-.48" transform="translate(-45.546 -54.338)" fill="#e8a895"/>
        <path id="Trazado_781240" data-name="Trazado 781240" d="M108.226,110.258l-2.668-.067a.24.24,0,0,0,0,.48l2.668.067a.24.24,0,0,0,0-.48" transform="translate(-51.896 -54.292)" fill="#e8a895"/>
        <path id="Trazado_781241" data-name="Trazado 781241" d="M119.6,110.224l-2.468-.125c-.309-.016-.308.464,0,.48l2.468.125c.309.016.308-.464,0-.48" transform="translate(-57.597 -54.247)" fill="#e8a895"/>
        <path id="Trazado_781242" data-name="Trazado 781242" d="M130.451,110.4l-2.535-.136c-.308-.017-.307.463,0,.48l2.535.136c.308.017.308-.463,0-.48" transform="translate(-62.912 -54.329)" fill="#e8a895"/>
        <path id="Trazado_781243" data-name="Trazado 781243" d="M140.1,110.9l-2.2-.182a.24.24,0,0,0,0,.48l2.2.182a.242.242,0,0,0,.24-.24.245.245,0,0,0-.24-.24" transform="translate(-67.826 -54.552)" fill="#e8a895"/>
        <rect id="Rectángulo_362311" data-name="Rectángulo 362311" width="46.175" height="65.079" transform="translate(5.487 55.965) rotate(-19.265)" fill="#ffe1c9"/>
        <path id="Trazado_781244" data-name="Trazado 781244" d="M42.926,107.568a10.289,10.289,0,0,0-.74-1.333c-.192-.292-.639.017-.447.309a9.419,9.419,0,0,1-2.893,13.174c-.963.6-2.042.961-3.05,1.471a5.7,5.7,0,0,0-2.236,1.822,3.521,3.521,0,0,0-.506,2.656,9.494,9.494,0,0,0,1.142,2.772c.545.989,1.138,1.952,1.766,2.89a66.045,66.045,0,0,0,4.184,5.5c1.468,1.762,2.985,3.482,4.471,5.229a23.3,23.3,0,0,1,2.161,2.749,4.926,4.926,0,0,1,.72,3.381c-.147,1.086-.392,2.156-.537,3.243s-.242,2.2-.294,3.308a38.1,38.1,0,0,0,.283,6.733q.108.821.252,1.637c.059.341.6.307.542-.037a38.1,38.1,0,0,1,.071-13.535,8.145,8.145,0,0,0,.192-3.185,7.4,7.4,0,0,0-1.6-3c-1.442-1.81-3-3.53-4.506-5.29s-2.976-3.533-4.337-5.4c-.678-.929-1.327-1.878-1.933-2.855a22.486,22.486,0,0,1-1.645-3,3.849,3.849,0,0,1-.257-2.974,4.391,4.391,0,0,1,2.032-2.02c1.028-.568,2.158-.927,3.175-1.52a9.876,9.876,0,0,0,2.21-1.769,10,10,0,0,0,1.786-10.963" transform="translate(-16.252 -52.285)" fill="#fac7b4"/>
        <path id="Trazado_781245" data-name="Trazado 781245" d="M58.659,149.588a9.886,9.886,0,0,0-6.914-1.791A9.634,9.634,0,0,0,45.5,151.25a9.774,9.774,0,0,0-1.882,3.615c-.093.338.44.439.533.1a9.329,9.329,0,0,1,4.056-5.375,9.207,9.207,0,0,1,10.1.407c.281.2.636-.208.352-.413" transform="translate(-21.485 -72.788)" fill="#fac7b4"/>
        <path id="Trazado_781246" data-name="Trazado 781246" d="M53.2,166.021l-1.019-1.082a.272.272,0,0,0-.383.03.28.28,0,0,0,.031.383l1.019,1.083a.272.272,0,0,0,.382-.03.28.28,0,0,0-.03-.384" transform="translate(-25.491 -81.235)" fill="#fac7b4"/>
        <path id="Trazado_781247" data-name="Trazado 781247" d="M59.118,172.924l-.951-1.347a.271.271,0,0,0-.446.309l.951,1.347a.271.271,0,1,0,.446-.309" transform="translate(-28.416 -84.481)" fill="#fac7b4"/>
        <path id="Trazado_781248" data-name="Trazado 781248" d="M63.167,179.7l-.737-1.421a.272.272,0,0,0-.378-.069.28.28,0,0,0-.068.378l.737,1.421a.272.272,0,0,0,.377.069.28.28,0,0,0,.069-.378" transform="translate(-30.519 -87.784)" fill="#fac7b4"/>
        <path id="Trazado_781249" data-name="Trazado 781249" d="M65.641,186.387a.276.276,0,0,0-.319.215l-.519,2.179a.272.272,0,0,0,.533.1l.519-2.179a.275.275,0,0,0-.215-.319" transform="translate(-31.927 -91.833)" fill="#fac7b4"/>
        <path id="Trazado_781250" data-name="Trazado 781250" d="M63.8,193.915a.276.276,0,0,0-.319.215q-.155.813-.31,1.627a.272.272,0,1,0,.533.1q.154-.813.31-1.627a.275.275,0,0,0-.215-.319" transform="translate(-31.125 -95.543)" fill="#fac7b4"/>
        <path id="Trazado_781251" data-name="Trazado 781251" d="M62.988,202.629a.277.277,0,0,0-.253.289l.046,1.5a.273.273,0,0,0,.289.253.277.277,0,0,0,.253-.289l-.046-1.5a.273.273,0,0,0-.289-.253" transform="translate(-30.911 -99.837)" fill="#fac7b4"/>
        <path id="Trazado_781252" data-name="Trazado 781252" d="M62.013,103.757a10.267,10.267,0,0,1-.251-1.5.272.272,0,0,1,.542-.037,9.418,9.418,0,0,0,10.47,8.5c1.126-.132,2.2-.52,3.3-.749A5.7,5.7,0,0,1,78.96,110a3.518,3.518,0,0,1,2.05,1.762,9.5,9.5,0,0,1,.834,2.88c.19,1.113.325,2.236.418,3.361a65.943,65.943,0,0,1,.153,6.909c-.051,2.292-.166,4.583-.24,6.875a23.325,23.325,0,0,0,.022,3.5,4.924,4.924,0,0,0,1.543,3.093c.791.758,1.65,1.442,2.44,2.2s1.561,1.572,2.29,2.4a38.152,38.152,0,0,1,3.973,5.443q.428.71.823,1.437c.166.3-.279.616-.446.309a38.093,38.093,0,0,0-8.486-10.544,8.141,8.141,0,0,1-2.134-2.372,7.4,7.4,0,0,1-.615-3.347c0-2.315.15-4.632.23-6.945s.127-4.617.03-6.924c-.049-1.148-.133-2.3-.266-3.438A22.5,22.5,0,0,0,81,113.241a3.848,3.848,0,0,0-1.652-2.486,4.386,4.386,0,0,0-2.848-.315c-1.158.2-2.266.619-3.43.789a9.889,9.889,0,0,1-2.83-.008,10,10,0,0,1-8.226-7.464" transform="translate(-30.43 -50.244)" fill="#fac7b4"/>
        <path id="Trazado_781253" data-name="Trazado 781253" d="M72.478,144.66a9.888,9.888,0,0,1,4.293-5.707,9.634,9.634,0,0,1,7.039-1.19,9.768,9.768,0,0,1,3.723,1.656c.284.206-.071.617-.352.413a9.331,9.331,0,0,0-6.522-1.679,9.206,9.206,0,0,0-7.648,6.611c-.093.334-.628.234-.533-.1" transform="translate(-35.705 -67.773)" fill="#fac7b4"/>
        <path id="Trazado_781254" data-name="Trazado 781254" d="M96.892,150.605l.122-1.482a.272.272,0,0,1,.319-.214.279.279,0,0,1,.215.318q-.061.741-.122,1.482a.273.273,0,0,1-.319.215.28.28,0,0,1-.215-.319" transform="translate(-47.739 -73.367)" fill="#fac7b4"/>
        <path id="Trazado_781255" data-name="Trazado 781255" d="M96.676,159.693q-.048-.823-.1-1.646a.272.272,0,1,1,.542-.037q.048.823.1,1.646a.272.272,0,0,1-.542.037" transform="translate(-47.586 -77.729)" fill="#fac7b4"/>
        <path id="Trazado_781256" data-name="Trazado 781256" d="M97.73,167.514l-.309-1.571a.273.273,0,0,1,.253-.29.28.28,0,0,1,.289.253q.155.785.309,1.571a.272.272,0,0,1-.253.289.28.28,0,0,1-.289-.253" transform="translate(-47.999 -81.62)" fill="#fac7b4"/>
        <path id="Trazado_781257" data-name="Trazado 781257" d="M99.565,174.605a.276.276,0,0,1,.383-.03l1.763,1.381a.272.272,0,0,1-.352.413L99.6,174.988a.275.275,0,0,1-.03-.383" transform="translate(-49.026 -85.984)" fill="#fac7b4"/>
        <path id="Trazado_781258" data-name="Trazado 781258" d="M105.851,179.22a.276.276,0,0,1,.383-.03l1.257,1.08a.272.272,0,0,1-.353.413l-1.257-1.08a.276.276,0,0,1-.03-.383" transform="translate(-52.123 -88.258)" fill="#fac7b4"/>
        <path id="Trazado_781259" data-name="Trazado 781259" d="M112.153,185.345a.278.278,0,0,1,.378.069l.9,1.2a.273.273,0,0,1-.069.377.277.277,0,0,1-.377-.068l-.9-1.2a.274.274,0,0,1,.069-.378" transform="translate(-55.202 -91.299)" fill="#fac7b4"/>
        <path id="Trazado_781260" data-name="Trazado 781260" d="M63.5,210.5a.274.274,0,0,0-.319.215,5.152,5.152,0,0,0,.129,2.2.271.271,0,1,0,.512-.18,4.51,4.51,0,0,1-.109-1.913.277.277,0,0,0-.215-.319" transform="translate(-31.099 -103.714)" fill="#fac7b4"/>
        <path id="Trazado_781261" data-name="Trazado 781261" d="M118.445,193.2l-1.13-1.928a.272.272,0,0,0-.447.309L118,193.513a.274.274,0,0,0,.377.069.277.277,0,0,0,.069-.378" transform="translate(-57.56 -94.188)" fill="#fac7b4"/>
        <path id="Trazado_781262" data-name="Trazado 781262" d="M306.1,386.215c.748-.37,1.478-.773,2.2-1.2a10.416,10.416,0,0,0,2.563,3.35c4.152,3.7,9.805,5.087,15.065,6.378.188.049.4-.172.268-.351a25.123,25.123,0,0,0-3.013-3.4,25.818,25.818,0,0,0-13.727-6.671q1.571-.986,3.039-2.126a5,5,0,0,0,3.22,2.371c7.055,2.246,14.307-.715,21.242-1.963a.241.241,0,0,0,.057-.437,19.484,19.484,0,0,0-4.813-2.025c-6.057-1.656-12.349-.619-18.324.921a37.549,37.549,0,0,0,6.488-7.189h.024A16.156,16.156,0,0,0,333.46,375.1a16.361,16.361,0,0,0,6.853-4.526.245.245,0,0,0-.105-.4c-1.7-.375-3.408-.71-5.136-.921-4.722-.571-9.992-.01-13.721,3.129a35.977,35.977,0,0,0,2.011-3.681c.316-.663.6-1.335.873-2.011a17.026,17.026,0,0,0,18.65-8.206.244.244,0,0,0-.206-.365,20.26,20.26,0,0,0-17.825,6.939q.6-1.705,1.032-3.465a24.918,24.918,0,0,0,.969-26.7.241.241,0,0,0-.441.182,15.153,15.153,0,0,1-.044,5.913c-.317,1.78-.791,3.527-1.2,5.288a36.69,36.69,0,0,0-.835,5.207,33.754,33.754,0,0,0,.379,8.49,15.7,15.7,0,0,0-.855-1.445c-2.793-4.209-7.15-6.94-11.364-9.546a.241.241,0,0,0-.351.269,19.43,19.43,0,0,0,1.651,3.954,20.25,20.25,0,0,0,11.332,9.4c-.351,1.233-.764,2.452-1.234,3.643h0a.222.222,0,0,0-.043.115,37.182,37.182,0,0,1-3.029,5.946,10.939,10.939,0,0,0,.144-3.493c-.729-6.143-5.533-10.415-10.007-14.149-.2-.163-.542.049-.374.289a22.092,22.092,0,0,1,2.255,4.381c1.93,4.9,2.951,10.669,7.127,14.268-.615.893-1.258,1.766-1.954,2.6a37.63,37.63,0,0,1-4.641,4.655,19.859,19.859,0,0,0,1.013-4.161c.826-6.436-1.483-12.81-5.221-17.978a.24.24,0,0,0-.437.183,50.027,50.027,0,0,1,.566,5.423c.351,5.884.245,12.051,2.952,17.455a37.794,37.794,0,0,1-3.566,2.452.172.172,0,0,0-.081.048c-.893.542-1.8,1.051-2.736,1.516-.278.134-.033.547.24.413" transform="translate(-150.64 -164.947)" fill="#8aad99"/>
        <path id="Trazado_781263" data-name="Trazado 781263" d="M309.03,427.352a39.459,39.459,0,0,0,5.045.3.211.211,0,0,0,.192.142l.188.006c2.43,1.415,4.86,2.831,7.315,4.2,1.125.628,2.26,1.243,3.4,1.848a5.982,5.982,0,0,0,3.251,1.094,1.872,1.872,0,0,0,1.749-1.849,3.258,3.258,0,0,0-1.559-2.509c-3.076-2.272-6.888-2.914-10.658-3.137a38.909,38.909,0,0,0,6.048-1.12.193.193,0,0,0,.049.034,74.316,74.316,0,0,0,7.68,2.869q1.765.552,3.555,1.011.845.221,1.689.413a7.888,7.888,0,0,0,1.722.321c.844,0,1.766-.664,1.384-1.6a2.7,2.7,0,0,0-.94-1.042,8.416,8.416,0,0,0-1.338-.84,20.109,20.109,0,0,0-6.632-1.888,24.928,24.928,0,0,0-4.233-.181,37.719,37.719,0,0,0,5.106-2.231c.517-.272,1.03-.555,1.53-.854a.163.163,0,0,0,.077.047,65.672,65.672,0,0,0,7.068,2.19c1.932.483,4.081,1.1,6.072.586.75-.194,1.46-.736,1.2-1.6-.274-.9-1.327-1.214-2.123-1.488a20.035,20.035,0,0,0-10.785-.66,38.549,38.549,0,0,0,3.172-2.289.237.237,0,0,0,.206-.079c.088-.1.171-.2.254-.3.313-.256.616-.518.919-.78a33.011,33.011,0,0,0,7.066-5.417,15.7,15.7,0,0,0,3.963-6.765,2.311,2.311,0,0,0-.039-1.525,1.28,1.28,0,0,0-1.3-.69,2.613,2.613,0,0,0-1.549.9,17.612,17.612,0,0,0-1.253,1.371c-3.2,3.879-4.889,8.771-8.168,12.592-.477.393-.967.779-1.466,1.15-.557.413-1.13.806-1.707,1.192a27.018,27.018,0,0,0,3.63-5.6,17.319,17.319,0,0,0,1.706-6.429c.042-.787.151-1.938-.562-2.488a1.175,1.175,0,0,0-1.211-.092,2.136,2.136,0,0,0-.965,1.069,17.494,17.494,0,0,0-1.179,3.421c-.319,1.216-.619,2.434-.929,3.65q-.924,3.666-1.847,7.327a38.617,38.617,0,0,1-7.071,3.351,17.3,17.3,0,0,0,4.045-4.213,32.865,32.865,0,0,0,1.928-3.2,20.606,20.606,0,0,0,1.7-3.847,5.06,5.06,0,0,0,.042-3.654,1.445,1.445,0,0,0-1.154-.81,2.4,2.4,0,0,0-1.642.678,8.421,8.421,0,0,0-2.035,3.024c-.653,1.4-1.287,2.811-1.918,4.225q-1.927,4.3-3.737,8.653v.005a38.782,38.782,0,0,1-8.48,1.287,11.294,11.294,0,0,0,2.665-1.837c1.233-1.093,2.42-2.254,3.562-3.444a25.056,25.056,0,0,0,2.843-3.45,9.807,9.807,0,0,0,1.716-4.092c.135-1.081.026-2.618-1.12-3.142-1.334-.612-2.451.711-3.115,1.673-3.063,4.458-4.238,9.994-7.667,14.215l-.125.045a.225.225,0,0,0-.113.065,37.95,37.95,0,0,1-5.066-.29.24.24,0,0,0-.051.477" transform="translate(-152.162 -198.841)" fill="#afc7b9"/>
        <path id="Trazado_781264" data-name="Trazado 781264" d="M74.563,386.55c-.749-.369-1.478-.773-2.2-1.2a10.415,10.415,0,0,1-2.563,3.35c-4.152,3.705-9.805,5.087-15.065,6.378-.187.048-.4-.173-.268-.351a25.061,25.061,0,0,1,3.014-3.4A25.815,25.815,0,0,1,71.2,384.664q-1.57-.986-3.038-2.126a5,5,0,0,1-3.22,2.371c-7.055,2.246-14.307-.715-21.242-1.963a.241.241,0,0,1-.058-.437,19.48,19.48,0,0,1,4.814-2.025c6.057-1.656,12.349-.619,18.324.921a37.553,37.553,0,0,1-6.489-7.189h-.024A16.155,16.155,0,0,1,47.2,375.435a16.362,16.362,0,0,1-6.853-4.526.245.245,0,0,1,.106-.4c1.7-.374,3.407-.71,5.135-.921,4.722-.571,9.992-.01,13.721,3.129a35.97,35.97,0,0,1-2.011-3.681c-.317-.663-.6-1.335-.874-2.011a17.028,17.028,0,0,1-18.65-8.207.245.245,0,0,1,.206-.365,20.259,20.259,0,0,1,17.825,6.94q-.6-1.706-1.032-3.465a24.918,24.918,0,0,1-.969-26.7.242.242,0,0,1,.441.182,15.143,15.143,0,0,0,.043,5.913c.317,1.78.792,3.527,1.2,5.288a36.686,36.686,0,0,1,.835,5.207,33.755,33.755,0,0,1-.379,8.49,15.7,15.7,0,0,1,.854-1.445c2.793-4.209,7.151-6.94,11.365-9.546a.241.241,0,0,1,.351.269,19.4,19.4,0,0,1-1.651,3.954,20.248,20.248,0,0,1-11.331,9.4c.351,1.233.763,2.452,1.234,3.643h0a.223.223,0,0,1,.043.115,37.265,37.265,0,0,0,3.028,5.946,10.943,10.943,0,0,1-.144-3.494c.729-6.143,5.533-10.415,10.007-14.148.2-.163.542.048.374.288a22.093,22.093,0,0,0-2.256,4.381c-1.929,4.9-2.951,10.669-7.127,14.268.614.893,1.258,1.766,1.954,2.6a37.632,37.632,0,0,0,4.641,4.655,19.893,19.893,0,0,1-1.013-4.161c-.825-6.436,1.483-12.81,5.222-17.978a.24.24,0,0,1,.437.183,50.143,50.143,0,0,0-.566,5.423c-.351,5.884-.245,12.051-2.952,17.455a37.851,37.851,0,0,0,3.566,2.452.177.177,0,0,1,.081.048c.893.542,1.8,1.051,2.736,1.516.279.134.033.547-.24.413" transform="translate(-18.596 -165.112)" fill="#8aad99"/>
        <path id="Trazado_781265" data-name="Trazado 781265" d="M67.012,427.688a39.465,39.465,0,0,1-5.045.3.211.211,0,0,1-.192.142l-.188.006c-2.43,1.415-4.86,2.831-7.315,4.2-1.125.628-2.26,1.243-3.4,1.848a5.982,5.982,0,0,1-3.251,1.094,1.872,1.872,0,0,1-1.749-1.849,3.258,3.258,0,0,1,1.559-2.509c3.076-2.272,6.888-2.914,10.658-3.137a38.908,38.908,0,0,1-6.048-1.12.194.194,0,0,1-.049.035,74.321,74.321,0,0,1-7.68,2.869q-1.765.552-3.555,1.011c-.564.148-1.128.286-1.689.413a7.885,7.885,0,0,1-1.722.321c-.844,0-1.766-.664-1.384-1.6a2.7,2.7,0,0,1,.94-1.042,8.415,8.415,0,0,1,1.338-.84,20.109,20.109,0,0,1,6.632-1.888,24.924,24.924,0,0,1,4.233-.181A37.651,37.651,0,0,1,44,423.53c-.517-.272-1.03-.555-1.53-.854a.163.163,0,0,1-.077.047,65.681,65.681,0,0,1-7.068,2.19c-1.932.483-4.081,1.1-6.072.586-.75-.194-1.46-.736-1.2-1.6.274-.9,1.327-1.214,2.123-1.488a20.035,20.035,0,0,1,10.785-.66,38.552,38.552,0,0,1-3.172-2.289.237.237,0,0,1-.206-.079c-.088-.1-.171-.2-.254-.3-.312-.256-.616-.518-.919-.78a33,33,0,0,1-7.067-5.417,15.7,15.7,0,0,1-3.963-6.765,2.311,2.311,0,0,1,.039-1.525,1.28,1.28,0,0,1,1.3-.69,2.612,2.612,0,0,1,1.549.9,17.6,17.6,0,0,1,1.253,1.371c3.2,3.879,4.889,8.77,8.168,12.592.477.393.967.779,1.466,1.151.556.413,1.13.805,1.707,1.192a27.017,27.017,0,0,1-3.63-5.6,17.32,17.32,0,0,1-1.707-6.429c-.042-.787-.151-1.938.562-2.488A1.175,1.175,0,0,1,37.3,406.5a2.136,2.136,0,0,1,.965,1.069,17.5,17.5,0,0,1,1.179,3.421c.319,1.216.619,2.434.929,3.65q.924,3.666,1.847,7.327a38.6,38.6,0,0,0,7.071,3.351,17.3,17.3,0,0,1-4.045-4.212,32.867,32.867,0,0,1-1.928-3.2,20.606,20.606,0,0,1-1.7-3.847,5.061,5.061,0,0,1-.042-3.654,1.445,1.445,0,0,1,1.154-.81,2.4,2.4,0,0,1,1.642.678A8.421,8.421,0,0,1,46.4,413.3c.653,1.4,1.287,2.811,1.918,4.225q1.927,4.3,3.737,8.653v.005a38.786,38.786,0,0,0,8.48,1.287,11.294,11.294,0,0,1-2.665-1.837c-1.233-1.093-2.42-2.254-3.562-3.444a25.056,25.056,0,0,1-2.843-3.45,9.808,9.808,0,0,1-1.716-4.092c-.135-1.081-.026-2.618,1.12-3.142,1.334-.612,2.451.711,3.115,1.672,3.063,4.458,4.238,9.994,7.667,14.215l.125.045a.225.225,0,0,1,.113.065,37.95,37.95,0,0,0,5.066-.29.24.24,0,0,1,.051.477" transform="translate(-12.454 -199.007)" fill="#afc7b9"/>
        <path id="Trazado_781266" data-name="Trazado 781266" d="M212.966,453.619H114.6v-19.61h94.92q1.792,9.79,3.451,19.61" transform="translate(-56.462 -213.842)" fill="#352e2a"/>
        <path id="Trazado_781267" data-name="Trazado 781267" d="M192.088,272.919q1.123,5.86,2.193,11.724H99.361V184.708q-3.412-1.224-6.819-2.443c-.144-.053-.288-.106-.437-.158q-4.212-1.512-8.428-3.019c1.828-8.327,3.763-16.668,7.007-24.544a23.973,23.973,0,0,1,4.171-7.2,24.041,24.041,0,0,1,6.58-4.693q1.246-.663,2.505-1.281c.139-.072.283-.139.422-.206,9.9-4.8,20.632-7.727,31.344-10.3a1.083,1.083,0,0,0,.067.125A86.262,86.262,0,0,0,151.121,150.7a2.294,2.294,0,0,0,.835.586,2.124,2.124,0,0,0,1.723-.466,19.957,19.957,0,0,0,3.105-2.693,58.069,58.069,0,0,0,10.06-12.756c.033-.058.067-.12.1-.183a127.881,127.881,0,0,1,24.63,9.661,24.487,24.487,0,0,1,7.554,5.351c.062.072.125.144.178.216.12.134.231.273.336.417,2.3,3,3.335,6.8,4.161,10.5a242.681,242.681,0,0,1,4.348,31.67c.015.168.029.341.044.509.336,3.878.643,7.756.974,11.629q-8.452,1.548-16.99,2.558l-2.16,29.2c-.01.168-.024.336-.039.5q-.662,9.028-1.329,18.05,1.727,8.5,3.355,17.023c.033.149.062.293.086.441" transform="translate(-41.229 -64.476)" fill="#895cd8"/>
        <path id="Trazado_781268" data-name="Trazado 781268" d="M218.981,157.445a16.63,16.63,0,0,1-5.049,5.615,14.541,14.541,0,0,1-7.391,2.659,11.894,11.894,0,0,1-3.4-.3,15.753,15.753,0,0,0-.12-6.647c-.552-2.333-1.743-5.389-4.161-6.34a3.162,3.162,0,0,0-3.345.691,4.513,4.513,0,0,0-1.276,3.714,9.964,9.964,0,0,0,3.935,6.724,12.417,12.417,0,0,0,4.411,2.217q-.094.425-.216.835a13.212,13.212,0,0,1-3.864,6.215,13.572,13.572,0,0,1-6.311,3.081,12.7,12.7,0,0,1-7.012-.537,10.777,10.777,0,0,1-1.253-.59,22.413,22.413,0,0,0,1.445-12.32,6.269,6.269,0,0,0-1.781-3.686,3.827,3.827,0,0,0-3.283-.974,3.739,3.739,0,0,0-2.462,2.587,10.623,10.623,0,0,0-.657,3.523,12.812,12.812,0,0,0,6.119,11.067,16.424,16.424,0,0,1-6.532,7.664,14.372,14.372,0,0,1-12.939.821,11.077,11.077,0,0,1-5-4.564,12.91,12.91,0,0,1-1.363-3.518c.279-.211.552-.427.811-.657a16.02,16.02,0,0,0,4.5-7.271,22.1,22.1,0,0,0,.879-4.319c.125-1.19.326-2.673-.384-3.729a2.2,2.2,0,0,0-3.062-.437c-1.157.739-1.617,2.165-2.03,3.4-1.344,4.008-2.169,8.6-1.253,12.814a11.9,11.9,0,0,1-5.683,2.208,9.721,9.721,0,0,1-6.969-2.03c-3.974-3.1-5.663-8.413-5.821-13.284a24.588,24.588,0,0,1,1.085-8.01c.1-.322.206-.638.322-.955a21.2,21.2,0,0,0,2.587-1.377,15.664,15.664,0,0,0,3.422-2.644c.672-.758,1.406-1.949.974-2.995a1.812,1.812,0,0,0-2.683-.648,8,8,0,0,0-2.635,3.028,24.3,24.3,0,0,0-1.92,3.936c-.043.115-.082.235-.125.351a18.488,18.488,0,0,1-1.848.681,12.542,12.542,0,0,1-7.583.039,9.985,9.985,0,0,1-5.524-4.3,8.979,8.979,0,0,1-.49-.989c-.14.067-.283.134-.423.206a8.48,8.48,0,0,0,.7,1.358,10.657,10.657,0,0,0,5.927,4.281,13.275,13.275,0,0,0,8.188-.355c.279-.1.557-.212.835-.322a23.544,23.544,0,0,0,.154,15.986,15.153,15.153,0,0,0,4.415,6.268,10.213,10.213,0,0,0,7.2,2.27,12.406,12.406,0,0,0,6.013-2.208,13.825,13.825,0,0,0,.9,2.553,11.625,11.625,0,0,0,4.982,5.317,13.726,13.726,0,0,0,6.872,1.541,15.2,15.2,0,0,0,6.94-1.876,16,16,0,0,0,5.505-5.26,19.372,19.372,0,0,0,1.488-2.721c.268.144.542.279.825.4a13.6,13.6,0,0,0,18.477-9.742,12.5,12.5,0,0,0,2.265.322c5.6.235,10.933-3.245,13.774-7.938.082-.134.163-.274.24-.413-.106-.144-.216-.283-.336-.417m-77.9-7.18a16.265,16.265,0,0,1,2.188-3.47c.672-.749,2.428-2.021,3.115-.567.513,1.08-.677,2.433-1.421,3.072a22.069,22.069,0,0,1-4.866,3.177q.439-1.13.984-2.212m15.962,21.592a26.476,26.476,0,0,1,1.051-7.578,17.546,17.546,0,0,1,1.3-3.672,3.015,3.015,0,0,1,1.464-1.435,1.656,1.656,0,0,1,1.886.326c.835.931.547,2.587.423,3.71a21.9,21.9,0,0,1-.826,4.041,15.689,15.689,0,0,1-4.132,6.887c-.269.255-.557.49-.845.72a17.066,17.066,0,0,1-.322-3m26.449,2.683a11.846,11.846,0,0,1-3.629-3.446,12.477,12.477,0,0,1-2.193-6.421,10.624,10.624,0,0,1,.374-3.345c.331-1.2.9-2.621,2.2-3.019a3.358,3.358,0,0,1,3.374,1.186,7.222,7.222,0,0,1,1.4,3.954,23.326,23.326,0,0,1-.379,7.391,21.879,21.879,0,0,1-1.152,3.7m19.183-9.239a12.174,12.174,0,0,1-3.153-1.373,10.363,10.363,0,0,1-4.535-5.7,4.928,4.928,0,0,1,.369-4.195,2.8,2.8,0,0,1,3.441-1.113,5.843,5.843,0,0,1,2.567,2.745,14.106,14.106,0,0,1,1.267,3.575,15.26,15.26,0,0,1,.043,6.062" transform="translate(-60.909 -71.505)" fill="#8aad99"/>
        <path id="Trazado_781269" data-name="Trazado 781269" d="M223.379,238.114a10.661,10.661,0,0,1-5.735-5.332,11.715,11.715,0,0,0,1.065-3.306,10.736,10.736,0,0,0-1.109-6.949.242.242,0,0,0-.412,0,11.5,11.5,0,0,0-.077,10.275,10.851,10.851,0,0,1-2.212,2.976,9.974,9.974,0,0,1-10.366,1.828,18.861,18.861,0,0,0,.394-6.023c-.255-2.6-1.286-5.99-4.415-6.177-2.841-.172-3.6,2.99-3.134,5.212a10.589,10.589,0,0,0,6.6,7.295A18.135,18.135,0,0,1,202,242.721a15.533,15.533,0,0,1-13.8,7.665,13.5,13.5,0,0,1-6.3-1.766,19.606,19.606,0,0,0,2.6-15.027c-.6-2.409-2.357-5.351-5.294-4.362-2.64.888-3.936,3.868-4.281,6.416a13.753,13.753,0,0,0,6.263,13.174,17.607,17.607,0,0,1-8.24,6.686,19.1,19.1,0,0,1-14.969-.773,16.972,16.972,0,0,1-6.628-5.778,16.561,16.561,0,0,0,4.17-4.535c2.8-4.511,3.83-10.779,1.642-15.756a3.96,3.96,0,0,0-2.578-2.549c-1.334-.24-2.376.758-3.129,1.728a17.432,17.432,0,0,0-3.335,7.838,19.174,19.174,0,0,0,2.572,13.2,15.57,15.57,0,0,1-2.093,1.247,17.168,17.168,0,0,1-14.84-.192,15.071,15.071,0,0,1-6.661-6.556c3.369-3.523,4.915-8.577,5.6-13.4a9.54,9.54,0,0,0,.024-3.916,2.41,2.41,0,0,0-1.819-1.972c-1.319-.158-2.27,1.07-2.975,2.006a15.156,15.156,0,0,0-1.968,3.546A17.276,17.276,0,0,0,126.5,243.3c-3.139,3.057-7.679,4.837-11.907,3.177v.509c.178.067.355.129.533.182a11.165,11.165,0,0,0,8.442-1.07,14.058,14.058,0,0,0,3.163-2.333,14.317,14.317,0,0,0,1.08,1.757,16.833,16.833,0,0,0,14.177,6.666,16.469,16.469,0,0,0,8.951-2.937,16.787,16.787,0,0,0,1.5,1.944,19.107,19.107,0,0,0,15.036,5.936,18.063,18.063,0,0,0,13.947-7.784c.067-.091.125-.187.187-.283.129.072.254.154.384.221a15.6,15.6,0,0,0,16.375-1.689,17.369,17.369,0,0,0,6.051-9.517,11.656,11.656,0,0,0,4.147.734,10.287,10.287,0,0,0,8.792-5.5,11.955,11.955,0,0,0,2.107,2.88,9.9,9.9,0,0,0,3.954,2.428c-.014-.168-.028-.341-.043-.509m-97.972-.331a16.869,16.869,0,0,1,.835-7.5,14.772,14.772,0,0,1,1.685-3.345c.657-.974,2.011-3.028,3.412-2.208.941.552,1.119,2.011,1.123,2.985a23.164,23.164,0,0,1-.6,4.439,24.525,24.525,0,0,1-3.163,8.466,14.656,14.656,0,0,1-1.814,2.3,15.984,15.984,0,0,1-1.473-5.135m23.377,5.131a18.075,18.075,0,0,1,3.076-14.806c.979-1.258,2.462-2.194,3.82-.854a7.27,7.27,0,0,1,1.67,3.5,17.119,17.119,0,0,1,.091,7.611,17.4,17.4,0,0,1-6.325,10.218,17.508,17.508,0,0,1-2.333-5.668m32.7,5.457a13.012,13.012,0,0,1-5.375-6.619,12.363,12.363,0,0,1-.423-7.439c.643-2.39,3.173-6.1,6.085-4.381,2.222,1.315,2.65,4.847,2.76,7.17a19.3,19.3,0,0,1-1.18,7.5,19.662,19.662,0,0,1-1.867,3.768m22.6-10.933a11.513,11.513,0,0,1-2.328-1.3,9.605,9.605,0,0,1-3.95-5.822,4.456,4.456,0,0,1,.624-3.546,2.8,2.8,0,0,1,3.835-.24,5.846,5.846,0,0,1,2.03,3.9,17.65,17.65,0,0,1,.192,4.329,18.644,18.644,0,0,1-.4,2.678M216.8,230.57a10.7,10.7,0,0,1,.6-7.372,10.839,10.839,0,0,1-.014,9.042,11.21,11.21,0,0,1-.581-1.67" transform="translate(-56.462 -109.585)" fill="#8aad99"/>
        <path id="Trazado_781270" data-name="Trazado 781270" d="M200.3,317.325a12.148,12.148,0,0,1-2.688-1.819,15,15,0,0,0,1.4-7.458,17.955,17.955,0,0,0-.811-4.329,5.068,5.068,0,0,0-2-3.105,2.153,2.153,0,0,0-2.817.432,6.615,6.615,0,0,0-.792,3.647,15.036,15.036,0,0,0,1.92,7.794,12.942,12.942,0,0,0,2.477,3.105,11.548,11.548,0,0,1-6.983,5.86c-4.8,1.377-9.719-1.258-12.454-5.178-.178-.25-.341-.509-.5-.768a24.02,24.02,0,0,0,3.575-6.167,15.448,15.448,0,0,0,.946-8.144c-.345-1.987-1.68-4.646-4.07-4.43-2.2.192-3.115,2.678-3.4,4.545a24.809,24.809,0,0,0,.345,8.725,18.417,18.417,0,0,0,2.059,5.4c-.6.744-1.229,1.459-1.877,2.131-3.7,3.825-8.557,7-14.086,6.695a11.025,11.025,0,0,1-7.016-2.966,13.916,13.916,0,0,1-3.211-4.756,25.34,25.34,0,0,0,4.041-13.044,5.082,5.082,0,0,0-.907-3.811,2.256,2.256,0,0,0-2.88-.523,4.015,4.015,0,0,0-1.449,2.683,37.3,37.3,0,0,0-.585,4.617,23.378,23.378,0,0,0,1.233,9.973,15.635,15.635,0,0,1-9.358,6.364,11.927,11.927,0,0,1-7.026-.59,13.725,13.725,0,0,1-5.658-4.5,15.9,15.9,0,0,1-2.327-4.449,23.056,23.056,0,0,0,3.268-4.041,18.758,18.758,0,0,0,2.908-7.564,4.978,4.978,0,0,0-.9-3.806,3.056,3.056,0,0,0-2.9-1.171c-2.3.441-3.086,3.312-3.441,5.27a24.265,24.265,0,0,0-.014,9.21,17.088,17.088,0,0,0,.518,1.943A20.49,20.49,0,0,1,122,315.333a13.155,13.155,0,0,1-7.3,2.395.849.849,0,0,1-.11,0v.47a8.347,8.347,0,0,0,1.147-.024,15.949,15.949,0,0,0,9.282-4.555,14.966,14.966,0,0,0,8.835,9.282c5.111,1.786,10.817-.273,14.513-4a17.361,17.361,0,0,0,1.617-1.905,13.437,13.437,0,0,0,3.806,5.183c4.554,3.748,10.952,3.023,15.746.144a27.563,27.563,0,0,0,6.59-5.687c.216-.25.427-.5.638-.758a13.479,13.479,0,0,0,7.5,5.984c5,1.5,10.189-1.036,12.819-5.384.106-.178.2-.36.293-.538a13.024,13.024,0,0,0,7.827,3.148c.014-.168.029-.336.039-.5a12.119,12.119,0,0,1-4.944-1.253m-75.541-15.056c.326-1.867,1.065-5.116,3.494-5.164a2.994,2.994,0,0,1,2.683,2.217,7.724,7.724,0,0,1-.341,4.511,20.968,20.968,0,0,1-5.37,8.888,22.826,22.826,0,0,1-.466-10.453M149.8,315.127a23.089,23.089,0,0,1-.8-8.462,39.322,39.322,0,0,1,.557-4.554c.178-.955.5-2.227,1.483-2.668,1.459-.657,2.587.974,2.789,2.212a14.9,14.9,0,0,1-.163,4.181,25.423,25.423,0,0,1-2.093,7.515,18.523,18.523,0,0,1-1.483,2.625c-.106-.279-.206-.566-.293-.849m24.9-6.336a26.849,26.849,0,0,1-.312-4.108,18.774,18.774,0,0,1,.264-3.743c.374-1.843,1.737-4.569,4.079-3.494,2.208,1.018,2.592,4.181,2.558,6.292-.067,4.156-1.954,8.049-4.492,11.322a18.822,18.822,0,0,1-2.1-6.268m22.509,6.35a14.013,14.013,0,0,1-4.142-10.1,15.306,15.306,0,0,1,.13-1.876,3.533,3.533,0,0,1,.662-1.949c1.08-1.181,2.664,0,3.245,1.051a12.661,12.661,0,0,1,1.186,3.777,16.454,16.454,0,0,1,.225,4.262,13.7,13.7,0,0,1-1.305,4.833" transform="translate(-56.462 -146.153)" fill="#8aad99"/>
        <path id="Trazado_781271" data-name="Trazado 781271" d="M207.235,387.865a12.507,12.507,0,0,1-9.028-3.8,14.408,14.408,0,0,0,2.165-5.443,13.312,13.312,0,0,0,.1-3.979,6.158,6.158,0,0,0-1.492-3.628,3.053,3.053,0,0,0-3.3-.782,3.6,3.6,0,0,0-1.814,2.793c-.72,3.983.964,8.149,3.739,11.091a13.893,13.893,0,0,1-2.064,2.371,13.462,13.462,0,0,1-14.254,2.141,12.743,12.743,0,0,1-5.188-4.123A16.119,16.119,0,0,0,180.1,377.3a15.233,15.233,0,0,0,.48-3.974,9.1,9.1,0,0,0-.663-3.7,2.752,2.752,0,0,0-2.553-1.819,3.91,3.91,0,0,0-2.875,2.155,12.965,12.965,0,0,0-1.507,7.679,14.4,14.4,0,0,0,2.472,6.859c-.322.317-.648.619-1,.907a15.2,15.2,0,0,1-14.427,2.385,14.361,14.361,0,0,1-6.028-4,21.724,21.724,0,0,0,3.35-12.171c-.053-2.054-.168-5.86-2.7-6.484-2.707-.667-4.209,2.87-4.675,4.9a16.1,16.1,0,0,0,3.4,13.822,17.822,17.822,0,0,1-9.623,7.252,17.586,17.586,0,0,1-14.422-1.8,13.992,13.992,0,0,1-3-2.621c3.009-2.942,4.42-7.319,4.6-11.6a24.6,24.6,0,0,0-.2-4.564,5.085,5.085,0,0,0-1.876-3.609,2.725,2.725,0,0,0-3.379.062,9.059,9.059,0,0,0-2.188,3.249,16.106,16.106,0,0,0,.926,14.331,14.382,14.382,0,0,0,1.464,2.1c-3,2.639-7.338,3.926-11.053,2.1-.014,0-.024-.014-.039-.019v.524q.3.144.6.259a10.051,10.051,0,0,0,7.473-.365,11.9,11.9,0,0,0,3.311-2.136,16.388,16.388,0,0,0,11.149,5.308,18.324,18.324,0,0,0,14.719-5.725,19.489,19.489,0,0,0,1.862-2.357c.187.2.37.4.567.6a15.891,15.891,0,0,0,15.228,3.691,14.736,14.736,0,0,0,6.225-3.643,1.18,1.18,0,0,0,.091.129,14.128,14.128,0,0,0,14.379,4.848,13.433,13.433,0,0,0,7.727-5.38,14.16,14.16,0,0,0,2.3,1.867,12.476,12.476,0,0,0,7.088,1.967c-.024-.149-.053-.293-.086-.441m-84.688-10.458a14.665,14.665,0,0,1,1.075-6.743,10,10,0,0,1,1.943-3.124,2.42,2.42,0,0,1,3.672.345c.989,1.176,1.1,2.89,1.19,4.353a25.81,25.81,0,0,1-.062,4.219,17.352,17.352,0,0,1-2.654,7.885,11.7,11.7,0,0,1-1.68,1.982,15.96,15.96,0,0,1-3.484-8.917m31.123,6a15.407,15.407,0,0,1-3.225-6.57,15.05,15.05,0,0,1,.182-7.376,6.176,6.176,0,0,1,2.078-3.412,2.107,2.107,0,0,1,3.2.638,8.55,8.55,0,0,1,.9,3.7,20.691,20.691,0,0,1-.019,3.777,21.322,21.322,0,0,1-2.026,7.285,19.433,19.433,0,0,1-1.094,1.958m19.744-6.57c-.091-2.428.384-5.337,1.939-7.285.816-1.022,2.213-1.795,3.374-.8a5.013,5.013,0,0,1,1.315,3.359,15.563,15.563,0,0,1-4.219,12.018,13.766,13.766,0,0,1-2.41-7.3m24.457,6.882a14.256,14.256,0,0,1-2.222-3.153,12.459,12.459,0,0,1-1.387-7.016c.144-1.209.652-2.731,2.011-3,1.54-.311,2.793.989,3.283,2.309a11.826,11.826,0,0,1-.082,7.444,14,14,0,0,1-1.6,3.422" transform="translate(-56.462 -179.864)" fill="#8aad99"/>
        <path id="Trazado_781272" data-name="Trazado 781272" d="M189.834,51.6a2.953,2.953,0,0,0-2.251-.926,2.155,2.155,0,0,0-.672.187q.281-5.126.989-10.213a10.351,10.351,0,0,0,5.294,2.548,11.582,11.582,0,0,0,2.937.125A40,40,0,0,1,194.6,49.56a16.647,16.647,0,0,1-3.2,5.649,5.14,5.14,0,0,0-1.564-3.6" transform="translate(-92.093 -20.03)" fill="#66544d"/>
        <path id="Trazado_781273" data-name="Trazado 781273" d="M202.914,19.01a11.749,11.749,0,0,1-8.207,4.286,11.558,11.558,0,0,1-2.937-.125,10.349,10.349,0,0,1-5.294-2.548,7.492,7.492,0,0,1-.542-.557,7.342,7.342,0,0,1-1.771-6.253,7.392,7.392,0,0,1,5.558-5.346,10.241,10.241,0,0,1,7.76,1.57,8.617,8.617,0,0,1,4.324-8.687A11.717,11.717,0,0,1,211.8.9a18.515,18.515,0,0,1,7.909,6.464A12.852,12.852,0,0,1,230.4,2.2c2.308.091,4.876,1.1,5.62,3.283.845,2.472-1,4.977-2.731,6.935a9.482,9.482,0,0,1,6.5,1.075,9.076,9.076,0,0,1,4.271,4.084,6.307,6.307,0,0,1-8.619,8.217,5.281,5.281,0,0,1-4.881,8.063c-.077-.005-.149-.015-.221-.019-3.052-.36-5.222-3.244-6.489-6.081a12.032,12.032,0,0,0-2.39-4.141,7.285,7.285,0,0,0-5.366-1.57c-1.91.1-3.777.6-5.683.807a8.443,8.443,0,0,1-5.539-.984,4.643,4.643,0,0,1-1.953-2.856" transform="translate(-90.671 0)" fill="#352e2a"/>
        <path id="Trazado_781274" data-name="Trazado 781274" d="M215.033,89.138a1.552,1.552,0,0,0,.029.221A58.073,58.073,0,0,1,205,102.116a19.979,19.979,0,0,1-3.105,2.692,2.124,2.124,0,0,1-1.723.466,2.293,2.293,0,0,1-.835-.585,86.275,86.275,0,0,1-15.348-19.716c.01-.048.019-.1.029-.149q1.829-10,3.662-20a6.363,6.363,0,0,1-3.417-2.087,11,11,0,0,1-2.107-3.979c-.873-2.76-.989-6.009.758-8.312a3.6,3.6,0,0,1,1.349-1.147,2.152,2.152,0,0,1,.672-.187,2.953,2.953,0,0,1,2.251.926,5.14,5.14,0,0,1,1.564,3.6,16.648,16.648,0,0,0,3.2-5.649,40.119,40.119,0,0,0,1.531-6.235,11.75,11.75,0,0,0,8.206-4.286,4.641,4.641,0,0,0,1.954,2.856,8.437,8.437,0,0,0,5.538.984c1.905-.206,3.773-.71,5.683-.806a7.285,7.285,0,0,1,5.366,1.57,12.017,12.017,0,0,1,2.39,4.141c1.267,2.836,3.436,5.721,6.489,6.081a109.72,109.72,0,0,1-7.2,21.309c-1.6,3.35-3.508,6.666-6.4,9-.331.269-.677.518-1.032.758q.158,2.894.552,5.769" transform="translate(-89.447 -18.464)" fill="#ce9172"/>
        <path id="Trazado_781275" data-name="Trazado 781275" d="M221.807,122.083a15.886,15.886,0,0,1-10.425,1.995,20.08,20.08,0,0,1-9.594-4.279,26.5,26.5,0,0,1-4.175-4.184c-.193-.24-.531.1-.339.339a24.7,24.7,0,0,0,8.341,6.83,18.437,18.437,0,0,0,10.61,1.767,15.315,15.315,0,0,0,5.825-2.054c.263-.16.022-.576-.242-.414" transform="translate(-97.171 -56.924)" fill="#352e2a"/>
        <path id="Trazado_781276" data-name="Trazado 781276" d="M215.225,85.606a5.07,5.07,0,1,1-5.07-5.07,5.07,5.07,0,0,1,5.07,5.07" transform="translate(-101.048 -39.681)" fill="#ce7c59"/>
        <path id="Trazado_781277" data-name="Trazado 781277" d="M225.1,100.791a8.039,8.039,0,0,1-6.588-7.943.24.24,0,0,0-.48,0,8.52,8.52,0,0,0,6.94,8.406c.3.058.431-.4.128-.463" transform="translate(-107.425 -45.633)" fill="#352e2a"/>
        <path id="Trazado_781278" data-name="Trazado 781278" d="M223.914,64.188a2.372,2.372,0,1,1-2.323-2.852,2.628,2.628,0,0,1,2.323,2.852" transform="translate(-108.036 -30.221)" fill="#352e2a"/>
        <path id="Trazado_781279" data-name="Trazado 781279" d="M257.634,72.2a2.372,2.372,0,1,1-2.323-2.852,2.628,2.628,0,0,1,2.323,2.852" transform="translate(-124.65 -34.168)" fill="#352e2a"/>
        <path id="Trazado_781280" data-name="Trazado 781280" d="M224.04,53.126a24.842,24.842,0,0,0-3.67.118,1.042,1.042,0,0,0-.679.281.96.96,0,0,0,.679,1.639,24.841,24.841,0,0,1,3.67-.118.967.967,0,0,0,.96-.96.981.981,0,0,0-.96-.96" transform="translate(-108.106 -26.165)" fill="#352e2a"/>
        <path id="Trazado_781281" data-name="Trazado 781281" d="M262.595,61.792a25,25,0,0,0-3.5-1.735.964.964,0,0,0-.74.1.98.98,0,0,0-.441.574.968.968,0,0,0,.1.74,1.121,1.121,0,0,0,.573.441,1.522,1.522,0,0,0,.217.09l.06.026q.2.085.39.173.4.183.8.382.8.4,1.574.871a.96.96,0,0,0,.969-1.658" transform="translate(-127.064 -29.572)" fill="#352e2a"/>
        <path id="Trazado_781282" data-name="Trazado 781282" d="M217.467,63.787a7.188,7.188,0,0,1-1.982-.279,7.527,7.527,0,0,1-4.731-4.137,9.638,9.638,0,0,1-.479-6.777c1.373-4.8,5.944-7.722,10.195-6.505a7.525,7.525,0,0,1,4.731,4.137A9.925,9.925,0,0,1,221.688,62.5a7.792,7.792,0,0,1-4.221,1.287M218.5,46.772c-3.191,0-6.26,2.442-7.3,6.086a8.675,8.675,0,0,0,.424,6.1,6.422,6.422,0,0,0,9.548,2.733,8.683,8.683,0,0,0,3.588-4.954h0a8.679,8.679,0,0,0-.425-6.1,6.58,6.58,0,0,0-4.128-3.625,6.173,6.173,0,0,0-1.7-.239" transform="translate(-103.409 -22.573)" fill="#fca89d"/>
        <path id="Trazado_781283" data-name="Trazado 781283" d="M253.772,74.175a7.188,7.188,0,0,1-1.982-.279c-4.248-1.215-6.585-6.111-5.211-10.914s5.945-7.722,10.2-6.505a7.525,7.525,0,0,1,4.731,4.137,9.638,9.638,0,0,1,.479,6.777h0a9.634,9.634,0,0,1-3.992,5.5,7.789,7.789,0,0,1-4.221,1.287m1.033-17.014c-3.191,0-6.261,2.441-7.3,6.086-1.228,4.294.814,8.657,4.553,9.727a6.577,6.577,0,0,0,5.42-.892,8.681,8.681,0,0,0,3.588-4.954h0a8.679,8.679,0,0,0-.425-6.1A6.579,6.579,0,0,0,256.51,57.4a6.175,6.175,0,0,0-1.7-.239" transform="translate(-121.298 -27.691)" fill="#fca89d"/>
        <path id="Trazado_781284" data-name="Trazado 781284" d="M180.088,60.695a.491.491,0,0,1-.136-.02.48.48,0,0,1-.324-.6,20.021,20.021,0,0,1,.709-2,1.21,1.21,0,0,1,.408-.568,1.231,1.231,0,0,1,.927-.131l13.877,2.281a.48.48,0,0,1-.155.947l-13.878-2.281a.919.919,0,0,0-.24-.018,1.24,1.24,0,0,1-.053.138,19.221,19.221,0,0,0-.675,1.9.481.481,0,0,1-.46.344" transform="translate(-88.495 -28.255)" fill="#fca89d"/>
        <path id="Trazado_781285" data-name="Trazado 781285" d="M242.715,70.746a.478.478,0,0,1-.324-.126,2.958,2.958,0,0,0-1.858-.762,2.916,2.916,0,0,0-1.91.62.48.48,0,1,1-.592-.755,3.874,3.874,0,0,1,5.008.189.48.48,0,0,1-.324.834" transform="translate(-117.19 -33.946)" fill="#fca89d"/>
        <path id="Trazado_781286" data-name="Trazado 781286" d="M240.941,71.691q-.013-1.7-.045-3.4a.24.24,0,0,0-.48,0q.112,5.986-.016,11.972-.034,1.577-.086,3.152a40.4,40.4,0,0,1-5.1-.312c-.305-.039-.3.442,0,.48a40.372,40.372,0,0,0,5.332.314.244.244,0,0,0,.24-.24q.2-5.983.154-11.971" transform="translate(-115.781 -33.536)" fill="#352e2a"/>
        <path id="Trazado_781287" data-name="Trazado 781287" d="M96.778,231.73l-15.169-5.436s-8.579,21.636,2.473,24.2,12.7-9.03,12.7-9.03Z" transform="translate(-38.646 -111.498)" fill="#ce9172"/>
        <path id="Trazado_781288" data-name="Trazado 781288" d="M164.663,307.5s9.872,10.616,9.872,36.235H90.84q0-2.873.158-5.49c1.262-21.654,9.714-30.744,9.714-30.744s-3.882-14.052-7.947-30.139v-.01c-4.747-18.765-9.748-40.3-9.138-45.54,1.128-9.728,32-13.347,32-13.347l3.23-7.477,13.832.518,13.827-.518,3.23,7.477s3.052.36,7.276,1.152a.135.135,0,0,1,.028,0c5.2.98,12.171,2.621,17.388,5.059l.029.014c3.988,1.877,6.945,4.228,7.281,7.118.663,5.73-5.38,30.955-10.458,50.728l-.077.288c-3.192,12.406-5.985,22.609-6.475,24.394Z" transform="translate(-41.179 -103.954)" fill="#ffe1c9"/>
        <path id="Trazado_781289" data-name="Trazado 781289" d="M208.52,315.877s9.872,10.616,9.872,36.235H174.786l-2.2-81.694,28.292-42.425a.136.136,0,0,1,.028,0c.624.1,10.51,1.69,17.388,5.059l.029.014c.115.053.23.111.341.168,0,0-23.9,57.678-3.518,57.678l-.077.288L208.6,315.6Z" transform="translate(-85.036 -112.335)" fill="#fac7b4"/>
        <path id="Trazado_781290" data-name="Trazado 781290" d="M173.677,388.284H97.9l.158-5.49c1.262-21.655,9.714-30.744,9.714-30.744S103.886,338,99.821,321.91v-.01c0-.446.106-18.137,17.028-20.253a25.7,25.7,0,0,1,25,10.856Z" transform="translate(-48.235 -148.508)" fill="#fca89d"/>
        <path id="Trazado_781291" data-name="Trazado 781291" d="M105.573,230.941s5.254-2.241,16.989-4.11l3.263,29.517-14.076,3.6Z" transform="translate(-52.017 -111.763)" fill="#fca89d"/>
        <path id="Trazado_781292" data-name="Trazado 781292" d="M148.785,228.7a10.908,10.908,0,0,1-1.254-1.28.24.24,0,0,0-.339,0,.246.246,0,0,0,0,.339,10.916,10.916,0,0,0,1.254,1.281.24.24,0,0,0,.339-.34" transform="translate(-72.49 -112.018)" fill="#fac7b4"/>
        <path id="Trazado_781293" data-name="Trazado 781293" d="M156.055,233.929l-1.646-1.022a.24.24,0,0,0-.242.414l1.647,1.022a.24.24,0,1,0,.242-.414" transform="translate(-75.902 -114.74)" fill="#fac7b4"/>
        <path id="Trazado_781294" data-name="Trazado 781294" d="M164.537,237.3a8.207,8.207,0,0,1-2.206-.564.241.241,0,0,0-.3.167.245.245,0,0,0,.167.3,8.636,8.636,0,0,0,2.334.581.242.242,0,0,0,.24-.24.245.245,0,0,0-.24-.24" transform="translate(-79.833 -116.636)" fill="#fac7b4"/>
        <path id="Trazado_781295" data-name="Trazado 781295" d="M174.464,238.454a15.29,15.29,0,0,1-3.159.037c-.307-.028-.305.452,0,.48a15.289,15.289,0,0,0,3.159-.037.247.247,0,0,0,.24-.24.241.241,0,0,0-.24-.24" transform="translate(-84.291 -117.489)" fill="#fac7b4"/>
        <path id="Trazado_781296" data-name="Trazado 781296" d="M185.708,237.229a11.194,11.194,0,0,1-3.179.483.24.24,0,0,0,0,.48,11.677,11.677,0,0,0,3.306-.5.24.24,0,0,0-.127-.463" transform="translate(-89.82 -116.88)" fill="#fac7b4"/>
        <path id="Trazado_781297" data-name="Trazado 781297" d="M196.263,234.642a.246.246,0,0,0-.328-.086,11.021,11.021,0,0,1-2.073.7c-.3.07-.174.533.128.463a11.645,11.645,0,0,0,2.187-.75.241.241,0,0,0,.086-.328" transform="translate(-95.434 -115.554)" fill="#fac7b4"/>
        <path id="Trazado_781298" data-name="Trazado 781298" d="M205.465,230.3a.246.246,0,0,0-.339,0,7.876,7.876,0,0,1-1.682.991.242.242,0,0,0-.086.328.246.246,0,0,0,.329.086,8.331,8.331,0,0,0,1.779-1.066.241.241,0,0,0,0-.339" transform="translate(-100.182 -113.438)" fill="#fac7b4"/>
        <path id="Trazado_781299" data-name="Trazado 781299" d="M212.4,225.611a.246.246,0,0,0-.339,0l-1.037.918a.241.241,0,0,0,0,.339.245.245,0,0,0,.339,0l1.037-.918a.242.242,0,0,0,0-.339" transform="translate(-103.94 -111.128)" fill="#fac7b4"/>
        <path id="Trazado_781300" data-name="Trazado 781300" d="M265.012,244.818l-1.332,3.469c-.111.289.353.413.463.128l1.332-3.469c.111-.289-.353-.414-.463-.128" transform="translate(-129.91 -120.545)" fill="#fac7b4"/>
        <path id="Trazado_781301" data-name="Trazado 781301" d="M260.771,257.927q-.354,2.268-.707,4.537c-.047.3.415.433.463.128q.354-2.268.707-4.537c.047-.3-.415-.433-.463-.128" transform="translate(-128.135 -126.998)" fill="#fac7b4"/>
        <path id="Trazado_781302" data-name="Trazado 781302" d="M259.454,274.666l-.059,4.359a.24.24,0,0,0,.48,0q.03-2.179.059-4.359a.24.24,0,0,0-.479,0" transform="translate(-127.807 -135.217)" fill="#fac7b4"/>
        <path id="Trazado_781303" data-name="Trazado 781303" d="M259.842,291.329c-.019-.307-.5-.309-.48,0q.1,1.689.2,3.378c.018.307.5.309.48,0q-.1-1.689-.2-3.378" transform="translate(-127.791 -143.428)" fill="#fac7b4"/>
        <path id="Trazado_781304" data-name="Trazado 781304" d="M261.642,308.923q-.358-1.377-.715-2.756a.24.24,0,0,0-.463.128q.357,1.378.715,2.756a.24.24,0,0,0,.463-.128" transform="translate(-128.33 -150.768)" fill="#fac7b4"/>
        <path id="Trazado_781305" data-name="Trazado 781305" d="M90.175,252.041a9.015,9.015,0,0,0-1.46-2.272.24.24,0,0,0-.339.339,8.607,8.607,0,0,1,1.385,2.175.241.241,0,0,0,.328.086.246.246,0,0,0,.086-.328" transform="translate(-43.51 -123.03)" fill="#fac7b4"/>
        <path id="Trazado_781306" data-name="Trazado 781306" d="M96.206,263.437l-1.338-3.378a.248.248,0,0,0-.3-.168.242.242,0,0,0-.168.3l1.339,3.378a.247.247,0,0,0,.3.168.242.242,0,0,0,.167-.3" transform="translate(-46.508 -128.047)" fill="#fac7b4"/>
        <path id="Trazado_781307" data-name="Trazado 781307" d="M99.379,273.422a.248.248,0,0,0-.24-.24.241.241,0,0,0-.24.24q.224,1.734.448,3.468a.248.248,0,0,0,.24.24.241.241,0,0,0,.24-.24q-.224-1.734-.448-3.468" transform="translate(-48.728 -134.6)" fill="#fac7b4"/>
        <path id="Trazado_781308" data-name="Trazado 781308" d="M100.918,286.765a.24.24,0,0,0-.48,0l.084,3.558a.24.24,0,0,0,.48,0Z" transform="translate(-49.487 -141.179)" fill="#fac7b4"/>
        <path id="Trazado_781309" data-name="Trazado 781309" d="M100.673,301.495c-.011-.307-.491-.309-.48,0l.12,3.29c.011.308.491.309.48,0l-.12-3.29" transform="translate(-49.366 -148.436)" fill="#fac7b4"/>
        <path id="Trazado_781310" data-name="Trazado 781310" d="M98.743,315.52a10.124,10.124,0,0,1-.451,2.959c-.091.3.372.422.463.127a10.592,10.592,0,0,0,.468-3.086.24.24,0,0,0-.48,0" transform="translate(-48.424 -155.346)" fill="#fac7b4"/>
        <path id="Trazado_781311" data-name="Trazado 781311" d="M180.979,244.16a.24.24,0,0,0-.48,0q.027,1.735.054,3.469a.24.24,0,0,0,.48,0q-.027-1.735-.054-3.469" transform="translate(-88.934 -120.187)" fill="#fac7b4"/>
        <path id="Trazado_781312" data-name="Trazado 781312" d="M181.22,256.432a.24.24,0,0,0-.48,0l.085,3.113a.24.24,0,0,0,.48,0Z" transform="translate(-89.053 -126.233)" fill="#fac7b4"/>
        <path id="Trazado_781313" data-name="Trazado 781313" d="M181.154,271.161l-.105,3.824a.24.24,0,0,0,.48,0l.105-3.824a.24.24,0,0,0-.48,0" transform="translate(-89.205 -133.49)" fill="#fac7b4"/>
        <path id="Trazado_781314" data-name="Trazado 781314" d="M180.69,287.992q-.078,1.38-.157,2.759c-.017.308.463.307.48,0q.079-1.38.157-2.759c.018-.308-.462-.307-.48,0" transform="translate(-88.95 -141.783)" fill="#fac7b4"/>
        <path id="Trazado_781315" data-name="Trazado 781315" d="M123.054,400.34l-3.469.089a.24.24,0,0,0,0,.48l3.469-.089a.24.24,0,0,0,0-.48" transform="translate(-58.807 -197.253)" fill="#ce6b63"/>
        <path id="Trazado_781316" data-name="Trazado 781316" d="M138.93,400.275l-4.092.061a.24.24,0,0,0,0,.479l4.092-.06a.24.24,0,0,0,0-.48" transform="translate(-66.322 -197.221)" fill="#ce6b63"/>
        <path id="Trazado_781317" data-name="Trazado 781317" d="M156.115,400.484h-4.269a.24.24,0,0,0,0,.48h4.269a.24.24,0,0,0,0-.48" transform="translate(-74.702 -197.324)" fill="#ce6b63"/>
        <path id="Trazado_781318" data-name="Trazado 781318" d="M175.134,400.6l-4-.089a.24.24,0,0,0,0,.48l4,.089a.24.24,0,0,0,0-.48" transform="translate(-84.205 -197.339)" fill="#ce6b63"/>
        <path id="Trazado_781319" data-name="Trazado 781319" d="M192.931,400.368l-3.736.178c-.307.015-.309.495,0,.48l3.736-.178c.307-.015.309-.495,0-.48" transform="translate(-93.105 -197.266)" fill="#ce6b63"/>
        <path id="Trazado_781320" data-name="Trazado 781320" d="M180.185,325.248l-.976-1.958a.24.24,0,1,0-.414.242q.489.979.976,1.958a.24.24,0,0,0,.414-.242" transform="translate(-88.08 -159.232)" fill="#ce6b63"/>
        <path id="Trazado_781321" data-name="Trazado 781321" d="M184.745,337.274l-1.334-2.935a.241.241,0,0,0-.328-.086.245.245,0,0,0-.086.328l1.334,2.935a.241.241,0,0,0,.328.086.246.246,0,0,0,.086-.328" transform="translate(-90.151 -164.675)" fill="#ce6b63"/>
        <path id="Trazado_781322" data-name="Trazado 781322" d="M190.85,351.687l-1.07-2.756a.247.247,0,0,0-.3-.168.242.242,0,0,0-.167.3l1.07,2.756a.247.247,0,0,0,.3.168.242.242,0,0,0,.167-.3" transform="translate(-93.273 -171.836)" fill="#ce6b63"/>
        <path id="Trazado_781323" data-name="Trazado 781323" d="M196.217,364.741l-1.154-2.847a.248.248,0,0,0-.3-.167.242.242,0,0,0-.167.3l1.154,2.847a.248.248,0,0,0,.3.168.242.242,0,0,0,.167-.3" transform="translate(-95.876 -178.223)" fill="#ce6b63"/>
        <path id="Trazado_781324" data-name="Trazado 781324" d="M201.98,379.972l-1.278-3.278c-.111-.285-.575-.161-.463.127l1.278,3.278c.111.285.575.161.463-.127" transform="translate(-98.652 -185.522)" fill="#ce6b63"/>
        <path id="Trazado_781325" data-name="Trazado 781325" d="M207.853,394.733q-.531-1.424-1.063-2.848a.247.247,0,0,0-.295-.168.242.242,0,0,0-.168.3l1.063,2.848a.246.246,0,0,0,.3.168.242.242,0,0,0,.167-.3" transform="translate(-101.655 -193)" fill="#ce6b63"/>
        <path id="Trazado_781326" data-name="Trazado 781326" d="M213.5,409.5l-1.17-3.2c-.106-.288-.57-.163-.463.128q.586,1.6,1.171,3.2c.105.288.569.163.463-.128" transform="translate(-104.383 -200.109)" fill="#ce6b63"/>
        <path id="Trazado_781327" data-name="Trazado 781327" d="M218.967,424.294l-.979-2.757c-.1-.289-.566-.165-.463.127l.979,2.758c.1.289.566.164.463-.128" transform="translate(-107.17 -207.615)" fill="#ce6b63"/>
        <path id="Trazado_781328" data-name="Trazado 781328" d="M224.486,438.136l-1.067-2.758a.247.247,0,0,0-.3-.167.242.242,0,0,0-.167.3l1.067,2.757a.247.247,0,0,0,.3.168.242.242,0,0,0,.167-.3" transform="translate(-109.848 -214.43)" fill="#ce6b63"/>
        <path id="Trazado_781329" data-name="Trazado 781329" d="M229.338,450.861l-1.165-2.754a.241.241,0,0,0-.328-.086.246.246,0,0,0-.086.328l1.165,2.754a.241.241,0,0,0,.328.086.246.246,0,0,0,.086-.328" transform="translate(-112.206 -220.731)" fill="#ce6b63"/>
        <path id="Trazado_781330" data-name="Trazado 781330" d="M234.261,462.051l-.977-2.669a.246.246,0,0,0-.3-.167.242.242,0,0,0-.168.3l.978,2.669a.247.247,0,0,0,.3.167.242.242,0,0,0,.167-.3" transform="translate(-114.708 -226.257)" fill="#ce6b63"/>
        <path id="Trazado_781331" data-name="Trazado 781331" d="M237.372,470.194q-.222-.578-.445-1.156a.245.245,0,0,0-.3-.168.243.243,0,0,0-.167.3l.445,1.156a.245.245,0,0,0,.3.168.243.243,0,0,0,.167-.3" transform="translate(-116.503 -231.013)" fill="#ce6b63"/>
        <path id="Trazado_781332" data-name="Trazado 781332" d="M204.039,400.107l-2.223.106c-.307.015-.309.495,0,.48l2.223-.105c.307-.015.309-.495,0-.48" transform="translate(-99.324 -197.138)" fill="#ce6b63"/>
        <path id="Trazado_781333" data-name="Trazado 781333" d="M108.046,237.458l-.443-1.868a.24.24,0,1,0-.463.128q.221.934.443,1.868a.24.24,0,0,0,.463-.128" transform="translate(-52.786 -115.992)" fill="#ce6b63"/>
        <path id="Trazado_781334" data-name="Trazado 781334" d="M110,245.825l-.444-2a.24.24,0,1,0-.463.127q.221,1,.444,2a.24.24,0,1,0,.463-.127" transform="translate(-53.751 -120.048)" fill="#ce6b63"/>
        <path id="Trazado_781335" data-name="Trazado 781335" d="M112.531,255.518q-.288-1.29-.575-2.58c-.067-.3-.53-.174-.463.127l.575,2.58c.067.3.53.174.463-.127" transform="translate(-54.931 -124.541)" fill="#ce6b63"/>
        <path id="Trazado_781336" data-name="Trazado 781336" d="M115.233,267.229l-.669-2.8c-.072-.3-.535-.173-.463.127q.334,1.4.669,2.8c.072.3.535.173.463-.128" transform="translate(-56.216 -130.202)" fill="#ce6b63"/>
        <path id="Trazado_781337" data-name="Trazado 781337" d="M117,275.125c-.057-.3-.52-.174-.463.128l.537,2.845c.057.3.52.174.463-.128L117,275.125" transform="translate(-57.419 -135.472)" fill="#ce6b63"/>
        <path id="Trazado_781338" data-name="Trazado 781338" d="M119.832,288.336l-.287-1.03a.24.24,0,0,0-.463.128l.287,1.03a.24.24,0,0,0,.463-.128" transform="translate(-58.669 -141.472)" fill="#ce6b63"/>
        <path id="Trazado_781339" data-name="Trazado 781339" d="M124.574,287.4a.246.246,0,0,0-.3-.167l-1.954.287a.241.241,0,0,0-.168.3.246.246,0,0,0,.3.167l1.954-.287a.241.241,0,0,0,.167-.3" transform="translate(-60.185 -141.523)" fill="#ce6b63"/>
        <path id="Trazado_781340" data-name="Trazado 781340" d="M132.725,285.543a.245.245,0,0,0-.3-.167l-2.223.489a.24.24,0,1,0,.127.463l2.224-.489a.243.243,0,0,0,.167-.3" transform="translate(-64.068 -140.605)" fill="#ce6b63"/>
        <path id="Trazado_781341" data-name="Trazado 781341" d="M142.308,283.337a.244.244,0,0,0-.3-.167l-1.377.362a.24.24,0,1,0,.127.463l1.378-.362a.243.243,0,0,0,.167-.3" transform="translate(-69.206 -139.517)" fill="#ce6b63"/>
        <path id="Trazado_781342" data-name="Trazado 781342" d="M137.691,230.411a.24.24,0,0,0-.463.127,3.416,3.416,0,0,1,.125,1.4.24.24,0,0,0,.24.24.247.247,0,0,0,.24-.24,3.851,3.851,0,0,0-.142-1.532" transform="translate(-67.61 -113.439)" fill="#ce6b63"/>
        <path id="Trazado_781343" data-name="Trazado 781343" d="M138.528,238.274a.247.247,0,0,0-.24-.24.242.242,0,0,0-.24.24q.127,1.291.255,2.581a.247.247,0,0,0,.24.24.241.241,0,0,0,.24-.24q-.127-1.291-.255-2.581" transform="translate(-68.018 -117.282)" fill="#ce6b63"/>
        <path id="Trazado_781344" data-name="Trazado 781344" d="M139.688,248.713a.247.247,0,0,0-.24-.24.241.241,0,0,0-.24.24q.116,1.178.231,2.356a.247.247,0,0,0,.24.24.242.242,0,0,0,.24-.24q-.116-1.179-.231-2.356" transform="translate(-68.589 -122.426)" fill="#ce6b63"/>
        <path id="Trazado_781345" data-name="Trazado 781345" d="M140.738,258.882a.247.247,0,0,0-.24-.24.241.241,0,0,0-.24.24l.269,2.8a.247.247,0,0,0,.24.24.241.241,0,0,0,.24-.24l-.269-2.8" transform="translate(-69.107 -127.436)" fill="#ce6b63"/>
        <path id="Trazado_781346" data-name="Trazado 781346" d="M141.826,269.223a.248.248,0,0,0-.24-.24.241.241,0,0,0-.24.24l.312,2.49a.248.248,0,0,0,.24.24.241.241,0,0,0,.24-.24l-.312-2.49" transform="translate(-69.642 -132.531)" fill="#ce6b63"/>
        <path id="Trazado_781347" data-name="Trazado 781347" d="M143.072,279.561l-.18-1.2a.241.241,0,0,0-.3-.167.248.248,0,0,0-.167.3l.18,1.2a.241.241,0,0,0,.3.168.248.248,0,0,0,.167-.3" transform="translate(-70.175 -137.065)" fill="#ce6b63"/>
        <path id="Trazado_781348" data-name="Trazado 781348" d="M256.75,240.545l-1.767,3.652c-.134.277.28.52.414.242l1.767-3.653c.134-.276-.28-.52-.414-.242" transform="translate(-125.621 -118.459)" fill="#ce9172"/>
        <path id="Trazado_781349" data-name="Trazado 781349" d="M252.864,253.034l-.8,2.758a.24.24,0,0,0,.463.127q.4-1.379.8-2.758a.24.24,0,0,0-.463-.127" transform="translate(-124.19 -124.59)" fill="#ce9172"/>
        <path id="Trazado_781350" data-name="Trazado 781350" d="M248.922,264.084l-1.062,3.026c-.1.292.361.418.463.128l1.062-3.026c.1-.292-.361-.418-.463-.128" transform="translate(-122.117 -130.037)" fill="#ce9172"/>
        <path id="Trazado_781351" data-name="Trazado 781351" d="M243.232,280.216l-.978,3.024c-.1.295.368.421.463.128q.489-1.512.978-3.024c.1-.294-.368-.421-.463-.127" transform="translate(-119.355 -137.984)" fill="#ce9172"/>
        <path id="Trazado_781352" data-name="Trazado 781352" d="M238.378,294.937l-1.262,4.086c-.091.3.372.423.463.128l1.262-4.087c.091-.3-.372-.422-.463-.127" transform="translate(-116.824 -145.237)" fill="#ce9172"/>
        <path id="Trazado_781353" data-name="Trazado 781353" d="M235.355,310.545a.242.242,0,0,0-.3.167l-.537,3.023a.247.247,0,0,0,.167.3.242.242,0,0,0,.3-.167l.537-3.023a.247.247,0,0,0-.167-.3" transform="translate(-115.55 -153.006)" fill="#ce9172"/>
        <path id="Trazado_781354" data-name="Trazado 781354" d="M234.609,325.511a.247.247,0,0,0-.24-.24.241.241,0,0,0-.24.24q.143,1.466.287,2.933a.246.246,0,0,0,.24.24.242.242,0,0,0,.24-.24q-.144-1.466-.287-2.933" transform="translate(-115.358 -160.265)" fill="#ce9172"/>
        <path id="Trazado_781355" data-name="Trazado 781355" d="M237.1,341.627l-.89-2.668c-.1-.291-.561-.166-.463.128l.89,2.668c.1.292.561.167.463-.127" transform="translate(-116.147 -166.927)" fill="#ce9172"/>
        <path id="Trazado_781356" data-name="Trazado 781356" d="M243.964,352.4a5.6,5.6,0,0,1-2.239-1.592.242.242,0,0,0-.339,0,.245.245,0,0,0,0,.339,6.088,6.088,0,0,0,2.451,1.716.242.242,0,0,0,.3-.167.245.245,0,0,0-.167-.3" transform="translate(-118.9 -172.813)" fill="#ce9172"/>
        <path id="Trazado_781357" data-name="Trazado 781357" d="M251.33,357.309l-1.247-.26a.24.24,0,0,0-.127.463l1.247.26a.24.24,0,0,0,.127-.463" transform="translate(-123.071 -175.92)" fill="#ce9172"/>
        <path id="Trazado_781358" data-name="Trazado 781358" d="M185.882,302.728c-.606.342-1.2.711-1.776,1.095l-.682-2.186c-.092-.294-.555-.168-.463.128l.728,2.333q-1.046.718-2.029,1.522c-.239.2.1.534.339.339.594-.486,1.209-.945,1.839-1.381q.282.9.564,1.806c.092.294.555.168.463-.128l-.611-1.959c.609-.406,1.232-.794,1.87-1.154a.24.24,0,0,0-.242-.414" transform="translate(-89.466 -148.538)" fill="#ce9172"/>
        <path id="Trazado_781359" data-name="Trazado 781359" d="M191.858,291.949a.245.245,0,0,0-.339,0l-1.371,1.091c-.209-.383-.426-.761-.66-1.131-.165-.26-.58-.02-.414.242.247.389.474.788.692,1.192l-1.268,1.009a.241.241,0,0,0,0,.339.245.245,0,0,0,.339,0l1.156-.92a19.478,19.478,0,0,1,.937,2.14c.105.288.569.163.463-.128a20.4,20.4,0,0,0-1.019-2.315l1.485-1.182a.242.242,0,0,0,0-.339" transform="translate(-92.84 -143.772)" fill="#ce9172"/>
        <path id="Trazado_781360" data-name="Trazado 781360" d="M195.991,282.459l-1.456,1.011-.719-1.4c-.142-.275-.555-.032-.414.242l.737,1.434-1.714,1.19c-.252.175-.012.591.242.414l1.693-1.175.643,1.251c.141.275.555.032.414-.242l-.66-1.284,1.478-1.026c.252-.175.012-.591-.242-.414" transform="translate(-94.757 -138.92)" fill="#ce9172"/>
        <path id="Trazado_781361" data-name="Trazado 781361" d="M201.485,273.58l-1.275.883a9.089,9.089,0,0,0-.742-.9c-.213-.224-.552.116-.339.339a8.716,8.716,0,0,1,.689.837l-2.208,1.528c-.253.174-.013.591.242.414l2.243-1.552a8.465,8.465,0,0,1,.8,1.544.247.247,0,0,0,.3.167.242.242,0,0,0,.167-.3,9.231,9.231,0,0,0-.872-1.687l1.242-.86c.253-.174.013-.591-.242-.414" transform="translate(-97.312 -134.75)" fill="#ce9172"/>
        <path id="Trazado_781362" data-name="Trazado 781362" d="M281.311,268.41a52.7,52.7,0,0,1-1.2,8.84,21.921,21.921,0,0,1-2.947,7.477,11.777,11.777,0,0,1-5.61,4.574,9.566,9.566,0,0,1-7.515-.585c-4.838-2.361-7.6-7.808-9.609-12.531a73.893,73.893,0,0,1-4.531-16.01,6.216,6.216,0,0,1-3.484-2.333c-1.608-2.15-1.512-5.059-.538-7.473a7.315,7.315,0,0,1-4.4-3.072,4.89,4.89,0,0,1-.485-3.556c-2.015.091-4.026-.254-5.317-2.021a3.686,3.686,0,0,1-.062-4.051c-.614-.106-1.243-.163-1.848-.268a5.048,5.048,0,0,1-3.072-1.584,2.906,2.906,0,0,1-.485-3.216,2.6,2.6,0,0,1,.725-.859c-.206-.115-.413-.221-.562-.321a3.279,3.279,0,0,1-1.315-1.7,1.9,1.9,0,0,1,.542-1.987,2.945,2.945,0,0,1,2.16-.509c3.23.125,6.479.178,9.7.432a18.455,18.455,0,0,1,8.648,2.472c4.636,2.995,5.845,8.375,6.378,13.538l2.217,8.523q2.945,1.447,5.884,2.884l14.244-2.165,1.891-.288a104.458,104.458,0,0,1,.585,15.785" transform="translate(-112.82 -111.953)" fill="#ce9172"/>
        <path id="Trazado_781363" data-name="Trazado 781363" d="M310.843,295.1c-.753-.993-1.579-1.934-2.382-2.888q-2.551-3.029-5.162-6.007-1.488-1.7-3-3.381c-.206-.231-.545.11-.339.339,3.436,3.834,6.85,7.707,10.093,11.707a7.23,7.23,0,0,1,1.756,3.365c.047.3.509.175.463-.127a6.769,6.769,0,0,0-1.433-3.008" transform="translate(-147.765 -139.313)" fill="#352e2a"/>
        <path id="Trazado_781364" data-name="Trazado 781364" d="M263.183,264.526a14.528,14.528,0,0,0-9.312-6.408c-.3-.061-.431.4-.128.463a14.051,14.051,0,0,1,9.026,6.187c.165.26.581.019.414-.242" transform="translate(-124.937 -127.176)" fill="#352e2a"/>
        <path id="Trazado_781365" data-name="Trazado 781365" d="M257.069,251.215a26.957,26.957,0,0,0-13.943-4.858c-.308-.018-.307.462,0,.48a26.479,26.479,0,0,1,13.7,4.793c.254.178.494-.238.242-.414" transform="translate(-119.677 -121.383)" fill="#352e2a"/>
        <path id="Trazado_781366" data-name="Trazado 781366" d="M252.2,238.467a47.046,47.046,0,0,0-12.908-3q-1.9-.167-3.808-.177a.24.24,0,0,0,0,.48,46.6,46.6,0,0,1,13.036,1.943q1.8.538,3.553,1.22c.288.112.412-.352.127-.463" transform="translate(-115.91 -115.929)" fill="#352e2a"/>
        <path id="Trazado_781367" data-name="Trazado 781367" d="M96.891,230.128c-.24,1.219-1.358,1.809-2.443,2.2a2.722,2.722,0,0,1,1.176,1.1,1.512,1.512,0,0,1-.144,1.675,3.015,3.015,0,0,1-2.055.547c-.724.048-1.444.053-2.164.038a1.907,1.907,0,0,1,.283,1.248,2.435,2.435,0,0,1-1.027,1.723c-1.368,1-3.148.748-4.684,1.276a1.671,1.671,0,0,1,.542.9,3.616,3.616,0,0,1-.25,1.958,15.479,15.479,0,0,1-3.787,6.052,5.046,5.046,0,0,1-2.788,1.68,2.344,2.344,0,0,1-2.3-1.44,16.4,16.4,0,0,1-1.195-3.436,28.1,28.1,0,0,1-.787-3.892,14.7,14.7,0,0,1-.3-2.093,7.916,7.916,0,0,1,.792-4.156,9.655,9.655,0,0,1,2.505-2.961,23.533,23.533,0,0,1,7.607-3.916,27.706,27.706,0,0,1,4.4-1.051,10.6,10.6,0,0,1,4.579.01c1.137.336,2.308,1.2,2.044,2.529" transform="translate(-36.926 -112.013)" fill="#ce9172"/>
        <path id="Trazado_781368" data-name="Trazado 781368" d="M90.616,251.568a18.73,18.73,0,0,0-4.6,2.872c-.236.2.105.538.339.339a18.327,18.327,0,0,1,4.5-2.8c.282-.123.038-.537-.242-.414" transform="translate(-42.343 -123.94)" fill="#352e2a"/>
        <path id="Trazado_781369" data-name="Trazado 781369" d="M96.451,243c-1.726-.82-3.566-.125-5.24.473l-5.7,2.033c-.289.1-.164.567.127.463L91,244.06c1.614-.576,3.521-1.445,5.209-.642.277.132.521-.282.242-.414" transform="translate(-42.053 -119.546)" fill="#352e2a"/>
        <path id="Trazado_781370" data-name="Trazado 781370" d="M100.645,235.807a3.987,3.987,0,0,0-2.855-.95,21.552,21.552,0,0,0-3.5.411,33.172,33.172,0,0,0-6.855,2c-.282.116-.158.58.127.463a33.226,33.226,0,0,1,6.416-1.921,26.722,26.722,0,0,1,3.369-.458,3.828,3.828,0,0,1,2.962.792c.224.213.564-.126.339-.34" transform="translate(-43 -115.717)" fill="#352e2a"/>
        <path id="Trazado_781371" data-name="Trazado 781371" d="M215.909,408.664h84.274l-3.394-65.986H228.54s-10.767-1.467-10.306,13.407l3.6,18.183h19.189l1.1-4.3a7.319,7.319,0,0,1,7.089-5.5H259.1a7.319,7.319,0,0,1,7.319,7.319V379.1a7.319,7.319,0,0,1-7.319,7.319H221.753l-5.844,7.793Z" transform="translate(-106.381 -168.822)" fill="#ddd"/>
        <path id="Trazado_781372" data-name="Trazado 781372" d="M375.954,354.516l.821,15.972h4.359V354.516Z" transform="translate(-185.237 -174.675)" fill="#b7b7b7"/>
        <rect id="Rectángulo_362312" data-name="Rectángulo 362312" width="2.119" height="8.01" transform="translate(155.964 165.805)" fill="#ce9172"/>
        <rect id="Rectángulo_362313" data-name="Rectángulo 362313" width="2.119" height="8.01" transform="translate(171.847 165.805)" fill="#ce9172"/>
        <rect id="Rectángulo_362314" data-name="Rectángulo 362314" width="13.764" height="7.23" transform="translate(158.081 166.174)" fill="#afc7b9"/>
        <path id="Trazado_781373" data-name="Trazado 781373" d="M307.448,334.857s1.874-4.461,0-8.01Z" transform="translate(-151.484 -161.042)" fill="#b57255"/>
        <path id="Trazado_781374" data-name="Trazado 781374" d="M313.856,327.573h.237c.005.277.01.555.014.832q.033,1.864.064,3.727l.045,2.67h-.24c-.005-.344-.012-.689-.017-1.033q-.032-1.864-.062-3.728Z" transform="translate(-154.641 -161.399)" fill="#8aad99"/>
        <path id="Trazado_781375" data-name="Trazado 781375" d="M316.544,327.573h.237c.052.307.1.613.159.92q.339,1.9.753,3.787.275,1.264.587,2.523h-.235c-.069-.267-.133-.535-.2-.8q-.452-1.913-.831-3.828c-.168-.866-.328-1.732-.473-2.6" transform="translate(-155.965 -161.399)" fill="#8aad99"/>
        <path id="Trazado_781376" data-name="Trazado 781376" d="M322.618,327.573h.237l-.014.368q-.089,2.1-.173,4.191-.053,1.337-.112,2.67h-.237l.036-.847q.085-2.095.173-4.192Z" transform="translate(-158.811 -161.399)" fill="#8aad99"/>
        <path id="Trazado_781377" data-name="Trazado 781377" d="M325.809,327.573h.237c0,.016,0,.032.005.049q.221,2.02.535,4.036.246,1.574.546,3.145H326.9c-.09-.456-.174-.912-.254-1.368q-.353-2.016-.615-4.034-.118-.914-.219-1.828" transform="translate(-160.53 -161.399)" fill="#8aad99"/>
        <path id="Trazado_781378" data-name="Trazado 781378" d="M331.367,327.573h.237c0,.2-.007.4-.012.6q-.043,1.862-.164,3.725-.093,1.455-.231,2.909h-.237q.064-.648.114-1.3.15-1.86.228-3.723.046-1.106.064-2.211" transform="translate(-163.069 -161.399)" fill="#8aad99"/>
        <path id="Trazado_781379" data-name="Trazado 781379" d="M334.98,327.573h.237c0,.127.005.255.007.382q.057,2.016.273,4.028.15,1.412.375,2.82h-.237c-.057-.352-.112-.7-.159-1.057q-.282-2.009-.409-4.024-.068-1.074-.088-2.149" transform="translate(-165.049 -161.399)" fill="#8aad99"/>
        <path id="Trazado_781380" data-name="Trazado 781380" d="M298.291,337.558l2.168-5.31h2.577v5.271Z" transform="translate(-146.972 -163.703)" fill="#fac7b4"/>
        <path id="Trazado_781381" data-name="Trazado 781381" d="M277.6,444.35H220.033a.226.226,0,0,0,0,.452H277.6a.226.226,0,0,0,0-.452" transform="translate(-108.306 -218.937)" fill="#b7b7b7"/>
        <path id="Trazado_781382" data-name="Trazado 781382" d="M247.8,344.981v24.761a.226.226,0,0,0,.452,0V344.981a.226.226,0,0,0-.452,0" transform="translate(-122.093 -169.869)" fill="#b7b7b7"/>
        <path id="Trazado_781383" data-name="Trazado 781383" d="M251.8,370.642V345.725a.226.226,0,0,0-.452,0v25.138c0,.008,0,.014,0,.021a1.581,1.581,0,0,1-1.743.994,1.6,1.6,0,0,1-1.287-1.768c.031-.289-.422-.287-.452,0a2.029,2.029,0,0,0,3.979.734.2.2,0,0,0-.049-.2" transform="translate(-122.123 -170.235)" fill="#b7b7b7"/>
        <path id="Trazado_781384" data-name="Trazado 781384" d="M349.449,407.033a8.61,8.61,0,1,1-8.61-8.61,8.61,8.61,0,0,1,8.61,8.61" transform="translate(-163.694 -196.308)" fill="#ffd54f"/>
        <path id="Trazado_781385" data-name="Trazado 781385" d="M341.856,415.612a7.565,7.565,0,1,1,7.565-7.565,7.573,7.573,0,0,1-7.565,7.565m0-14.225a6.66,6.66,0,1,0,6.661,6.661,6.668,6.668,0,0,0-6.661-6.661" transform="translate(-164.709 -197.323)" fill="#fca89d"/>
        <path id="Trazado_781386" data-name="Trazado 781386" d="M348.794,364.806a5.614,5.614,0,1,1-5.614-5.614,5.614,5.614,0,0,1,5.614,5.614" transform="translate(-166.323 -176.979)" fill="#ffd54f"/>
        <path id="Trazado_781387" data-name="Trazado 781387" d="M348.638,360.26v2.095a.226.226,0,0,0,.452,0V360.26a.226.226,0,0,0-.452,0" transform="translate(-171.778 -177.397)" fill="#fff"/>
        <rect id="Rectángulo_362315" data-name="Rectángulo 362315" width="24.132" height="2.974" transform="translate(117.258 219.334)" fill="#8c8c8c"/>
        <path id="Trazado_781388" data-name="Trazado 781388" d="M245.732,421.459v6.033a.226.226,0,0,0,.452,0v-6.033a.226.226,0,0,0-.452,0" transform="translate(-121.075 -207.551)" fill="#8c8c8c"/>
        <rect id="Rectángulo_362316" data-name="Rectángulo 362316" width="4.19" height="9.008" transform="translate(123.752 205.445)" fill="#8c8c8c"/>
        <rect id="Rectángulo_362317" data-name="Rectángulo 362317" width="7.499" height="2.535" transform="translate(123.752 207.414)" fill="#b7b7b7"/>
      </g>
    </g>
  </g>
</svg>
