<svg id="tela" xmlns="http://www.w3.org/2000/svg" width="121" height="121" viewBox="0 0 121 121">
  <path id="Trazado_781129" data-name="Trazado 781129" d="M65.372,295.333H1.679A1.679,1.679,0,0,1,0,293.654V229.961a1.679,1.679,0,0,1,1.679-1.679H65.372a1.679,1.679,0,0,1,1.679,1.679v63.693A1.679,1.679,0,0,1,65.372,295.333Z" transform="translate(0 -174.333)" fill="#aee097"/>
  <path id="Trazado_781130" data-name="Trazado 781130" d="M0,229.96v63.693a1.679,1.679,0,0,0,1.679,1.679H4.8V228.281H1.679A1.679,1.679,0,0,0,0,229.96Z" transform="translate(0 -174.332)" fill="#83d167"/>
  <g id="Grupo_1055027" data-name="Grupo 1055027" transform="translate(50.352 104.301)">
    <path id="Trazado_781131" data-name="Trazado 781131" d="M222.307,452.376h0l-7.45-.011a1.8,1.8,0,0,1,0-3.6h0l5.649.008v-5.638a1.8,1.8,0,1,1,3.6,0v7.439a1.8,1.8,0,0,1-1.8,1.8Z" transform="translate(-213.058 -441.339)" fill="#54c032"/>
  </g>
  <g id="Grupo_1055028" data-name="Grupo 1055028" transform="translate(57.802 89.401)">
    <path id="Trazado_781132" data-name="Trazado 781132" d="M246.381,389.338a1.8,1.8,0,0,1-1.8-1.8v-7.45a1.8,1.8,0,1,1,3.6,0v7.45A1.8,1.8,0,0,1,246.381,389.338Z" transform="translate(-244.582 -378.29)" fill="#54c032"/>
  </g>
  <path id="Trazado_781133" data-name="Trazado 781133" d="M230.442,113.639H159.3a1.679,1.679,0,0,1-1.679-1.679V40.817a1.679,1.679,0,0,1,1.679-1.679h71.143a1.679,1.679,0,0,1,1.679,1.679V111.96A1.679,1.679,0,0,1,230.442,113.639Z" transform="translate(-120.37 -29.889)" fill="#f9e487"/>
  <path id="Trazado_781134" data-name="Trazado 781134" d="M157.619,40.817V111.96a1.679,1.679,0,0,0,1.679,1.679h5.516v-74.5H159.3A1.679,1.679,0,0,0,157.619,40.817Z" transform="translate(-120.369 -29.889)" fill="#f9bf6c"/>
  <g id="Grupo_1055029" data-name="Grupo 1055029" transform="translate(5.651 59.622)">
    <path id="Trazado_781135" data-name="Trazado 781135" d="M25.712,263.311a1.8,1.8,0,0,1-1.8-1.8v-7.428a1.8,1.8,0,0,1,1.8-1.8h7.45a1.8,1.8,0,1,1,0,3.6H27.511v5.63A1.8,1.8,0,0,1,25.712,263.311Z" transform="translate(-23.913 -252.285)" fill="#54c032"/>
  </g>
  <g id="Grupo_1055030" data-name="Grupo 1055030" transform="translate(20.551 59.622)">
    <path id="Trazado_781136" data-name="Trazado 781136" d="M96.21,255.883H88.76a1.8,1.8,0,0,1,0-3.6h7.45a1.8,1.8,0,0,1,0,3.6Z" transform="translate(-86.961 -252.285)" fill="#54c032"/>
  </g>
  <g id="Grupo_1055031" data-name="Grupo 1055031" transform="translate(5.651 104.301)">
    <path id="Trazado_781137" data-name="Trazado 781137" d="M33.162,452.365h-7.45a1.8,1.8,0,0,1-1.8-1.8v-7.428a1.8,1.8,0,1,1,3.6,0v5.63h5.651a1.8,1.8,0,1,1,0,3.6Z" transform="translate(-23.913 -441.339)" fill="#54c032"/>
  </g>
  <g id="Grupo_1055032" data-name="Grupo 1055032" transform="translate(20.551 111.729)">
    <path id="Trazado_781138" data-name="Trazado 781138" d="M96.21,476.37H88.76a1.8,1.8,0,1,1,0-3.6h7.45a1.8,1.8,0,1,1,0,3.6Z" transform="translate(-86.961 -472.772)" fill="#54c032"/>
  </g>
  <g id="Grupo_1055033" data-name="Grupo 1055033" transform="translate(35.452 111.751)">
    <path id="Trazado_781139" data-name="Trazado 781139" d="M159.259,476.461h-7.45a1.8,1.8,0,0,1,0-3.6h7.45a1.8,1.8,0,0,1,0,3.6Z" transform="translate(-150.01 -472.863)" fill="#54c032"/>
  </g>
  <g id="Grupo_1055034" data-name="Grupo 1055034" transform="translate(5.651 74.5)">
    <path id="Trazado_781140" data-name="Trazado 781140" d="M25.712,326.289a1.8,1.8,0,0,1-1.8-1.8v-7.45a1.8,1.8,0,0,1,3.6,0v7.45A1.8,1.8,0,0,1,25.712,326.289Z" transform="translate(-23.913 -315.241)" fill="#54c032"/>
  </g>
  <g id="Grupo_1055035" data-name="Grupo 1055035" transform="translate(5.651 89.401)">
    <path id="Trazado_781141" data-name="Trazado 781141" d="M25.712,389.338a1.8,1.8,0,0,1-1.8-1.8v-7.45a1.8,1.8,0,1,1,3.6,0v7.45A1.8,1.8,0,0,1,25.712,389.338Z" transform="translate(-23.913 -378.29)" fill="#54c032"/>
  </g>
  <g id="Grupo_1055036" data-name="Grupo 1055036" transform="translate(102.502 67.051)">
    <path id="Trazado_781142" data-name="Trazado 781142" d="M450.426,287.316h-14.9a1.8,1.8,0,0,1,0-3.6h14.9a1.8,1.8,0,0,1,0,3.6Z" transform="translate(-433.727 -283.718)" fill="#f9bf6c"/>
  </g>
  <g id="Grupo_1055037" data-name="Grupo 1055037" transform="translate(102.502 52.172)">
    <path id="Trazado_781143" data-name="Trazado 781143" d="M450.426,224.358h-14.9a1.8,1.8,0,0,1,0-3.6h14.9a1.8,1.8,0,0,1,0,3.6Z" transform="translate(-433.727 -220.76)" fill="#f9bf6c"/>
  </g>
  <g id="Grupo_1055038" data-name="Grupo 1055038" transform="translate(102.502 37.25)">
    <path id="Trazado_781144" data-name="Trazado 781144" d="M450.426,161.219h-14.9a1.8,1.8,0,1,1,0-3.6h14.9a1.8,1.8,0,0,1,0,3.6Z" transform="translate(-433.727 -157.621)" fill="#f9bf6c"/>
  </g>
  <g id="Grupo_1055039" data-name="Grupo 1055039" transform="translate(102.502 22.35)">
    <path id="Trazado_781145" data-name="Trazado 781145" d="M450.426,98.17h-14.9a1.8,1.8,0,0,1,0-3.6h14.9a1.8,1.8,0,0,1,0,3.6Z" transform="translate(-433.727 -94.572)" fill="#f9bf6c"/>
  </g>
  <g id="Grupo_1055040" data-name="Grupo 1055040" transform="translate(28.001 37.293)">
    <path id="Trazado_781146" data-name="Trazado 781146" d="M135.184,161.4h-14.9a1.8,1.8,0,1,1,0-3.6h14.9a1.8,1.8,0,1,1,0,3.6Z" transform="translate(-118.485 -157.802)" fill="#f9bf6c"/>
  </g>
  <g id="Grupo_1055041" data-name="Grupo 1055041" transform="translate(28.001 67.051)">
    <path id="Trazado_781147" data-name="Trazado 781147" d="M135.184,287.317h-14.9a1.8,1.8,0,1,1,0-3.6h14.9a1.8,1.8,0,1,1,0,3.6Z" transform="translate(-118.485 -283.719)" fill="#f9bf6c"/>
  </g>
  <g id="Grupo_1055042" data-name="Grupo 1055042" transform="translate(28.001 52.193)">
    <path id="Trazado_781148" data-name="Trazado 781148" d="M135.184,224.448h-14.9a1.8,1.8,0,1,1,0-3.6h14.9a1.8,1.8,0,1,1,0,3.6Z" transform="translate(-118.485 -220.85)" fill="#f9bf6c"/>
  </g>
  <g id="Grupo_1055043" data-name="Grupo 1055043" transform="translate(28.001 22.393)">
    <path id="Trazado_781149" data-name="Trazado 781149" d="M135.184,98.351h-14.9a1.8,1.8,0,1,1,0-3.6h14.9a1.8,1.8,0,1,1,0,3.6Z" transform="translate(-118.485 -94.753)" fill="#f9bf6c"/>
  </g>
  <g id="Grupo_1055044" data-name="Grupo 1055044" transform="translate(37.25 22.393)">
    <path id="Trazado_781150" data-name="Trazado 781150" d="M157.619,157.8h7.2v3.6h-7.2Z" transform="translate(-157.619 -142.903)" fill="#fca62f"/>
    <path id="Trazado_781151" data-name="Trazado 781151" d="M157.619,283.72h7.2v3.6h-7.2Z" transform="translate(-157.619 -239.062)" fill="#fca62f"/>
    <path id="Trazado_781152" data-name="Trazado 781152" d="M157.619,220.851h7.2v3.6h-7.2Z" transform="translate(-157.619 -191.051)" fill="#fca62f"/>
    <path id="Trazado_781153" data-name="Trazado 781153" d="M157.619,94.754h7.2v3.6h-7.2Z" transform="translate(-157.619 -94.754)" fill="#fca62f"/>
  </g>
  <g id="Grupo_1055045" data-name="Grupo 1055045" transform="translate(95.052 0)">
    <path id="Trazado_781154" data-name="Trazado 781154" d="M404,18.534a1.8,1.8,0,0,1-1.8-1.8V1.8a1.8,1.8,0,0,1,3.6,0V16.735A1.8,1.8,0,0,1,404,18.534Z" transform="translate(-402.204 0)" fill="#f9bf6c"/>
  </g>
  <g id="Grupo_1055046" data-name="Grupo 1055046" transform="translate(80.152 0)">
    <path id="Trazado_781155" data-name="Trazado 781155" d="M340.954,18.534a1.8,1.8,0,0,1-1.8-1.8V1.8a1.8,1.8,0,0,1,3.6,0V16.735A1.8,1.8,0,0,1,340.954,18.534Z" transform="translate(-339.155 0)" fill="#f9bf6c"/>
  </g>
  <g id="Grupo_1055047" data-name="Grupo 1055047" transform="translate(95.052 74.482)">
    <path id="Trazado_781156" data-name="Trazado 781156" d="M404,333.7a1.8,1.8,0,0,1-1.8-1.8V316.964a1.8,1.8,0,0,1,3.6,0V331.9A1.8,1.8,0,0,1,404,333.7Z" transform="translate(-402.204 -315.165)" fill="#f9bf6c"/>
  </g>
  <g id="Grupo_1055048" data-name="Grupo 1055048" transform="translate(80.152 74.482)">
    <path id="Trazado_781157" data-name="Trazado 781157" d="M340.954,333.7a1.8,1.8,0,0,1-1.8-1.8V316.964a1.8,1.8,0,0,1,3.6,0V331.9A1.8,1.8,0,0,1,340.954,333.7Z" transform="translate(-339.155 -315.165)" fill="#f9bf6c"/>
  </g>
  <g id="Grupo_1055049" data-name="Grupo 1055049" transform="translate(50.352 74.482)">
    <path id="Trazado_781158" data-name="Trazado 781158" d="M214.857,333.7a1.8,1.8,0,0,1-1.8-1.8V316.964a1.8,1.8,0,0,1,3.6,0V331.9A1.8,1.8,0,0,1,214.857,333.7Z" transform="translate(-213.058 -315.165)" fill="#f9bf6c"/>
  </g>
  <g id="Grupo_1055050" data-name="Grupo 1055050" transform="translate(65.252 74.482)">
    <path id="Trazado_781159" data-name="Trazado 781159" d="M277.9,333.7a1.8,1.8,0,0,1-1.8-1.8V316.964a1.8,1.8,0,0,1,3.6,0V331.9A1.8,1.8,0,0,1,277.9,333.7Z" transform="translate(-276.106 -315.165)" fill="#f9bf6c"/>
  </g>
  <g id="Grupo_1055051" data-name="Grupo 1055051" transform="translate(65.252 0)">
    <path id="Trazado_781160" data-name="Trazado 781160" d="M277.906,18.534a1.8,1.8,0,0,1-1.8-1.8V1.8a1.8,1.8,0,0,1,3.6,0V16.735A1.8,1.8,0,0,1,277.906,18.534Z" transform="translate(-276.107 0)" fill="#f9bf6c"/>
  </g>
  <g id="Grupo_1055052" data-name="Grupo 1055052" transform="translate(50.352 0)">
    <path id="Trazado_781161" data-name="Trazado 781161" d="M214.857,18.534a1.8,1.8,0,0,1-1.8-1.8V1.8a1.8,1.8,0,0,1,3.6,0V16.735A1.8,1.8,0,0,1,214.857,18.534Z" transform="translate(-213.058 0)" fill="#f9bf6c"/>
  </g>
  <path id="Trazado_781162" data-name="Trazado 781162" d="M263.543,130.456a11.175,11.175,0,0,0-15.8,0l-2.624,2.624-2.624-2.624a11.175,11.175,0,1,0-15.8,15.8L237.2,156.8a11.2,11.2,0,0,0,15.823,0l10.517-10.536a11.175,11.175,0,0,0,0-15.8Z" transform="translate(-170.615 -97.126)" fill="#e17ea9"/>
  <path id="Trazado_781163" data-name="Trazado 781163" d="M244.4,156.8,233.88,146.26a11.18,11.18,0,0,1,4.3-18.485,11.177,11.177,0,0,0-11.5,18.485L237.2,156.8a11.221,11.221,0,0,0,11.509,2.684A11.134,11.134,0,0,1,244.4,156.8Z" transform="translate(-170.613 -97.126)" fill="#d6679c"/>
</svg>
