<svg xmlns="http://www.w3.org/2000/svg" width="78" height="78" viewBox="0 0 78 78">
  <g id="Grupo_1055537" data-name="Grupo 1055537" transform="translate(-423 -8090)">
    <circle id="Elipse_4946" data-name="Elipse 4946" cx="39" cy="39" r="39" transform="translate(423 8090)" fill="#d1bcff"/>
    <g id="alerta" transform="translate(418.001 8085)">
      <circle id="Elipse_4947" data-name="Elipse 4947" cx="25" cy="25" r="25" transform="translate(18.999 19)" fill="#ffd54f"/>
      <g id="Grupo_1055344" data-name="Grupo 1055344" transform="translate(40.795 28.841)">
        <path id="Trazado_782711" data-name="Trazado 782711" d="M64.645,82.941a3.214,3.214,0,1,1-3.214-3.214A3.214,3.214,0,0,1,64.645,82.941Z" transform="translate(-58.217 -55.818)" fill="#673ab7"/>
        <path id="Trazado_782712" data-name="Trazado 782712" d="M61.431,56.362a3.214,3.214,0,0,1-3.214-3.214V39.921a3.214,3.214,0,0,1,6.428,0V53.148A3.214,3.214,0,0,1,61.431,56.362Z" transform="translate(-58.217 -36.707)" fill="#673ab7"/>
      </g>
    </g>
  </g>
</svg>
