<svg xmlns="http://www.w3.org/2000/svg" width="1065" height="344.19" viewBox="0 0 1065 344.19">
  <g id="Grupo_1098067" data-name="Grupo 1098067" transform="translate(-259 -13926.81)">
    <path id="Trazado_776213" data-name="Trazado 776213" d="M79.588,37.78h-1.7V30.993h24.857V37.78Z" transform="translate(267.509 13923.82)" fill="#ffd54f"/>
    <path id="Trazado_776217" data-name="Trazado 776217" d="M510.856,37.78h1.7V30.993h-24.86V37.78Z" transform="translate(727.911 13923.82)" fill="#ffd54f"/>
    <path id="Trazado_776219" data-name="Trazado 776219" d="M132.677,30.993h2.92v6.77H92.785v-6.77Z" transform="translate(284.242 13923.82)" fill="#ffd54f"/>
    <path id="Trazado_776220" data-name="Trazado 776220" d="M467.266,30.993h-2.922v6.77h42.814v-6.77Z" transform="translate(701.68 13923.82)" fill="#ffd54f"/>
    <g id="Grupo_1054903" data-name="Grupo 1054903" transform="translate(964.271 14094.868)">
      <path id="Trazado_776140" data-name="Trazado 776140" d="M386.187,142.746a1.224,1.224,0,0,1,1.894,1.55l-4.765,5.818,6.793,6.793A6.232,6.232,0,0,1,383.39,167.1v3.17a.391.391,0,0,0,.391.391H411.8a.4.4,0,0,0,.393-.391V146.029h.006a1.218,1.218,0,0,1,2.17-.76c.469.586.945,1.219,1.463,1.909,2.763,3.678,6.8,9.05,10.484,8.857,3.909-.206,9.148-5.891,12.839-9.9.926-1.007,1.762-1.913,2.427-2.58a3.779,3.779,0,0,0-5.345-5.345l-8.367,8.364a2.026,2.026,0,0,1-1.486.59,2.021,2.021,0,0,1-.8-.183,2.042,2.042,0,0,1-.658-.486c-1.223-1.361-2.589-3.03-4.064-4.833-5.079-6.2-11.5-14.043-16.219-14.627a44.7,44.7,0,0,0-5.491-.244c-2.213.015-4.48.136-6.188.329-2.945.333-6.419,2.862-9.689,6.135a61.217,61.217,0,0,0-10.581,14.429l0,.006a8.345,8.345,0,0,0-.911,3.7,3.328,3.328,0,0,0,.968,2.3l10.29,10.292a3.781,3.781,0,0,0,5.341-5.353l-7.058-7.058a2.04,2.04,0,0,1-.136-2.724l5-6.111Zm-5.245,22.613-9.927-9.925a5.706,5.706,0,0,1-1.675-3.939,10.676,10.676,0,0,1,1.132-4.822l.025-.053a63.926,63.926,0,0,1,11.046-15.081c3.621-3.625,7.581-6.438,11.153-6.842,1.754-.2,4.115-.323,6.447-.34a47.468,47.468,0,0,1,5.8.253c5.693.707,12.463,8.974,17.816,15.51,1.348,1.646,2.606,3.181,3.7,4.417l8.054-8.054a6.23,6.23,0,0,1,8.81,8.81c-.709.709-1.493,1.559-2.361,2.5-3.971,4.309-9.6,10.422-14.514,10.681-4.578.242-8.759-4.818-11.8-8.823v20.615a2.846,2.846,0,0,1-2.841,2.841H383.781a2.846,2.846,0,0,1-2.839-2.841v-4.907Z" transform="translate(-369.333 -66.158)" fill="#673ab7"/>
      <path id="Trazado_776141" data-name="Trazado 776141" d="M389.857,113.967a8.267,8.267,0,0,0-6.249,3.009,11.854,11.854,0,0,0,0,14.988,7.992,7.992,0,0,0,12.5,0,11.854,11.854,0,0,0,0-14.988A8.266,8.266,0,0,0,389.857,113.967Zm-8.095,1.41a10.417,10.417,0,0,1,16.189,0,14.273,14.273,0,0,1,0,18.183,10.413,10.413,0,0,1-16.189,0,14.266,14.266,0,0,1,0-18.183Z" transform="translate(-359.046 -80.581)" fill="#ffd54f"/>
      <path id="Trazado_776142" data-name="Trazado 776142" d="M394.243,135.857a1.225,1.225,0,0,1-2.451,0V126.25a1.226,1.226,0,0,1,1.225-1.225h13.773a1.227,1.227,0,0,1,1.225,1.225v13.694a1.225,1.225,0,0,1-2.451,0V127.476H394.243Zm11.322,18.1a1.225,1.225,0,0,1,2.451,0V171.13a1.227,1.227,0,0,1-1.225,1.225H393.018a1.226,1.226,0,0,1-1.225-1.225V151.439a1.225,1.225,0,0,1,2.451,0V169.9h11.322V153.957Z" transform="translate(-344.1 -65.405)" fill="#673ab7"/>
      <path id="Trazado_776143" data-name="Trazado 776143" d="M403.084,139.219a1.225,1.225,0,0,1-2.45,0V122.938a1.224,1.224,0,0,1,1.225-1.223h13.773a1.225,1.225,0,0,1,1.225,1.223v51.911a1.227,1.227,0,0,1-1.225,1.225H401.859a1.226,1.226,0,0,1-1.225-1.225V153.157a1.225,1.225,0,1,1,2.45,0v20.466h11.322v-49.46H403.084v15.055Z" transform="translate(-334.168 -69.124)" fill="#673ab7"/>
      <path id="Trazado_776144" data-name="Trazado 776144" d="M410.7,116.716h13.773a1.225,1.225,0,0,1,1.223,1.225v62.524a1.225,1.225,0,0,1-1.223,1.225H410.7a1.226,1.226,0,0,1-1.225-1.225V117.941a1.226,1.226,0,0,1,1.225-1.225Zm12.548,2.45H411.923V179.24h11.325Z" transform="translate(-324.235 -74.74)" fill="#673ab7"/>
      <path id="Trazado_776145" data-name="Trazado 776145" d="M401.462,137.446l-.051-.019a1.25,1.25,0,0,1-.378-.236c-.028-.025-.051-.049-.077-.076a1.24,1.24,0,0,1-.236-.376c-.008-.025-.019-.053-.028-.079a1.212,1.212,0,0,1,0-.737c.008-.028.019-.053.028-.079a1.241,1.241,0,0,1,.236-.376.87.87,0,0,1,.077-.076,1.209,1.209,0,0,1,.378-.236l.049-.019a17.7,17.7,0,0,0,9.345-7.859,24.73,24.73,0,0,0,3.393-12.352h-2.2a1.226,1.226,0,0,1-1-1.934l8.91-15.431a1.219,1.219,0,0,1,2.119.009l8.965,15.525a1.219,1.219,0,0,1-.45,1.665,1.2,1.2,0,0,1-.607.161v.006h-2.767a27.192,27.192,0,0,1-5.039,15.506,18.4,18.4,0,0,1-14.263,7.952c-.31.011-.558.017-.745.017a17.233,17.233,0,0,1-2.865-.24,17.645,17.645,0,0,1-2.79-.716Zm11.437-8.914a20.86,20.86,0,0,1-7.256,7.349c.482.047.975.072,1.474.072.282,0,.5,0,.65-.008a16.022,16.022,0,0,0,12.388-6.957,24.7,24.7,0,0,0,4.561-14.314c0-.327,0-.605-.011-.83a1.059,1.059,0,0,1-.008-.142,1.225,1.225,0,0,1,1.223-1.225h1.9l-6.855-11.87-6.852,11.87H415.4v0a1.225,1.225,0,0,1,1.221,1.174,27.3,27.3,0,0,1-3.722,14.877Z" transform="translate(-334.165 -96.949)" fill="#ffd54f"/>
    </g>
    <g id="Grupo_1054904" data-name="Grupo 1054904" transform="translate(737.609 14095.714)">
      <path id="Trazado_776146" data-name="Trazado 776146" d="M335.954,146.019a1.224,1.224,0,1,1,2.448,0v31.99a1.224,1.224,0,1,1-2.448,0v-31.99Zm0,37.263a1.224,1.224,0,1,1,2.448,0v5.132a3.241,3.241,0,0,1-3.236,3.236H268.842a2.922,2.922,0,0,1-2.918-2.916V100.263a2.922,2.922,0,0,1,2.918-2.916h53.8c.76,0,7.027,6.555,11.547,11.284,1.69,1.769,3.13,3.274,3.86,4.024a1.214,1.214,0,0,1,.346.852h0v27.24a1.224,1.224,0,1,1-2.448,0V114c-.818-.845-2.081-2.166-3.529-3.682-4.215-4.408-9.5-10.52-9.779-10.52h-53.8a.471.471,0,0,0-.467.467v88.473a.471.471,0,0,0,.467.467h66.325a.79.79,0,0,0,.788-.788v-5.132Z" transform="translate(-258.851 -97.347)" fill="#673ab7"/>
      <path id="Trazado_776147" data-name="Trazado 776147" d="M307,111.951a1.224,1.224,0,1,1,0,2.448H294.83a2.922,2.922,0,0,1-2.916-2.916v-12.7a1.224,1.224,0,1,1,2.448,0v12.7a.475.475,0,0,0,.467.467H307Z" transform="translate(-229.651 -97.11)" fill="#673ab7"/>
      <path id="Trazado_776148" data-name="Trazado 776148" d="M271.957,131.96a1.224,1.224,0,0,1,0-2.448h20.961a1.224,1.224,0,0,1,0,2.448Z" transform="translate(-253.447 -61.21)" fill="#673ab7"/>
      <path id="Trazado_776149" data-name="Trazado 776149" d="M271.957,136.154a1.224,1.224,0,0,1,0-2.448h20.961a1.224,1.224,0,0,1,0,2.448Z" transform="translate(-253.447 -56.499)" fill="#673ab7"/>
      <path id="Trazado_776150" data-name="Trazado 776150" d="M332.623,186.848a1.225,1.225,0,0,1,2.45,0V191.6a3.244,3.244,0,0,1-3.238,3.238H265.511a2.922,2.922,0,0,1-2.918-2.916V103.447a2.922,2.922,0,0,1,2.918-2.916h5.381a1.224,1.224,0,1,1,0,2.448h-5.381a.471.471,0,0,0-.467.467v88.473a.465.465,0,0,0,.138.327.457.457,0,0,0,.329.138h66.325a.778.778,0,0,0,.556-.231.787.787,0,0,0,.231-.556v-4.748Z" transform="translate(-262.593 -93.77)" fill="#673ab7"/>
      <path id="Trazado_776151" data-name="Trazado 776151" d="M287.109,101.534a13.032,13.032,0,1,1-9.216,3.816A12.993,12.993,0,0,1,287.109,101.534Zm7.483,5.549a10.586,10.586,0,1,0,3.1,7.483A10.55,10.55,0,0,0,294.592,107.083Z" transform="translate(-249.693 -92.643)" fill="#ffd54f"/>
      <path id="Trazado_776152" data-name="Trazado 776152" d="M279.636,102.757a1.224,1.224,0,0,1,2.448,0v10.583h10.583a1.224,1.224,0,1,1,0,2.448H280.861a1.224,1.224,0,0,1-1.225-1.223V102.757Z" transform="translate(-243.446 -92.643)" fill="#ffd54f"/>
      <path id="Trazado_776153" data-name="Trazado 776153" d="M272.562,131.012a1.225,1.225,0,1,1-2.45,0V118.861a1.224,1.224,0,0,1,1.225-1.225h5.721a1.224,1.224,0,0,1,1.225,1.225v12.151a1.224,1.224,0,1,1-2.448,0V120.086h-3.272v10.925Z" transform="translate(-254.145 -74.553)" fill="#673ab7"/>
      <path id="Trazado_776154" data-name="Trazado 776154" d="M277.808,129.351a1.225,1.225,0,1,1-2.45,0v-9.012a1.226,1.226,0,0,1,1.225-1.225H282.3a1.226,1.226,0,0,1,1.225,1.225v9.012a1.224,1.224,0,1,1-2.448,0v-7.787h-3.272v7.787Z" transform="translate(-248.252 -72.892)" fill="#673ab7"/>
      <path id="Trazado_776155" data-name="Trazado 776155" d="M283.052,131.981a1.224,1.224,0,1,1-2.448,0V118a1.224,1.224,0,0,1,1.225-1.225h5.721A1.224,1.224,0,0,1,288.775,118v13.983a1.224,1.224,0,1,1-2.448,0v-12.76h-3.274v12.76Z" transform="translate(-242.358 -75.522)" fill="#673ab7"/>
      <path id="Trazado_776156" data-name="Trazado 776156" d="M288.3,130.938a1.224,1.224,0,1,1-2.448,0V115.6a1.224,1.224,0,0,1,1.225-1.225H292.8a1.224,1.224,0,0,1,1.225,1.225v9.057a1.224,1.224,0,0,1-2.448,0v-7.834H288.3v14.117Z" transform="translate(-236.464 -78.219)" fill="#673ab7"/>
      <path id="Trazado_776157" data-name="Trazado 776157" d="M269.879,126.027a1.225,1.225,0,1,1,0-2.451h34.49a1.225,1.225,0,0,1,0,2.451Z" transform="translate(-255.784 -67.878)" fill="#673ab7"/>
      <path id="Trazado_776158" data-name="Trazado 776158" d="M291.3,123.52a24.041,24.041,0,1,1-7.041,17,23.968,23.968,0,0,1,7.041-17Zm17-4.591a21.59,21.59,0,1,0,15.266,6.324,21.527,21.527,0,0,0-15.266-6.324Z" transform="translate(-238.248 -75.853)" fill="#673ab7"/>
      <path id="Trazado_776159" data-name="Trazado 776159" d="M305.662,140.275l2.4-2.4a4.4,4.4,0,0,1,6.209,0l10.743,10.743a4.4,4.4,0,0,1,0,6.209l-2.4,2.393a4.4,4.4,0,0,1-6.209,0l-10.743-10.741a4.4,4.4,0,0,1,0-6.209Zm4.126-.663-2.393,2.393a1.951,1.951,0,0,0,0,2.746l10.741,10.743a1.951,1.951,0,0,0,2.746,0l2.4-2.4a1.951,1.951,0,0,0,0-2.746l-10.741-10.741a1.953,1.953,0,0,0-2.748,0Z" transform="translate(-215.647 -53.251)" fill="#673ab7"/>
      <path id="Trazado_776160" data-name="Trazado 776160" d="M309.875,144.165a1.225,1.225,0,0,1-1.731,1.733l-6.13-6.13a1.225,1.225,0,1,1,1.733-1.731Zm-4.056-8.2a1.224,1.224,0,0,1,1.731-1.731l6.131,6.128a1.225,1.225,0,1,1-1.731,1.733Z" transform="translate(-218.707 -56.311)" fill="#673ab7"/>
      <path id="Trazado_776161" data-name="Trazado 776161" d="M292.158,124.376a19.232,19.232,0,1,1-5.632,13.6,19.175,19.175,0,0,1,5.632-13.6Zm1.733,1.733a16.779,16.779,0,1,0,11.866-4.916A16.724,16.724,0,0,0,293.891,126.109Z" transform="translate(-235.704 -73.307)" fill="#673ab7"/>
    </g>
    <g id="Grupo_1054905" data-name="Grupo 1054905" transform="translate(1182.737 14095.812)">
      <path id="Trazado_776162" data-name="Trazado 776162" d="M489.351,102.486H536.9a5.2,5.2,0,0,1,5.188,5.188v36.345a5.2,5.2,0,0,1-5.188,5.188H489.351a5.2,5.2,0,0,1-5.188-5.188V107.674a5.2,5.2,0,0,1,5.188-5.188Zm47.551,2.489H489.351a2.712,2.712,0,0,0-2.7,2.7v36.345a2.712,2.712,0,0,0,2.7,2.7H536.9a2.711,2.711,0,0,0,2.7-2.7V107.674a2.711,2.711,0,0,0-2.7-2.7Z" transform="translate(-458.792 -91.671)" fill="#ffd54f"/>
      <path id="Trazado_776163" data-name="Trazado 776163" d="M491.4,135.621a1.244,1.244,0,0,1-2.489,0v-2.907a1.244,1.244,0,0,1,2.489,0Zm0-8.825a1.244,1.244,0,0,1-2.489,0V108.12a1.244,1.244,0,0,1,2.489,0Z" transform="translate(-453.457 -86.739)" fill="#ffd54f"/>
      <path id="Trazado_776164" data-name="Trazado 776164" d="M491.721,115.671a4.2,4.2,0,1,1-2.973,1.232A4.19,4.19,0,0,1,491.721,115.671Zm1.213,2.99a1.715,1.715,0,1,0,.5,1.212A1.709,1.709,0,0,0,492.934,118.661Z" transform="translate(-455.023 -76.858)" fill="#ffd54f"/>
      <path id="Trazado_776165" data-name="Trazado 776165" d="M496.937,135.621a1.244,1.244,0,0,1-2.489,0v-17.03a1.244,1.244,0,1,1,2.489,0Zm0-22.951a1.244,1.244,0,1,1-2.489,0V108.12a1.244,1.244,0,1,1,2.489,0Z" transform="translate(-447.237 -86.739)" fill="#ffd54f"/>
      <path id="Trazado_776166" data-name="Trazado 776166" d="M497.258,109.019a4.2,4.2,0,1,1-2.973,1.232A4.2,4.2,0,0,1,497.258,109.019Zm1.213,2.992a1.712,1.712,0,1,0,.5,1.213A1.711,1.711,0,0,0,498.471,112.011Z" transform="translate(-448.803 -84.331)" fill="#ffd54f"/>
      <path id="Trazado_776167" data-name="Trazado 776167" d="M502.474,135.621a1.244,1.244,0,0,1-2.489,0v-9.2a1.244,1.244,0,1,1,2.489,0Zm0-15.121a1.244,1.244,0,1,1-2.489,0V108.12a1.244,1.244,0,1,1,2.489,0Z" transform="translate(-441.016 -86.739)" fill="#ffd54f"/>
      <path id="Trazado_776168" data-name="Trazado 776168" d="M502.8,112.706a4.2,4.2,0,1,1-2.973,1.232A4.192,4.192,0,0,1,502.8,112.706Zm1.213,2.992a1.712,1.712,0,1,0,.5,1.212A1.7,1.7,0,0,0,504.008,115.7Z" transform="translate(-442.582 -80.189)" fill="#ffd54f"/>
      <path id="Trazado_776169" data-name="Trazado 776169" d="M508.011,135.621a1.244,1.244,0,0,1-2.489,0V118.377a1.244,1.244,0,0,1,2.489,0Zm0-23.163a1.244,1.244,0,0,1-2.489,0V108.12a1.244,1.244,0,0,1,2.489,0Z" transform="translate(-434.795 -86.739)" fill="#ffd54f"/>
      <path id="Trazado_776170" data-name="Trazado 776170" d="M508.331,108.919a4.205,4.205,0,1,1-2.971,1.232A4.192,4.192,0,0,1,508.331,108.919Zm1.215,2.99a1.72,1.72,0,1,0,.5,1.215A1.71,1.71,0,0,0,509.546,111.909Z" transform="translate(-436.36 -84.444)" fill="#ffd54f"/>
      <path id="Trazado_776171" data-name="Trazado 776171" d="M478.009,162.422a1.244,1.244,0,1,1-2.489,0V98.637a1.243,1.243,0,0,1,1.244-1.244h92.144a1.243,1.243,0,0,1,1.244,1.244v63.785a1.244,1.244,0,0,1-2.489,0V99.882H478.009v62.541Z" transform="translate(-468.502 -97.393)" fill="#673ab7"/>
      <path id="Trazado_776172" data-name="Trazado 776172" d="M540.357,130.543a1.243,1.243,0,0,1-2.236-1.087l.646-1.325a1.242,1.242,0,0,1,1.117-.7H579.64a1.244,1.244,0,0,1,1.244,1.242v9.008a10.277,10.277,0,0,1-10.252,10.25H547.324a1.244,1.244,0,0,1,0-2.489h23.307a7.787,7.787,0,0,0,7.763-7.761v-7.763H540.661l-.3.624Zm-3.491,14.9a1.244,1.244,0,0,1,0,2.489H516.232a1.244,1.244,0,1,1,0-2.489Zm-31.092,0a1.244,1.244,0,1,1,0,2.489H482.467a10.277,10.277,0,0,1-10.252-10.25v-9.008a1.244,1.244,0,0,1,1.244-1.242h39.756a1.241,1.241,0,0,1,1.14.747l.622,1.274a1.244,1.244,0,1,1-2.236,1.089l-.3-.624H474.7v7.763a7.79,7.79,0,0,0,7.763,7.761h23.307Z" transform="translate(-472.215 -63.645)" fill="#673ab7"/>
      <path id="Trazado_776173" data-name="Trazado 776173" d="M506.183,126.131h6.538a1.244,1.244,0,0,1,1.213.962l1.07,3.338q.8.248,1.55.563.78.322,1.5.7l3.2-1.648a1.243,1.243,0,0,1,1.446.225l0,0,4.623,4.625a1.243,1.243,0,0,1,.185,1.525l-1.61,3.128c.251.48.486.981.7,1.5q.312.755.563,1.552l3.434,1.1a1.242,1.242,0,0,1,.862,1.181h0v6.54a1.248,1.248,0,0,1-.962,1.212l-3.338,1.07c-.166.529-.355,1.047-.563,1.55q-.322.78-.7,1.5l1.648,3.2a1.242,1.242,0,0,1-.225,1.448h0l-4.623,4.625a1.247,1.247,0,0,1-1.525.185l-3.128-1.61q-.723.376-1.5.7-.755.312-1.552.561l-1.1,3.436a1.24,1.24,0,0,1-1.181.862v0h-6.538a1.244,1.244,0,0,1-1.213-.962l-1.07-3.338q-.8-.248-1.55-.561-.78-.325-1.5-.7l-3.2,1.648a1.24,1.24,0,0,1-1.446-.225l0,0-4.623-4.625a1.243,1.243,0,0,1-.185-1.525l1.61-3.126c-.251-.48-.484-.981-.7-1.5l0,0c-.208-.5-.4-1.021-.563-1.556l-3.434-1.1a1.242,1.242,0,0,1-.862-1.181h0v-6.54a1.245,1.245,0,0,1,.962-1.21l3.338-1.07c.166-.531.355-1.049.563-1.552l0,0h0q.319-.771.7-1.5l-1.648-3.2a1.239,1.239,0,0,1,.225-1.446l0,0,4.623-4.625a1.246,1.246,0,0,1,1.525-.183l3.128,1.607q.72-.376,1.5-.7v0q.752-.312,1.557-.563L505,127a1.24,1.24,0,0,1,1.181-.86v0Zm5.636,2.489h-4.733l-1.023,3.194h0a1.241,1.241,0,0,1-.856.818,15.98,15.98,0,0,0-1.909.656l0,0,0,0a16.157,16.157,0,0,0-1.807.89h0a1.24,1.24,0,0,1-1.185.025l-2.981-1.535-3.344,3.344,1.5,2.922a1.24,1.24,0,0,1,.008,1.247,15.949,15.949,0,0,0-.892,1.816v0a15.748,15.748,0,0,0-.641,1.858,1.241,1.241,0,0,1-.83.909l-3.2,1.023v4.731l3.2,1.026h0a1.239,1.239,0,0,1,.815.854,16.41,16.41,0,0,0,.656,1.911h0v0a16.207,16.207,0,0,0,.892,1.809h0a1.24,1.24,0,0,1,.026,1.185l-1.533,2.983,3.344,3.344,2.92-1.5a1.248,1.248,0,0,1,1.249-.006,16.036,16.036,0,0,0,3.672,1.533,1.234,1.234,0,0,1,.907.83l1.023,3.194h4.733l1.023-3.194h0a1.241,1.241,0,0,1,.856-.817,15.913,15.913,0,0,0,1.915-.656,16.154,16.154,0,0,0,1.807-.89l0,0a1.24,1.24,0,0,1,1.185-.028l2.983,1.535,3.342-3.344-1.5-2.92a1.243,1.243,0,0,1-.008-1.249,15.865,15.865,0,0,0,.892-1.809,16.326,16.326,0,0,0,.641-1.862,1.235,1.235,0,0,1,.83-.907l3.2-1.026v-4.731l-3.2-1.023v0a1.231,1.231,0,0,1-.815-.854,15.807,15.807,0,0,0-1.548-3.725h0a1.24,1.24,0,0,1-.025-1.185l1.533-2.983-3.342-3.344-2.922,1.5a1.238,1.238,0,0,1-1.249.006,16.011,16.011,0,0,0-1.809-.89,15.674,15.674,0,0,0-1.862-.641,1.241,1.241,0,0,1-.907-.832l-1.023-3.194Z" transform="translate(-455.118 -65.107)" fill="#673ab7"/>
      <path id="Trazado_776174" data-name="Trazado 776174" d="M503.918,131.056a11.564,11.564,0,1,1-8.173,3.387A11.526,11.526,0,0,1,503.918,131.056Zm6.415,5.145a9.069,9.069,0,1,0,2.659,6.415A9.043,9.043,0,0,0,510.333,136.2Z" transform="translate(-449.585 -59.573)" fill="#673ab7"/>
    </g>
    <g id="Grupo_1054906" data-name="Grupo 1054906" transform="translate(309.309 14102.188)">
      <path id="Trazado_776175" data-name="Trazado 776175" d="M126.646,126.5a1.053,1.053,0,0,1,1.958-.775,35.142,35.142,0,1,1-17.145-18.5,1.052,1.052,0,1,1-.924,1.89,32.709,32.709,0,0,0-7.061-2.514,32.95,32.95,0,1,0,23.171,19.9Z" transform="translate(-60.895 -96.755)" fill="#673ab7"/>
      <path id="Trazado_776176" data-name="Trazado 776176" d="M111.849,119.883a1.055,1.055,0,1,1,1.709-1.238,27.048,27.048,0,1,1-4.453-4.8,1.055,1.055,0,0,1-1.363,1.61,24.916,24.916,0,1,0,4.107,4.432Z" transform="translate(-56.592 -92.452)" fill="#673ab7"/>
      <path id="Trazado_776177" data-name="Trazado 776177" d="M101.485,121.119a1.055,1.055,0,1,1,1.775-1.14,18.856,18.856,0,1,1-4.531-4.89,1.056,1.056,0,0,1-1.272,1.686,16.752,16.752,0,1,0,4.028,4.345Z" transform="translate(-52.29 -88.15)" fill="#673ab7"/>
      <path id="Trazado_776178" data-name="Trazado 776178" d="M90.956,122.365a1.055,1.055,0,1,1,1.932-.849,10.5,10.5,0,0,1,.677,2.109,10.782,10.782,0,0,1,.231,2.208,10.725,10.725,0,1,1-5.657-9.439,1.053,1.053,0,0,1-.992,1.858,8.546,8.546,0,0,0-1.964-.758,8.659,8.659,0,0,0-2.094-.255,8.566,8.566,0,1,0,8.411,6.816,8.355,8.355,0,0,0-.546-1.69Z" transform="translate(-47.987 -83.847)" fill="#ffd54f"/>
      <path id="Trazado_776179" data-name="Trazado 776179" d="M76.261,135.642l33.322-30.873a4.205,4.205,0,0,1,5.908.2l0,0a1.162,1.162,0,0,1,.106.123,4.206,4.206,0,0,1-.308,5.844L81.969,141.8a1.053,1.053,0,0,1-1.486-.057L76.2,137.128a1.051,1.051,0,0,1,.057-1.486Zm34.751-29.327L78.461,136.47l2.85,3.075,32.551-30.158a2.107,2.107,0,0,0,.168-2.9l-.032-.03,0,0-.028-.032a2.111,2.111,0,0,0-2.962-.11Z" transform="translate(-44.011 -96.737)" fill="#673ab7"/>
      <path id="Trazado_776180" data-name="Trazado 776180" d="M88.72,122.359a1.054,1.054,0,0,1-1.947.809l-3.727-8.931A1.053,1.053,0,0,1,83.369,113l13.3-12.327a1.051,1.051,0,0,1,1.686.369l0,0,3.727,8.931a1.055,1.055,0,0,1-1.949.809l-3.145-7.538L85.276,114.1l3.444,8.256Z" transform="translate(-36.1 -100.396)" fill="#673ab7"/>
      <path id="Trazado_776181" data-name="Trazado 776181" d="M87.311,121.156a1.056,1.056,0,1,1,.958-1.881l7.969,4.062,11.715-10.853-7.277-3.71a1.057,1.057,0,0,1,.96-1.884l8.619,4.4,0,0a1.052,1.052,0,0,1,.238,1.709L97.2,125.315a1.059,1.059,0,0,1-1.266.238l-8.621-4.4Z" transform="translate(-31.865 -93.23)" fill="#673ab7"/>
      <path id="Trazado_776182" data-name="Trazado 776182" d="M77.7,136.892a1.056,1.056,0,0,1,2.041.546l-4.476,16.7a1.053,1.053,0,0,1-1.019.784v0H68.46a1.056,1.056,0,0,1-1-1.387l5.02-18.731a1.055,1.055,0,0,1,2.039.544l-4.678,17.459h3.6L77.7,136.892Z" transform="translate(-53.583 -62.617)" fill="#673ab7"/>
      <path id="Trazado_776183" data-name="Trazado 776183" d="M81.658,137.438a1.055,1.055,0,0,1,2.039-.546l4.266,15.918h3.6L86.882,135.35a1.056,1.056,0,0,1,2.041-.544l5.018,18.731a1.056,1.056,0,0,1-1,1.387H87.154v0a1.057,1.057,0,0,1-1.021-.784l-4.474-16.7Z" transform="translate(-37.609 -62.617)" fill="#673ab7"/>
      <path id="Trazado_776184" data-name="Trazado 776184" d="M97.061,141.7a1.056,1.056,0,0,1,0,2.113H72.11a1.056,1.056,0,1,1,0-2.113Zm-23.8-2.2a1.057,1.057,0,0,1,0-2.115H95.906a1.057,1.057,0,0,1,0,2.115Z" transform="translate(-49.483 -58.84)" fill="#673ab7"/>
      <path id="Trazado_776185" data-name="Trazado 776185" d="M81.217,136.706a1.056,1.056,0,1,1,2.113,0v3.686a1.056,1.056,0,1,1-2.113,0Zm0,8a1.056,1.056,0,1,1,2.113,0v4.99a1.057,1.057,0,0,1-1.055,1.057h-5.61a1.058,1.058,0,0,1-1.057-1.057V144.7a1.057,1.057,0,0,1,2.115,0v3.933h3.5V144.7Zm-3.5-4.311a1.057,1.057,0,0,1-2.115,0v-3.686a1.057,1.057,0,0,1,2.115,0Z" transform="translate(-44.366 -60.79)" fill="#673ab7"/>
    </g>
    <g id="Grupo_1054907" data-name="Grupo 1054907" transform="translate(504.803 14114.273)">
      <path id="Trazado_776186" data-name="Trazado 776186" d="M198.048,143.721c11.826,0,22.507-2.06,30.215-5.387,7.32-3.162,11.849-7.383,11.849-11.917s-4.529-8.757-11.849-11.917c-7.708-3.327-18.389-5.387-30.215-5.387s-22.509,2.06-30.217,5.387c-7.32,3.16-11.847,7.383-11.847,11.917s4.527,8.755,11.847,11.917C175.539,141.662,186.22,143.721,198.048,143.721Zm31.41-2.61a58.3,58.3,0,0,1-7.5,2.61h53.424a1.513,1.513,0,1,1,0,3.026H198.048c-12.24,0-23.348-2.153-31.41-5.636-8.451-3.65-13.679-8.836-13.679-14.694s5.228-11.044,13.679-14.694c8.063-3.483,19.171-5.636,31.41-5.636s23.346,2.153,31.41,5.636c8.451,3.65,13.677,8.836,13.677,14.694S237.91,137.461,229.458,141.112Zm45.92,27.9a1.513,1.513,0,1,1,0,3.026H198.048a1.513,1.513,0,1,1,0-3.026Z" transform="translate(-152.958 -106.087)" fill="#673ab7"/>
      <path id="Trazado_776187" data-name="Trazado 776187" d="M152.958,128.372a1.513,1.513,0,1,1,3.026,0c0,4.534,4.527,8.755,11.847,11.917,7.708,3.327,18.389,5.387,30.217,5.387a1.513,1.513,0,0,1,0,3.026c-12.24,0-23.348-2.153-31.41-5.636C158.186,139.416,152.958,134.231,152.958,128.372Z" transform="translate(-152.958 -82.751)" fill="#673ab7"/>
      <path id="Trazado_776188" data-name="Trazado 776188" d="M152.958,116.461a1.513,1.513,0,0,1,3.026,0v25.291a1.513,1.513,0,0,1-3.026,0V116.461Z" transform="translate(-152.958 -96.131)" fill="#673ab7"/>
      <path id="Trazado_776189" data-name="Trazado 776189" d="M194,116.461a1.512,1.512,0,0,1,3.024,0v18.816a1.512,1.512,0,1,1-3.024,0Z" transform="translate(-106.847 -96.131)" fill="#673ab7"/>
      <path id="Trazado_776190" data-name="Trazado 776190" d="M188.1,131.3a44.081,44.081,0,0,0,16.913-3.007c3.916-1.69,6.339-3.882,6.339-6.173s-2.423-4.483-6.339-6.173a49.046,49.046,0,0,0-33.829,0c-3.914,1.69-6.336,3.882-6.336,6.173s2.423,4.483,6.336,6.173A44.093,44.093,0,0,0,188.1,131.3Zm18.107-.229a51.992,51.992,0,0,1-36.216,0c-5.047-2.181-8.169-5.336-8.169-8.95s3.122-6.772,8.169-8.95a51.992,51.992,0,0,1,36.216,0c5.048,2.179,8.169,5.334,8.169,8.95s-3.121,6.77-8.169,8.95Z" transform="translate(-143.005 -101.789)" fill="#ffd54f"/>
      <path id="Trazado_776191" data-name="Trazado 776191" d="M207.282,134.309a1.513,1.513,0,0,1,3.026,0v6.207a1.513,1.513,0,1,1-3.026,0Z" transform="translate(-91.926 -76.079)" fill="#673ab7"/>
      <path id="Trazado_776192" data-name="Trazado 776192" d="M204.668,131.571a1.512,1.512,0,1,1,3.024,0v12.021a1.512,1.512,0,1,1-3.024,0Z" transform="translate(-94.863 -79.155)" fill="#673ab7"/>
      <path id="Trazado_776193" data-name="Trazado 776193" d="M202.036,134.163a1.513,1.513,0,1,1,3.026,0v6.519a1.513,1.513,0,1,1-3.026,0Z" transform="translate(-97.82 -76.245)" fill="#673ab7"/>
      <path id="Trazado_776194" data-name="Trazado 776194" d="M199.4,134.163a1.513,1.513,0,1,1,3.026,0v6.519a1.513,1.513,0,1,1-3.026,0Z" transform="translate(-100.776 -76.245)" fill="#673ab7"/>
      <path id="Trazado_776195" data-name="Trazado 776195" d="M196.539,134.163a1.513,1.513,0,1,1,3.026,0v6.519a1.513,1.513,0,1,1-3.026,0Z" transform="translate(-103.996 -76.245)" fill="#673ab7"/>
      <path id="Trazado_776196" data-name="Trazado 776196" d="M194.139,131.571a1.513,1.513,0,0,1,3.026,0v12.021a1.513,1.513,0,1,1-3.026,0Z" transform="translate(-106.692 -79.155)" fill="#673ab7"/>
      <path id="Trazado_776197" data-name="Trazado 776197" d="M191.508,134.163a1.513,1.513,0,1,1,3.026,0v6.519a1.513,1.513,0,1,1-3.026,0Z" transform="translate(-109.648 -76.245)" fill="#673ab7"/>
      <path id="Trazado_776198" data-name="Trazado 776198" d="M188.876,134.163a1.513,1.513,0,1,1,3.026,0v6.519a1.513,1.513,0,1,1-3.026,0Z" transform="translate(-112.605 -76.245)" fill="#673ab7"/>
      <path id="Trazado_776199" data-name="Trazado 776199" d="M186.011,134.163a1.513,1.513,0,1,1,3.026,0v6.519a1.513,1.513,0,1,1-3.026,0Z" transform="translate(-115.824 -76.245)" fill="#673ab7"/>
      <path id="Trazado_776200" data-name="Trazado 776200" d="M183.611,131.571a1.513,1.513,0,0,1,3.026,0v12.021a1.513,1.513,0,1,1-3.026,0Z" transform="translate(-118.52 -79.155)" fill="#673ab7"/>
      <path id="Trazado_776201" data-name="Trazado 776201" d="M180.979,134.163a1.513,1.513,0,1,1,3.026,0v6.519a1.513,1.513,0,1,1-3.026,0Z" transform="translate(-121.477 -76.245)" fill="#673ab7"/>
      <path id="Trazado_776202" data-name="Trazado 776202" d="M178.348,134.163a1.513,1.513,0,1,1,3.026,0v6.519a1.513,1.513,0,1,1-3.026,0Z" transform="translate(-124.433 -76.245)" fill="#673ab7"/>
      <path id="Trazado_776203" data-name="Trazado 776203" d="M175.483,134.163a1.512,1.512,0,1,1,3.024,0v6.519a1.512,1.512,0,1,1-3.024,0Z" transform="translate(-127.652 -76.245)" fill="#673ab7"/>
      <path id="Trazado_776204" data-name="Trazado 776204" d="M172.258,131.571a1.513,1.513,0,0,1,3.026,0v12.021a1.513,1.513,0,1,1-3.026,0Z" transform="translate(-131.275 -79.155)" fill="#673ab7"/>
      <path id="Trazado_776205" data-name="Trazado 776205" d="M169.627,134.163a1.512,1.512,0,1,1,3.024,0v6.188a1.512,1.512,0,1,1-3.024,0Z" transform="translate(-134.231 -76.245)" fill="#673ab7"/>
      <path id="Trazado_776206" data-name="Trazado 776206" d="M166.995,134.163a1.513,1.513,0,1,1,3.026,0v5.561a1.513,1.513,0,0,1-3.026,0Z" transform="translate(-137.188 -76.245)" fill="#673ab7"/>
      <path id="Trazado_776207" data-name="Trazado 776207" d="M164.13,134.163a1.513,1.513,0,1,1,3.026,0v4.457a1.513,1.513,0,1,1-3.026,0Z" transform="translate(-140.407 -76.245)" fill="#673ab7"/>
      <path id="Trazado_776208" data-name="Trazado 776208" d="M211.409,122.78h8.186a1.513,1.513,0,0,1,1.512,1.512v29.667a1.513,1.513,0,0,1-1.512,1.512h-8.186a1.513,1.513,0,0,1-1.512-1.512V124.292A1.513,1.513,0,0,1,211.409,122.78Zm6.672,3.026h-5.158v26.639h5.158Z" transform="translate(-88.988 -87.333)" fill="#673ab7"/>
    </g>
    <path id="Trazado_776209" data-name="Trazado 776209" d="M290.959,60.494V57.6h6.787V97.077a10.775,10.775,0,1,1-6.787,0V60.494Zm7,43.221a5.1,5.1,0,1,0,1.495,3.606A5.075,5.075,0,0,0,297.958,103.715Z" transform="translate(498.578 13953.715)" fill="#ffd54f"/>
    <path id="Trazado_776210" data-name="Trazado 776210" d="M81.8,60.494V57.6h6.787V97.077a10.775,10.775,0,1,1-6.787,0Zm7,43.221a5.1,5.1,0,1,0,1.493,3.606A5.079,5.079,0,0,0,88.8,103.715Z" transform="translate(263.596 13953.715)" fill="#ffd54f"/>
    <path id="Trazado_776211" data-name="Trazado 776211" d="M186.381,60.494V57.6h6.787V97.077a10.775,10.775,0,1,1-6.787,0V60.494Zm7,43.221a5.1,5.1,0,1,0,1.493,3.606A5.079,5.079,0,0,0,193.38,103.715Z" transform="translate(381.088 13953.715)" fill="#ffd54f"/>
    <path id="Trazado_776212" data-name="Trazado 776212" d="M77.891,34.386V30.993h6.787V80.712H77.891Z" transform="translate(267.509 13923.82)" fill="#ffd54f"/>
    <path id="Trazado_776214" data-name="Trazado 776214" d="M506.9,60.494V57.6h-6.787V97.077a10.769,10.769,0,1,0,6.787,0Zm-7,43.221a5.1,5.1,0,1,1-1.493,3.606A5.084,5.084,0,0,1,499.9,103.715Z" transform="translate(733.563 13953.715)" fill="#ffd54f"/>
    <path id="Trazado_776215" data-name="Trazado 776215" d="M402.325,60.494V57.6h-6.787V97.077a10.775,10.775,0,1,0,6.787,0V60.494Zm-7,43.221a5.1,5.1,0,1,1-1.495,3.606A5.075,5.075,0,0,1,395.326,103.715Z" transform="translate(616.07 13953.715)" fill="#ffd54f"/>
    <path id="Trazado_776216" data-name="Trazado 776216" d="M502.991,34.386V30.993H496.2V80.712h6.787Z" transform="translate(737.474 13923.82)" fill="#ffd54f"/>
    <path id="Trazado_776218" data-name="Trazado 776218" d="M118.767,79.9V19.195h13.55V67.831H158.2V79.9Zm93.1-60.71V31.269H181.647V43.774h27.185V55.326H181.647V67.918h31.179V79.9H168.1V19.195ZM268.149,79.9,262.505,66.79H237.057L231.413,79.9H216.995l26.229-60.71h13.115L282.568,79.9ZM249.824,37.261,242.181,54.89h15.2Zm82.249-18.067H345.62V79.9H332.072L303.151,41.863V79.9H289.6V19.195h12.679l29.79,39.083V19.195ZM403.028,29.7a8.168,8.168,0,0,0-5.341,1.607,5.231,5.231,0,0,0-1.956,4.255,4.811,4.811,0,0,0,2.389,4.213q2.389,1.564,11.029,3.691t13.418,6.383q4.778,4.255,4.778,12.42a16.393,16.393,0,0,1-6.122,13.244Q415.1,80.6,405.113,80.6q-14.419,0-25.97-10.683l8.078-9.9q9.814,8.6,18.151,8.6a9.534,9.534,0,0,0,5.863-1.607,5.159,5.159,0,0,0,2.128-4.343,5.058,5.058,0,0,0-2.257-4.343q-2.258-1.609-8.946-3.257-10.6-2.519-15.5-6.557t-4.907-12.679q0-8.641,6.211-13.331t15.5-4.691a37.246,37.246,0,0,1,12.159,2.085,32.533,32.533,0,0,1,10.6,5.905l-6.861,9.9q-7.9-5.991-16.327-5.992ZM438.9,19.195h13.548V79.9H438.9Zm62.619,0h16.327l-18.933,29.27,20.5,31.44h-16.5l-12.94-19.976L477.112,79.9h-16.33l20.411-31.094-19.02-29.616h16.24l11.552,17.979Zm68.7,10.509a8.172,8.172,0,0,0-5.341,1.607,5.235,5.235,0,0,0-1.954,4.255,4.811,4.811,0,0,0,2.389,4.213q2.386,1.564,11.029,3.691t13.418,6.383q4.778,4.255,4.776,12.42a16.393,16.393,0,0,1-6.122,13.244Q582.288,80.6,572.3,80.6q-14.416,0-25.968-10.683l8.078-9.9q9.814,8.6,18.151,8.6a9.531,9.531,0,0,0,5.861-1.607,5.159,5.159,0,0,0,2.128-4.343,5.058,5.058,0,0,0-2.257-4.343q-2.258-1.609-8.946-3.257-10.594-2.519-15.5-6.557t-4.907-12.679q0-8.641,6.209-13.331t15.5-4.691a37.255,37.255,0,0,1,12.159,2.085A32.533,32.533,0,0,1,593.4,25.8l-6.861,9.9Q578.638,29.7,570.214,29.7Zm35.87-10.509h13.548V79.9H606.084ZM674,48.985h13.635V70.523Q678.6,80.6,662.623,80.6q-13.375,0-22.451-8.859T631.1,49.376a30.209,30.209,0,0,1,9.25-22.536,30.787,30.787,0,0,1,22.32-9.033,33.021,33.021,0,0,1,22.713,8.6l-7.035,10.161a26.828,26.828,0,0,0-7.513-4.905,20.136,20.136,0,0,0-7.426-1.346,17.777,17.777,0,0,0-13.028,5.253q-5.3,5.256-5.3,13.854t5.081,13.764a16.4,16.4,0,0,0,12.114,5.169A23.276,23.276,0,0,0,674,65.661Zm80.076-7.294L737.661,74.866h-8.076L713.258,41.691V79.9h-13.55V19.195h18.326l15.633,33.351,15.72-33.351h18.239V79.9H754.077V41.691ZM825.815,79.9,820.168,66.79H794.723L789.076,79.9H774.66l26.229-60.71H814L840.231,79.9H825.814ZM807.489,37.261,799.846,54.89h15.2Z" transform="translate(313.432 13909.004)" fill="#673ab7"/>
    <path id="Trazado_838781" data-name="Trazado 838781" d="M18,0H154a18,18,0,0,1,18,18V31a18,18,0,0,1-18,18H18A18,18,0,0,1,0,31V18A18,18,0,0,1,18,0Z" transform="translate(1152 14222)" fill="#ffd54f"/>
    <path id="Trazado_838783" data-name="Trazado 838783" d="M18,0H154a18,18,0,0,1,18,18V31a18,18,0,0,1-18,18H18A18,18,0,0,1,0,31V18A18,18,0,0,1,18,0Z" transform="translate(939.789 14222)" fill="#ffd54f"/>
    <path id="Trazado_838785" data-name="Trazado 838785" d="M18,0H154a18,18,0,0,1,18,18V31a18,18,0,0,1-18,18H18A18,18,0,0,1,0,31V18A18,18,0,0,1,18,0Z" transform="translate(696.144 14222)" fill="#ffd54f"/>
    <path id="Trazado_838787" data-name="Trazado 838787" d="M18,0H154a18,18,0,0,1,18,18V31a18,18,0,0,1-18,18H18A18,18,0,0,1,0,31V18A18,18,0,0,1,18,0Z" transform="translate(484.5 14222)" fill="#ffd54f"/>
    <path id="Trazado_838789" data-name="Trazado 838789" d="M18,0H154a18,18,0,0,1,18,18V31a18,18,0,0,1-18,18H18A18,18,0,0,1,0,31V18A18,18,0,0,1,18,0Z" transform="translate(259 14222)" fill="#ffd54f"/>
    <path id="Trazado_838790" data-name="Trazado 838790" d="M9.773,25V7.938h5.25a7.973,7.973,0,0,1,4.025,1.014,7.069,7.069,0,0,1,2.771,2.883,8.892,8.892,0,0,1,1,4.248v.785a8.917,8.917,0,0,1-.979,4.23,7.008,7.008,0,0,1-2.76,2.871A8.033,8.033,0,0,1,15.059,25Zm3.516-14.215V22.176h1.7a3.818,3.818,0,0,0,3.152-1.348,6.09,6.09,0,0,0,1.113-3.855v-.9a6.187,6.187,0,0,0-1.078-3.943,3.8,3.8,0,0,0-3.152-1.342Zm22.348,6.82h-6.75v4.57h7.922V25H25.371V7.938H36.785v2.848h-7.9v4.066h6.75Zm13.5.422h-6.75V25H38.871V7.938H49.98v2.848H42.387v4.406h6.75ZM55.758,25H52.242V7.938h3.516Zm17.133,0H69.375L62.531,13.773V25H59.016V7.938h3.516l6.855,11.25V7.938h3.5ZM79.7,25H76.184V7.938H79.7Zm9.574-6.246h-2.8V25H82.957V7.938H89.3a7.167,7.167,0,0,1,4.664,1.348A4.651,4.651,0,0,1,95.6,13.094a5.249,5.249,0,0,1-.756,2.912,5.155,5.155,0,0,1-2.291,1.857l3.691,6.973V25H92.473Zm-2.8-2.848h2.836a2.9,2.9,0,0,0,2.051-.674,2.408,2.408,0,0,0,.727-1.857,2.578,2.578,0,0,0-.686-1.9,2.849,2.849,0,0,0-2.1-.691H86.473Z" transform="translate(293 14223.213)" fill="#12263f"/>
    <path id="Trazado_838788" data-name="Trazado 838788" d="M22.4,7.938l4.383,12.375L31.143,7.938H35.76V25H32.232V20.336l.352-8.051L27.979,25H25.564L20.971,12.3l.352,8.039V25H17.807V7.938Zm26.7,9.668h-6.75v4.57h7.922V25H38.83V7.938H50.244v2.848h-7.9v4.066H49.1ZM52.33,25V7.938h5.25a7.973,7.973,0,0,1,4.025,1.014,7.069,7.069,0,0,1,2.771,2.883,8.892,8.892,0,0,1,1,4.248v.785a8.917,8.917,0,0,1-.979,4.23,7.008,7.008,0,0,1-2.76,2.871A8.033,8.033,0,0,1,57.615,25Zm3.516-14.215V22.176h1.7A3.818,3.818,0,0,0,60.7,20.828a6.09,6.09,0,0,0,1.113-3.855v-.9a6.187,6.187,0,0,0-1.078-3.943,3.8,3.8,0,0,0-3.152-1.342ZM71.666,25H68.15V7.938h3.516Zm9.574-6.246h-2.8V25H74.924V7.938h6.34a7.167,7.167,0,0,1,4.664,1.348,4.651,4.651,0,0,1,1.641,3.809,5.249,5.249,0,0,1-.756,2.912,5.155,5.155,0,0,1-2.291,1.857l3.691,6.973V25H84.439Zm-2.8-2.848h2.836a2.9,2.9,0,0,0,2.051-.674,2.408,2.408,0,0,0,.727-1.857,2.578,2.578,0,0,0-.686-1.9,2.849,2.849,0,0,0-2.1-.691H78.439Z" transform="translate(518 14223.213)" fill="#12263f"/>
    <path id="Trazado_838786" data-name="Trazado 838786" d="M18.959,21.484H12.795L11.623,25H7.885L14.236,7.938h3.258L23.881,25H20.143Zm-5.215-2.848H18.01L15.865,12.25ZM39.35,25H35.834L28.99,13.773V25H25.475V7.938H28.99l6.855,11.25V7.938h3.5Zm12.7-3.516H45.889L44.717,25H40.979L47.33,7.938h3.258L56.975,25H53.236Zm-5.215-2.848H51.1L48.959,12.25Zm15.246,3.539h7.465V25H58.568V7.938h3.516ZM75.3,25H71.787V7.938H75.3Zm6.984-2.824h8.6V25h-13V22.938L86.33,10.785H77.9V7.938H90.7V9.953Zm20.6-.691H96.725L95.553,25H91.814L98.166,7.938h3.258L107.811,25h-3.738Zm-5.215-2.848h4.266L99.795,12.25Zm18.047.117h-2.8V25H109.4V7.938h6.34a7.167,7.167,0,0,1,4.664,1.348,4.651,4.651,0,0,1,1.641,3.809,5.249,5.249,0,0,1-.756,2.912A5.155,5.155,0,0,1,119,17.863l3.691,6.973V25H118.92Zm-2.8-2.848h2.836a2.9,2.9,0,0,0,2.051-.674,2.408,2.408,0,0,0,.727-1.857,2.578,2.578,0,0,0-.686-1.9,2.849,2.849,0,0,0-2.1-.691H112.92Z" transform="translate(717 14223.213)" fill="#12263f"/>
    <path id="Trazado_838784" data-name="Trazado 838784" d="M15.977,7.938l4.383,12.375L24.719,7.938h4.617V25H25.809V20.336l.352-8.051L21.555,25H19.141L14.547,12.3l.352,8.039V25H11.383V7.938Zm26.7,9.668h-6.75v4.57h7.922V25H32.406V7.938H43.82v2.848h-7.9v4.066h6.75ZM52.785,7.938H56.3V19.75a5.649,5.649,0,0,1-.721,2.877,4.891,4.891,0,0,1-2.033,1.928,6.352,6.352,0,0,1-2.965.68,6.037,6.037,0,0,1-4.219-1.377,5,5,0,0,1-1.512-3.9h3.539a2.743,2.743,0,0,0,.527,1.852,2.11,2.11,0,0,0,1.664.6,2.014,2.014,0,0,0,1.605-.691,2.921,2.921,0,0,0,.6-1.969Zm20.543,8.918a10.3,10.3,0,0,1-.891,4.418,6.707,6.707,0,0,1-2.549,2.93,7.532,7.532,0,0,1-7.588.012A6.773,6.773,0,0,1,59.723,21.3a10.005,10.005,0,0,1-.926-4.354v-.844a10.246,10.246,0,0,1,.908-4.436,6.762,6.762,0,0,1,2.566-2.941,7.521,7.521,0,0,1,7.582,0A6.762,6.762,0,0,1,72.42,11.67a10.217,10.217,0,0,1,.908,4.424Zm-3.562-.773A7.18,7.18,0,0,0,68.8,12a3.395,3.395,0,0,0-5.473-.018,7.1,7.1,0,0,0-.973,4.037v.832a7.27,7.27,0,0,0,.961,4.055,3.365,3.365,0,0,0,5.484.053,7.228,7.228,0,0,0,.961-4.049ZM82.2,18.754H79.4V25H75.883V7.938h6.34a7.167,7.167,0,0,1,4.664,1.348,4.651,4.651,0,0,1,1.641,3.809,5.249,5.249,0,0,1-.756,2.912,5.155,5.155,0,0,1-2.291,1.857l3.691,6.973V25H85.4Zm-2.8-2.848h2.836a2.9,2.9,0,0,0,2.051-.674,2.408,2.408,0,0,0,.727-1.857,2.578,2.578,0,0,0-.686-1.9,2.849,2.849,0,0,0-2.1-.691H79.4Zm21.434,5.578H94.668L93.5,25H89.758L96.109,7.938h3.258L105.754,25h-3.738Zm-5.215-2.848h4.266L97.738,12.25Zm18.047.117h-2.8V25h-3.516V7.938h6.34a7.167,7.167,0,0,1,4.664,1.348,4.651,4.651,0,0,1,1.641,3.809,5.249,5.249,0,0,1-.756,2.912,5.155,5.155,0,0,1-2.291,1.857l3.691,6.973V25h-3.773Zm-2.8-2.848H113.7a2.9,2.9,0,0,0,2.051-.674,2.408,2.408,0,0,0,.727-1.857,2.578,2.578,0,0,0-.686-1.9,2.849,2.849,0,0,0-2.1-.691h-2.824Z" transform="translate(954 14223.213)" fill="#12263f"/>
    <path id="Trazado_838782" data-name="Trazado 838782" d="M22.1,19.316a6.038,6.038,0,0,1-2.033,4.336,7.141,7.141,0,0,1-4.834,1.582,6.421,6.421,0,0,1-5.162-2.209,9.058,9.058,0,0,1-1.881-6.064V15.918a10.228,10.228,0,0,1,.867-4.336,6.5,6.5,0,0,1,2.479-2.877,6.943,6.943,0,0,1,3.744-1,6.956,6.956,0,0,1,4.758,1.582,6.488,6.488,0,0,1,2.086,4.441H18.607a3.563,3.563,0,0,0-.92-2.4,3.407,3.407,0,0,0-2.408-.744,2.987,2.987,0,0,0-2.631,1.26,7.06,7.06,0,0,0-.9,3.908v1.289a7.556,7.556,0,0,0,.838,4.043,2.932,2.932,0,0,0,2.643,1.277,3.471,3.471,0,0,0,2.432-.744,3.361,3.361,0,0,0,.92-2.3Zm16.324-2.461a10.3,10.3,0,0,1-.891,4.418,6.707,6.707,0,0,1-2.549,2.93,7.532,7.532,0,0,1-7.588.012A6.773,6.773,0,0,1,24.818,21.3a10.005,10.005,0,0,1-.926-4.354v-.844A10.246,10.246,0,0,1,24.8,11.67a6.762,6.762,0,0,1,2.566-2.941,7.521,7.521,0,0,1,7.582,0,6.762,6.762,0,0,1,2.566,2.941,10.217,10.217,0,0,1,.908,4.424Zm-3.562-.773A7.18,7.18,0,0,0,33.9,12a3.395,3.395,0,0,0-5.473-.018,7.1,7.1,0,0,0-.973,4.037v.832a7.27,7.27,0,0,0,.961,4.055,3.365,3.365,0,0,0,5.484.053,7.228,7.228,0,0,0,.961-4.049ZM54.854,25H51.338L44.494,13.773V25H40.979V7.938h3.516l6.855,11.25V7.938h3.5ZM70.768,10.785H65.541V25H62.025V10.785H56.869V7.938h13.9Zm8.32,7.969h-2.8V25H72.771V7.938h6.34a7.167,7.167,0,0,1,4.664,1.348,4.651,4.651,0,0,1,1.641,3.809,5.249,5.249,0,0,1-.756,2.912,5.155,5.155,0,0,1-2.291,1.857l3.691,6.973V25H82.287Zm-2.8-2.848h2.836a2.9,2.9,0,0,0,2.051-.674,2.408,2.408,0,0,0,.727-1.857,2.578,2.578,0,0,0-.686-1.9,2.849,2.849,0,0,0-2.1-.691H76.287Zm25.816.949a10.3,10.3,0,0,1-.891,4.418,6.707,6.707,0,0,1-2.549,2.93,7.532,7.532,0,0,1-7.588.012A6.773,6.773,0,0,1,88.5,21.3a10.005,10.005,0,0,1-.926-4.354v-.844a10.246,10.246,0,0,1,.908-4.436,6.762,6.762,0,0,1,2.566-2.941,7.521,7.521,0,0,1,7.582,0A6.762,6.762,0,0,1,101.2,11.67a10.217,10.217,0,0,1,.908,4.424Zm-3.562-.773A7.18,7.18,0,0,0,97.58,12a3.395,3.395,0,0,0-5.473-.018,7.1,7.1,0,0,0-.973,4.037v.832A7.27,7.27,0,0,0,92.1,20.91a3.365,3.365,0,0,0,5.484.053,7.228,7.228,0,0,0,.961-4.049Zm9.633,6.094h7.465V25h-10.98V7.938h3.516Zm19.336-.691h-6.164L120.174,25h-3.738l6.352-17.062h3.258L132.432,25h-3.738Zm-5.215-2.848h4.266l-2.145-6.387Zm18.047.117h-2.8V25h-3.516V7.938h6.34a7.167,7.167,0,0,1,4.664,1.348,4.651,4.651,0,0,1,1.641,3.809,5.249,5.249,0,0,1-.756,2.912,5.155,5.155,0,0,1-2.291,1.857l3.691,6.973V25h-3.773Zm-2.8-2.848h2.836a2.9,2.9,0,0,0,2.051-.674,2.408,2.408,0,0,0,.727-1.857,2.578,2.578,0,0,0-.686-1.9,2.849,2.849,0,0,0-2.1-.691h-2.824Z" transform="translate(1160 14223.213)" fill="#12263f"/>
  </g>
</svg>
