<svg xmlns="http://www.w3.org/2000/svg" xmlns:xlink="http://www.w3.org/1999/xlink" width="161" height="161" viewBox="0 0 161 161">
  <defs>
    <filter id="Elipse_4941" x="0" y="0" width="161" height="161" filterUnits="userSpaceOnUse">
      <feOffset dy="3" input="SourceAlpha"/>
      <feGaussianBlur stdDeviation="3" result="blur"/>
      <feFlood flood-opacity="0.161"/>
      <feComposite operator="in" in2="blur"/>
      <feComposite in="SourceGraphic"/>
    </filter>
  </defs>
  <g id="Grupo_1055548" data-name="Grupo 1055548" transform="translate(-562 -21568.584)">
    <g transform="matrix(1, 0, 0, 1, 562, 21568.58)" filter="url(#Elipse_4941)">
      <circle id="Elipse_4941-2" data-name="Elipse 4941" cx="71.5" cy="71.5" r="71.5" transform="translate(9 6)" fill="#fff"/>
    </g>
    <g id="data" transform="translate(601 21604.584)">
      <path id="Trazado_780935" data-name="Trazado 780935" d="M30.448,0H2.633A2.633,2.633,0,0,0,0,2.633V56.367A2.633,2.633,0,0,0,2.633,59h33.28L46.173,23.087V15.725A13.192,13.192,0,0,0,42.309,6.4L39.776,3.864A13.192,13.192,0,0,0,30.448,0Z" transform="translate(0 0)" fill="#dff6fd"/>
      <path id="Trazado_780936" data-name="Trazado 780936" d="M176.588,6.4l-2.533-2.533A13.192,13.192,0,0,0,164.727,0h-4.81a13.192,13.192,0,0,1,9.328,3.864L171.778,6.4a13.192,13.192,0,0,1,3.864,9.328v24.2l4.81-16.834V15.725A13.192,13.192,0,0,0,176.588,6.4Z" transform="translate(-134.278 0)" fill="#c8effe"/>
      <path id="Trazado_780937" data-name="Trazado 780937" d="M263.777,147.864A13.192,13.192,0,0,0,254.448,144H226.633A2.633,2.633,0,0,0,224,146.633v53.734A2.633,2.633,0,0,0,226.633,203h40.908a2.633,2.633,0,0,0,2.633-2.633V159.725a13.192,13.192,0,0,0-3.864-9.328Z" transform="translate(-188.087 -120.913)" fill="#dff6fd"/>
      <path id="Trazado_780938" data-name="Trazado 780938" d="M77.58,37.13H49.2a1.2,1.2,0,0,1-1.2-1.2V33.2A1.2,1.2,0,0,1,49.2,32H77.58a1.2,1.2,0,0,1,1.2,1.2v2.726A1.2,1.2,0,0,1,77.58,37.13Z" transform="translate(-40.304 -26.87)" fill="#ffd54f"/>
      <path id="Trazado_780939" data-name="Trazado 780939" d="M301.58,181.13H273.2a1.2,1.2,0,0,1-1.2-1.2V177.2a1.2,1.2,0,0,1,1.2-1.2H301.58a1.2,1.2,0,0,1,1.2,1.2v2.725A1.2,1.2,0,0,1,301.58,181.13Z" transform="translate(-228.392 -147.783)" fill="#ffd54f"/>
      <path id="Trazado_780940" data-name="Trazado 780940" d="M270.173,164.19a13.192,13.192,0,0,0-3.864-9.328l-2.533-2.533a13.187,13.187,0,0,0-4.663-3.011l2.241,2.241a13.193,13.193,0,0,1,3.864,9.328v34.421a8.853,8.853,0,0,1-8.853,8.853H224v.671a2.633,2.633,0,0,0,2.633,2.633h40.908a2.633,2.633,0,0,0,2.633-2.633Z" transform="translate(-188.087 -125.378)" fill="#c8effe"/>
      <path id="Trazado_780941" data-name="Trazado 780941" d="M334.218,26.6l-4.8,4.8a.4.4,0,0,0,0,.567l1.409,1.409a.529.529,0,0,1-.27.893l-10.139,2.028a.353.353,0,0,1-.415-.415l2.028-10.139a.529.529,0,0,1,.893-.27l1.409,1.409a.4.4,0,0,0,.567,0l4.8-4.8a.8.8,0,0,1,1.134,0l3.384,3.384A.8.8,0,0,1,334.218,26.6Z" transform="translate(-268.696 -18.345)" fill="#673ab7"/>
      <path id="Trazado_780942" data-name="Trazado 780942" d="M102.083,409.7l4.8-4.8a.4.4,0,0,0,0-.567l-1.409-1.409a.529.529,0,0,1,.27-.893l10.139-2.028a.353.353,0,0,1,.415.415l-2.028,10.139a.529.529,0,0,1-.893.27l-1.409-1.409a.4.4,0,0,0-.567,0l-4.8,4.8a.8.8,0,0,1-1.134,0l-3.384-3.384A.8.8,0,0,1,102.083,409.7Z" transform="translate(-85.52 -335.87)" fill="#673ab7"/>
      <path id="Trazado_780943" data-name="Trazado 780943" d="M196.357,10.261a2.633,2.633,0,0,1-2.633-2.633V5.781A5.781,5.781,0,0,0,187.944,0h2.36a8.258,8.258,0,0,1,5.839,2.419l5.423,5.423a8.258,8.258,0,0,1,2.419,5.839v2.36a5.781,5.781,0,0,0-5.781-5.781Z" transform="translate(-157.812 0)" fill="#f2fbff"/>
      <path id="Trazado_780944" data-name="Trazado 780944" d="M420.357,154.261a2.633,2.633,0,0,1-2.633-2.633v-1.847A5.781,5.781,0,0,0,411.944,144h2.36a8.258,8.258,0,0,1,5.839,2.419l5.423,5.423a8.258,8.258,0,0,1,2.419,5.839v2.36a5.781,5.781,0,0,0-5.781-5.781Z" transform="translate(-345.9 -120.913)" fill="#f2fbff"/>
      <g id="Grupo_1054960" data-name="Grupo 1054960" transform="translate(6.493 16.754)">
        <path id="Trazado_780945" data-name="Trazado 780945" d="M336.789,250.9H313.7a1.2,1.2,0,1,1,0-2.4h23.087a1.2,1.2,0,1,1,0,2.4Z" transform="translate(-268.892 -225.413)" fill="#0055a3"/>
        <path id="Trazado_780946" data-name="Trazado 780946" d="M299.612,282.9H269.426a1.2,1.2,0,1,1,0-2.4h30.185a1.2,1.2,0,0,1,0,2.4Z" transform="translate(-231.714 -252.283)" fill="#0055a3"/>
        <path id="Trazado_780947" data-name="Trazado 780947" d="M297.688,313.7a1.2,1.2,0,0,1-1.2,1.2H265.7a1.2,1.2,0,1,1,0-2.4h30.782A1.2,1.2,0,0,1,297.688,313.7Z" transform="translate(-228.588 -279.153)" fill="#0055a3"/>
        <path id="Trazado_780948" data-name="Trazado 780948" d="M298.249,345.7a1.2,1.2,0,0,1-1.2,1.2h-27.62a1.2,1.2,0,1,1,0-2.4h27.62A1.2,1.2,0,0,1,298.249,345.7Z" transform="translate(-231.714 -306.022)" fill="#0055a3"/>
        <path id="Trazado_780949" data-name="Trazado 780949" d="M336.789,378.9H313.7a1.2,1.2,0,1,1,0-2.4h23.087a1.2,1.2,0,1,1,0,2.4Z" transform="translate(-268.892 -332.892)" fill="#0055a3"/>
        <path id="Trazado_780950" data-name="Trazado 780950" d="M296.485,410.9H265.7a1.2,1.2,0,1,1,0-2.4h30.782a1.2,1.2,0,0,1,0,2.4Z" transform="translate(-228.587 -359.762)" fill="#0055a3"/>
        <path id="Trazado_780951" data-name="Trazado 780951" d="M288.789,442.9H265.7a1.2,1.2,0,1,1,0-2.4h23.087a1.2,1.2,0,0,1,0,2.4Z" transform="translate(-228.587 -386.631)" fill="#0055a3"/>
        <path id="Trazado_780952" data-name="Trazado 780952" d="M99.354,106.9H73.7a1.2,1.2,0,1,1,0-2.4H99.354a1.2,1.2,0,0,1,0,2.4Z" transform="translate(-67.37 -104.5)" fill="#0055a3"/>
        <path id="Trazado_780953" data-name="Trazado 780953" d="M72.485,138.9H41.7a1.2,1.2,0,0,1,0-2.4H72.485a1.2,1.2,0,1,1,0,2.4Z" transform="translate(-40.5 -131.37)" fill="#0055a3"/>
        <path id="Trazado_780954" data-name="Trazado 780954" d="M71.278,170.9H41.7a1.2,1.2,0,0,1,0-2.4H71.278a1.2,1.2,0,1,1,0,2.4Z" transform="translate(-40.5 -158.239)" fill="#0055a3"/>
        <path id="Trazado_780955" data-name="Trazado 780955" d="M99.029,202.9H73.7a1.2,1.2,0,0,1,0-2.4H99.029a1.2,1.2,0,0,1,0,2.4Z" transform="translate(-67.37 -185.109)" fill="#0055a3"/>
        <path id="Trazado_780956" data-name="Trazado 780956" d="M71.278,234.9H41.7a1.2,1.2,0,0,1,0-2.4H71.278a1.2,1.2,0,1,1,0,2.4Z" transform="translate(-40.5 -211.979)" fill="#0055a3"/>
        <path id="Trazado_780957" data-name="Trazado 780957" d="M71.278,266.9H41.7a1.2,1.2,0,1,1,0-2.4H71.278a1.2,1.2,0,1,1,0,2.4Z" transform="translate(-40.5 -238.848)" fill="#0055a3"/>
        <path id="Trazado_780958" data-name="Trazado 780958" d="M64.789,298.9H41.7a1.2,1.2,0,0,1,0-2.4H64.789a1.2,1.2,0,0,1,0,2.4Z" transform="translate(-40.5 -265.718)" fill="#0055a3"/>
      </g>
      <path id="Trazado_780959" data-name="Trazado 780959" d="M231.628,179.913a2.633,2.633,0,0,0,2.633-2.633V144h-7.628A2.633,2.633,0,0,0,224,146.633v33.28Z" transform="translate(-188.087 -120.913)" fill="#01c0fa"/>
      <path id="Trazado_780960" data-name="Trazado 780960" d="M244.213,144v33.28a2.633,2.633,0,0,1-2.633,2.633h4.81a2.633,2.633,0,0,0,2.633-2.633V144Z" transform="translate(-202.849 -120.913)" fill="#08a9f1"/>
      <g id="Grupo_1054961" data-name="Grupo 1054961" transform="translate(35.913 23.087)">
        <path id="Trazado_780961" data-name="Trazado 780961" d="M224,156.817l10.261-11.05V144H232.62L224,153.283Z" transform="translate(-224 -144)" fill="#0290cf"/>
        <path id="Trazado_780962" data-name="Trazado 780962" d="M234.261,288.055,224,299.105v1.767h1.641l8.62-9.283Z" transform="translate(-224 -264.96)" fill="#0290cf"/>
        <path id="Trazado_780963" data-name="Trazado 780963" d="M234.261,239.9v-3.534L224,247.412v3.534Z" transform="translate(-224 -221.554)" fill="#0290cf"/>
        <path id="Trazado_780964" data-name="Trazado 780964" d="M234.261,188.2V184.67L224,195.72v3.534Z" transform="translate(-224 -178.15)" fill="#0290cf"/>
      </g>
      <path id="Trazado_780965" data-name="Trazado 780965" d="M258,296.769l4.81-5.18v-3.534l-4.81,5.18Z" transform="translate(-216.636 -241.873)" fill="#017bae"/>
      <path id="Trazado_780966" data-name="Trazado 780966" d="M258,245.076l4.81-5.18v-3.534l-4.81,5.18Z" transform="translate(-216.636 -198.468)" fill="#017bae"/>
      <path id="Trazado_780967" data-name="Trazado 780967" d="M258,193.384l4.81-5.18V184.67L258,189.85Z" transform="translate(-216.636 -155.063)" fill="#017bae"/>
      <path id="Trazado_780968" data-name="Trazado 780968" d="M261.169,144,258,147.412v3.534l4.81-5.18V144Z" transform="translate(-216.636 -120.913)" fill="#017bae"/>
    </g>
  </g>
</svg>
