<svg xmlns="http://www.w3.org/2000/svg" width="121" height="108.484" viewBox="0 0 121 108.484">
  <g id="dieta" transform="translate(-24 -48)">
    <path id="Trazado_781017" data-name="Trazado 781017" d="M167.965,116.845v39.638H128.328v-8.345h-16.69v8.345H72V116.845C78.259,85.552,88.69,64.69,88.69,64.69L82.431,48h75.1l-6.259,16.69S161.707,85.552,167.965,116.845Z" transform="translate(-35.483)" fill="#f5cbaa"/>
    <path id="Trazado_781018" data-name="Trazado 781018" d="M167.965,264.135c-16.69,6.259-39.638,31.293-39.638,31.293h-16.69S88.69,270.394,72,264.135c1.207-6.042,2.571-11.7,3.987-16.885a113.161,113.161,0,0,0,44,8.54,113.161,113.161,0,0,0,44-8.54C165.394,252.439,166.758,258.093,167.965,264.135Z" transform="translate(-35.483 -147.29)" fill="#fc9495"/>
    <circle id="Elipse_4945" data-name="Elipse 4945" cx="2.5" cy="2.5" r="2.5" transform="translate(82 79)" fill="#cfac90"/>
    <path id="Trazado_781019" data-name="Trazado 781019" d="M332.517,227.448H320V144h6.259l6.259,8.345Z" transform="translate(-218.81 -70.966)" fill="#fde575"/>
    <path id="Trazado_781020" data-name="Trazado 781020" d="M34.431,120.345H24V112H34.431l2.086,4.172Z" transform="translate(0 -47.31)" fill="#e74444"/>
    <path id="Trazado_781021" data-name="Trazado 781021" d="M50.083,108.861a2.086,2.086,0,0,1-1.864-3.02l3.706-7.411-3.706-7.412a2.086,2.086,0,1,1,3.732-1.866L56.123,97.5a2.086,2.086,0,0,1,0,1.866l-4.172,8.345A2.086,2.086,0,0,1,50.083,108.861Z" transform="translate(-17.74 -29.568)" fill="#c43333"/>
    <path id="Trazado_781022" data-name="Trazado 781022" d="M442.086,112.345h10.431V104H442.086L440,108.172Z" transform="translate(-307.517 -41.397)" fill="#e74444"/>
    <path id="Trazado_781023" data-name="Trazado 781023" d="M438.26,100.859a2.086,2.086,0,0,1-1.867-1.154l-4.172-8.345a2.086,2.086,0,0,1,0-1.866l4.172-8.345a2.086,2.086,0,1,1,3.732,1.866l-3.706,7.412,3.706,7.412a2.086,2.086,0,0,1-1.864,3.019Z" transform="translate(-301.604 -23.652)" fill="#c43333"/>
    <path id="Trazado_781024" data-name="Trazado 781024" d="M112,96h75.1v12.517H112Z" transform="translate(-65.052 -35.483)" fill="#fde575"/>
    <path id="Trazado_781025" data-name="Trazado 781025" d="M240,96h8.345v12.517H240Z" transform="translate(-159.672 -35.483)" fill="#99a2a7"/>
    <g id="Grupo_1054971" data-name="Grupo 1054971" transform="translate(53.207 60.517)">
      <path id="Trazado_781026" data-name="Trazado 781026" d="M136,96v2.086a2.086,2.086,0,1,0,4.172,0V96Z" transform="translate(-136 -96)" fill="#c7b45c"/>
      <path id="Trazado_781027" data-name="Trazado 781027" d="M168,96v4.172a2.086,2.086,0,1,0,4.172,0V96Z" transform="translate(-159.655 -96)" fill="#c7b45c"/>
      <path id="Trazado_781028" data-name="Trazado 781028" d="M200,96v2.086a2.086,2.086,0,0,0,4.172,0V96Z" transform="translate(-183.31 -96)" fill="#c7b45c"/>
      <path id="Trazado_781029" data-name="Trazado 781029" d="M328,96v2.086a2.086,2.086,0,1,0,4.172,0V96Z" transform="translate(-277.931 -96)" fill="#c7b45c"/>
      <path id="Trazado_781030" data-name="Trazado 781030" d="M360,96v4.172a2.086,2.086,0,1,0,4.172,0V96Z" transform="translate(-301.586 -96)" fill="#c7b45c"/>
      <path id="Trazado_781031" data-name="Trazado 781031" d="M296,96v4.172a2.086,2.086,0,1,0,4.172,0V96Z" transform="translate(-254.276 -96)" fill="#c7b45c"/>
      <path id="Trazado_781032" data-name="Trazado 781032" d="M320,204.172h4.172a2.086,2.086,0,0,0,0-4.172H320Z" transform="translate(-272.017 -172.879)" fill="#c7b45c"/>
      <path id="Trazado_781033" data-name="Trazado 781033" d="M324.172,170.086a2.086,2.086,0,0,1-2.086,2.086H320V168h2.086A2.086,2.086,0,0,1,324.172,170.086Z" transform="translate(-272.017 -149.224)" fill="#c7b45c"/>
      <path id="Trazado_781034" data-name="Trazado 781034" d="M324.172,234.086a2.086,2.086,0,0,1-2.086,2.086H320V232h2.086A2.086,2.086,0,0,1,324.172,234.086Z" transform="translate(-272.017 -196.534)" fill="#c7b45c"/>
      <path id="Trazado_781035" data-name="Trazado 781035" d="M320,268.172h4.172a2.086,2.086,0,0,0,0-4.172H320Z" transform="translate(-272.017 -220.19)" fill="#c7b45c"/>
      <path id="Trazado_781036" data-name="Trazado 781036" d="M324.172,298.086a2.086,2.086,0,0,1-2.086,2.086H320V296h2.086A2.086,2.086,0,0,1,324.172,298.086Z" transform="translate(-272.017 -243.845)" fill="#c7b45c"/>
      <path id="Trazado_781037" data-name="Trazado 781037" d="M320,332.172h4.172a2.086,2.086,0,1,0,0-4.172H320Z" transform="translate(-272.017 -267.5)" fill="#c7b45c"/>
      <path id="Trazado_781038" data-name="Trazado 781038" d="M324.172,362.086a2.086,2.086,0,0,1-2.086,2.086H320V360h2.086A2.086,2.086,0,0,1,324.172,362.086Z" transform="translate(-272.017 -291.155)" fill="#c7b45c"/>
      <path id="Trazado_781039" data-name="Trazado 781039" d="M320,396.172h4.172a2.086,2.086,0,1,0,0-4.172H320Z" transform="translate(-272.017 -314.81)" fill="#c7b45c"/>
      <path id="Trazado_781040" data-name="Trazado 781040" d="M324.172,426.086a2.086,2.086,0,0,1-2.086,2.086H320V424h2.086A2.086,2.086,0,0,1,324.172,426.086Z" transform="translate(-272.017 -338.466)" fill="#c7b45c"/>
    </g>
  </g>
</svg>
