<svg id="Grupo_1054942" data-name="Grupo 1054942" xmlns="http://www.w3.org/2000/svg" xmlns:xlink="http://www.w3.org/1999/xlink" width="611.207" height="57.398" viewBox="0 0 611.207 57.398">
  <defs>
    <clipPath id="clip-path">
      <rect id="Rectángulo_362296" data-name="Rectángulo 362296" width="611.207" height="57.399" fill="none" stroke="#895cd8" stroke-width="1"/>
    </clipPath>
  </defs>
  <g id="Grupo_1054941" data-name="Grupo 1054941" transform="translate(0 0)" clip-path="url(#clip-path)">
    <path id="Trazado_780892" data-name="Trazado 780892" d="M41.32,28.706A12.7,12.7,0,1,1,28.619,16,12.7,12.7,0,0,1,41.32,28.706Z" transform="translate(-6.937 -6.974)" fill="none" stroke="#895cd8" stroke-linecap="round" stroke-linejoin="round" stroke-width="2.126"/>
    <path id="Trazado_780893" data-name="Trazado 780893" d="M43.229,22.233c0,2.583-4.423,4.267-5.355,6.514-.965,2.329.934,6.64-.82,8.394s-6.065-.146-8.394.82c-2.246.932-3.931,5.355-6.514,5.355s-4.268-4.423-6.514-5.355C13.3,37,8.993,38.9,7.238,37.141s.146-6.065-.82-8.394c-.931-2.246-5.355-3.931-5.355-6.514s4.424-4.267,5.355-6.514c.966-2.329-.934-6.64.82-8.394s6.066.146,8.394-.82c2.246-.932,3.931-5.355,6.514-5.355S26.414,5.573,28.66,6.5c2.329.965,6.639-.934,8.394.82s-.145,6.065.82,8.394C38.806,17.965,43.229,19.65,43.229,22.233Z" transform="translate(-0.463 -0.501)" fill="none" stroke="#895cd8" stroke-linecap="round" stroke-linejoin="round" stroke-width="2.126"/>
    <path id="Trazado_780894" data-name="Trazado 780894" d="M24.01,69.346l-2.87,10.145-2.862-5.225L13.1,77.216l3.111-10.993" transform="translate(-5.709 -28.856)" fill="none" stroke="#895cd8" stroke-linecap="round" stroke-linejoin="round" stroke-width="2.126"/>
    <path id="Trazado_780895" data-name="Trazado 780895" d="M53.695,66.312l3.1,10.943-5.174-2.949-2.863,5.225L45.645,68.55" transform="translate(-19.89 -28.895)" fill="none" stroke="#895cd8" stroke-linecap="round" stroke-linejoin="round" stroke-width="2.126"/>
    <path id="Trazado_780896" data-name="Trazado 780896" d="M27.47,35.218l4.222,4.222h0L39.835,31.3" transform="translate(-11.97 -13.639)" fill="none" stroke="#895cd8" stroke-linecap="round" stroke-linejoin="round" stroke-width="2.126"/>
    <path id="Trazado_780897" data-name="Trazado 780897" d="M210.136,41.263a5.542,5.542,0,1,1-.077,8.163" transform="translate(-91.532 -17.359)" fill="none" stroke="#895cd8" stroke-linecap="round" stroke-linejoin="round" stroke-width="2.126"/>
    <path id="Trazado_780898" data-name="Trazado 780898" d="M205.654,48.673a15.481,15.481,0,0,0,3.118.99v3.277a1.244,1.244,0,0,0,1.247,1.246h3.823a1.244,1.244,0,0,0,1.246-1.246V49.664a15.665,15.665,0,0,0,5.463-2.269l2.32,2.32a1.245,1.245,0,0,0,1.763,0l2.706-2.7a1.252,1.252,0,0,0,0-1.763l-2.323-2.323a15.588,15.588,0,0,0,2.265-5.463h3.277a1.244,1.244,0,0,0,1.246-1.247V32.392a1.244,1.244,0,0,0-1.246-1.246h-3.277a15.654,15.654,0,0,0-2.269-5.463l2.32-2.32a1.246,1.246,0,0,0,0-1.763l-2.7-2.706a1.252,1.252,0,0,0-1.763,0l-2.324,2.323a15.579,15.579,0,0,0-5.463-2.265V15.673a1.244,1.244,0,0,0-1.246-1.246h-3.823a1.245,1.245,0,0,0-1.247,1.246v3.281a15.5,15.5,0,0,0-3.111.986" transform="translate(-89.612 -6.286)" fill="none" stroke="#895cd8" stroke-linecap="round" stroke-linejoin="round" stroke-width="2.126"/>
    <circle id="Elipse_4938" data-name="Elipse 4938" cx="6.208" cy="6.208" r="6.208" transform="translate(97.143 0.6)" fill="none" stroke="#895cd8" stroke-linecap="round" stroke-linejoin="round" stroke-width="2.126"/>
    <path id="Trazado_780899" data-name="Trazado 780899" d="M167.362,53.566a10.923,10.923,0,0,1-3.6-8.112V38.008a10.948,10.948,0,0,1,21.9,0v7.446A10.909,10.909,0,0,1,182,53.619" transform="translate(-71.359 -11.792)" fill="none" stroke="#895cd8" stroke-linecap="round" stroke-linejoin="round" stroke-width="2.126"/>
    <line id="Línea_303" data-name="Línea 303" y2="20.746" transform="translate(96.002 29.939)" fill="none" stroke="#895cd8" stroke-linecap="round" stroke-linejoin="round" stroke-width="2.126"/>
    <line id="Línea_304" data-name="Línea 304" y1="6.076" transform="translate(103.323 44.608)" fill="none" stroke="#895cd8" stroke-linecap="round" stroke-linejoin="round" stroke-width="2.126"/>
    <line id="Línea_305" data-name="Línea 305" y2="20.746" transform="translate(110.642 29.939)" fill="none" stroke="#895cd8" stroke-linecap="round" stroke-linejoin="round" stroke-width="2.126"/>
    <path id="Trazado_780900" data-name="Trazado 780900" d="M356.843,51.148H329.8V11.526a1.417,1.417,0,0,1,.731-1.24,1.4,1.4,0,0,1,.683-.175h7.63V2.48a1.416,1.416,0,0,1,1.417-1.417h28.246V27.886" transform="translate(-143.709 -0.463)" fill="none" stroke="#895cd8" stroke-linecap="round" stroke-linejoin="round" stroke-width="2.126"/>
    <line id="Línea_306" data-name="Línea 306" y1="5.139" x2="5.139" transform="translate(186.826 4.684)" fill="none" stroke="#895cd8" stroke-linecap="round" stroke-linejoin="round" stroke-width="2.126"/>
    <line id="Línea_307" data-name="Línea 307" x2="16.567" transform="translate(202.172 11.104)" fill="none" stroke="#895cd8" stroke-linecap="round" stroke-linejoin="round" stroke-width="2.126"/>
    <line id="Línea_308" data-name="Línea 308" x2="26.583" transform="translate(192.155 18.804)" fill="none" stroke="#895cd8" stroke-linecap="round" stroke-linejoin="round" stroke-width="2.126"/>
    <line id="Línea_309" data-name="Línea 309" x2="26.583" transform="translate(192.155 26.505)" fill="none" stroke="#895cd8" stroke-linecap="round" stroke-linejoin="round" stroke-width="2.126"/>
    <line id="Línea_310" data-name="Línea 310" x2="19.022" transform="translate(192.155 34.205)" fill="none" stroke="#895cd8" stroke-linecap="round" stroke-linejoin="round" stroke-width="2.126"/>
    <line id="Línea_311" data-name="Línea 311" x2="19.022" transform="translate(192.155 41.906)" fill="none" stroke="#895cd8" stroke-linecap="round" stroke-linejoin="round" stroke-width="2.126"/>
    <circle id="Elipse_4939" data-name="Elipse 4939" cx="6.649" cy="6.649" r="6.649" transform="translate(218.806 35.018)" fill="none" stroke="#895cd8" stroke-linecap="round" stroke-linejoin="round" stroke-width="2.126"/>
    <path id="Trazado_780901" data-name="Trazado 780901" d="M402.075,65.32c0,1.353-2.316,2.234-2.8,3.41-.506,1.219.489,3.476-.429,4.394s-3.176-.076-4.395.429c-1.176.488-2.058,2.8-3.41,2.8s-2.234-2.316-3.41-2.8c-1.219-.506-3.476.489-4.394-.429s.076-3.176-.429-4.394c-.488-1.176-2.8-2.058-2.8-3.41s2.316-2.234,2.8-3.41c.505-1.219-.489-3.476.429-4.394s3.175.076,4.394-.429c1.176-.488,2.058-2.8,3.41-2.8s2.234,2.316,3.41,2.8c1.219.506,3.476-.489,4.395.429s-.076,3.176.429,4.394C399.76,63.086,402.075,63.968,402.075,65.32Z" transform="translate(-165.582 -23.653)" fill="none" stroke="#895cd8" stroke-linecap="round" stroke-linejoin="round" stroke-width="2.126"/>
    <path id="Trazado_780902" data-name="Trazado 780902" d="M392.014,89.986l-1.5,5.311-1.5-2.736L386.3,94.105l1.629-5.755" transform="translate(-168.329 -38.498)" fill="none" stroke="#895cd8" stroke-linecap="round" stroke-linejoin="round" stroke-width="2.126"/>
    <path id="Trazado_780903" data-name="Trazado 780903" d="M407.555,88.4l1.621,5.729-2.709-1.544-1.5,2.736-1.628-5.749" transform="translate(-175.753 -38.518)" fill="none" stroke="#895cd8" stroke-linecap="round" stroke-linejoin="round" stroke-width="2.126"/>
    <path id="Trazado_780904" data-name="Trazado 780904" d="M393.826,72.119l2.211,2.211h0l4.262-4.262" transform="translate(-171.607 -30.531)" fill="none" stroke="#895cd8" stroke-linecap="round" stroke-linejoin="round" stroke-width="2.126"/>
    <rect id="Rectángulo_362293" data-name="Rectángulo 362293" width="14.209" height="5.569" transform="translate(288.24 45.116)" fill="none" stroke="#895cd8" stroke-linecap="round" stroke-linejoin="round" stroke-width="2.126"/>
    <path id="Trazado_780905" data-name="Trazado 780905" d="M508.091,56.725c-.744-.973-3.607-5.681-3.607-5.681-.871-2.051-.273-2.891.539-3.219a2.179,2.179,0,0,1,2.519.744l4.1,5.367s4.237.5,5.7,2.613c.937,1.347,1.548,6.078,1.867,9.316" transform="translate(-219.638 -20.776)" fill="none" stroke="#895cd8" stroke-linecap="round" stroke-linejoin="round" stroke-width="2.126"/>
    <path id="Trazado_780906" data-name="Trazado 780906" d="M508.463,58.027a.57.57,0,0,1,0-.062c-.039-2.047-1.908-3.4-3.665-4.22a10.713,10.713,0,0,1-4.975-4.687l-2.853-5.41-.159-13.936c2.983-.225,3.454,1.724,3.454,1.724l.955,8.965" transform="translate(-216.481 -12.939)" fill="none" stroke="#895cd8" stroke-linecap="round" stroke-linejoin="round" stroke-width="2.126"/>
    <rect id="Rectángulo_362294" data-name="Rectángulo 362294" width="14.209" height="5.569" transform="translate(306.896 45.116)" fill="none" stroke="#895cd8" stroke-linecap="round" stroke-linejoin="round" stroke-width="2.126"/>
    <path id="Trazado_780907" data-name="Trazado 780907" d="M548.99,65.864c.319-3.238.93-7.968,1.867-9.316,1.465-2.11,5.7-2.613,5.7-2.613l4.1-5.366a2.179,2.179,0,0,1,2.519-.744c.813.328,1.41,1.169.54,3.22,0,0-2.864,4.707-3.608,5.68" transform="translate(-239.219 -20.776)" fill="none" stroke="#895cd8" stroke-linecap="round" stroke-linejoin="round" stroke-width="2.126"/>
    <path id="Trazado_780908" data-name="Trazado 780908" d="M569.688,40.4l.955-8.964s.471-1.95,3.453-1.724l-.158,13.935-2.853,5.41a10.717,10.717,0,0,1-4.975,4.687c-1.756.82-3.626,2.173-3.665,4.22a.545.545,0,0,1,0,.062" transform="translate(-245.081 -12.939)" fill="none" stroke="#895cd8" stroke-linecap="round" stroke-linejoin="round" stroke-width="2.126"/>
    <path id="Trazado_780909" data-name="Trazado 780909" d="M528.784,30.164c14.464,0,14.464-24.692,14.464-24.692-5.991,0-14.464-4.236-14.464-4.236h-.01S520.3,5.472,514.31,5.472c0,0,0,24.692,14.464,24.692" transform="translate(-224.107 -0.539)" fill="none" stroke="#895cd8" stroke-linecap="round" stroke-linejoin="round" stroke-width="2.126"/>
    <path id="Trazado_780910" data-name="Trazado 780910" d="M527.549,23.141l4.779,4.778,9.211-9.211" transform="translate(-229.876 -8.152)" fill="none" stroke="#895cd8" stroke-linecap="round" stroke-linejoin="round" stroke-width="2.126"/>
    <path id="Trazado_780911" data-name="Trazado 780911" d="M668.1,30.425l5.244,3.027v.005l-10.048,17.4h-.005l-5.243-3.027,0-.005,10.048-17.4Z" transform="translate(-286.738 -13.257)" fill="none" stroke="#895cd8" stroke-linecap="round" stroke-linejoin="round" stroke-width="2.126"/>
    <path id="Trazado_780912" data-name="Trazado 780912" d="M732.065,30.187l-5.244,3.027v.005l10.048,17.4h.005l5.243-3.027,0-.005-10.048-17.4Z" transform="translate(-316.707 -13.154)" fill="none" stroke="#895cd8" stroke-linecap="round" stroke-linejoin="round" stroke-width="2.126"/>
    <path id="Trazado_780913" data-name="Trazado 780913" d="M712,40.406a6.865,6.865,0,0,1-4.677.51c-2.547-.67-9.381-1.2-13.4.206-3.25,1.838-6.2,7.668-4.155,8.706s7-5.059,8.543-4.557c1.433.467,12.79,7.459,15.638,10.059a.849.849,0,0,0,1.093.046,34.693,34.693,0,0,1,3.973-2.821" transform="translate(-300.267 -17.533)" fill="none" stroke="#895cd8" stroke-linecap="round" stroke-linejoin="round" stroke-width="2.126"/>
    <path id="Trazado_780914" data-name="Trazado 780914" d="M702.4,84.089s4.523,1.818,6.131,1.307,2.306-2.744,2.312-2.764h0l-5.98-2.714" transform="translate(-306.067 -34.823)" fill="none" stroke="#895cd8" stroke-linecap="round" stroke-linejoin="round" stroke-width="2.126"/>
    <path id="Trazado_780915" data-name="Trazado 780915" d="M714.551,79.468c2.706,1.754,3.75-2.3,3.756-2.324h0l-7.4-4.486" transform="translate(-309.773 -31.66)" fill="none" stroke="#895cd8" stroke-linecap="round" stroke-linejoin="round" stroke-width="2.126"/>
    <path id="Trazado_780916" data-name="Trazado 780916" d="M718.993,73.465c4.222,1.649,4.232-2.719,4.232-2.737h0l-8.212-4.979" transform="translate(-311.562 -28.65)" fill="none" stroke="#895cd8" stroke-linecap="round" stroke-linejoin="round" stroke-width="2.126"/>
    <path id="Trazado_780917" data-name="Trazado 780917" d="M725.926,67.584c1.7,1.03,2.651.582,3.183-.248a2.837,2.837,0,0,0-.78-3.812l-6.039-4.336" transform="translate(-314.733 -25.791)" fill="none" stroke="#895cd8" stroke-linecap="round" stroke-linejoin="round" stroke-width="2.126"/>
    <line id="Línea_312" data-name="Línea 312" x2="3.22" y2="3.682" transform="translate(378.44 34.339)" fill="none" stroke="#895cd8" stroke-linecap="round" stroke-linejoin="round" stroke-width="2.126"/>
    <path id="Trazado_780918" data-name="Trazado 780918" d="M682.593,40.238a14.361,14.361,0,0,0,6.616,2.4" transform="translate(-297.435 -17.533)" fill="none" stroke="#895cd8" stroke-linecap="round" stroke-linejoin="round" stroke-width="2.126"/>
    <path id="Trazado_780919" data-name="Trazado 780919" d="M679.15,65.606h0a1.765,1.765,0,0,1,.3,2.477l-1.876,2.394A1.764,1.764,0,0,1,674.8,68.3l1.876-2.394A1.764,1.764,0,0,1,679.15,65.606Z" transform="translate(-293.875 -28.424)" fill="none" stroke="#895cd8" stroke-linecap="round" stroke-linejoin="round" stroke-width="2.126"/>
    <path id="Trazado_780920" data-name="Trazado 780920" d="M699.381,79.541h0a2.069,2.069,0,0,1,.353,2.9l-1.5,1.914a2.069,2.069,0,1,1-3.257-2.553l1.5-1.913A2.069,2.069,0,0,1,699.381,79.541Z" transform="translate(-302.639 -34.467)" fill="none" stroke="#895cd8" stroke-linecap="round" stroke-linejoin="round" stroke-width="2.126"/>
    <path id="Trazado_780921" data-name="Trazado 780921" d="M686.552,66.347h0a2.447,2.447,0,0,1,.417,3.435l-3.023,3.858a2.447,2.447,0,0,1-3.852-3.018l3.023-3.858A2.447,2.447,0,0,1,686.552,66.347Z" transform="translate(-296.119 -28.683)" fill="none" stroke="#895cd8" stroke-linecap="round" stroke-linejoin="round" stroke-width="2.126"/>
    <path id="Trazado_780922" data-name="Trazado 780922" d="M693.283,73.228h0a2.073,2.073,0,0,1,.353,2.91l-2.561,3.269a2.073,2.073,0,0,1-3.264-2.557l2.561-3.269A2.074,2.074,0,0,1,693.283,73.228Z" transform="translate(-299.517 -31.716)" fill="none" stroke="#895cd8" stroke-linecap="round" stroke-linejoin="round" stroke-width="2.126"/>
    <path id="Trazado_780923" data-name="Trazado 780923" d="M708.2,9.245a8.182,8.182,0,1,1-8.182-8.182A8.182,8.182,0,0,1,708.2,9.245Z" transform="translate(-301.461 -0.463)" fill="none" stroke="#895cd8" stroke-linecap="round" stroke-linejoin="round" stroke-width="2.126"/>
    <path id="Trazado_780924" data-name="Trazado 780924" d="M706.889,11.063a2.178,2.178,0,0,0-2.373-2.106,2.929,2.929,0,0,0-1.81.557,1.64,1.64,0,0,0-.561,1.917,2.092,2.092,0,0,0,2.2,1.241c2.609,0,2.544,1.635,2.544,1.635a2.178,2.178,0,0,1-2.373,2.106c-1.648,0-2.525-.986-2.525-1.441" transform="translate(-305.888 -3.903)" fill="none" stroke="#895cd8" stroke-linecap="round" stroke-linejoin="round" stroke-width="2.126"/>
    <line id="Línea_313" data-name="Línea 313" y1="1.095" transform="translate(398.457 3.963)" fill="none" stroke="#895cd8" stroke-linecap="round" stroke-linejoin="round" stroke-width="2.126"/>
    <line id="Línea_314" data-name="Línea 314" y1="1.092" transform="translate(398.457 12.508)" fill="none" stroke="#895cd8" stroke-linecap="round" stroke-linejoin="round" stroke-width="2.126"/>
    <path id="Trazado_780925" data-name="Trazado 780925" d="M869.613,37.937V53.124H819.2V14.849h37.889" transform="translate(-356.96 -6.471)" fill="none" stroke="#895cd8" stroke-linecap="round" stroke-linejoin="round" stroke-width="2.126"/>
    <path id="Trazado_780926" data-name="Trazado 780926" d="M867.735,37.725V51.7H833.793V25.933h29.653" transform="translate(-363.32 -11.3)" fill="none" stroke="#895cd8" stroke-linecap="round" stroke-linejoin="round" stroke-width="2.126"/>
    <line id="Línea_315" data-name="Línea 315" x2="15.494" transform="translate(479.698 20.54)" fill="none" stroke="#895cd8" stroke-linecap="round" stroke-linejoin="round" stroke-width="2.126"/>
    <line id="Línea_316" data-name="Línea 316" x2="23.515" transform="translate(475.688 26.689)" fill="none" stroke="#895cd8" stroke-linecap="round" stroke-linejoin="round" stroke-width="2.126"/>
    <line id="Línea_317" data-name="Línea 317" x2="23.515" transform="translate(475.688 33.908)" fill="none" stroke="#895cd8" stroke-linecap="round" stroke-linejoin="round" stroke-width="2.126"/>
    <path id="Trazado_780927" data-name="Trazado 780927" d="M910.638,17.2c0,.681-.662,1.279-.807,1.916-.15.658.184,1.483-.1,2.076s-1.148.855-1.561,1.373-.472,1.411-.992,1.826-1.4.272-2,.563-1.029,1.065-1.687,1.215c-.638.145-1.366-.365-2.047-.365s-1.41.51-2.047.365c-.658-.15-1.094-.929-1.687-1.215s-1.483-.149-2-.563-.577-1.306-.993-1.826-1.27-.77-1.561-1.373.048-1.419-.1-2.076c-.145-.637-.807-1.235-.807-1.916s.662-1.279.807-1.916c.15-.658-.184-1.483.1-2.076s1.148-.855,1.561-1.373.472-1.411.993-1.826,1.4-.272,2-.563,1.029-1.065,1.687-1.215c.637-.145,1.366.365,2.047.365s1.409-.51,2.047-.365c.658.15,1.093.929,1.687,1.215s1.483.149,2,.563.577,1.306.992,1.826,1.27.77,1.561,1.373-.048,1.419.1,2.076C909.976,15.925,910.638,16.522,910.638,17.2Z" transform="translate(-388.788 -3.577)" fill="none" stroke="#895cd8" stroke-linecap="round" stroke-linejoin="round" stroke-width="2.126"/>
    <path id="Trazado_780928" data-name="Trazado 780928" d="M909.811,19.854a5.563,5.563,0,1,1-5.564-5.564A5.564,5.564,0,0,1,909.811,19.854Z" transform="translate(-391.595 -6.227)" fill="none" stroke="#895cd8" stroke-linecap="round" stroke-linejoin="round" stroke-width="2.126"/>
    <path id="Trazado_780929" data-name="Trazado 780929" d="M901.709,37.8v6.887a.493.493,0,0,0,.807.379l3.068-2.545v0l3.067,2.544a.493.493,0,0,0,.807-.379V37.807" transform="translate(-392.913 -16.473)" fill="none" stroke="#895cd8" stroke-linecap="round" stroke-linejoin="round" stroke-width="2.126"/>
    <rect id="Rectángulo_362295" data-name="Rectángulo 362295" width="9.033" height="19.425" transform="translate(560.62 30.003)" fill="none" stroke="#895cd8" stroke-linecap="round" stroke-linejoin="round" stroke-width="2.126"/>
    <path id="Trazado_780930" data-name="Trazado 780930" d="M1009.563,58.577s9.615-6.411,12.464-6.54,6.151,3.27,6.151,3.27h7.5a2.422,2.422,0,0,1,2.356,1.724c.259.939-.081,2.032-2.477,2.647,0,0-6.087.647-7.446.647" transform="translate(-439.91 -22.673)" fill="none" stroke="#895cd8" stroke-linecap="round" stroke-linejoin="round" stroke-width="2.126"/>
    <path id="Trazado_780931" data-name="Trazado 780931" d="M1038.11,58.271l8.555-5.2s2.04-.9,3.853,1.886l-12.407,9.259-11.21,1.894s-5.707-4.932-9.178-2.379c-3.3,2.428-8.159,5.973-8.159,5.973" transform="translate(-439.91 -23.063)" fill="none" stroke="#895cd8" stroke-linecap="round" stroke-linejoin="round" stroke-width="2.126"/>
    <path id="Trazado_780932" data-name="Trazado 780932" d="M1057.874,23.847a3.68,3.68,0,1,1-3.68-3.68A3.68,3.68,0,0,1,1057.874,23.847Z" transform="translate(-457.754 -8.788)" fill="none" stroke="#895cd8" stroke-linecap="round" stroke-linejoin="round" stroke-width="2.126"/>
    <path id="Trazado_780933" data-name="Trazado 780933" d="M1059.215,14.392h-2.178a10.34,10.34,0,0,0-1.507-3.627l1.542-1.542a.828.828,0,0,0,0-1.171l-1.8-1.8a.828.828,0,0,0-1.171,0L1052.564,7.8a10.341,10.341,0,0,0-3.628-1.5V4.118a.828.828,0,0,0-.828-.828h-2.54a.828.828,0,0,0-.828.828V6.3a10.344,10.344,0,0,0-3.627,1.507l-1.542-1.541a.827.827,0,0,0-1.171,0l-1.8,1.8a.828.828,0,0,0,0,1.171l1.542,1.542a10.34,10.34,0,0,0-1.5,3.628h-2.177a.828.828,0,0,0-.828.828v2.539a.828.828,0,0,0,.828.828h2.178a10.347,10.347,0,0,0,1.507,3.627l-1.542,1.541a.828.828,0,0,0,0,1.171l1.8,1.8a.828.828,0,0,0,1.171,0l1.542-1.542a10.353,10.353,0,0,0,3.628,1.5v2.177a.828.828,0,0,0,.828.828h2.539a.828.828,0,0,0,.828-.828V26.689a10.347,10.347,0,0,0,3.627-1.506l1.541,1.541a.828.828,0,0,0,1.171,0l1.8-1.8a.828.828,0,0,0,0-1.171l-1.542-1.542a10.349,10.349,0,0,0,1.5-3.628h2.177a.828.828,0,0,0,.828-.828V15.22A.828.828,0,0,0,1059.215,14.392Z" transform="translate(-450.401 -1.434)" fill="none" stroke="#895cd8" stroke-linecap="round" stroke-linejoin="round" stroke-width="2.126"/>
  </g>
</svg>
