<svg id="buscar" xmlns="http://www.w3.org/2000/svg" width="108.482" height="108.482" viewBox="0 0 108.482 108.482">
  <g id="Grupo_1054975" data-name="Grupo 1054975" transform="translate(0)">
    <path id="Trazado_781041" data-name="Trazado 781041" d="M0,0H8.772V12.445H0Z" transform="translate(80.099 78.446) rotate(-45)" fill="#ecdaec"/>
    <path id="Trazado_781042" data-name="Trazado 781042" d="M404.106,349.759l-8.8-8.8-3.25,3.25,2.924,6.74,5.876,2.06h3.25Z" transform="translate(-308.987 -268.717)" fill="#ecdaec"/>
    <path id="Trazado_781043" data-name="Trazado 781043" d="M381.073,356.3l-2.953,2.953,8.8,8.8h2.953V365.1Z" transform="translate(-298.004 -280.806)" fill="#e2cbe2"/>
    <path id="Trazado_781044" data-name="Trazado 781044" d="M3.281,106.452H75.54c1.812,0,3.281-1.251,3.281-5.187v-77L58.494,0H3.281A3.281,3.281,0,0,0,0,3.281v97.984c0,3.937,1.469,5.187,3.281,5.187Z" transform="translate(0 0)" fill="#f9f6f6"/>
    <path id="Trazado_781045" data-name="Trazado 781045" d="M276.072,80.451a3.281,3.281,0,0,0,3.281,3.281" transform="translate(-217.578 -63.405)" fill="#e2cbe2"/>
    <g id="Grupo_1054974" data-name="Grupo 1054974" transform="translate(28.913 30.172)">
      <path id="Trazado_781046" data-name="Trazado 781046" d="M174.724,145.684H138.1a1.64,1.64,0,1,1,0-3.281h36.624a1.64,1.64,0,1,1,0,3.281Z" transform="translate(-136.46 -142.403)" fill="#365e7d"/>
      <path id="Trazado_781047" data-name="Trazado 781047" d="M159.145,183.4H138.1a1.64,1.64,0,0,1,0-3.281h21.045a1.64,1.64,0,0,1,0,3.281Z" transform="translate(-136.46 -172.128)" fill="#365e7d"/>
      <path id="Trazado_781048" data-name="Trazado 781048" d="M151.314,254.238H138.1a1.64,1.64,0,0,1,0-3.281h13.213a1.64,1.64,0,1,1,0,3.281Z" transform="translate(-136.46 -227.957)" fill="#365e7d"/>
      <path id="Trazado_781049" data-name="Trazado 781049" d="M151.431,291.953H138.1a1.64,1.64,0,0,1,0-3.281h13.33a1.64,1.64,0,0,1,0,3.281Z" transform="translate(-136.46 -257.681)" fill="#365e7d"/>
      <path id="Trazado_781050" data-name="Trazado 781050" d="M158.684,365H138.1a1.64,1.64,0,0,1,0-3.281h20.583a1.64,1.64,0,0,1,0,3.281Z" transform="translate(-136.46 -315.248)" fill="#365e7d"/>
      <path id="Trazado_781051" data-name="Trazado 781051" d="M174.46,402.712H138.1a1.64,1.64,0,0,1,0-3.281h36.36a1.64,1.64,0,0,1,0,3.281Z" transform="translate(-136.46 -344.972)" fill="#365e7d"/>
    </g>
    <path id="Trazado_781052" data-name="Trazado 781052" d="M195.546,194.973a27.227,27.227,0,0,0,38.5,0,27.9,27.9,0,0,0,7.9-19.569,27.227,27.227,0,0,0-54.311,0A28.42,28.42,0,0,0,195.546,194.973Z" transform="translate(-147.884 -118.333)" fill="#e2cbe2"/>
    <path id="Trazado_781053" data-name="Trazado 781053" d="M223.238,203.351a20.238,20.238,0,0,0,5.674,14.206,19.713,19.713,0,0,0,27.879,0,21,21,0,0,0,5.674-14.206,19.712,19.712,0,0,0-39.227,0Z" transform="translate(-175.938 -146.28)" fill="#ffe27a"/>
    <path id="Trazado_781054" data-name="Trazado 781054" d="M272.791,248.742a21.858,21.858,0,0,1,.424,2.408l4.524,4.4a3.447,3.447,0,0,0,4.871-.065l8.58-8.8a22.76,22.76,0,0,1,.359-2.347,3.44,3.44,0,0,0-5.294-.436l-6.176,6.334-2.056-2a3.425,3.425,0,0,0-5.23.505Z" transform="translate(-214.992 -191.405)" fill="#98db7c"/>
    <path id="Trazado_781055" data-name="Trazado 781055" d="M442.425,395.66a6.118,6.118,0,0,0-1.221-6.908l-9.576-9.576a1.093,1.093,0,0,0-1.547,0l-4.923,4.923-.714,2.85,8.964,9.286C435.28,398.108,439.714,398.5,442.425,395.66Z" transform="translate(-334.513 -298.584)" fill="#ff4755"/>
    <path id="Trazado_781056" data-name="Trazado 781056" d="M428.862,413.951l-10.346-10.346-2.179,2.179a1.093,1.093,0,0,0,0,1.547l9.576,9.576a6.119,6.119,0,0,0,9.87-1.742A6.118,6.118,0,0,1,428.862,413.951Z" transform="translate(-327.871 -318.089)" fill="#fc2b3a"/>
    <path id="Trazado_781057" data-name="Trazado 781057" d="M54.969,151.7h7.176c1.12,0,2.029-1.6,2.029-3.936v-3.24a2.029,2.029,0,0,0-2.029-2.029H54.969a2.029,2.029,0,0,0-2.029,2.029v3.24C52.94,150.2,53.848,151.7,54.969,151.7Z" transform="translate(-41.723 -112.301)" fill="#98db7c"/>
    <path id="Trazado_781058" data-name="Trazado 781058" d="M276.072,80.451v3.937a3.281,3.281,0,0,0,3.281,3.281H296.4V83.732Z" transform="translate(-217.578 -63.405)" fill="#ecdaec"/>
    <path id="Trazado_781059" data-name="Trazado 781059" d="M279.353,20.327H296.4L276.072,0V17.046A3.281,3.281,0,0,0,279.353,20.327Z" transform="translate(-217.578)" fill="#e2cbe2"/>
    <path id="Trazado_781060" data-name="Trazado 781060" d="M288.891,250.272l-8.58,8.8a3.447,3.447,0,0,1-4.871.065l-4.524-4.4a3.458,3.458,0,0,1-.424-.5,3.445,3.445,0,0,0,.424,4.438l4.524,4.4a3.447,3.447,0,0,0,4.871-.065l8.58-8.8a3.447,3.447,0,0,0,.359-4.377A3.45,3.45,0,0,1,288.891,250.272Z" transform="translate(-212.694 -196.898)" fill="#82d361"/>
    <path id="Trazado_781061" data-name="Trazado 781061" d="M62.146,169.386H54.97a2.029,2.029,0,0,1-2.029-2.029v3.937a2.029,2.029,0,0,0,2.029,2.029h7.176a2.029,2.029,0,0,0,2.029-2.029v-3.937A2.029,2.029,0,0,1,62.146,169.386Z" transform="translate(-41.724 -131.897)" fill="#82d361"/>
    <path id="Trazado_781062" data-name="Trazado 781062" d="M54.969,260.25h7.176c1.12,0,2.029-1.6,2.029-3.936v-3.24a2.029,2.029,0,0,0-2.029-2.029H54.969a2.029,2.029,0,0,0-2.029,2.029v3.24C52.94,258.754,53.848,260.25,54.969,260.25Z" transform="translate(-41.723 -197.854)" fill="#98db7c"/>
    <path id="Trazado_781063" data-name="Trazado 781063" d="M62.146,277.94H54.97a2.029,2.029,0,0,1-2.029-2.029v3.937a2.029,2.029,0,0,0,2.029,2.029h7.176a2.029,2.029,0,0,0,2.029-2.029v-3.937A2.029,2.029,0,0,1,62.146,277.94Z" transform="translate(-41.724 -217.451)" fill="#82d361"/>
    <path id="Trazado_781064" data-name="Trazado 781064" d="M54.969,371.009h7.176c1.12,0,2.029-1.6,2.029-3.936v-3.24a2.029,2.029,0,0,0-2.029-2.029H54.969a2.029,2.029,0,0,0-2.029,2.029v3.24C52.94,369.513,53.848,371.009,54.969,371.009Z" transform="translate(-41.723 -285.146)" fill="#98db7c"/>
    <path id="Trazado_781065" data-name="Trazado 781065" d="M62.146,388.7H54.97a2.029,2.029,0,0,1-2.029-2.029v3.937a2.029,2.029,0,0,0,2.029,2.029h7.176a2.029,2.029,0,0,0,2.029-2.029V386.67A2.029,2.029,0,0,1,62.146,388.7Z" transform="translate(-41.724 -304.742)" fill="#82d361"/>
    <path id="Trazado_781066" data-name="Trazado 781066" d="M75.54,481.216H3.281A3.281,3.281,0,0,1,0,477.935v3.937a3.281,3.281,0,0,0,3.281,3.281H75.54a3.281,3.281,0,0,0,3.281-3.281v-3.937A3.281,3.281,0,0,1,75.54,481.216Z" transform="translate(0 -376.67)" fill="#ecdaec"/>
    <path id="Trazado_781067" data-name="Trazado 781067" d="M233.786,286.638a27.227,27.227,0,0,1-46.408-17.284,27.227,27.227,0,1,0,54.311,0A27.121,27.121,0,0,1,233.786,286.638Z" transform="translate(-147.621 -212.283)" fill="#dab9d8"/>
    <path id="Trazado_781068" data-name="Trazado 781068" d="M256.426,281.326a19.712,19.712,0,0,1-33.553-11.971,19.712,19.712,0,1,0,39.227,0,19.63,19.63,0,0,1-5.674,11.971Z" transform="translate(-175.574 -212.284)" fill="#f9cf58"/>
  </g>
</svg>
