<svg xmlns="http://www.w3.org/2000/svg" xmlns:xlink="http://www.w3.org/1999/xlink" width="295" height="281.356" viewBox="0 0 295 281.356">
  <defs>
    <clipPath id="clip-path">
      <rect id="Rectángulo_362499" data-name="Rectángulo 362499" width="295" height="281.356" fill="none"/>
    </clipPath>
    <clipPath id="clip-path-3">
      <rect id="Rectángulo_362490" data-name="Rectángulo 362490" width="24.526" height="14.771" fill="none"/>
    </clipPath>
    <clipPath id="clip-path-4">
      <rect id="Rectángulo_362491" data-name="Rectángulo 362491" width="29.179" height="20.855" fill="none"/>
    </clipPath>
    <clipPath id="clip-path-5">
      <rect id="Rectángulo_362492" data-name="Rectángulo 362492" width="8.197" height="6.694" fill="none"/>
    </clipPath>
    <clipPath id="clip-path-6">
      <rect id="Rectángulo_362494" data-name="Rectángulo 362494" width="7.26" height="56.268" fill="none"/>
    </clipPath>
    <clipPath id="clip-path-7">
      <rect id="Rectángulo_362495" data-name="Rectángulo 362495" width="8.903" height="90.587" fill="none"/>
    </clipPath>
    <clipPath id="clip-path-8">
      <rect id="Rectángulo_362496" data-name="Rectángulo 362496" width="5.797" height="48.05" fill="none"/>
    </clipPath>
    <clipPath id="clip-path-9">
      <rect id="Rectángulo_362497" data-name="Rectángulo 362497" width="9.336" height="104.778" fill="none"/>
    </clipPath>
    <clipPath id="clip-path-10">
      <rect id="Rectángulo_362519" data-name="Rectángulo 362519" width="71.868" height="114.463" fill="none"/>
    </clipPath>
    <clipPath id="clip-path-12">
      <rect id="Rectángulo_362500" data-name="Rectángulo 362500" width="32.196" height="24.035" fill="none"/>
    </clipPath>
    <clipPath id="clip-path-14">
      <rect id="Rectángulo_362517" data-name="Rectángulo 362517" width="38.821" height="63.382" fill="none"/>
    </clipPath>
    <clipPath id="clip-path-15">
      <rect id="Rectángulo_362502" data-name="Rectángulo 362502" width="8.06" height="1.775" fill="none"/>
    </clipPath>
    <clipPath id="clip-path-16">
      <rect id="Rectángulo_362503" data-name="Rectángulo 362503" width="7.769" height="1.828" fill="none"/>
    </clipPath>
    <clipPath id="clip-path-17">
      <rect id="Rectángulo_362504" data-name="Rectángulo 362504" width="7.071" height="2.12" fill="none"/>
    </clipPath>
    <clipPath id="clip-path-18">
      <rect id="Rectángulo_362505" data-name="Rectángulo 362505" width="7.494" height="2.624" fill="none"/>
    </clipPath>
    <clipPath id="clip-path-19">
      <rect id="Rectángulo_362506" data-name="Rectángulo 362506" width="6.08" height="2.191" fill="none"/>
    </clipPath>
    <clipPath id="clip-path-20">
      <rect id="Rectángulo_362507" data-name="Rectángulo 362507" width="7.366" height="2.432" fill="none"/>
    </clipPath>
    <clipPath id="clip-path-21">
      <rect id="Rectángulo_362508" data-name="Rectángulo 362508" width="5.969" height="2.273" fill="none"/>
    </clipPath>
    <clipPath id="clip-path-22">
      <rect id="Rectángulo_362509" data-name="Rectángulo 362509" width="8.45" height="3.204" fill="none"/>
    </clipPath>
    <clipPath id="clip-path-23">
      <rect id="Rectángulo_362510" data-name="Rectángulo 362510" width="7.993" height="3.312" fill="none"/>
    </clipPath>
    <clipPath id="clip-path-24">
      <rect id="Rectángulo_362511" data-name="Rectángulo 362511" width="6.574" height="5.53" fill="none"/>
    </clipPath>
    <clipPath id="clip-path-25">
      <rect id="Rectángulo_362512" data-name="Rectángulo 362512" width="4.882" height="4.205" fill="none"/>
    </clipPath>
    <clipPath id="clip-path-26">
      <rect id="Rectángulo_362513" data-name="Rectángulo 362513" width="4.995" height="4.804" fill="none"/>
    </clipPath>
    <clipPath id="clip-path-27">
      <rect id="Rectángulo_362514" data-name="Rectángulo 362514" width="3.173" height="4.723" fill="none"/>
    </clipPath>
    <clipPath id="clip-path-28">
      <rect id="Rectángulo_362515" data-name="Rectángulo 362515" width="2.292" height="4.935" fill="none"/>
    </clipPath>
    <clipPath id="clip-path-29">
      <rect id="Rectángulo_362516" data-name="Rectángulo 362516" width="2.159" height="5.619" fill="none"/>
    </clipPath>
  </defs>
  <g id="Grupo_1055431" data-name="Grupo 1055431" transform="translate(-180 -30073.391)">
    <g id="BACKGROUND" transform="translate(180 30091.422)">
      <g id="Grupo_32241" data-name="Grupo 32241">
        <path id="Trazado_61861" data-name="Trazado 61861" d="M109.5,116.4c14.58-.5,28.678,4.605,42.624,8.885s28.873,7.8,42.99,4.116c18.98-4.948,32.221-21.588,44.112-37.187s25.341-32.143,44.411-36.735c17.807-4.287,37.019,3.4,49.979,16.34s20.44,30.436,25.108,48.147c11.561,43.869,5.981,94.446-24.058,128.444-24.033,27.2-60.312,40.561-96.146,46.336-25.85,4.166-52.725,4.861-77.861-2.467a127.209,127.209,0,0,1-73.492-57.459C68.391,202.573,50.98,118.418,109.5,116.4Z" transform="translate(-69.318 -34.52)" fill="#673ab7"/>
        <path id="Trazado_61862" data-name="Trazado 61862" d="M192.724,103.183c17.551.325,36.451-6.136,49.579-15.3,7.278-5.08,13.784-11.552,17.668-19.532s4.912-17.59,1.526-25.794c-4.886-11.837-17.739-18.533-30.318-20.926a74.492,74.492,0,0,0-55.84,11.93c-11.274,7.861-23.092,19.05-26.018,33.05-3.153,15.084,9.836,26.656,22.621,32.31A53.821,53.821,0,0,0,192.724,103.183Z" transform="translate(-102.496 -20.373)" fill="#673ab7"/>
      </g>
    </g>
    <g id="Grupo_1055430" data-name="Grupo 1055430">
      <g id="Grupo_1055372" data-name="Grupo 1055372" transform="translate(180 30073.391)">
        <g id="Grupo_1055371" data-name="Grupo 1055371" clip-path="url(#clip-path)">
          <g id="Grupo_1055370" data-name="Grupo 1055370">
            <g id="Grupo_1055369" data-name="Grupo 1055369" clip-path="url(#clip-path)">
              <path id="Trazado_782714" data-name="Trazado 782714" d="M263.9,209.464c.789,7.618,3.415,39.14,2.889,39.14s-63.042,10.244-109.011,0a243.234,243.234,0,0,1,3.678-37.3c2.083-10.941,5.576-21.165,8.392-30.959a136.155,136.155,0,0,0,3.428-14.221c1.763-10.138-1.835-19.9-4.743-29.3-.562-1.8-1.1-3.593-1.56-5.371-2.89-11.034-15.317-25.481-14.529-30.734s11.377-12.608,17.155-15.76c2.535-1.384,18.65-3.678,21.8-8.668,2.283-3.615,4.33-12.3,5.719-16.531.543-1.655,1.9-2.382,3.688-3.15,6-2.568,22.714-2.516,26.844,1.818,1.319,1.384,3.415,15.236,5.779,17.075s18.912,6.3,23.9,9.194,13.841,9.457,14.1,13.134-11.739,23.115-14.1,29.946a87.685,87.685,0,0,0-2.472,10.1c-1.886,9.48-3.589,21.808-3.044,26.153.375,3,2.947,11.7,5.628,20.822v0c2.956,10.058,6.042,20.622,6.454,24.618" transform="translate(16.616 5.983)" fill="#a7c1ce"/>
              <path id="Trazado_782715" data-name="Trazado 782715" d="M221.429,59.409c0,2.176-6.115,3.94-13.66,3.94s-13.659-1.764-13.659-3.94,6.115-3.94,13.659-3.94,13.66,1.764,13.66,3.94" transform="translate(21.162 6.047)" fill="#88acba"/>
              <path id="Trazado_782716" data-name="Trazado 782716" d="M214.805,56.881c-.264-1.313-4.728-3.152-4.728-4.991s4.464-3.415,3.938-7.618-1.313-5.779-3.938-6.568H204.3c-2.627.789-3.415,2.364-3.94,6.568s3.94,5.779,3.94,7.618-4.466,3.678-4.729,4.991a11.428,11.428,0,0,0,0,3.152h.05c.419,1.182,3.648,2.1,7.568,2.1s7.149-.919,7.57-2.1h.049a11.428,11.428,0,0,0,0-3.152" transform="translate(21.745 4.111)" fill="#dae8ef"/>
              <path id="Trazado_782717" data-name="Trazado 782717" d="M207.737,62.576l-1.253,189.692L205.377,62.574Z" transform="translate(22.391 6.822)" fill="#5f8ea3"/>
              <path id="Trazado_782718" data-name="Trazado 782718" d="M140.859,14.69a21.042,21.042,0,0,1-1.667,4.408c-2.561,5.063-7.115,9.641-11.717,10.845a8.319,8.319,0,0,1-4.132.088,7.665,7.665,0,0,1-2.195-.926c-3.895-2.4-6.141-8.192-6.482-13.933a23.046,23.046,0,0,1,.558-6.8c2-8.108,8.274-9.444,15.354-7.7s12.278,5.909,10.281,14.017" transform="translate(12.496 0)" fill="#a87451"/>
              <g id="Grupo_1055350" data-name="Grupo 1055350" transform="translate(127.163 15.173)" opacity="0.46">
                <g id="Grupo_1055349" data-name="Grupo 1055349">
                  <g id="Grupo_1055348" data-name="Grupo 1055348" clip-path="url(#clip-path-3)">
                    <path id="Trazado_782719" data-name="Trazado 782719" d="M139.188,17.608c-2.561,5.063-7.115,9.641-11.718,10.844l-6.326-.837c-3.895-2.4-6.141-8.192-6.482-13.933a17.466,17.466,0,0,0,10.9,5.992c4.072.446,9.187-.673,13.629-2.066" transform="translate(-114.662 -13.681)" fill="#844d28"/>
                  </g>
                </g>
              </g>
              <path id="Trazado_782720" data-name="Trazado 782720" d="M168.011,107.314a17.844,17.844,0,0,0-.4-24.432,11.28,11.28,0,0,0-4.024-17.362,8.479,8.479,0,0,0-5.074-12.891,22.383,22.383,0,0,0,1.008-6.66c0-12.015-9.443-21.756-21.092-21.756a20.484,20.484,0,0,0-7.454,1.4,20.869,20.869,0,0,0-17.031-8.921A21.256,21.256,0,0,0,93.371,33.646,16.238,16.238,0,0,0,75.008,49.731v.063c-.526-.041-1.057-.063-1.595-.063-9.687,0-17.54,6.8-17.54,15.186a13.634,13.634,0,0,0,2.564,7.908,17.847,17.847,0,0,0,5.445,33.091,22.865,22.865,0,0,0,44.709,9.207c.374-.156.744-.323,1.11-.495q-.032.624-.031,1.255a25.152,25.152,0,0,0,47.281,11.952,12.021,12.021,0,0,0,11.059-20.522M116.753,68.8a27.863,27.863,0,0,0-14.591-7.072,16.317,16.317,0,0,0,2.918-3.532A20.546,20.546,0,0,0,121.4,58.8a21.644,21.644,0,0,0,2.489,2.923,20.083,20.083,0,0,0-7.138,7.068m33.888-.756a20.161,20.161,0,0,0-2.288-2.867c.215-.119.429-.241.64-.366a8.527,8.527,0,0,0,2.209,2.681c-.193.179-.382.362-.561.552" transform="translate(5.38 1.82)" fill="#a87451"/>
              <path id="Trazado_782721" data-name="Trazado 782721" d="M66.5,201.827v45.43l86.287-.443-3.393-44.1Z" transform="translate(7.25 22.004)" fill="#4c80bf"/>
              <path id="Trazado_782722" data-name="Trazado 782722" d="M136.185,102.636c8.276,5.06,16.642,14.889,16.592,21.13s8.445,48.759,11.135,53.662,19.7,55.092,22.539,57.384c0,0,6.356,1.413,10.374,2.694a45.891,45.891,0,0,0,10.121,1.67c1.558.126,4.285.375,4.015,1.735s-4.052,3.032-6.259,2.788-5.186-1.517-6.5-.052-8.073,2.092-11.842,2.288-7.4-.967-8.568-.976-4.8-.492-4.8-.492-30.19-59.376-30.3-61.534-11.007-37.089-11.007-37.089Z" transform="translate(14.356 11.19)" fill="#ffc397"/>
              <path id="Trazado_782723" data-name="Trazado 782723" d="M136.706,228.065l-55.9-3.393s-3.956-34.3-4.868-50c-1.17-20.14-13.749-63.5-7.826-67.05,4.309-2.586,17.138-8.978,23.806-12.266,2.494-1.231,4.128-2.027,4.128-2.027L98.7,84.912l.572-1.812,3.008-9.524,6.345-4.789,1.22-2.1,3.332,1.736L128.4,76.364c.382.67-1.452,4.385-3.17,8.5-.1.228-.191.46-.286.691q-.318.777-.619,1.56c-1.405,3.675-2.4,7.3-1.387,9.068,0,0,1.03.363,2.657,1,5.21,2.031,16.532,6.832,19.691,11.345,4.146,5.922-9.962,118.944-8.581,119.537" transform="translate(7.254 7.271)" fill="#ffc397"/>
              <g id="Grupo_1055353" data-name="Grupo 1055353" transform="translate(106.526 73.962)" opacity="0.08">
                <g id="Grupo_1055352" data-name="Grupo 1055352">
                  <g id="Grupo_1055351" data-name="Grupo 1055351" clip-path="url(#clip-path-4)">
                    <path id="Trazado_782724" data-name="Trazado 782724" d="M96.054,83.1a42.819,42.819,0,0,0,25.055,4.016c.2-.52.406-1.042.618-1.56.1-.23.191-.461.286-.69,1.718-4.118,3.552-7.832,3.168-8.5l-15.224-7.936-3.332-1.737-1.219,2.1-6.346,4.789Z" transform="translate(-96.054 -66.691)" fill="#992f1a"/>
                  </g>
                </g>
              </g>
              <path id="Trazado_782725" data-name="Trazado 782725" d="M94.3,51c-.01,4.977-3.471,9.005-7.732,9s-7.707-4.05-7.7-9.027,3.472-9,7.732-9,7.707,4.05,7.7,9.027" transform="translate(8.598 4.576)" fill="#ffcea6"/>
              <path id="Trazado_782726" data-name="Trazado 782726" d="M84.887,44.369A8.262,8.262,0,0,1,88.8,46.707c2.322,2.537,2.386,6.08,2.031,6.2-.26.092-.645-1.692-2.053-2.075a2.06,2.06,0,0,0-1.963,3.554" transform="translate(9.255 4.837)" fill="none" stroke="#e09963" stroke-linecap="round" stroke-miterlimit="10" stroke-width="1.064"/>
              <path id="Trazado_782727" data-name="Trazado 782727" d="M135.2,59.439c-2.723,4.167-2.039,9.433,1.527,11.763s8.665.844,11.387-3.323,2.039-9.433-1.527-11.765-8.665-.843-11.387,3.324" transform="translate(14.558 5.998)" fill="#ffcea6"/>
              <path id="Trazado_782728" data-name="Trazado 782728" d="M145.737,58.575a8.257,8.257,0,0,0-4.556-.194c-3.335.847-5.33,3.774-5.1,4.072.167.22,1.469-1.061,2.856-.609a2.06,2.06,0,0,1-.309,4.049" transform="translate(14.834 6.339)" fill="none" stroke="#e09963" stroke-linecap="round" stroke-miterlimit="10" stroke-width="1.064"/>
              <path id="Trazado_782729" data-name="Trazado 782729" d="M129.576,84.57a18.343,18.343,0,0,1-2.03,1c-4.482,1.893-10.212,2.315-17.484.714-10-2.2-15.838-6.934-18.616-13.019a21.208,21.208,0,0,1-1.374-4.095,24.273,24.273,0,0,1-.548-3.656,29.444,29.444,0,0,1-.057-3.506,38.072,38.072,0,0,1,.883-6.555,62.354,62.354,0,0,1,4.273-13.3c4.153-8.738,11.383-15.568,25.112-13.66q.882.121,1.8.293.556.1,1.126.227c14.022,3.01,18.82,11.862,19.649,21.507a54.561,54.561,0,0,1-1.418,16.053c-1.731,7.873-5.176,14.489-11.316,18" transform="translate(9.751 3.071)" fill="#ffcea6"/>
              <g id="Grupo_1055356" data-name="Grupo 1055356" transform="translate(118.691 68.488)" opacity="0.49">
                <g id="Grupo_1055355" data-name="Grupo 1055355">
                  <g id="Grupo_1055354" data-name="Grupo 1055354" clip-path="url(#clip-path-5)">
                    <path id="Trazado_782730" data-name="Trazado 782730" d="M107.034,62.422c0,1.615-.295,4.963,2.209,5.847,2.208.78,5.977-1.113,5.977-2.728s-1.819-.65-4.028-1.819c-2.347-1.243-4.158-2.915-4.158-1.3" transform="translate(-107.023 -61.755)" fill="#f4a582"/>
                  </g>
                </g>
              </g>
              <path id="Trazado_782731" data-name="Trazado 782731" d="M115.095,51.489s1.023,7.121-.454,8.985-4.357.321-4.357.321" transform="translate(12.023 5.613)" fill="none" stroke="#e09963" stroke-linecap="round" stroke-miterlimit="10" stroke-width="1.064"/>
              <path id="Trazado_782732" data-name="Trazado 782732" d="M115.946,65c-.23.142-.456.275-.688.391a6.861,6.861,0,0,1-.7.3,5.023,5.023,0,0,1-.713.209,6.7,6.7,0,0,1-.714.128,6.035,6.035,0,0,1-1.416-.03c-.115-.023-.231-.042-.346-.061s-.225-.06-.338-.089a2.7,2.7,0,0,1-.333-.106,2.4,2.4,0,0,1-.324-.128,4.971,4.971,0,0,1-1.2-.714,6.145,6.145,0,0,1-.527-.467,6.4,6.4,0,0,1-.457-.546,6.191,6.191,0,0,1-1.145-2.761,4.34,4.34,0,0,0,.354,3.246l.1.191.051.1.059.091.245.357a5.2,5.2,0,0,0,.589.641,2.607,2.607,0,0,0,.333.283c.118.085.231.18.354.257l.378.222c.128.07.263.125.395.189a5.114,5.114,0,0,0,3.407.236c.138-.04.271-.092.4-.139a2.715,2.715,0,0,0,.39-.17c.126-.065.255-.119.375-.2s.237-.149.349-.232a4.27,4.27,0,0,0,.622-.55c.092-.1.182-.2.264-.312a3.99,3.99,0,0,0,.226-.338" transform="translate(11.652 6.664)" fill="#e09963"/>
              <path id="Trazado_782733" data-name="Trazado 782733" d="M107.814,52.337c-.215,1.346-1.007,2.339-1.77,2.217s-1.208-1.311-.993-2.657,1.007-2.34,1.77-2.218,1.208,1.312.993,2.658" transform="translate(11.447 5.415)" fill="#0f0300"/>
              <path id="Trazado_782734" data-name="Trazado 782734" d="M122.675,56.249c-.492,1.272-1.475,2.076-2.2,1.8s-.9-1.536-.414-2.807,1.475-2.076,2.2-1.8.9,1.535.414,2.807" transform="translate(13.06 5.82)" fill="#0f0300"/>
              <rect id="Rectángulo_362493" data-name="Rectángulo 362493" width="295" height="28.025" transform="translate(0 253.331)" fill="#ccdfea"/>
              <path id="Trazado_782735" data-name="Trazado 782735" d="M99,43.968s2.469-5.847,10.134-4.678" transform="translate(10.793 4.267)" fill="none" stroke="#541e09" stroke-linecap="round" stroke-miterlimit="10" stroke-width="1.064"/>
              <path id="Trazado_782736" data-name="Trazado 782736" d="M132.341,50.507s.228-6.342-7.214-8.517" transform="translate(13.642 4.578)" fill="none" stroke="#541e09" stroke-linecap="round" stroke-miterlimit="10" stroke-width="1.064"/>
              <path id="Trazado_782737" data-name="Trazado 782737" d="M76.917,102.609c-8.26,2.8-14.16,12.537-15.3,20.128-.927,6.173-8.445,48.759-11.135,53.661s-19.7,55.093-22.539,57.385c0,0-6.356,1.413-10.373,2.694a45.977,45.977,0,0,1-10.122,1.67c-1.558.125-4.284.375-4.014,1.735s4.052,3.032,6.259,2.787,5.185-1.517,6.5-.052,8.073,2.092,11.843,2.289,7.4-.967,8.567-.977,4.8-.492,4.8-.492,30.189-59.376,30.3-61.533,11.008-37.089,11.008-37.089Z" transform="translate(0.373 11.187)" fill="#ffc397"/>
              <path id="Trazado_782738" data-name="Trazado 782738" d="M158.846,255.074h98.428l-3.487-14.012-93.663,1.475Z" transform="translate(17.318 26.281)" fill="#9ec4d8"/>
              <path id="Trazado_782739" data-name="Trazado 782739" d="M103.341,235.609l25.41,20.06h83.3c-16.473-8.2-40.5-20.26-41.891-20.06-2.065.295-66.817,0-66.817,0" transform="translate(11.267 25.687)" fill="#fff"/>
              <path id="Trazado_782740" data-name="Trazado 782740" d="M41.23,172.742l29.795,18s8.6-18.881,7.08-25.96-9.742-60.109-9.742-60.109a24.144,24.144,0,0,0-14.891,15.564c-3.982,12.39-12.243,52.51-12.243,52.51" transform="translate(4.495 11.411)" fill="#f9cdd2"/>
              <path id="Trazado_782741" data-name="Trazado 782741" d="M172.489,175.191l-28.91,16.815-8.85-36.432c1.519-7.079,10.178-46.315,10.178-46.315s9.882,9.293,13.865,21.682,13.717,44.25,13.717,44.25" transform="translate(14.689 11.912)" fill="#f9cdd2"/>
              <path id="Trazado_782742" data-name="Trazado 782742" d="M148.234,214.627l-6.009-.068-1.513-.018-3.068-.034-1.512-.018-51.2-.581-1.444-.016-3.13-.035-1.444-.017-8.71-.1s-1.006-26.183-1.918-41.89c-1.17-20.14-9.9-61.642-3.982-65.195,3.088-1.852,12.739-6.611,20.417-10.37.452-.223.9-.441,1.337-.655l3.355-1.64,1.334-.653,1.631-.8c.393,3.649,9.833,11.761,19.42,10.286,11.394-1.752,14.26-8.457,14.26-8.457.866.337,2.117.85,3.618,1.5.51.223,1.05.462,1.614.719.948.43,1.964.9,3.02,1.417q.807.393,1.638.812c7.241,3.648,15.686,8.843,17.741,13.888,2.727,6.7-6.839,101.329-5.457,101.922" transform="translate(6.788 10.089)" fill="#f9cdd2"/>
              <path id="Trazado_782743" data-name="Trazado 782743" d="M140.721,189.9l-.073-46.469,1.179.013Z" transform="translate(15.334 15.638)" fill="#e87c91"/>
              <path id="Trazado_782744" data-name="Trazado 782744" d="M69.131,191.494l-3.155-46.658,1.178-.064Z" transform="translate(7.193 15.783)" fill="#e87c91"/>
              <path id="Trazado_782745" data-name="Trazado 782745" d="M143.231,39.552a6.154,6.154,0,0,0-3.554,1.1,8.274,8.274,0,0,0,1.489-4.792c0-4.236-3.038-7.67-6.785-7.67a6.486,6.486,0,0,0-5.186,2.726c-2.69-6.868-11.608-11.191-21.508-9.947-11.216,1.41-19.443,9.433-18.377,17.92s11.025,14.223,22.24,12.814c8.211-1.033,14.82-5.609,17.353-11.316a6.565,6.565,0,0,0,5.477,3.144,6.229,6.229,0,0,0,3.828-1.337,4.73,4.73,0,0,0-.731,2.517c0,2.851,2.575,5.162,5.753,5.162s5.752-2.311,5.752-5.162-2.575-5.162-5.752-5.162" transform="translate(9.727 2.263)" fill="#a87451"/>
              <path id="Trazado_782746" data-name="Trazado 782746" d="M89.7,37.111c1.067,8.486,11.025,14.223,22.24,12.814,8.211-1.033,14.82-5.609,17.353-11.318a6.564,6.564,0,0,0,5.477,3.145,6.223,6.223,0,0,0,3.828-1.339,4.737,4.737,0,0,0-.731,2.519c0,2.851,2.575,5.162,5.753,5.162a6.115,6.115,0,0,0,3.834-1.314" transform="translate(9.779 4.046)" fill="none" stroke="#844d28" stroke-miterlimit="10" stroke-width="1.064"/>
              <path id="Trazado_782747" data-name="Trazado 782747" d="M71.427,103.678a19.579,19.579,0,0,1-5.457-12.832c-.039-1.664-.2-8.645,4.277-12.242a42.6,42.6,0,0,1,5.9-3.835,18.294,18.294,0,0,1-3.1-4.278c-1.543-3.05-1.184-7.89,1.77-10.178a6.992,6.992,0,0,1,4.72-1.327" transform="translate(7.191 6.43)" fill="none" stroke="#844d28" stroke-miterlimit="10" stroke-width="1.064"/>
              <path id="Trazado_782748" data-name="Trazado 782748" d="M142.868,76.142s8.113,1.623,6.49,8.7c-1.334,5.822-8.113,5.015-8.113,5.015s9,1.327,10.03,7.375a12.422,12.422,0,0,1-5.015,12.685" transform="translate(15.399 8.301)" fill="none" stroke="#844d28" stroke-linecap="round" stroke-miterlimit="10" stroke-width="1.064"/>
              <path id="Trazado_782749" data-name="Trazado 782749" d="M69.426,101.387l9.735,82.3,12.685-1.77-11.21-85.7Z" transform="translate(7.569 10.491)" fill="#4c80bf"/>
              <path id="Trazado_782750" data-name="Trazado 782750" d="M145.058,106.659l-12.242,78.617-11.653-2.95,6.074-38.425,3.431-21.7,3.622-22.916Z" transform="translate(13.21 10.824)" fill="#4c80bf"/>
              <path id="Trazado_782751" data-name="Trazado 782751" d="M141.28,152.257v79.65l-58.817-.139-3.723-.009-.416-9.083-.653-14.241-3.029-66.049,7.5,1.11,4.546.674,46.272,6.853,4.615.684Z" transform="translate(8.138 15.523)" fill="#4c80bf"/>
              <path id="Trazado_782752" data-name="Trazado 782752" d="M85.785,153.947l45.873,4.72.885,50.593s-46.61.442-46.61-1.328S85.785,153.947,85.785,153.947Z" transform="translate(9.353 16.784)" fill="none" stroke="#7aacdd" stroke-miterlimit="10" stroke-width="1.064"/>
              <g id="Grupo_1055359" data-name="Grupo 1055359" transform="translate(90.279 103.426)" opacity="0.55">
                <g id="Grupo_1055358" data-name="Grupo 1055358">
                  <g id="Grupo_1055357" data-name="Grupo 1055357" clip-path="url(#clip-path-6)">
                    <path id="Trazado_782753" data-name="Trazado 782753" d="M88.664,93.259,85.95,149.527l-4.546-.674,2.571-53.3c1.194-.584,2.325-1.136,3.354-1.64l1.335-.653" transform="translate(-81.404 -93.259)" fill="#e87c91"/>
                  </g>
                </g>
              </g>
              <g id="Grupo_1055362" data-name="Grupo 1055362" transform="translate(85.922 159.021)" opacity="0.97">
                <g id="Grupo_1055361" data-name="Grupo 1055361">
                  <g id="Grupo_1055360" data-name="Grupo 1055360" clip-path="url(#clip-path-7)">
                    <path id="Trazado_782754" data-name="Trazado 782754" d="M86.378,144.062l-3.071,63.659-.031.643v.026l-1.121,23.27-.112,2.316-4.567-.23.54-11.178.685-14.227,0-.028.031-.644,3.1-64.281Z" transform="translate(-77.475 -143.388)" fill="#155c96"/>
                  </g>
                </g>
              </g>
              <g id="Grupo_1055365" data-name="Grupo 1055365" transform="translate(138.081 106.676)" opacity="0.55">
                <g id="Grupo_1055364" data-name="Grupo 1055364">
                  <g id="Grupo_1055363" data-name="Grupo 1055363" clip-path="url(#clip-path-8)">
                    <path id="Trazado_782755" data-name="Trazado 782755" d="M130.3,122.537l-3.431,21.7c-.784-14.43-1.4-26.324-1.827-35.471-.234-5-.415-9.214-.539-12.579.948.431,1.965.9,3.02,1.417q.807.393,1.637.812c.253,6.2.648,14.5,1.14,24.119" transform="translate(-124.507 -96.189)" fill="#e87c91"/>
                  </g>
                </g>
              </g>
              <g id="Grupo_1055368" data-name="Grupo 1055368" transform="translate(140.447 133.024)" opacity="0.97">
                <g id="Grupo_1055367" data-name="Grupo 1055367">
                  <g id="Grupo_1055366" data-name="Grupo 1055366" clip-path="url(#clip-path-9)">
                    <path id="Trazado_782756" data-name="Trazado 782756" d="M135.611,218.353q-.2-3.337-.4-6.782l0-.013c-.01-.205-.023-.41-.036-.616-1.072-18.1-2.227-38.1-3.265-56.787-.682-12.282-1.312-23.993-1.833-34.208l-3.431,21.7q.308,5.653.65,11.822c.022.388.043.777.065,1.168,1.188,21.346,2.441,42.8,3.235,56.251.011.21.024.415.037.62v.01c.477,8.055.777,13.074.784,13.206l4.2-.266.365-.023q-.183-2.988-.365-6.083" transform="translate(-126.64 -119.947)" fill="#155c96"/>
                  </g>
                </g>
              </g>
              <path id="Trazado_782757" data-name="Trazado 782757" d="M87.9,93.848l-5.926,119.9-1.265,25.627-4.566-.224L77.4,213.7,83.21,96.143,87.9,93.848" transform="translate(8.302 10.232)" fill="#ffda3e"/>
              <path id="Trazado_782758" data-name="Trazado 782758" d="M134.891,227.386l-4.564.282c-.008-.131-.325-5.283-.822-13.5-.793-13.125-2.047-34.071-3.235-54.909-1.136-19.908-1.991-35.824-2.541-47.3-.327-6.826-.55-12.144-.661-15.8-.006-.206-.012-.408-.018-.6,1.372.6,2.951,1.319,4.635,2.135.693,19.594,3.792,73.578,6.4,116.537.274,4.531.545,8.94.805,13.172" transform="translate(13.415 10.416)" fill="#ffda3e"/>
            </g>
          </g>
        </g>
      </g>
      <g id="Grupo_1055429" data-name="Grupo 1055429" transform="translate(371.513 30178.266)">
        <g id="Grupo_1055428" data-name="Grupo 1055428" clip-path="url(#clip-path-10)">
          <path id="Trazado_782759" data-name="Trazado 782759" d="M61.647,136.1v3.029l-.005,16.4-.015,35.7,22.364-15.56,21.232,11.059L93.839,150.217,89.2,135.348l-.356-1.141-.18-.586Z" transform="translate(-35.404 -76.762)" fill="#bc4040"/>
          <g id="Grupo_1055377" data-name="Grupo 1055377">
            <g id="Grupo_1055376" data-name="Grupo 1055376" clip-path="url(#clip-path-10)">
              <g id="Grupo_1055375" data-name="Grupo 1055375" transform="translate(26.239 57.444)" opacity="0.5">
                <g id="Grupo_1055374" data-name="Grupo 1055374">
                  <g id="Grupo_1055373" data-name="Grupo 1055373" clip-path="url(#clip-path-12)">
                    <path id="Trazado_782760" data-name="Trazado 782760" d="M93.86,151.008c-.22.205-.44.406-.666.6-12.771,11.23-26.359,7-31.531,4.716l.005-16.4L88.863,135l.356,1.142Z" transform="translate(-61.663 -134.997)" fill="#8c1f1f"/>
                  </g>
                </g>
              </g>
            </g>
          </g>
          <path id="Trazado_782761" data-name="Trazado 782761" d="M141.148,189.056,129.1,153.145l-4.936-14.7.961-.761,4.641,14.869Z" transform="translate(-71.328 -79.094)" fill="#d87171"/>
          <g id="Grupo_1055427" data-name="Grupo 1055427">
            <g id="Grupo_1055426" data-name="Grupo 1055426" clip-path="url(#clip-path-10)">
              <path id="Trazado_782762" data-name="Trazado 782762" d="M68.393,36.971A34.194,34.194,0,0,1,38.209,70.93c-.506.06-1.016.11-1.527.145-.821.06-1.647.09-2.483.09-.666,0-1.322-.02-1.977-.06-.511-.025-1.022-.065-1.532-.115a34.08,34.08,0,0,1-3.88-.626q-.744-.165-1.472-.36c-1.016-.271-2.008-.586-2.984-.951-.521-.185-1.031-.391-1.537-.606a33.922,33.922,0,0,1-3.885-1.957c-.446-.26-.881-.531-1.312-.806a34.238,34.238,0,0,1-4.576-3.555c-.371-.335-.736-.681-1.086-1.041a34.138,34.138,0,0,1-5.528-7.279c-.255-.44-.5-.891-.731-1.347a34.391,34.391,0,0,1-2.083-5.076c-.155-.476-.3-.956-.426-1.442a34.257,34.257,0,0,1-1-5.3c-.055-.5-.1-1-.125-1.5C.025,38.428,0,37.7,0,36.971c0-.371.005-.736.02-1.1.015-.511.04-1.017.08-1.517a34.331,34.331,0,0,1,.561-4.1c.1-.506.21-1.006.335-1.5a32.644,32.644,0,0,1,1.3-4.12c.186-.491.391-.976.606-1.457a32.871,32.871,0,0,1,2.333-4.391c.29-.466.6-.921.911-1.372a34.436,34.436,0,0,1,2.638-3.319c.386-.426.776-.841,1.187-1.247A33.222,33.222,0,0,1,14.7,8.88c.576-.406,1.166-.786,1.767-1.157A34.2,34.2,0,0,1,68.393,36.971" transform="translate(0 -1.595)" fill="#e59351"/>
              <g id="Grupo_1055425" data-name="Grupo 1055425" transform="translate(0.02 6.128)" style="mix-blend-mode: multiply;isolation: isolate">
                <g id="Grupo_1055424" data-name="Grupo 1055424">
                  <g id="Grupo_1055423" data-name="Grupo 1055423" clip-path="url(#clip-path-14)">
                    <g id="Grupo_1055380" data-name="Grupo 1055380" transform="translate(0.641 20.754)" opacity="0.64">
                      <g id="Grupo_1055379" data-name="Grupo 1055379">
                        <g id="Grupo_1055378" data-name="Grupo 1055378" clip-path="url(#clip-path-15)">
                          <path id="Trazado_782763" data-name="Trazado 782763" d="M8.892,64.679q-3.672.255-7.339.27c.1-.506.21-1.006.335-1.5,2.333-.02,4.671-.105,7-.271.966-.07.956,1.432,0,1.5" transform="translate(-1.553 -63.175)" fill="#eda71b"/>
                        </g>
                      </g>
                    </g>
                    <g id="Grupo_1055383" data-name="Grupo 1055383" transform="translate(2.278 15.45)" opacity="0.64">
                      <g id="Grupo_1055382" data-name="Grupo 1055382">
                        <g id="Grupo_1055381" data-name="Grupo 1055381" clip-path="url(#clip-path-16)">
                          <path id="Trazado_782764" data-name="Trazado 782764" d="M12.444,52.537q-3.53-.12-7.044-.371c.185-.491.391-.976.606-1.457q3.214.218,6.438.325c.966.03.966,1.532,0,1.5" transform="translate(-5.4 -50.71)" fill="#eda71b"/>
                        </g>
                      </g>
                    </g>
                    <g id="Grupo_1055386" data-name="Grupo 1055386" transform="translate(5.217 9.687)" opacity="0.64">
                      <g id="Grupo_1055385" data-name="Grupo 1055385">
                        <g id="Grupo_1055384" data-name="Grupo 1055384" clip-path="url(#clip-path-17)">
                          <path id="Trazado_782765" data-name="Trazado 782765" d="M18.654,39.285q-3.191-.24-6.348-.746c.291-.466.6-.921.911-1.372,1.8.275,3.614.476,5.437.616.961.07.966,1.572,0,1.5" transform="translate(-12.306 -37.167)" fill="#eda71b"/>
                        </g>
                      </g>
                    </g>
                    <g id="Grupo_1055389" data-name="Grupo 1055389" transform="translate(8.766 5.122)" opacity="0.64">
                      <g id="Grupo_1055388" data-name="Grupo 1055388">
                        <g id="Grupo_1055387" data-name="Grupo 1055387" clip-path="url(#clip-path-18)">
                          <path id="Trazado_782766" data-name="Trazado 782766" d="M27.2,29.051a64.725,64.725,0,0,1-6.548-1.367c.386-.426.776-.841,1.186-1.246q2.854.713,5.762,1.166c.956.145.546,1.592-.4,1.447" transform="translate(-20.649 -26.438)" fill="#eda71b"/>
                        </g>
                      </g>
                    </g>
                    <g id="Grupo_1055392" data-name="Grupo 1055392" transform="translate(14.684)" opacity="0.64">
                      <g id="Grupo_1055391" data-name="Grupo 1055391">
                        <g id="Grupo_1055390" data-name="Grupo 1055390" clip-path="url(#clip-path-19)">
                          <path id="Trazado_782767" data-name="Trazado 782767" d="M39.691,16.579q-2.575-.458-5.136-1.021c.576-.406,1.166-.786,1.767-1.157q1.877.391,3.77.726c.951.17.546,1.617-.4,1.452" transform="translate(-34.555 -14.401)" fill="#eda71b"/>
                        </g>
                      </g>
                    </g>
                    <g id="Grupo_1055395" data-name="Grupo 1055395" transform="translate(0 25.714)" opacity="0.64">
                      <g id="Grupo_1055394" data-name="Grupo 1055394">
                        <g id="Grupo_1055393" data-name="Grupo 1055393" clip-path="url(#clip-path-20)">
                          <path id="Trazado_782768" data-name="Trazado 782768" d="M6.871,76.287l-6.824.976c.015-.511.04-1.016.08-1.517,2.118-.305,4.231-.6,6.343-.906.946-.135,1.352,1.311.4,1.447" transform="translate(-0.047 -74.831)" fill="#eda71b"/>
                        </g>
                      </g>
                    </g>
                    <g id="Grupo_1055398" data-name="Grupo 1055398" transform="translate(0.05 30.649)" opacity="0.64">
                      <g id="Grupo_1055397" data-name="Grupo 1055397">
                        <g id="Grupo_1055396" data-name="Grupo 1055396" clip-path="url(#clip-path-21)">
                          <path id="Trazado_782769" data-name="Trazado 782769" d="M5.591,87.886q-2.651.405-5.3.816c-.055-.5-.095-1-.125-1.5l5.027-.766c.946-.145,1.352,1.3.4,1.447" transform="translate(-0.164 -86.429)" fill="#eda71b"/>
                        </g>
                      </g>
                    </g>
                    <g id="Grupo_1055401" data-name="Grupo 1055401" transform="translate(1.172 36.457)" opacity="0.64">
                      <g id="Grupo_1055400" data-name="Grupo 1055400">
                        <g id="Grupo_1055399" data-name="Grupo 1055399" clip-path="url(#clip-path-22)">
                          <path id="Trazado_782770" data-name="Trazado 782770" d="M10.711,101.544q-3.755.819-7.484,1.737c-.155-.476-.3-.957-.426-1.442q3.74-.924,7.51-1.742c.946-.206,1.347,1.242.4,1.447" transform="translate(-2.801 -100.077)" fill="#eda71b"/>
                        </g>
                      </g>
                    </g>
                    <g id="Grupo_1055404" data-name="Grupo 1055404" transform="translate(3.68 42.773)" opacity="0.64">
                      <g id="Grupo_1055403" data-name="Grupo 1055403">
                        <g id="Grupo_1055402" data-name="Grupo 1055402" clip-path="url(#clip-path-23)">
                          <path id="Trazado_782771" data-name="Trazado 782771" d="M16.149,116.388q-3.4.8-6.724,1.843c-.255-.441-.5-.891-.731-1.347q3.484-1.119,7.054-1.943c.946-.22,1.342,1.231.4,1.447" transform="translate(-8.694 -114.919)" fill="#eda71b"/>
                        </g>
                      </g>
                    </g>
                    <g id="Grupo_1055407" data-name="Grupo 1055407" transform="translate(9.938 48.875)" opacity="0.64">
                      <g id="Grupo_1055406" data-name="Grupo 1055406">
                        <g id="Grupo_1055405" data-name="Grupo 1055405" clip-path="url(#clip-path-24)">
                          <path id="Trazado_782772" data-name="Trazado 782772" d="M29.72,130.5q-2.614,2.14-5.232,4.285c-.371-.335-.736-.681-1.086-1.041q2.628-2.155,5.256-4.305c.741-.611,1.812.451,1.062,1.061" transform="translate(-23.402 -129.26)" fill="#eda71b"/>
                        </g>
                      </g>
                    </g>
                    <g id="Grupo_1055410" data-name="Grupo 1055410" transform="translate(15.6 54.561)" opacity="0.64">
                      <g id="Grupo_1055409" data-name="Grupo 1055409">
                        <g id="Grupo_1055408" data-name="Grupo 1055408" clip-path="url(#clip-path-25)">
                          <path id="Trazado_782773" data-name="Trazado 782773" d="M41.265,144.059a26.343,26.343,0,0,0-3.244,2.768c-.446-.26-.881-.531-1.311-.806a29.6,29.6,0,0,1,3.795-3.259c.786-.566,1.537.736.761,1.3" transform="translate(-36.709 -142.623)" fill="#eda71b"/>
                        </g>
                      </g>
                    </g>
                    <g id="Grupo_1055413" data-name="Grupo 1055413" transform="translate(20.797 56.525)" opacity="0.64">
                      <g id="Grupo_1055412" data-name="Grupo 1055412">
                        <g id="Grupo_1055411" data-name="Grupo 1055411" clip-path="url(#clip-path-26)">
                          <path id="Trazado_782774" data-name="Trazado 782774" d="M53.727,148.548q-1.554,1.832-3.269,3.494c-.52-.185-1.031-.39-1.537-.605a49.024,49.024,0,0,0,3.745-3.95c.626-.736,1.682.33,1.061,1.061" transform="translate(-48.921 -147.239)" fill="#eda71b"/>
                        </g>
                      </g>
                    </g>
                    <g id="Grupo_1055416" data-name="Grupo 1055416" transform="translate(25.318 57.918)" opacity="0.64">
                      <g id="Grupo_1055415" data-name="Grupo 1055415">
                        <g id="Grupo_1055414" data-name="Grupo 1055414" clip-path="url(#clip-path-27)">
                          <path id="Trazado_782775" data-name="Trazado 782775" d="M62.659,151.409c-.526,1.287-1.071,2.558-1.642,3.825q-.744-.165-1.472-.36.864-1.915,1.667-3.865c.36-.881,1.812-.5,1.447.4" transform="translate(-59.545 -150.511)" fill="#eda71b"/>
                        </g>
                      </g>
                    </g>
                    <g id="Grupo_1055419" data-name="Grupo 1055419" transform="translate(30.67 58.447)" opacity="0.64">
                      <g id="Grupo_1055418" data-name="Grupo 1055418">
                        <g id="Grupo_1055417" data-name="Grupo 1055417" clip-path="url(#clip-path-28)">
                          <path id="Trazado_782776" data-name="Trazado 782776" d="M74.41,152.474a23,23,0,0,1-.716,4.08c-.015.045-.025.09-.04.135-.511-.025-1.021-.065-1.532-.115a21.015,21.015,0,0,0,.786-4.1c.085-.956,1.592-.961,1.5,0" transform="translate(-72.122 -151.755)" fill="#eda71b"/>
                        </g>
                      </g>
                    </g>
                    <g id="Grupo_1055422" data-name="Grupo 1055422" transform="translate(36.662 57.733)" opacity="0.64">
                      <g id="Grupo_1055421" data-name="Grupo 1055421">
                        <g id="Grupo_1055420" data-name="Grupo 1055420" clip-path="url(#clip-path-29)">
                          <path id="Trazado_782777" data-name="Trazado 782777" d="M88.359,150.795c-.18,1.587-.386,3.174-.626,4.756-.506.06-1.016.11-1.527.145q.375-2.44.651-4.9c.105-.951,1.612-.961,1.5,0" transform="translate(-86.206 -150.077)" fill="#eda71b"/>
                        </g>
                      </g>
                    </g>
                  </g>
                </g>
              </g>
              <path id="Trazado_782778" data-name="Trazado 782778" d="M76.565,34.194A34.194,34.194,0,1,1,42.371,0q1.622,0,3.2.15A34.2,34.2,0,0,1,76.565,34.194" transform="translate(-4.698)" fill="#ffca45"/>
              <circle id="Elipse_4948" data-name="Elipse 4948" cx="27.73" cy="27.73" r="27.73" transform="translate(9.943 6.465)" fill="none" stroke="#e59351" stroke-miterlimit="10" stroke-width="1"/>
              <path id="Trazado_782779" data-name="Trazado 782779" d="M83.886,63.261,72.323,66.14,68.14,77.3l-6.31-10.107-11.9-.531,7.662-9.125L54.415,46.048l11.046,4.468L75.4,43.949l-.835,11.886Z" transform="translate(-28.681 -25.248)" fill="#e59351"/>
              <path id="Trazado_782780" data-name="Trazado 782780" d="M118.568,56.931c9.607-13.062,9.032-32.327-2.008-44.312C111.1,6.692,103.774,2.676,96.054.353a34.189,34.189,0,0,1,22.514,56.578" transform="translate(-55.181 -0.203)" fill="#ffefae"/>
            </g>
          </g>
        </g>
      </g>
    </g>
  </g>
</svg>
